<?xml version="1.0" standalone="no"?>
<!DOCTYPE svg PUBLIC "-//W3C//DTD SVG 1.1//EN" "http://www.w3.org/Graphics/SVG/1.1/DTD/svg11.dtd">
<svg width="100%" height="100%" viewBox="0 0 224 311" version="1.1" xmlns="http://www.w3.org/2000/svg" xmlns:xlink="http://www.w3.org/1999/xlink" xml:space="preserve" style="fill-rule:evenodd;clip-rule:evenodd;stroke-linejoin:round;stroke-miterlimit:1.41421;">
    <g transform="matrix(1,0,0,1,-405.735,-314.966)">
        <path d="M490.923,496.346C490.923,496.346 429.635,503.254 409.843,459.987C390.05,416.72 446.664,378.338 475.45,408.084C504.236,437.83 499.678,488.652 490.923,496.346" style="fill:rgb(255,241,104);"/>
        <path d="M520.166,469.672C520.166,469.672 469.853,453.455 464.864,391.5C464.864,391.5 459.874,319.15 531.393,317.071C531.393,317.071 580.457,318.318 583.783,384.016C583.783,384.016 586.59,404.078 549.168,451.168C549.168,451.168 528.586,471.647 520.166,469.672" style="fill:rgb(255,137,137);"/>
        <path d="M545.777,531.702C545.777,531.702 520.548,475.253 563.728,440.709C606.908,406.165 626.099,469.496 626.099,469.496C626.099,469.496 636.457,538.927 543.48,532.517" style="fill:rgb(120,214,255);"/>
        <path d="M545.053,533.225C545.061,533.582 545.086,533.943 545.23,534.279C545.295,534.442 545.371,534.619 545.462,534.786C545.508,534.866 545.545,534.98 545.586,535.08C545.627,535.184 545.676,535.286 545.686,535.422C545.703,535.552 545.722,535.69 545.727,535.829L545.664,536.215C545.642,536.348 545.61,536.489 545.562,536.579L545.426,536.894C545.235,537.336 544.983,537.589 544.736,537.93L544.713,537.961L544.614,538.037C544.537,538.096 544.407,538.175 544.358,538.198C544.299,538.227 544.223,538.26 544.182,538.274C544.077,538.314 543.998,538.337 543.916,538.361C543.764,538.403 543.63,538.436 543.5,538.457L543.137,538.518L542.989,538.537C542.98,538.537 542.941,538.543 542.961,538.538L543.022,538.519C543.055,538.507 543.088,538.494 543.119,538.477L543.188,538.44C543.277,538.388 543.373,538.313 543.457,538.213C543.633,538.014 543.711,537.728 543.703,537.537L543.542,536.969C543.604,537.08 543.658,537.197 543.707,537.314C543.753,537.451 543.789,537.605 543.813,537.758C543.843,538.105 543.795,538.621 543.368,539.005C543.183,539.179 542.969,539.269 542.759,539.329C542.657,539.351 542.549,539.364 542.443,539.369C542.332,539.374 542.22,539.369 542.215,539.362L541.951,539.313L541.699,539.243C541.364,539.148 541.016,538.99 540.707,538.754C540.388,538.535 540.143,538.19 539.991,537.849C539.688,537.138 539.789,536.463 539.907,535.894C540.028,535.315 540.211,534.79 540.384,534.252L540.664,533.426C540.799,533.143 540.844,532.854 541.28,532.503C541.348,532.458 541.453,532.414 541.547,532.384C541.672,532.357 541.845,532.351 541.989,532.394C542.139,532.444 542.306,532.54 542.389,532.645C542.479,532.729 542.591,532.948 542.582,532.928L542.636,533.015C542.611,532.928 542.673,533.137 542.667,533.116L542.668,533.118L542.671,533.121L542.686,533.139L542.706,533.164L542.778,533.258C542.879,533.354 542.901,533.305 542.819,533.267C542.754,533.248 542.838,533.275 542.987,533.246C543.137,533.231 543.336,533.157 543.547,533.086C543.956,532.92 544.443,532.655 544.63,532.232L545.094,531.189L545.019,532.228C544.995,532.558 545.008,532.884 545.053,533.205L545.053,533.225ZM544.855,533.233C544.815,532.911 544.741,532.592 544.631,532.28L545.02,532.275C545.028,532.919 544.81,533.54 544.446,534.093C544.25,534.364 544.022,534.622 543.676,534.812C543.34,534.991 542.877,535.156 542.287,534.987C541.676,534.786 541.367,534.259 541.259,533.875L541.209,533.588L541.198,533.518L541.194,533.482L541.191,533.464L541.19,533.455L541.189,533.452C541.182,533.428 541.244,533.636 541.217,533.546L541.203,533.445C541.18,533.359 541.239,533.532 541.293,533.559C541.346,533.599 541.438,533.681 541.535,533.693C541.618,533.715 541.72,533.714 541.781,533.688C541.811,533.681 541.851,533.653 541.86,533.637C541.834,533.565 541.561,533.729 541.412,533.892C541.233,534.059 541.09,534.271 540.974,534.495C540.744,534.944 540.651,535.466 540.692,535.952C540.735,536.437 540.953,536.885 541.226,537.084C541.488,537.288 541.739,537.365 542.115,537.405L542.254,537.416C542.234,537.413 542.323,537.424 542.213,537.41L542.239,537.411L542.389,537.411C542.45,537.417 542.405,537.399 542.36,537.394C542.32,537.389 542.279,537.392 542.24,537.403C542.151,537.416 542.073,537.457 541.977,537.537C541.769,537.742 541.734,537.957 541.752,538.047C541.742,538.072 541.746,538.095 541.75,538.106C541.737,538.105 541.732,538.102 541.733,538.095L541.573,537.526C541.57,537.33 541.652,537.038 541.832,536.834C541.919,536.732 542.019,536.654 542.11,536.6L542.189,536.558L542.326,536.501C542.452,536.46 542.418,536.475 542.472,536.459L542.616,536.428L542.813,536.391L543.143,536.343L543.411,536.303L543.483,536.291C543.497,536.289 543.473,536.296 543.467,536.303C543.473,536.305 543.39,536.346 543.364,536.377L543.242,536.485C543.46,536.268 543.76,536.032 543.963,535.861C544.074,535.779 544.217,535.668 544.285,535.609L544.434,535.492L544.537,535.356C544.584,535.313 544.604,535.233 544.625,535.157C544.645,535.076 544.674,535.008 544.688,534.909C544.723,534.717 544.723,534.537 544.758,534.337C544.787,534.144 544.781,533.956 544.815,533.769C544.837,533.582 544.849,533.398 544.854,533.213L544.855,533.233Z" style="fill:black;fill-rule:nonzero;"/>
        <path d="M545.902,531.601L545.996,531.586L546.066,531.643C546.312,531.755 546.57,531.871 546.796,532.017C547.019,532.166 547.224,532.355 547.42,532.549C547.516,532.653 547.606,532.779 547.691,532.902C547.781,533.018 547.857,533.155 547.923,533.338C547.984,533.513 548.056,533.659 548.064,533.94C548.067,534.068 548.07,534.188 548.054,534.323C548.015,534.486 547.957,534.655 547.878,534.808C547.512,535.473 546.734,535.656 546.392,535.609C545.972,535.594 545.672,535.48 545.383,535.363C544.811,535.127 544.414,534.717 544.072,534.225C543.875,533.954 543.828,533.825 543.639,533.535C543.521,533.306 543.363,533.127 543.213,532.906C543.041,532.708 542.861,532.48 542.685,532.182C542.627,532.007 542.548,531.826 542.541,531.606C542.561,531.382 542.576,531.129 542.716,530.925C542.961,530.471 543.381,530.282 543.736,530.193C544.091,530.123 544.432,530.127 544.744,530.221C545.054,530.303 545.355,530.465 545.599,530.705C545.732,530.848 545.816,530.95 545.912,531.183C545.996,531.385 545.951,531.49 545.902,531.601M545.68,531.729C545.565,531.641 545.428,531.515 545.351,531.592C545.314,531.628 545.17,531.627 545.111,531.642C544.928,531.686 544.773,531.703 544.61,531.764C544.453,531.802 544.32,531.866 544.216,531.902C544.137,531.965 544.091,531.971 544.078,531.921C544.027,531.852 543.923,531.857 543.814,532.004C543.751,532.163 543.715,532.384 543.795,532.59C543.839,532.801 544.006,532.973 544.154,533.132C544.248,533.217 544.554,533.412 544.734,533.419C544.92,533.463 545.16,533.488 545.357,533.51L545.916,533.579C546.081,533.587 546.247,533.575 546.298,533.537C546.425,533.508 546.138,533.48 546.013,533.747C545.978,533.79 545.964,533.851 545.97,533.905C545.966,533.923 545.963,533.924 545.968,533.936C546.004,533.978 545.994,533.898 545.999,533.845C546.038,533.743 545.964,533.523 545.965,533.331C545.884,532.916 545.795,532.441 545.748,531.891L545.816,531.948L545.711,531.752L545.68,531.729Z" style="fill:black;fill-rule:nonzero;"/>
        <path d="M523.426,471.03L523.524,471.108C523.604,471.167 523.633,471.237 523.744,471.338C523.905,471.532 524.315,471.807 524.557,472.347C524.655,472.632 524.697,472.903 524.533,473.367C524.497,473.469 524.45,473.585 524.408,473.674L524.316,473.817C524.284,473.865 524.244,473.908 524.209,473.955L524.196,473.971L524.192,473.976L524.065,474.128L524.055,474.135L524.019,474.166C523.969,474.207 523.916,474.245 523.862,474.279C523.744,474.356 523.641,474.399 523.549,474.424C523.135,474.543 522.907,474.472 522.703,474.426C522.504,474.37 522.344,474.304 522.201,474.221C521.908,474.075 521.705,473.815 521.518,473.565C521.426,473.437 521.334,473.318 521.238,473.199C521.09,473.054 521.039,472.935 520.93,472.803C520.75,472.546 520.567,472.133 520.636,471.7C520.688,471.284 520.873,470.915 521.106,470.718C521.34,470.51 521.612,470.421 521.873,470.431C522.414,470.472 522.822,470.78 523.058,470.874C523.322,470.987 523.401,471.024 523.413,471.024L523.42,471.024L523.426,471.03ZM523.34,471.213C523.309,471.203 523.182,471.139 523.026,471.211C522.931,471.255 522.809,471.342 522.703,471.485C522.596,471.622 522.498,471.801 522.403,471.939C522.304,472.075 522.199,472.16 522.065,472.189C521.931,472.224 521.759,472.173 521.587,472.176C521.418,472.165 521.297,472.307 521.422,472.451C521.478,472.506 521.576,472.595 521.653,472.579C521.768,472.598 521.897,472.605 522.029,472.596C522.291,472.584 522.555,472.53 522.739,472.537C522.834,472.532 522.916,472.525 522.961,472.503C522.996,472.487 523.02,472.432 522.83,472.466C522.799,472.476 522.748,472.493 522.676,472.531C522.646,472.549 522.617,472.569 522.591,472.592L522.572,472.611L522.569,472.616C522.592,472.587 522.334,472.895 522.444,472.763L522.447,472.759L522.458,472.74C522.489,472.69 522.515,472.637 522.549,472.592L522.65,472.454C522.654,472.441 522.641,472.451 522.643,472.451C522.662,472.514 522.735,472.366 522.873,472.274C522.989,472.159 523.152,472.018 523.237,471.873C523.35,471.723 523.381,471.59 523.404,471.474C523.405,471.384 523.391,471.273 523.367,471.26C523.351,471.232 523.342,471.218 523.34,471.213" style="fill:black;fill-rule:nonzero;"/>
        <path d="M523.249,471.695L523.059,472.2C523.033,472.308 522.962,472.45 522.982,472.514C522.984,472.551 522.982,472.582 522.978,472.608L523,472.803L523.009,472.901L523.011,472.925C523.021,472.841 523.018,472.914 523.021,472.9L523.033,472.94L523.081,473.095C523.103,473.199 523.151,473.293 523.196,473.381C523.232,473.472 523.277,473.557 523.338,473.632C523.441,473.787 523.559,473.922 523.699,474.037C523.977,474.262 524.301,474.453 524.667,474.569C524.847,474.628 525.033,474.682 525.203,474.706C525.287,474.726 525.368,474.729 525.418,474.73C525.422,474.726 525.494,474.733 525.435,474.729C525.415,474.73 525.407,474.733 525.379,474.741C525.254,474.761 525.122,474.827 525.029,474.914L524.861,475.082C524.963,474.965 525.093,474.855 525.23,474.775C525.388,474.685 525.416,474.693 525.519,474.657C525.709,474.599 525.825,474.598 525.958,474.595C526.214,474.598 526.448,474.653 526.699,474.773C526.955,474.898 527.227,475.136 527.387,475.482C527.449,475.642 527.486,475.818 527.502,475.989C527.507,476.136 527.486,476.257 527.463,476.39C527.408,476.653 527.325,476.763 527.24,476.946C527.158,477.071 527.075,477.181 526.988,477.295C526.82,477.481 526.647,477.659 526.478,477.79C526.137,478.071 525.807,478.295 525.459,478.503C525.107,478.709 524.749,478.889 524.406,479.02L523.848,479.238C523.652,479.306 523.455,479.369 523.254,479.417C522.852,479.514 522.448,479.584 522.035,479.606C521.623,479.611 521.199,479.634 520.755,479.407C520.542,479.304 520.293,479.077 520.247,478.754C520.203,478.44 520.312,478.196 520.414,477.974L520.441,477.938C520.436,477.88 520.434,477.853 520.402,477.809C520.374,477.754 520.336,477.69 520.264,477.593L520.039,477.29C519.955,477.166 519.857,477.054 519.756,476.793C519.703,476.658 519.686,476.595 519.664,476.532L519.648,476.482L519.641,476.457L519.636,476.444L519.634,476.438L519.633,476.434L519.633,476.433L519.625,476.331L519.607,476.226C519.583,476.088 519.566,475.95 519.551,475.811C519.537,475.675 519.526,475.53 519.524,475.382C519.52,475.23 519.518,475.096 519.529,474.93L519.584,474.438C519.621,474.26 519.667,474.085 519.716,473.912C519.847,473.566 520.012,473.257 520.202,473.002C520.385,472.73 520.592,472.531 520.794,472.307C520.994,472.1 521.215,471.909 521.431,471.717L521.65,471.522L521.735,471.526C522.186,471.543 522.638,471.571 523.103,471.666L523.249,471.695ZM522.311,472.312C522.183,472.376 522.062,472.457 521.934,472.516L522.238,472.325C522.126,472.582 522.018,472.84 521.889,473.081C521.789,473.323 521.66,473.569 521.578,473.787C521.541,473.896 521.485,474.004 521.453,474.106C521.434,474.206 521.406,474.299 521.377,474.392C521.369,474.492 521.359,474.588 521.34,474.682L521.326,475.021L521.312,475.403L521.281,475.807C521.268,475.947 521.252,476.087 521.229,476.226L521.211,476.331C521.217,476.422 521.203,476.209 521.205,476.231L521.205,476.243L521.204,476.256L521.203,476.282L521.201,476.335C521.198,476.41 521.197,476.486 521.199,476.48C521.18,476.484 521.196,476.628 521.225,476.757C521.255,476.906 521.289,477.039 521.318,477.223C521.349,477.383 521.369,477.599 521.348,477.818C521.328,478.063 521.199,478.281 521.037,478.46L521.065,478.424C520.881,478.635 520.814,478.746 521.04,478.874C521.262,478.993 521.623,478.993 521.936,478.906C522.259,478.831 522.566,478.662 522.844,478.468C522.984,478.375 523.117,478.265 523.246,478.155L523.637,477.795L524.437,477.082C524.684,476.848 524.945,476.623 525.141,476.391C525.25,476.278 525.312,476.165 525.385,476.071C525.4,476.031 525.426,475.99 525.443,475.959C525.42,475.968 525.448,475.919 525.414,475.997C525.4,476.039 525.402,476.067 525.404,476.123C525.398,476.204 525.42,476.288 525.457,476.359C525.526,476.541 525.666,476.645 525.752,476.688C525.835,476.732 525.887,476.741 525.957,476.746C525.997,476.746 526.02,476.742 526.123,476.719C526.184,476.699 526.159,476.706 526.281,476.648C526.382,476.595 526.475,476.513 526.538,476.424L526.37,476.591C526.219,476.703 526.027,476.792 525.844,476.837C525.753,476.853 525.682,476.86 525.598,476.867C525.412,476.884 525.357,476.864 525.234,476.857C525.032,476.831 524.859,476.797 524.699,476.748C524.373,476.658 524.086,476.517 523.803,476.368C523.528,476.199 523.265,476.015 523.025,475.791C522.784,475.573 522.569,475.314 522.402,475.021C522.05,474.451 521.918,473.745 522.018,473.138L522.057,472.912L522.066,472.856L522.077,472.783L522.086,472.76L522.123,472.67L522.201,472.487C522.236,472.425 522.273,472.369 522.311,472.312" style="fill:black;fill-rule:nonzero;"/>
        <path d="M492.635,497.536C492.979,497.405 493.322,497.267 493.597,497.016C493.738,496.906 493.869,496.758 494.005,496.625C494.062,496.554 494.152,496.477 494.236,496.401C494.332,496.33 494.386,496.238 494.528,496.182C494.655,496.121 494.793,496.062 494.936,496.011C495.074,495.984 495.217,495.981 495.365,495.978C495.517,495.975 495.673,495.981 495.774,496.011C495.891,496.032 496.007,496.064 496.125,496.097C496.616,496.22 496.922,496.416 497.31,496.62L497.24,496.574C497.344,496.644 497.447,496.729 497.54,496.822C497.586,496.869 497.63,496.918 497.671,496.968L497.729,497.051C497.795,497.15 497.875,497.272 497.922,497.361C498.011,497.537 498.092,497.714 498.154,497.871C498.283,498.202 498.38,498.502 498.461,498.844L496.552,498.501C496.697,498.314 496.846,498.128 497.131,497.93C497.176,497.89 497.314,497.821 497.414,497.779C497.542,497.734 497.598,497.691 497.787,497.673C498.147,497.626 498.49,497.718 498.771,497.943C498.931,498.06 498.955,498.129 499.034,498.228C499.096,498.32 499.166,498.431 499.198,498.514C499.256,498.671 499.305,498.853 499.329,499L499.342,499.226L499.345,499.283C499.359,499.409 499.348,499.356 499.351,499.402L499.349,499.535C499.343,500.235 499.225,501.015 498.781,501.682C498.333,502.35 497.61,502.767 496.938,502.903C496.262,503.064 495.617,503.048 494.972,503.005C494.648,502.979 494.324,502.941 493.98,502.875C493.807,502.836 493.635,502.788 493.447,502.707C493.265,502.624 493.053,502.531 492.851,502.223C492.756,502.082 492.677,501.818 492.726,501.57C492.735,501.339 493.015,500.997 492.998,501.015L493.032,500.969L493.04,500.957C493.024,500.97 493.187,500.831 493.118,500.889L493.119,500.887L493.122,500.883L493.13,500.867L493.164,500.806L493.232,500.693C493.272,500.548 493.277,500.483 493.276,500.397C493.273,500.217 493.162,499.789 492.916,499.339C492.791,499.122 492.645,498.884 492.453,498.702C492.269,498.512 492.031,498.353 491.792,498.332L490.92,498.253L491.668,497.985C491.998,497.867 492.312,497.719 492.612,497.546L492.615,497.544L492.635,497.536ZM492.704,497.724C492.406,497.893 492.121,498.087 491.853,498.309L491.73,497.963C492.097,497.849 492.457,497.904 492.81,497.971C493.163,498.046 493.507,498.173 493.824,498.363C494.15,498.544 494.436,498.808 494.679,499.137C494.907,499.478 495.079,499.921 495.076,500.432C495.061,500.958 494.797,501.457 494.459,501.781L494.193,501.973L494.059,502.063L494.025,502.086L494.017,502.091L494.013,502.094C493.943,502.153 494.103,502.015 494.086,502.03L494.074,502.039L494.026,502.07C493.895,502.183 494.088,501.977 494.062,501.889C494.072,501.785 494.019,501.683 493.996,501.672C493.93,501.634 493.96,501.744 494.03,501.82C494.092,501.908 494.197,501.984 494.302,502.061C494.519,502.216 494.786,502.318 495.059,502.376C495.605,502.496 496.201,502.411 496.659,502.152C497.13,501.894 497.377,501.453 497.453,501.034C497.537,500.61 497.53,500.145 497.454,499.649L497.441,499.557C497.441,499.565 497.431,499.474 497.439,499.563L497.427,499.508L497.377,499.286C497.36,499.288 497.358,499.329 497.37,499.342C497.375,499.355 497.39,499.41 497.413,499.436C497.445,499.479 497.444,499.467 497.53,499.557C497.687,499.68 497.888,499.74 498.092,499.716C498.203,499.686 498.197,499.705 498.253,499.682C498.288,499.676 498.348,499.623 498.341,499.64C498.381,499.623 498.343,499.674 498.302,499.725L497.008,501.36L496.393,499.383L496.152,498.604C496.114,498.473 496.073,498.369 496.036,498.265C496.02,498.215 496.015,498.209 496.008,498.174C496.008,498.17 496.001,498.152 496.007,498.159C496.021,498.182 496.038,498.203 496.058,498.222C496.098,498.26 496.148,498.289 496.198,498.305L496.128,498.259C495.997,498.157 495.87,498.048 495.747,497.931C495.685,497.872 495.622,497.815 495.563,497.749C495.502,497.68 495.458,497.653 495.403,497.6C495.35,497.554 495.296,497.508 495.243,497.449C495.181,497.379 495.15,497.36 495.115,497.331L494.989,497.219L494.848,497.168C494.798,497.129 494.704,497.175 494.629,497.175C494.548,497.187 494.468,497.193 494.368,497.225C494.183,497.285 494.003,497.348 493.804,497.399C493.611,497.452 493.435,497.534 493.241,497.568C493.058,497.613 492.881,497.668 492.704,497.724" style="fill:black;fill-rule:nonzero;"/>
        <path d="M489.999,495.997C490.182,495.968 490.351,495.968 490.522,495.962C490.696,495.951 490.863,495.957 491.027,495.968L490.296,496.223C490.333,496.062 490.396,495.903 490.46,495.738C490.525,495.583 490.602,495.46 490.686,495.325L490.629,495.387C490.757,495.15 490.876,494.913 491.049,494.687C491.234,494.461 491.414,494.236 491.725,494.029C491.991,493.841 492.481,493.575 493.179,493.724C493.355,493.776 493.531,493.853 493.681,493.948C493.804,494.05 493.92,494.166 494.022,494.289C494.187,494.515 494.282,494.756 494.326,494.945C494.416,495.34 494.407,495.665 494.367,495.966C494.329,496.271 494.243,496.549 494.112,496.808C493.979,497.072 493.828,497.29 493.64,497.535C493.436,497.801 493.324,497.894 493.099,498.134C492.906,498.31 492.772,498.514 492.568,498.693C492.398,498.894 492.191,499.086 491.935,499.291C491.796,499.374 491.633,499.451 491.461,499.521C491.288,499.573 491.092,499.59 490.893,499.596C490.707,499.579 490.52,499.538 490.334,499.477C490.172,499.404 490.021,499.31 489.875,499.206C489.36,498.753 489.105,498.177 489.033,497.574C489,497.272 489.024,496.948 489.127,496.635C489.158,496.55 489.208,496.467 489.25,496.391L489.316,496.281C489.354,496.233 489.394,496.184 489.439,496.144C489.635,495.948 489.755,496.005 489.903,496.004L489.958,496.004L489.999,495.997ZM489.976,496.261C489.93,496.365 489.89,496.473 489.977,496.503C490.022,496.494 490.077,496.652 490.11,496.685C490.214,496.844 490.309,496.986 490.422,497.132L490.753,497.538C490.866,497.664 490.973,497.759 491.061,497.861C491.105,497.894 491.14,497.945 491.172,498.002C491.205,498.027 491.228,498.097 491.266,498.147C491.3,498.174 491.337,498.249 491.396,498.29C491.454,498.313 491.527,498.362 491.612,498.383C491.783,498.387 491.993,498.362 492.155,498.223C492.336,498.123 492.45,497.915 492.563,497.736C492.633,497.611 492.743,497.282 492.716,497.115C492.714,496.931 492.706,496.696 492.662,496.5C492.636,496.302 492.607,496.107 492.57,495.944C492.547,495.777 492.484,495.627 492.434,495.575C492.414,495.542 492.388,495.568 492.417,495.611C492.435,495.651 492.468,495.685 492.507,495.704C492.548,495.755 492.615,495.79 492.682,495.799C492.918,495.869 492.932,495.768 492.812,495.839C492.713,495.868 492.556,495.972 492.393,496.061C492.231,496.165 492.052,496.293 491.862,496.401L491.805,496.465C491.726,496.512 491.621,496.557 491.537,496.596C491.464,496.635 491.391,496.681 491.291,496.725L490.606,497.027L490.561,496.979C490.446,496.861 490.333,496.739 490.228,496.6C490.142,496.491 490.058,496.38 489.976,496.261" style="fill:black;fill-rule:nonzero;"/>
        <path d="M472.994,423.187L475.12,428.178L477.572,433.004L480.342,437.652L483.427,442.092L486.775,446.329L490.373,450.349L494.206,454.135L498.255,457.68L498.497,457.892L498.519,458.218C498.627,459.86 498.703,461.505 498.73,463.152C498.761,463.976 498.747,464.799 498.749,465.623C498.757,466.447 498.741,467.271 498.713,468.096C498.693,468.919 498.672,469.744 498.619,470.567C498.569,471.391 498.542,472.216 498.463,473.038C498.388,473.86 498.342,474.686 498.243,475.507C498.148,476.328 498.062,477.15 497.937,477.969C497.7,479.606 497.411,481.238 497.074,482.862C496.721,484.484 496.322,486.099 495.841,487.694C495.579,488.487 495.364,489.292 495.056,490.072C494.768,490.858 494.485,491.645 494.136,492.412C493.821,493.19 493.448,493.947 493.06,494.699C492.702,495.463 492.218,496.172 491.8,496.91L491.636,497.202L491.271,497.329C487.251,498.731 483.092,499.776 478.859,500.293C474.63,500.823 470.347,500.897 466.107,500.524C457.621,499.788 449.344,497.266 441.818,493.39C434.267,489.539 427.466,484.321 421.663,478.207C418.758,475.149 416.147,471.818 413.869,468.271C411.597,464.722 409.658,460.935 408.397,456.909C408.23,456.41 408.018,455.925 407.887,455.415L407.484,453.886C407.232,452.863 406.911,451.854 406.716,450.819C406.395,448.736 405.96,446.664 405.912,444.548C405.873,443.494 405.708,442.441 405.79,441.386L405.882,438.218C405.925,437.163 406.107,436.118 406.213,435.066L406.4,433.489C406.496,432.97 406.619,432.455 406.727,431.937C407.469,427.758 409.014,423.755 410.909,419.959L412.44,417.157L414.234,414.512C414.803,413.606 415.501,412.799 416.198,411.989L417.237,410.772L417.759,410.164L418.336,409.61L420.652,407.395C421.443,406.678 422.323,406.065 423.156,405.396L424.422,404.413L425.794,403.553C426.714,402.994 427.624,402.385 428.555,401.872L431.394,400.528L432.104,400.192C432.243,400.131 432.297,400.092 432.504,400.013L432.882,399.878L434.392,399.342L435.903,398.806C436.155,398.72 436.404,398.622 436.66,398.545L437.439,398.358L440.556,397.621C444.763,396.877 449.052,396.72 453.278,397.175C457.493,397.722 461.607,398.814 465.522,400.401L465.712,400.478L465.74,400.687L465.957,402.304L466.314,403.898L466.32,403.925L466.324,403.945L466.785,406.612L467.631,409.192L467.644,409.232L467.645,409.249L467.82,411.216L467.817,411.194L468.292,412.939L468.928,414.634L469.73,416.258L470.688,417.797L470.7,417.815L470.705,417.834L471.127,419.229L471.651,420.59L472.271,421.906L472.994,423.187ZM472.815,423.276L472.089,422.009L471.451,420.676L470.912,419.304L470.477,417.895L470.494,417.932L469.515,416.38L468.68,414.744L467.997,413.038L467.476,411.274L467.474,411.267L467.473,411.251L467.256,409.288L467.27,409.345L466.328,406.735L465.752,404.012L465.762,404.059L465.332,402.428L465.045,400.764L465.263,401.05C461.35,399.632 457.282,398.719 453.165,398.349C449.035,398.061 444.907,398.414 440.877,399.201C438.892,399.733 436.887,400.184 434.985,400.971L433.541,401.5L433.18,401.632C433.14,401.638 432.966,401.732 432.865,401.778L432.159,402.122L429.333,403.494C428.429,403.984 427.594,404.543 426.719,405.062L425.421,405.856L424.199,406.79C423.395,407.425 422.542,408.003 421.776,408.685L419.533,410.792L418.971,411.319L418.465,411.9L417.454,413.062C416.783,413.839 416.069,414.583 415.503,415.445L413.695,417.947L412.135,420.615C410.196,424.238 408.567,428.09 407.72,432.151C407.598,432.654 407.463,433.155 407.353,433.661L407.124,435.198C406.99,436.225 406.779,437.247 406.705,438.281C406.604,440.353 406.455,442.43 406.644,444.504C406.665,446.588 407.072,448.633 407.362,450.692C407.541,451.716 407.848,452.713 408.084,453.726L408.463,455.24C408.591,455.744 408.809,456.221 408.978,456.713C410.262,460.684 412.205,464.398 414.478,467.876C416.748,471.368 419.453,474.562 422.377,477.518C428.237,483.43 435.119,488.278 442.542,491.942C449.981,495.571 458.046,497.939 466.269,498.569C470.376,498.887 474.513,498.77 478.588,498.216C482.661,497.652 486.685,496.721 490.576,495.362L490.047,495.781C490.433,495.097 490.882,494.455 491.22,493.737C491.585,493.037 491.938,492.33 492.24,491.593C492.572,490.873 492.845,490.122 493.122,489.374C493.419,488.635 493.629,487.857 493.883,487.1C494.352,485.567 494.744,484.009 495.093,482.437C495.427,480.862 495.714,479.275 495.952,477.679L496.28,475.278C496.397,474.479 496.462,473.672 496.556,472.869C496.653,472.065 496.7,471.257 496.768,470.45C496.841,469.644 496.881,468.835 496.921,468.025C496.969,467.217 497.005,466.407 497.017,465.597C497.036,464.786 497.069,463.976 497.059,463.164C497.077,461.542 497.025,459.92 496.998,458.296L497.263,458.834L493.304,455.064L489.583,451.069L486.11,446.867L482.898,442.469L479.963,437.889L477.286,433.158L474.895,428.281L472.815,423.276Z" style="fill:black;fill-rule:nonzero;"/>
        <path d="M601.671,436.928L601.672,436.928L604.043,438.053C604.823,438.449 605.653,438.752 606.379,439.247C607.854,440.189 609.425,440.989 610.779,442.108L612.881,443.69C613.549,444.256 614.174,444.873 614.822,445.464C616.162,446.606 617.293,447.952 618.468,449.262C619.083,449.895 619.577,450.624 620.098,451.333L621.656,453.468L623,455.744C623.445,456.506 623.923,457.252 624.266,458.067C625.008,459.668 625.82,461.246 626.349,462.938C626.639,463.773 626.961,464.601 627.225,465.446L627.877,468.023C628.387,469.729 628.534,471.507 628.818,473.261C628.987,474.136 628.944,475.031 629.016,475.917C629.053,476.804 629.119,477.693 629.13,478.582C629.025,482.141 628.744,485.69 627.858,489.184L627.186,491.803C626.94,492.659 626.606,493.454 626.32,494.283C626.008,495.122 625.762,495.884 625.393,496.787C625.021,497.597 624.688,498.428 624.28,499.221C622.707,502.422 620.804,505.44 618.679,508.281C616.549,511.119 614.207,513.794 611.669,516.265C609.117,518.722 606.395,520.997 603.533,523.076C597.819,527.245 591.52,530.623 584.843,532.967C581.51,534.148 578.078,535.056 574.594,535.657C571.113,536.265 567.582,536.616 564.049,536.595C560.517,536.575 556.996,536.249 553.523,535.657C550.058,535.01 546.66,534.066 543.348,532.891L543.205,532.842L543.147,532.732L542.063,530.748C541.883,530.417 541.692,530.092 541.522,529.757L541.084,528.719L540.209,526.644C539.955,525.94 539.742,525.222 539.506,524.511C539.004,523.098 538.67,521.64 538.32,520.187C537.924,518.744 537.73,517.261 537.451,515.795C536.949,512.853 536.587,509.888 536.385,506.912C536.233,505.426 536.226,503.933 536.166,502.442C536.088,500.952 536.119,499.46 536.133,497.969L536.139,495.729L536.242,493.493C536.309,492.002 536.363,490.509 536.525,489.023C536.752,486.043 537.156,483.08 537.621,480.124L538.446,475.71L539.486,471.335C539.876,469.882 540.348,468.444 540.783,467C541.24,465.564 541.807,464.203 542.313,462.802C543.475,459.984 544.777,457.261 546.404,454.696L546.992,453.723C547.201,453.409 547.441,453.114 547.663,452.808L549.024,450.989C549.879,449.734 550.992,448.69 551.984,447.549C554.072,445.361 556.381,443.383 558.858,441.655C561.335,439.928 563.989,438.47 566.743,437.255C567.413,436.909 568.127,436.667 568.837,436.417L570.961,435.66C571.658,435.377 572.4,435.235 573.125,435.041L575.309,434.491C576.77,434.162 578.27,434.014 579.744,433.769C581.233,433.618 582.734,433.597 584.223,433.507C585.717,433.543 587.209,433.628 588.699,433.686L593.129,434.327L597.475,435.408L601.667,436.927L601.671,436.928ZM601.6,437.115L597.398,435.622L593.08,434.58L588.671,434.036C587.191,434.018 585.71,433.942 584.234,433.971C582.762,434.117 581.283,434.192 579.824,434.394C578.377,434.692 576.912,434.89 575.488,435.266L573.368,435.886C572.665,436.102 571.945,436.265 571.273,436.57L569.226,437.391C568.543,437.661 567.857,437.923 567.215,438.287C564.577,439.575 562.055,441.091 559.723,442.855C557.379,444.604 555.192,446.559 553.231,448.719C551.238,450.85 549.471,453.187 547.924,455.655C546.338,458.1 545.046,460.745 543.916,463.41C543.4,464.799 542.811,466.182 542.356,467.576L541.029,471.764L539.882,476.036L538.943,480.364C538.401,483.267 537.912,486.186 537.6,489.129C537.395,490.595 537.296,492.072 537.186,493.549L537.016,495.763L536.943,497.984C536.897,499.465 536.859,500.945 536.916,502.426C536.958,503.906 536.947,505.39 537.08,506.866C537.253,509.822 537.556,512.774 538.049,515.693C538.338,517.144 538.543,518.614 538.949,520.038C539.308,521.472 539.65,522.912 540.158,524.3C540.397,524.998 540.613,525.705 540.869,526.395L541.746,528.422L542.184,529.435C542.352,529.761 542.541,530.075 542.72,530.395L543.814,532.303L543.612,532.143C546.91,533.222 550.277,534.07 553.695,534.624C557.121,535.125 560.58,535.337 564.032,535.263C567.485,535.182 570.92,534.748 574.304,534.105C577.69,533.458 581.018,532.511 584.244,531.3C587.474,530.1 590.623,528.683 593.654,527.043C596.679,525.388 599.581,523.515 602.348,521.463C607.873,517.351 612.858,512.5 617.01,507.027C619.078,504.286 620.925,501.38 622.445,498.318C622.84,497.559 623.158,496.767 623.52,495.994C623.816,495.285 624.119,494.386 624.418,493.591C624.704,492.771 625.05,491.951 625.287,491.133L625.92,488.678C626.419,487.066 626.609,485.349 626.916,483.67C627.094,482.83 627.123,481.973 627.186,481.12L627.369,478.557C627.379,477.703 627.334,476.846 627.319,475.99C627.272,475.136 627.338,474.27 627.194,473.423C626.945,471.728 626.896,469.997 626.465,468.33L625.937,465.803C625.715,464.974 625.434,464.159 625.186,463.335C624.741,461.664 624.014,460.098 623.353,458.503C623.051,457.69 622.609,456.946 622.203,456.184L620.969,453.901L619.52,451.749C619.033,451.032 618.573,450.294 617.991,449.65C616.879,448.323 615.826,446.931 614.524,445.775C613.895,445.177 613.289,444.55 612.64,443.974L610.592,442.36C609.277,441.208 607.714,440.412 606.258,439.46C605.54,438.961 604.718,438.653 603.945,438.253L601.595,437.113L601.6,437.115Z" style="fill:black;fill-rule:nonzero;"/>
        <path d="M541.77,317.481C537.103,316.2 532.29,315.488 527.461,315.367C522.631,315.221 517.79,315.746 513.102,316.861C510.749,317.386 508.452,318.129 506.179,318.918C503.934,319.784 501.707,320.7 499.576,321.813C495.296,323.996 491.256,326.646 487.611,329.757C483.968,332.866 480.621,336.32 477.73,340.129C474.847,343.943 472.404,348.075 470.412,352.41C469.873,353.475 469.471,354.602 468.994,355.694C468.546,356.798 468.177,357.919 467.763,359.029C467.411,360.17 467.025,361.368 466.715,362.475C466.438,363.634 466.104,364.779 465.871,365.949C464.878,370.616 464.375,375.394 464.256,380.179C464.038,389.755 465.294,399.366 467.775,408.632C469.025,413.265 470.572,417.821 472.448,422.24C474.341,426.652 476.552,430.924 479.047,435.023C479.692,436.035 480.289,437.079 480.974,438.064L483.017,441.029C484.465,442.942 485.904,444.866 487.491,446.669C490.633,450.293 494.015,453.729 497.725,456.788C501.438,459.839 505.406,462.582 509.582,464.981C513.795,467.314 518.203,469.284 522.736,470.936L522.481,470.935C526.35,469.633 529.999,467.686 533.424,465.433C536.85,463.168 540.082,460.609 543.155,457.875C546.217,455.126 549.101,452.181 551.858,449.126C554.61,446.065 557.228,442.885 559.709,439.601C564.631,433.002 569.016,426.011 572.823,418.732C574.721,415.09 576.473,411.373 578.019,407.575C579.571,403.765 580.971,399.952 582.118,395.995C583.259,392.083 584.075,388.078 584.491,384.029C584.94,379.985 585.024,375.897 584.709,371.835C584.4,367.773 583.686,363.743 582.617,359.808C581.563,355.868 580.125,352.025 578.323,348.354C574.726,341.011 569.64,334.367 563.396,329.015C557.132,323.682 549.695,319.752 541.77,317.481M541.827,317.29C545.799,318.389 549.686,319.91 553.353,321.816C557.03,323.721 560.484,326.041 563.694,328.658C570.131,333.88 575.461,340.47 579.334,347.839C581.274,351.524 582.85,355.404 584.041,359.405C585.218,363.41 585.978,367.537 586.355,371.698C586.726,375.86 586.708,380.06 586.277,384.22C585.822,388.378 584.958,392.486 583.759,396.487C582.571,400.446 581.141,404.399 579.495,408.197C577.849,412.01 575.999,415.729 574.006,419.365C570.014,426.631 565.443,433.567 560.353,440.093C555.291,446.636 549.732,452.809 543.559,458.326C540.486,461.096 537.249,463.696 533.803,466.005C530.36,468.315 526.665,470.276 522.734,471.689L522.61,471.733L522.478,471.688C517.875,470.101 513.384,468.188 509.075,465.898C504.804,463.542 500.718,460.849 496.884,457.821C493.048,454.793 489.539,451.363 486.299,447.705C484.657,445.889 483.167,443.951 481.666,442.02L479.545,439.028C478.834,438.033 478.212,436.979 477.541,435.957C474.946,431.812 472.676,427.466 470.708,422.988C468.763,418.501 467.152,413.871 465.844,409.159C464.54,404.445 463.553,399.642 462.909,394.788C462.284,389.932 462.042,385.025 462.17,380.125C462.306,375.226 462.833,370.326 463.873,365.517C464.116,364.312 464.463,363.127 464.754,361.932C465.102,360.709 465.465,359.6 465.83,358.428C466.262,357.269 466.658,356.087 467.124,354.947C467.619,353.822 468.038,352.663 468.596,351.565C472.806,342.676 479.006,334.731 486.695,328.639C490.517,325.57 494.716,322.993 499.13,320.905C501.328,319.836 503.614,318.966 505.911,318.152C508.234,317.415 510.577,316.727 512.968,316.261C517.739,315.295 522.612,314.815 527.471,315.008C532.329,315.183 537.161,315.953 541.827,317.29" style="fill:black;fill-rule:nonzero;"/>
        <path d="M539.834,325.834C539.834,325.834 578.334,343.834 572.834,393.334C572.834,393.334 578.334,355.334 539.834,325.834" style="fill:white;fill-rule:nonzero;"/>
        <path d="M605.667,450.757C605.667,450.757 625.586,466.841 615.224,494.999C615.224,494.999 623.926,473.568 605.667,450.757" style="fill:white;fill-rule:nonzero;"/>
        <path d="M430.211,415.423C430.211,415.423 410.292,431.507 420.654,459.664C420.654,459.664 411.952,438.234 430.211,415.423" style="fill:white;fill-rule:nonzero;"/>
        <path d="M524.45,625.5C524.45,625.5 524.375,623.089 524.244,618.868C524.196,616.758 524.138,614.195 524.07,611.255C524.023,608.315 523.971,604.999 523.914,601.381C523.864,597.763 523.807,593.843 523.813,589.697C523.782,585.551 523.852,581.178 523.877,576.655C523.926,572.132 523.914,567.458 523.89,562.709C523.846,557.96 523.772,553.136 523.667,548.312C523.576,543.487 523.486,538.664 523.398,533.915C523.336,529.166 523.275,524.492 523.217,519.97C523.187,515.447 523.158,511.075 523.131,506.929C523.093,502.783 523.116,498.863 523.137,495.244C523.176,488.007 523.208,481.976 523.231,477.754C523.295,473.532 523.331,471.12 523.331,471.12L523.43,471.119C523.43,471.119 523.502,473.531 523.627,477.751C523.711,481.972 523.831,488.002 523.975,495.238C524.048,498.856 524.128,502.775 524.15,506.922C524.182,511.067 524.218,515.439 524.253,519.963C524.26,524.485 524.266,529.159 524.274,533.908C524.254,538.658 524.234,543.482 524.214,548.308C524.178,553.133 524.175,557.957 524.199,562.706C524.245,567.455 524.3,572.129 524.415,576.651C524.505,581.174 524.638,585.545 524.668,589.69C524.733,593.837 524.734,597.757 524.736,601.375C524.731,604.993 524.727,608.311 524.723,611.251C524.699,614.19 524.677,616.754 524.659,618.865C524.59,623.087 524.55,625.5 524.55,625.5L524.45,625.5Z" style="fill:black;fill-rule:nonzero;"/>
        <path d="M524.451,625.49C524.451,625.49 524.699,624.002 525.133,621.397C525.367,620.098 525.652,618.521 525.979,616.713C526.299,614.902 526.708,612.87 527.144,610.651C527.578,608.431 528.046,606.026 528.604,603.496C529.127,600.958 529.779,598.303 530.406,595.545C531.057,592.793 531.669,589.936 532.28,587.032C532.871,584.123 533.442,581.162 533.981,578.194C534.517,575.226 535.073,572.261 535.638,569.347C536.211,566.435 536.776,563.569 537.323,560.796C537.867,558.021 538.454,555.352 538.977,552.814C539.498,550.276 540.033,547.885 540.525,545.677C541.494,541.259 542.361,537.589 542.969,535.02C543.594,532.456 543.951,530.99 543.951,530.99L544.049,531.01C544.049,531.01 543.797,532.497 543.355,535.1C542.896,537.7 542.24,541.413 541.381,545.853C540.959,548.076 540.504,550.483 539.976,553.02C539.453,555.558 538.935,558.242 538.337,561.005C537.741,563.768 537.126,566.624 536.5,569.525C535.864,572.426 535.201,575.367 534.518,578.305C533.839,581.244 533.191,584.189 532.583,587.094C531.994,590.004 531.425,592.869 530.933,595.654C530.418,598.433 529.966,601.131 529.441,603.669C528.952,606.214 528.43,608.607 527.949,610.817C527.472,613.028 527.043,615.056 526.62,616.844C526.204,618.636 525.842,620.196 525.543,621.481C524.91,624.045 524.549,625.51 524.549,625.51L524.451,625.49Z" style="fill:black;fill-rule:nonzero;"/>
        <path d="M524.451,624.013C524.451,624.013 523.88,621.988 522.879,618.445C522.396,616.668 521.809,614.511 521.138,612.037C520.458,609.565 519.739,606.764 518.945,603.71C518.148,600.658 517.284,597.351 516.431,593.838C515.545,590.333 514.71,586.613 513.798,582.776C512.91,578.932 511.932,574.976 510.928,570.959C509.903,566.947 508.835,562.878 507.734,558.818C506.649,554.753 505.563,550.689 504.495,546.688C503.455,542.68 502.43,538.736 501.439,534.918C500.475,531.094 499.543,527.398 498.659,523.893C497.77,520.389 496.972,517.066 496.233,513.998C494.74,507.867 493.555,502.743 492.726,499.156C491.915,495.565 491.451,493.513 491.451,493.513L491.548,493.488C491.548,493.488 492.116,495.514 493.11,499.059C494.085,502.609 495.479,507.68 497.079,513.784C497.888,516.833 498.765,520.137 499.648,523.643C500.537,527.147 501.473,530.842 502.443,534.664C503.386,538.493 504.359,542.45 505.349,546.472C506.311,550.499 507.288,554.591 508.265,558.683C509.227,562.779 510.222,566.867 511.227,570.883C512.253,574.895 513.273,578.84 514.319,582.643C515.341,586.452 516.375,590.123 517.261,593.628C518.18,597.124 518.992,600.445 519.742,603.509C520.495,606.573 521.194,609.379 521.771,611.877C522.356,614.373 522.865,616.549 523.285,618.341C524.089,621.935 524.549,623.988 524.549,623.988L524.451,624.013Z" style="fill:black;fill-rule:nonzero;"/>
    </g>
</svg>
