<?xml version="1.0" encoding="utf-8"?>
<!-- Generator: Adobe Illustrator 16.0.4, SVG Export Plug-In . SVG Version: 6.00 Build 0)  -->
<!DOCTYPE svg PUBLIC "-//W3C//DTD SVG 1.1//EN" "http://www.w3.org/Graphics/SVG/1.1/DTD/svg11.dtd">
<svg version="1.1" id="Layer_1" xmlns="http://www.w3.org/2000/svg" xmlns:xlink="http://www.w3.org/1999/xlink" x="0px" y="0px"
	 width="260px" height="260px" viewBox="0 0 260 260" enable-background="new 0 0 260 260" xml:space="preserve">
<g>
	<g>
		<path fill="#A4F3DD" d="M238.688,198.704c-40.364,63.854-93.272,59.52-162.2,15.948C7.562,171.081-19.052,125.15,21.311,61.296
			c40.364-63.854,93.271-59.52,162.2-15.949C252.439,88.918,279.053,134.851,238.688,198.704z"/>
	</g>
	<g>
		<g>
			<path fill="#FF7847" d="M170.676,45.814c-15.533,0-29.732,7.948-40.675,19.821c-10.941-11.873-25.143-19.821-40.674-19.821
				c-34.57,0-62.597,28.024-62.597,62.595c0,81.802,103.271,105.776,103.272,105.776c0,0,103.267-23.975,103.267-105.776
				C233.27,73.839,205.246,45.814,170.676,45.814z"/>
		</g>
		<g>
			<path fill="#A84F2F" d="M174.934,51.586c34.571,0,58.336,22.252,58.336,56.823c0,81.802-103.269,99.112-103.269,99.112
				s86.439-45.663,86.439-97.256C216.44,67.224,174.934,51.586,174.934,51.586z"/>
		</g>
		<g>
			<path fill="#213B4D" d="M134.89,126.202c-0.898,0-1.809-0.208-2.662-0.646c-2.868-1.473-3.998-4.992-2.524-7.859
				c3.305-6.434,4.98-13.396,4.98-20.689c0-25.009-20.347-45.356-45.356-45.356c-3.224,0-5.837-2.613-5.837-5.837
				c0-3.223,2.613-5.837,5.837-5.837c31.447,0,57.03,25.583,57.03,57.03c0,9.039-2.168,18.037-6.271,26.024
				C139.052,125.044,137.008,126.202,134.89,126.202z"/>
		</g>
		<g>
			<path fill="#213B4D" d="M130.003,220.022c-1.228,0-28.198-6.432-54.742-23.107c-35.566-22.343-54.367-52.949-54.367-88.506
				c0-37.733,30.699-68.432,68.434-68.432c14.356,0,28.61,6.129,40.674,17.381c12.064-11.252,26.318-17.381,40.675-17.381
				c37.732,0,68.431,30.699,68.431,68.432c0,35.557-18.799,66.163-54.365,88.506c-26.344,16.55-52.325,22.703-53.419,22.956
				C130.89,219.971,130.447,220.022,130.003,220.022z M89.327,51.651c-31.297,0-56.76,25.461-56.76,56.758
				c0,31.678,16.35,58.064,48.594,78.426c21.486,13.569,43.329,19.873,48.842,21.329c5.511-1.456,27.324-7.753,48.788-21.297
				c32.276-20.367,48.642-46.763,48.642-78.458c0-31.296-25.461-56.758-56.757-56.758c-12.8,0-25.721,6.372-36.382,17.939
				c-1.105,1.2-2.662,1.881-4.293,1.881s-3.187-0.682-4.292-1.881C115.048,58.023,102.127,51.651,89.327,51.651z"/>
		</g>
		<g>
			<path fill="#213B4D" d="M134.89,126.202c-0.898,0-1.809-0.208-2.662-0.646c-2.868-1.473-3.998-4.992-2.524-7.859
				c3.305-6.434,4.98-13.396,4.98-20.689c0-25.009-20.347-45.356-45.356-45.356c-3.224,0-5.837-2.613-5.837-5.837
				c0-3.223,2.613-5.837,5.837-5.837c31.447,0,57.03,25.583,57.03,57.03c0,9.039-2.168,18.037-6.271,26.024
				C139.052,125.044,137.008,126.202,134.89,126.202z"/>
		</g>
	</g>
</g>
</svg>
