<?xml version="1.0" encoding="utf-8"?>
<!-- Generator: Adobe Illustrator 16.0.4, SVG Export Plug-In . SVG Version: 6.00 Build 0)  -->
<!DOCTYPE svg PUBLIC "-//W3C//DTD SVG 1.1//EN" "http://www.w3.org/Graphics/SVG/1.1/DTD/svg11.dtd">
<svg version="1.1" id="Layer_1" xmlns="http://www.w3.org/2000/svg" xmlns:xlink="http://www.w3.org/1999/xlink" x="0px" y="0px"
	 width="260px" height="260px" viewBox="0 0 260 260" enable-background="new 0 0 260 260" xml:space="preserve">
<g>
	<g>
		<g>
			<path fill="#EFC0FF" d="M224.188,103.591c12.713,54.099-17.607,79.816-77.347,93.856c-59.741,14.037-98.342,4.515-111.055-49.586
				c-12.713-54.097,17.607-79.815,77.348-93.854C172.875,39.969,211.475,49.491,224.188,103.591z"/>
		</g>
	</g>
	<g>
		<g>
			<g>
				<path fill="#F7C148" d="M129.486,187.604l16.94,20.328h-33.88L129.486,187.604z"/>
			</g>
		</g>
		<g>
			<g>
				<g>
					<path fill="#FFF168" d="M61.305,119.089c15.491,47.053,54.424,59.853,68.182,68.801l0,0
						c13.758-8.948,52.69-21.748,68.184-68.801"/>
				</g>
			</g>
			<g>
				<g>
					<path fill="#FFF168" d="M62.841,123.683c-2.911-7.771-4.504-16.184-4.504-24.97c0-39.295,31.854-71.15,71.149-71.15
						c39.296,0,71.148,31.855,71.148,71.15c0,7.086-1.034,13.932-2.964,20.392"/>
				</g>
			</g>
		</g>
		<g>
			<g>
				<path fill="#F7C148" d="M174.454,43.582c10.009,12.256,16.019,27.908,16.019,44.967c0,7.086-1.036,13.931-2.966,20.391H187.5
					c-15.494,47.04-54.422,59.838-68.178,68.786c-7.82-5.088-23.777-11.43-38.939-24.593c17.606,20.369,39.494,28.508,49.104,34.757
					c13.756-8.948,52.682-21.746,68.178-68.785h0.007c1.93-6.46,2.964-13.306,2.964-20.392
					C200.635,76.476,190.432,56.629,174.454,43.582z"/>
			</g>
		</g>
		<g>
			<g>
				<g>
					<path fill="#213B4D" d="M129.486,192.125c-0.804,0-1.607-0.229-2.309-0.686c-2.181-1.419-5.168-3.008-8.627-4.85
						c-17.907-9.537-47.875-25.497-61.27-66.178c-0.732-2.221,0.477-4.615,2.699-5.346c2.222-0.73,4.615,0.477,5.346,2.698
						c12.33,37.45,40.422,52.41,57.205,61.347c2.588,1.38,4.926,2.623,6.955,3.811c2.031-1.188,4.368-2.431,6.955-3.811
						c16.784-8.937,44.875-23.896,57.205-61.347c0.731-2.222,3.127-3.431,5.347-2.698c2.222,0.73,3.431,3.125,2.698,5.346
						c-13.393,40.681-43.363,56.641-61.268,66.178c-3.46,1.842-6.447,3.431-8.627,4.85
						C131.094,191.896,130.289,192.125,129.486,192.125z"/>
				</g>
			</g>
			<g>
				<g>
					<path fill="#213B4D" d="M62.842,127.919c-1.715,0-3.329-1.05-3.967-2.751c-3.167-8.452-4.773-17.354-4.773-26.455
						c0-41.567,33.817-75.385,75.385-75.385s75.386,33.817,75.386,75.385c0,7.354-1.058,14.622-3.142,21.602
						c-0.67,2.242-3.027,3.518-5.271,2.848c-2.24-0.67-3.515-3.028-2.846-5.271c1.85-6.194,2.787-12.646,2.787-19.179
						c0-36.896-30.018-66.915-66.914-66.915S62.572,61.816,62.572,98.713c0,8.084,1.424,15.985,4.234,23.484
						c0.82,2.19-0.289,4.631-2.48,5.45C63.837,127.832,63.335,127.919,62.842,127.919z"/>
				</g>
			</g>
		</g>
		<g>
			<g>
				<path fill="#213B4D" d="M146.443,212.169c-0.004,0-0.011,0-0.017,0l0,0l-33.88-0.002c-1.643,0-3.139-0.95-3.834-2.438
					c-0.698-1.488-0.472-3.246,0.58-4.51l16.94-20.326c0.805-0.966,1.996-1.524,3.253-1.524c1.258,0,2.449,0.559,3.254,1.524
					l16.734,20.081c0.746,0.764,1.204,1.808,1.204,2.958C150.679,210.271,148.783,212.169,146.443,212.169z M121.588,203.697h15.797
					l-7.898-9.478L121.588,203.697z"/>
			</g>
		</g>
		<g>
			<g>
				<path fill="#213B4D" d="M187.086,238.471c-0.345,0-0.697-0.042-1.048-0.133c-16.078-4.098-20.643-16.957-24.312-27.291
					l-0.6-1.684c-4.723-13.168-14.428-18.402-29.67-16.002c-2.318,0.36-4.479-1.215-4.843-3.523
					c-0.364-2.311,1.214-4.48,3.524-4.843c24.441-3.847,34.679,9.571,38.961,21.508l0.609,1.711
					c3.607,10.16,6.721,18.935,18.422,21.918c2.266,0.576,3.635,2.884,3.057,5.149C190.699,237.196,188.977,238.471,187.086,238.471
					z"/>
			</g>
		</g>
		<g>
			<g>
				<circle fill="#FFFFCC" cx="105.77" cy="74.995" r="20.329"/>
			</g>
		</g>
	</g>
</g>
</svg>
