<?xml version="1.0" encoding="utf-8"?>
<!-- Generator: Adobe Illustrator 16.0.4, SVG Export Plug-In . SVG Version: 6.00 Build 0)  -->
<!DOCTYPE svg PUBLIC "-//W3C//DTD SVG 1.1//EN" "http://www.w3.org/Graphics/SVG/1.1/DTD/svg11.dtd">
<svg version="1.1" id="Layer_1" xmlns="http://www.w3.org/2000/svg" xmlns:xlink="http://www.w3.org/1999/xlink" x="0px" y="0px"
	 width="710px" height="494.667px" viewBox="0 0 710 494.667" enable-background="new 0 0 710 494.667" xml:space="preserve">
<g>
	<g>
		<path fill="#A3E3FF" d="M683.963,245.285c-0.015,177.38-120.443,235.164-329.217,235.177
			c-208.771,0.016-329.19-57.752-329.175-235.131C25.586,67.952,146.015,10.168,354.788,10.153
			C563.56,10.139,683.979,67.906,683.963,245.285z"/>
	</g>
</g>
<g>
	
		<rect x="3.604" y="278.824" transform="matrix(-0.866 -0.5 0.5 -0.866 279.5399 731.6293)" fill="#FFF168" width="468.377" height="99.077"/>
</g>
<g>
	<polygon fill="#F7C148" points="421.845,474.371 17.772,241.08 10.21,254.177 415.845,488.371 465.386,402.564 463.823,401.662 	
		"/>
</g>
<g>
	<path fill="#213B4D" d="M415.829,493.362c-0.848,0-1.708-0.216-2.495-0.671L7.71,258.498c-1.148-0.663-1.986-1.755-2.33-3.036
		s-0.164-2.646,0.5-3.794l49.541-85.804c1.381-2.392,4.438-3.211,6.83-1.83l405.623,234.194c1.148,0.663,1.986,1.755,2.33,3.036
		c0.343,1.281,0.163,2.646-0.5,3.794l-49.54,85.803C419.238,492.465,417.558,493.362,415.829,493.362z M17.041,252.337
		l396.963,229.193l44.54-77.143L61.581,175.194L17.041,252.337z"/>
</g>
<g>
	<path fill="#213B4D" d="M370.985,467.475c-0.848,0-1.708-0.216-2.495-0.671c-2.392-1.381-3.211-4.438-1.83-6.83l27.023-46.805
		c1.38-2.392,4.437-3.215,6.83-1.83c2.392,1.381,3.211,4.438,1.83,6.83l-27.023,46.805
		C374.395,466.579,372.714,467.475,370.985,467.475z"/>
</g>
<g>
	<path fill="#213B4D" d="M335.883,447.209c-0.848,0-1.708-0.216-2.495-0.671c-2.392-1.381-3.211-4.438-1.831-6.83l13.511-23.404
		c1.38-2.392,4.438-3.214,6.83-1.83c2.392,1.381,3.211,4.438,1.831,6.83l-13.511,23.404
		C339.292,446.312,337.611,447.209,335.883,447.209z"/>
</g>
<g>
	<path fill="#213B4D" d="M300.78,426.944c-0.848,0-1.708-0.216-2.495-0.671c-2.392-1.381-3.211-4.438-1.83-6.83l13.511-23.402
		c1.38-2.391,4.438-3.212,6.83-1.83c2.392,1.381,3.211,4.438,1.83,6.83l-13.511,23.402
		C304.189,426.046,302.508,426.944,300.78,426.944z"/>
</g>
<g>
	<path fill="#213B4D" d="M265.678,406.674c-0.848,0-1.708-0.216-2.495-0.671c-2.392-1.381-3.211-4.438-1.83-6.83l27.021-46.803
		c1.38-2.391,4.438-3.212,6.83-1.83c2.392,1.381,3.211,4.438,1.83,6.83l-27.021,46.803
		C269.087,405.777,267.406,406.674,265.678,406.674z"/>
</g>
<g>
	<path fill="#213B4D" d="M230.573,386.409c-0.848,0-1.708-0.216-2.495-0.671c-2.392-1.381-3.211-4.438-1.83-6.83l13.512-23.402
		c1.38-2.393,4.438-3.213,6.83-1.83c2.392,1.381,3.211,4.438,1.83,6.83l-13.512,23.402
		C233.982,385.512,232.301,386.409,230.573,386.409z"/>
</g>
<g>
	<path fill="#213B4D" d="M195.472,366.141c-0.848,0-1.708-0.216-2.495-0.671c-2.391-1.381-3.211-4.438-1.83-6.83l13.509-23.4
		c1.38-2.391,4.438-3.213,6.83-1.83c2.391,1.381,3.211,4.438,1.83,6.83l-13.509,23.4C198.881,365.244,197.2,366.141,195.472,366.141
		z"/>
</g>
<g>
	<path fill="#213B4D" d="M160.369,345.875c-0.848,0-1.708-0.216-2.495-0.671c-2.392-1.381-3.211-4.438-1.83-6.83l27.021-46.805
		c1.38-2.391,4.438-3.212,6.83-1.83c2.392,1.381,3.211,4.438,1.83,6.83l-27.021,46.805
		C163.778,344.978,162.097,345.875,160.369,345.875z"/>
</g>
<g>
	<path fill="#213B4D" d="M125.266,325.609c-0.848,0-1.708-0.216-2.495-0.671c-2.392-1.38-3.211-4.438-1.831-6.83l13.509-23.401
		c1.38-2.391,4.438-3.213,6.83-1.83c2.392,1.38,3.211,4.438,1.831,6.83l-13.509,23.401
		C128.675,324.711,126.995,325.609,125.266,325.609z"/>
</g>
<g>
	<path fill="#213B4D" d="M90.162,305.34c-0.848,0-1.708-0.216-2.495-0.671c-2.392-1.381-3.211-4.438-1.83-6.83l13.51-23.4
		c1.38-2.391,4.438-3.212,6.83-1.83c2.392,1.381,3.211,4.438,1.83,6.83l-13.51,23.4C93.571,304.443,91.89,305.34,90.162,305.34z"/>
</g>
<g>
	<path fill="#D2F1FF" d="M703.105,352.664l-3.18-26.395c-1.165-9.68-9.029-21.587-17.469-26.461L513.74,202.401L496.017,233.1
		L703.105,352.664z"/>
</g>
<g>
	<path fill="#D2F1FF" d="M703.105,352.664l-24.446,10.445c-8.966,3.829-23.21,2.975-31.651-1.898l-168.715-97.408l17.724-30.699
		L703.105,352.664z"/>
</g>
<g>
	<path fill="#213B4D" d="M703.101,357.665c-0.848,0-1.708-0.216-2.495-0.671l-253.27-146.227c-2.392-1.381-3.211-4.438-1.83-6.83
		c1.379-2.391,4.438-3.213,6.83-1.83l253.27,146.227c2.392,1.381,3.211,4.438,1.83,6.83
		C706.51,356.768,704.829,357.665,703.101,357.665z"/>
</g>
<g>
	<path fill="#213B4D" d="M703.105,357.664c-0.862,0-1.725-0.223-2.5-0.67L493.517,237.43c-2.392-1.381-3.211-4.438-1.83-6.83
		l17.724-30.699c0.663-1.148,1.755-1.986,3.036-2.33c1.28-0.343,2.645-0.164,3.794,0.5l168.717,97.407
		c9.822,5.673,18.578,18.936,19.933,30.193l3.18,26.395c0.227,1.88-0.629,3.727-2.209,4.771
		C705.026,357.386,704.067,357.664,703.105,357.664z M502.847,231.27l194.099,112.063l-1.983-16.467
		c-0.97-8.051-7.981-18.672-15.006-22.729L515.57,209.231L502.847,231.27z"/>
</g>
<g>
	<path fill="#213B4D" d="M703.101,357.665c-0.848,0-1.708-0.216-2.495-0.671l-253.27-146.226c-2.392-1.381-3.211-4.438-1.83-6.83
		c1.379-2.391,4.438-3.212,6.83-1.83l253.27,146.226c2.392,1.381,3.211,4.438,1.83,6.83
		C706.51,356.767,704.829,357.665,703.101,357.665z"/>
</g>
<g>
	<path fill="#213B4D" d="M665.343,370.504c-7.776,0-15.37-1.81-20.835-4.964l-168.715-97.408c-2.392-1.381-3.211-4.438-1.83-6.83
		l17.724-30.699c0.663-1.148,1.755-1.986,3.036-2.33c1.28-0.344,2.645-0.164,3.794,0.5l207.089,119.561
		c1.64,0.947,2.604,2.739,2.491,4.629c-0.113,1.891-1.285,3.555-3.026,4.299l-24.446,10.445
		C676.338,369.537,671.055,370.504,665.343,370.504z M485.123,261.972l164.385,94.908c3.931,2.27,9.851,3.624,15.835,3.624
		c4.311,0,8.343-0.708,11.353-1.994l15.251-6.516l-194.1-112.062L485.123,261.972z"/>
</g>
<g>
	<path fill="#FF7846" d="M507.649,106.304c-27.652-15.966-63.01-6.493-78.976,21.157c-15.966,27.654-6.492,63.011,21.161,78.976
		l42.987,24.819l40.752-17.405l2.828-53.111c0.009-0.111,0.011-0.223,0.019-0.333l0.104-1.983l-0.007,0.003
		C537.238,137.751,526.814,117.368,507.649,106.304z M499.849,168.553c-6.729,11.66-21.633,15.654-33.291,8.923
		c-11.656-6.73-15.653-21.635-8.922-33.294c6.729-11.655,21.636-15.648,33.293-8.918
		C502.587,141.995,506.579,156.899,499.849,168.553z"/>
</g>
<g>
	<path fill="#C95632" d="M536.145,149.603l-2.568,48.248l-56.156,24.512l15.404,8.894l40.752-17.405l2.828-53.111
		c0.009-0.111,0.011-0.223,0.019-0.333l0.104-1.983l-0.006,0.003C536.623,155.47,536.49,152.521,536.145,149.603z"/>
</g>
<g>
	<path fill="#FF7846" d="M492.823,231.258l-42.987-24.82c-27.653-15.965-63.01-6.492-78.976,21.163
		c-15.966,27.648-6.489,63.006,21.161,78.973c19.168,11.063,42.029,9.9,59.576-1.06v0.008l1.665-1.083
		c0.093-0.062,0.188-0.12,0.28-0.182l44.582-29.008L492.823,231.258z M442.035,268.692c-6.73,11.656-21.635,15.651-33.293,8.921
		c-11.656-6.729-15.651-21.636-8.921-33.292c6.729-11.657,21.636-15.649,33.293-8.92
		C444.772,242.131,448.765,257.035,442.035,268.692z"/>
</g>
<g>
	<path fill="#C95632" d="M453.544,288.257c-0.093,0.062-0.188,0.119-0.28,0.182l-1.665,1.083v-0.008
		c-17.547,10.96-40.408,12.123-59.575,1.06c-16.056-9.271-25.967-25.078-28.345-42.117c-3.176,22.643,7.325,45.98,28.345,58.117
		c19.167,11.063,42.028,9.9,59.575-1.06v0.008l1.665-1.083c0.094-0.062,0.188-0.12,0.28-0.182l44.582-29.008l-1.788-14.836
		L453.544,288.257z"/>
</g>
<g>
	<path fill="none" stroke="#213B4D" stroke-width="10" stroke-linecap="round" stroke-linejoin="round" stroke-miterlimit="10" d="
		M467.56,175.738"/>
</g>
<g>
	<path fill="#213B4D" d="M492.822,236.256c-0.866,0-1.729-0.225-2.5-0.67l-42.987-24.819c-14.531-8.389-24.925-21.934-29.268-38.141
		c-4.342-16.206-2.113-33.134,6.276-47.666c11.188-19.376,32.053-31.414,54.45-31.414c10.966,0,21.808,2.914,31.355,8.427
		c20.079,11.592,32.083,33.166,31.375,56.354c0.002,0.119,0,0.239-0.006,0.359l-0.104,1.983l-3.958-0.086l0.012,0.025l3.939,0.181
		c-0.004,0.087-0.009,0.175-0.015,0.262l-2.825,53.064c-0.102,1.903-1.276,3.583-3.029,4.332l-40.752,17.405
		C494.157,236.123,493.489,236.256,492.822,236.256z M478.794,103.547c-18.837,0-36.383,10.121-45.79,26.414
		c-7.054,12.218-8.928,26.451-5.277,40.077c3.651,13.626,12.391,25.015,24.608,32.068l40.822,23.569l35.59-15.2l2.662-50.002
		c0.003-0.042,0.005-0.085,0.009-0.127l0.101-1.923c0-0.057,0.001-0.113,0.003-0.17c0.682-19.588-9.423-37.834-26.372-47.619
		C497.12,105.998,488.006,103.547,478.794,103.547z M478.721,185.746c-5.129,0-10.199-1.362-14.663-3.939
		c-6.794-3.923-11.654-10.256-13.686-17.834c-2.031-7.579-0.989-15.495,2.934-22.29c5.23-9.06,14.985-14.688,25.458-14.688
		c5.13,0,10.201,1.362,14.665,3.939c6.795,3.923,11.655,10.257,13.686,17.834c2.03,7.577,0.987,15.492-2.936,22.285
		C498.948,180.116,489.193,185.746,478.721,185.746z M478.764,136.995c-6.911,0-13.348,3.712-16.798,9.688
		c-2.588,4.481-3.274,9.703-1.935,14.701c1.339,4.998,4.545,9.176,9.026,11.763c2.946,1.701,6.287,2.6,9.663,2.6
		c6.911,0,13.347-3.713,16.798-9.692c2.588-4.481,3.275-9.7,1.937-14.697c-1.339-4.998-4.545-9.175-9.026-11.762
		C485.482,137.894,482.141,136.995,478.764,136.995z"/>
</g>
<g>
	<path fill="#213B4D" d="M420.86,319.324c-10.959,0-21.795-2.911-31.338-8.42c-14.531-8.391-24.925-21.936-29.268-38.142
		s-2.114-33.133,6.275-47.662c11.188-19.379,32.053-31.418,54.451-31.418c10.965,0,21.807,2.913,31.354,8.425l42.987,24.82
		c1.363,0.787,2.275,2.169,2.464,3.732l5.302,43.991c0.229,1.893-0.64,3.75-2.237,4.79l-44.76,29.123
		c-0.022,0.015-0.08,0.052-0.103,0.066l-1.665,1.083c-0.102,0.066-0.205,0.128-0.311,0.186
		C444.046,316.066,432.589,319.324,420.86,319.324z M420.981,203.683c-18.837,0-36.383,10.123-45.791,26.418
		c-7.054,12.215-8.928,26.446-5.276,40.072s12.391,25.016,24.607,32.07c8.024,4.632,17.133,7.08,26.339,7.08
		c9.944,0,19.657-2.784,28.089-8.051c0.046-0.028,0.093-0.057,0.141-0.084l1.633-1.062c0.019-0.013,0.074-0.049,0.094-0.062
		l41.972-27.31l-4.63-38.418l-40.822-23.57C439.307,206.133,430.193,203.683,420.981,203.683z M420.905,285.882
		c-5.129,0-10.199-1.362-14.663-3.939c-6.794-3.922-11.654-10.256-13.686-17.834c-2.03-7.579-0.988-15.494,2.935-22.288
		c5.23-9.061,14.986-14.689,25.459-14.689c5.129,0,10.2,1.362,14.664,3.939c6.795,3.922,11.655,10.256,13.686,17.834
		c2.03,7.577,0.988,15.492-2.935,22.287C441.133,280.253,431.378,285.882,420.905,285.882z M420.95,237.132
		c-6.912,0-13.349,3.712-16.799,9.689c-2.587,4.48-3.274,9.701-1.935,14.699c1.339,4.999,4.544,9.176,9.025,11.763
		c2.945,1.7,6.287,2.6,9.663,2.6c6.911,0,13.349-3.714,16.8-9.69c2.587-4.481,3.274-9.702,1.936-14.699
		c-1.339-4.998-4.545-9.174-9.026-11.762C427.669,238.031,424.327,237.132,420.95,237.132z"/>
</g>
<g>
	<polygon fill="#FFF168" points="331.597,193.053 411.454,54.735 408.364,6.844 365.347,28.115 285.489,166.434 	"/>
</g>
<g>
	<polygon fill="#F7C148" points="408.364,6.844 395.047,13.429 397.454,50.735 319.364,185.991 331.597,193.053 411.454,54.735 	"/>
</g>
<g>
	<polygon fill="#FFE8CD" points="381.745,52.952 411.439,54.502 408.364,6.844 365.347,28.115 365.148,28.458 	"/>
</g>
<g>
	
		<rect x="266.946" y="188.677" transform="matrix(-0.5 0.866 -0.866 -0.5 618.4828 73.5191)" fill="#FF8989" width="42.146" height="53.239"/>
</g>
<g>
	<polygon fill="#EA6363" points="309.149,203.148 288.54,238.844 254.896,219.421 254.433,220.225 300.54,246.844 321.613,210.344 	
		"/>
</g>
<g>
	
		<rect x="293.577" y="161.767" transform="matrix(0.5 -0.866 0.866 0.5 -11.3663 357.0873)" fill="#D2F1FF" width="19.965" height="53.239"/>
</g>
<g>
	<polygon fill="#AFDEEF" points="319.133,185.857 309.613,202.344 275.97,182.92 275.506,183.724 321.613,210.344 331.597,193.053 	
		"/>
</g>
<g>
	<path fill="#213B4D" d="M300.535,251.844c-0.848,0-1.708-0.216-2.495-0.67l-46.107-26.619c-1.148-0.663-1.986-1.755-2.33-3.036
		c-0.343-1.281-0.164-2.646,0.5-3.794l110.914-192.11c0.493-0.855,1.229-1.544,2.114-1.982l43.018-21.271
		c1.497-0.742,3.267-0.685,4.716,0.152c1.447,0.836,2.382,2.34,2.489,4.008l3.09,47.891c0.063,0.985-0.166,1.967-0.659,2.822
		L304.87,249.343C303.944,250.948,302.263,251.844,300.535,251.844z M261.263,218.395l37.447,21.619L406.367,53.546l-2.51-38.896
		L368.92,31.926L261.263,218.395z"/>
</g>
<g>
	<path fill="#213B4D" d="M321.608,215.344c-0.848,0-1.708-0.216-2.495-0.671l-46.107-26.619c-2.392-1.38-3.211-4.438-1.83-6.83
		c1.38-2.391,4.438-3.211,6.83-1.83l46.107,26.619c2.392,1.38,3.211,4.438,1.83,6.83
		C325.018,214.447,323.336,215.344,321.608,215.344z"/>
</g>
<g>
	<path fill="#213B4D" d="M331.591,198.054c-0.848,0-1.708-0.216-2.495-0.671l-46.108-26.62c-2.392-1.381-3.211-4.438-1.83-6.83
		c1.38-2.392,4.437-3.21,6.83-1.83l46.108,26.62c2.392,1.381,3.211,4.438,1.83,6.83C335,197.157,333.319,198.054,331.591,198.054z"
		/>
</g>
<g>
	<path fill="#213B4D" d="M411.459,59.735c-0.101,0-0.202-0.003-0.305-0.009l-29.709-1.783c-1.57-0.094-3.006-0.923-3.873-2.236
		L361.174,30.87c-1.521-2.304-0.887-5.406,1.418-6.927c2.307-1.522,5.406-0.886,6.928,1.417l15.021,22.75l27.214,1.633
		c2.756,0.166,4.856,2.534,4.691,5.291C416.286,57.689,414.083,59.735,411.459,59.735z"/>
</g>
<g>
	<g>
		<path fill="#213B4D" d="M223.258,174.362c-0.848,0-1.708-0.216-2.495-0.671c-2.392-1.381-3.211-4.438-1.83-6.83l40.547-70.228
			c1.381-2.391,4.438-3.211,6.83-1.83c2.392,1.381,3.211,4.438,1.83,6.83l-40.547,70.228
			C226.667,173.465,224.986,174.362,223.258,174.362z"/>
	</g>
	<g>
		<path fill="#213B4D" d="M204.105,163.304c-0.848,0-1.708-0.216-2.495-0.671c-2.392-1.381-3.211-4.438-1.83-6.83l40.546-70.227
			c1.38-2.391,4.438-3.211,6.83-1.83s3.211,4.438,1.83,6.83l-40.546,70.227C207.514,162.407,205.833,163.304,204.105,163.304z"/>
	</g>
	<g>
		<path fill="#213B4D" d="M184.952,152.246c-0.848,0-1.708-0.216-2.495-0.671c-2.392-1.381-3.211-4.438-1.83-6.83l40.547-70.228
			c1.381-2.391,4.438-3.211,6.83-1.83c2.392,1.381,3.211,4.438,1.83,6.83l-40.547,70.228
			C188.361,151.349,186.68,152.246,184.952,152.246z"/>
	</g>
	<g>
		<path fill="#213B4D" d="M165.799,141.188c-0.848,0-1.708-0.216-2.495-0.671c-2.392-1.381-3.211-4.438-1.83-6.83l40.546-70.228
			c1.38-2.392,4.437-3.211,6.83-1.83c2.392,1.381,3.211,4.438,1.83,6.83l-40.546,70.228
			C169.208,140.291,167.527,141.188,165.799,141.188z"/>
	</g>
	<g>
		<path fill="#213B4D" d="M263.805,104.134c-0.848,0-1.708-0.216-2.495-0.671c-2.391-1.38-3.211-4.438-1.83-6.83
			c4.718-8.173,1.908-18.663-6.265-23.382c-3.959-2.286-8.571-2.894-12.988-1.709c-4.416,1.183-8.106,4.016-10.393,7.975
			c-1.381,2.392-4.439,3.211-6.83,1.831c-2.392-1.38-3.211-4.438-1.831-6.83c3.621-6.273,9.468-10.761,16.464-12.635
			c6.997-1.874,14.304-0.913,20.577,2.708c12.948,7.477,17.4,24.093,9.925,37.042C267.214,103.237,265.533,104.134,263.805,104.134z
			"/>
	</g>
	<g>
		<path fill="#213B4D" d="M194.472,190.965c-6.615,0-13.143-1.735-19.025-5.131c-18.229-10.524-24.497-33.917-13.973-52.147
			c1.38-2.391,4.438-3.211,6.83-1.83c2.391,1.38,3.211,4.438,1.83,6.83c-7.767,13.454-3.141,30.719,10.312,38.487
			c6.518,3.762,14.11,4.762,21.379,2.814c7.269-1.948,13.344-6.61,17.107-13.128c1.379-2.392,4.437-3.212,6.83-1.831
			c2.392,1.38,3.211,4.438,1.831,6.83c-5.098,8.832-13.33,15.149-23.179,17.788C201.126,190.529,197.788,190.965,194.472,190.965z"
			/>
	</g>
	<g>
		<path fill="#213B4D" d="M193.887,169.914c-2.783,0-5.53-0.73-8.005-2.16c-3.713-2.143-6.371-5.605-7.48-9.749
			c-1.11-4.144-0.54-8.472,1.605-12.186c1.381-2.391,4.439-3.21,6.83-1.829c2.392,1.381,3.21,4.439,1.829,6.83
			c-0.809,1.401-1.024,3.034-0.605,4.597c0.419,1.562,1.421,2.869,2.821,3.677c1.403,0.811,3.036,1.027,4.599,0.606
			c1.563-0.418,2.869-1.421,3.678-2.822c1.379-2.392,4.437-3.214,6.83-1.832c2.392,1.38,3.212,4.438,1.832,6.83
			c-2.144,3.715-5.607,6.373-9.75,7.483C196.686,169.73,195.282,169.914,193.887,169.914z"/>
	</g>
</g>
</svg>
