<?xml version="1.0" encoding="utf-8"?>
<!-- Generator: Adobe Illustrator 16.0.4, SVG Export Plug-In . SVG Version: 6.00 Build 0)  -->
<!DOCTYPE svg PUBLIC "-//W3C//DTD SVG 1.1//EN" "http://www.w3.org/Graphics/SVG/1.1/DTD/svg11.dtd">
<svg version="1.1" id="Layer_1" xmlns="http://www.w3.org/2000/svg" xmlns:xlink="http://www.w3.org/1999/xlink" x="0px" y="0px"
	 width="260px" height="260px" viewBox="0 0 260 260" enable-background="new 0 0 260 260" xml:space="preserve">
<g>
	<g>
		<g>
			<path fill="#FFDD8C" d="M223.463,82.762c27.129,55.638,0.525,91.039-60.914,120.997
				c-61.438,29.956-105.714,29.116-132.844-26.521C2.578,121.601,29.182,86.199,90.62,56.242
				C152.06,26.284,196.335,27.126,223.463,82.762z"/>
		</g>
	</g>
	<g>
		<g>
			<polyline fill="#FF8948" points="228.355,97.687 254.338,216.691 202.372,216.691 228.355,97.687 			"/>
		</g>
		<g>
			<polygon fill="#FF542C" points="228.355,97.687 202.372,216.691 228.355,216.691 			"/>
		</g>
		<g>
			<polygon fill="#6357CE" points="191.236,86.552 191.062,160.875 117,197.907 42.936,160.875 42.762,86.552 117,86.552 			"/>
		</g>
		<g>
			<polygon fill="#3535A5" points="42.762,86.552 42.865,130.811 124.423,171.587 191.115,138.24 191.236,86.552 117,86.552 			"/>
		</g>
		<g>
			<path fill="#213B4D" d="M117,202.547c-0.711,0-1.422-0.163-2.076-0.49L40.86,165.025c-1.567-0.784-2.561-2.386-2.565-4.139
				l-0.172-74.324c-0.004-1.232,0.484-2.415,1.354-3.288s2.052-1.363,3.284-1.363h148.475c1.232,0,2.414,0.49,3.285,1.363
				c0.87,0.873,1.357,2.056,1.354,3.288l-0.175,74.324c-0.004,1.753-0.996,3.354-2.564,4.139l-74.062,37.031
				C118.421,202.384,117.711,202.547,117,202.547z M47.568,158.005L117,192.72l69.428-34.715l0.158-66.813H47.413L47.568,158.005z"
				/>
		</g>
		<g>
			<polygon fill="#8278FF" points="228.355,97.687 117,153.365 5.644,97.687 117,42.009 			"/>
		</g>
		<g>
			<path fill="#213B4D" d="M117,158.005c-0.712,0-1.422-0.163-2.076-0.49L3.568,101.837c-1.571-0.786-2.564-2.393-2.564-4.15
				c0-1.757,0.993-3.363,2.564-4.149l111.355-55.678c1.307-0.654,2.844-0.654,4.15,0L230.43,93.537
				c1.572,0.786,2.564,2.393,2.564,4.149c0,1.758-0.992,3.364-2.564,4.15l-111.355,55.678
				C118.421,157.842,117.711,158.005,117,158.005z M16.02,97.687L117,148.178l100.979-50.491L117,47.196L16.02,97.687z"/>
		</g>
		<g>
			<path fill="#213B4D" d="M228.355,221.331c-2.563,0-4.641-2.077-4.641-4.64V97.687c0-2.562,2.077-4.64,4.641-4.64
				c2.562,0,4.639,2.077,4.639,4.64v119.005C232.994,219.254,230.918,221.331,228.355,221.331z"/>
		</g>
		<g>
			<path fill="#213B4D" d="M254.355,221.331c-0.004,0-0.01,0.001-0.018,0h-51.966c-1.405,0-2.733-0.637-3.614-1.73
				s-1.219-2.527-0.919-3.899l25.983-119.004c0.465-2.131,2.352-3.65,4.533-3.65c2.181,0,4.067,1.52,4.532,3.65l25.894,118.594
				c0.139,0.442,0.215,0.912,0.215,1.4C258.996,219.254,256.919,221.331,254.355,221.331z M208.134,212.051h40.442l-20.221-92.613
				L208.134,212.051z"/>
		</g>
		<g>
			
				<path fill="none" stroke="#213B4D" stroke-width="10" stroke-linecap="round" stroke-linejoin="round" stroke-miterlimit="10" d="
				M217.219,220.402"/>
		</g>
		<g>
			
				<path fill="none" stroke="#213B4D" stroke-width="10" stroke-linecap="round" stroke-linejoin="round" stroke-miterlimit="10" d="
				M228.355,97.687"/>
		</g>
		<g>
			
				<path fill="none" stroke="#213B4D" stroke-width="10" stroke-linecap="round" stroke-linejoin="round" stroke-miterlimit="10" d="
				M206.084,209.731"/>
		</g>
		<g>
			
				<path fill="none" stroke="#213B4D" stroke-width="10" stroke-linecap="round" stroke-linejoin="round" stroke-miterlimit="10" d="
				M228.355,97.687"/>
		</g>
		<g>
			<path fill="#213B4D" d="M228.355,102.327H117c-2.563,0-4.641-2.077-4.641-4.641c0-2.562,2.077-4.64,4.641-4.64h111.355
				c2.562,0,4.639,2.077,4.639,4.64C232.994,100.25,230.918,102.327,228.355,102.327z"/>
		</g>
	</g>
</g>
</svg>
