<?xml version="1.0" encoding="utf-8"?>
<!-- Generator: Adobe Illustrator 16.0.4, SVG Export Plug-In . SVG Version: 6.00 Build 0)  -->
<!DOCTYPE svg PUBLIC "-//W3C//DTD SVG 1.1//EN" "http://www.w3.org/Graphics/SVG/1.1/DTD/svg11.dtd">
<svg version="1.1" id="Layer_1" xmlns="http://www.w3.org/2000/svg" xmlns:xlink="http://www.w3.org/1999/xlink" x="0px" y="0px"
	 width="260px" height="260px" viewBox="0 0 260 260" enable-background="new 0 0 260 260" xml:space="preserve">
<g>
	<g>
		<g>
			<path fill="#CEF6D1" d="M217.092,178.731c-27.471,50.552-68.617,49.519-124.44,19.185
				c-55.823-30.335-79.076-64.297-51.605-114.849c27.47-50.55,68.616-49.519,124.439-19.184S244.561,128.182,217.092,178.731z"/>
		</g>
	</g>
	<g>
		<g>
			<g>
				<polygon fill="#FF5850" points="66.684,51.703 66.684,135.146 142.068,210.096 142.068,149.073 111.685,97.55 				"/>
			</g>
		</g>
		<g>
			<g>
				<polygon fill="#C11A1A" points="111.685,97.55 99.502,85.139 70.978,126.082 74.25,142.668 74.25,142.668 85.375,140.206 
					129.067,127.027 				"/>
			</g>
		</g>
		<g>
			<g>
				<polyline fill="#FF4D4D" points="65.838,51.703 31.109,88.973 66.684,88.973 				"/>
			</g>
		</g>
		<g>
			<g>
				<polyline fill="#FF4D4D" points="66.516,135.145 152.339,63.562 242.864,63.562 108.013,176.04 				"/>
			</g>
		</g>
		<g opacity="0.6">
			<g>
				<polygon fill="#C11A1A" points="66.684,121.187 66.684,135.005 66.516,135.145 85.512,153.863 142.068,210.096 142.068,196.137 
									"/>
			</g>
		</g>
		<g>
			<g>
				<line fill="#FF783D" x1="65.838" y1="51.703" x2="111.685" y2="97.55"/>
			</g>
		</g>
		<g>
			<g>
				<path fill="#213B4D" d="M142.07,214.331c-1.098,0-2.178-0.427-2.987-1.232L63.699,138.15c-0.8-0.795-1.249-1.877-1.249-3.005
					V51.703c0-2.339,1.896-4.235,4.233-4.235c2.34,0,4.236,1.896,4.236,4.235v81.682l66.914,66.528v-50.84
					c0-2.338,1.896-4.234,4.234-4.234c2.34,0,4.236,1.896,4.236,4.234v61.022c0,1.711-1.029,3.254-2.609,3.911
					C143.17,214.225,142.617,214.331,142.07,214.331z"/>
			</g>
		</g>
		<g>
			<g>
				<path fill="#213B4D" d="M66.684,93.206H31.109c-1.686,0-3.212-0.998-3.884-2.544c-0.673-1.547-0.363-3.345,0.785-4.577
					l34.728-37.269c1.595-1.711,4.275-1.807,5.986-0.212s1.805,4.274,0.211,5.986L40.844,84.736h25.84
					c2.34,0,4.236,1.896,4.236,4.236C70.92,91.311,69.023,93.206,66.684,93.206z"/>
			</g>
		</g>
		<g>
			<g>
				<path fill="#213B4D" d="M111.685,101.784c-1.097,0-2.193-0.422-3.022-1.268l-45-45.847c-1.639-1.67-1.613-4.352,0.056-5.989
					c1.67-1.639,4.351-1.613,5.989,0.056l45,45.848c1.639,1.669,1.613,4.35-0.056,5.988
					C113.826,101.381,112.756,101.784,111.685,101.784z"/>
			</g>
		</g>
		<g>
			<g>
				<path fill="#213B4D" d="M108.015,180.274c-1.213,0-2.416-0.518-3.254-1.522c-1.499-1.796-1.257-4.467,0.538-5.965
					L231.176,67.796h-77.303l-84.644,70.601c-1.796,1.498-4.467,1.258-5.966-0.54c-1.498-1.795-1.256-4.467,0.54-5.965
					l85.823-71.583c0.762-0.634,1.721-0.982,2.712-0.982h90.525c1.782,0,3.375,1.117,3.981,2.793c0.607,1.676,0.1,3.553-1.27,4.694
					L110.726,179.292C109.934,179.953,108.971,180.274,108.015,180.274z"/>
			</g>
		</g>
	</g>
</g>
</svg>
