<?xml version="1.0" encoding="utf-8"?>
<!-- Generator: Adobe Illustrator 16.0.4, SVG Export Plug-In . SVG Version: 6.00 Build 0)  -->
<!DOCTYPE svg PUBLIC "-//W3C//DTD SVG 1.1//EN" "http://www.w3.org/Graphics/SVG/1.1/DTD/svg11.dtd">
<svg version="1.1" id="Layer_1" xmlns="http://www.w3.org/2000/svg" xmlns:xlink="http://www.w3.org/1999/xlink" x="0px" y="0px"
	 width="630px" height="542px" viewBox="0 0 630 542" enable-background="new 0 0 630 542" xml:space="preserve">
<g>
	<g>
		<path fill="#ACF1DE" d="M609.831,191.639c47.931,179.446-44.097,266.827-230.704,316.987
			C192.517,558.785,69.266,529.27,21.335,349.825C-26.596,170.382,65.434,83,252.042,32.842
			C438.65-17.317,561.9,12.196,609.831,191.639z"/>
	</g>
</g>
<g>
	<rect x="54.059" y="10.989" fill="#3B7CFF" width="520" height="520"/>
</g>
<g>
	<rect x="548.896" y="10.989" fill="#1C5DC6" width="25.162" height="520"/>
</g>
<g>
	<rect x="54.058" y="506.667" fill="#1C5DC6" width="520" height="24.322"/>
</g>
<g opacity="0.6">
	<g>
		<path fill="#52A1FF" d="M213.413,510.828c-2.761,0-5-2.238-5-5V36.15c0-2.761,2.239-5,5-5s5,2.239,5,5v469.678
			C218.413,508.59,216.174,510.828,213.413,510.828z"/>
	</g>
	<g>
		<path fill="#52A1FF" d="M146.316,510.828c-2.761,0-5-2.238-5-5V36.15c0-2.761,2.239-5,5-5s5,2.239,5,5v469.678
			C151.316,508.59,149.077,510.828,146.316,510.828z"/>
	</g>
	<g>
		<path fill="#52A1FF" d="M280.511,510.828c-2.761,0-5-2.238-5-5V36.15c0-2.761,2.239-5,5-5s5,2.239,5,5v469.678
			C285.511,508.59,283.272,510.828,280.511,510.828z"/>
	</g>
	<g>
		<path fill="#52A1FF" d="M414.704,510.828c-2.762,0-5-2.238-5-5V36.15c0-2.761,2.238-5,5-5s5,2.239,5,5v469.678
			C419.704,508.59,417.466,510.828,414.704,510.828z"/>
	</g>
	<g>
		<path fill="#52A1FF" d="M347.606,510.828c-2.762,0-5-2.238-5-5V36.15c0-2.761,2.238-5,5-5s5,2.239,5,5v469.678
			C352.606,508.59,350.368,510.828,347.606,510.828z"/>
	</g>
	<g>
		<path fill="#52A1FF" d="M481.801,510.828c-2.762,0-5-2.238-5-5V36.15c0-2.761,2.238-5,5-5s5,2.239,5,5v469.678
			C486.801,508.59,484.562,510.828,481.801,510.828z"/>
	</g>
</g>
<g>
	<g>
		<path fill="#52A1FF" d="M548.896,376.635H79.219c-2.761,0-5-2.238-5-5s2.239-5,5-5h469.678c2.762,0,5,2.238,5,5
			S551.658,376.635,548.896,376.635z"/>
	</g>
	<g>
		<path fill="#52A1FF" d="M548.896,443.731H79.219c-2.761,0-5-2.238-5-5s2.239-5,5-5h469.678c2.762,0,5,2.238,5,5
			S551.658,443.731,548.896,443.731z"/>
	</g>
	<g>
		<path fill="#52A1FF" d="M548.896,309.538H79.219c-2.761,0-5-2.238-5-5s2.239-5,5-5h469.678c2.762,0,5,2.238,5,5
			S551.658,309.538,548.896,309.538z"/>
	</g>
	<g>
		<path fill="#52A1FF" d="M548.896,175.344H79.219c-2.761,0-5-2.239-5-5s2.239-5,5-5h469.678c2.762,0,5,2.239,5,5
			S551.658,175.344,548.896,175.344z"/>
	</g>
	<g>
		<path fill="#52A1FF" d="M548.896,242.44H79.219c-2.761,0-5-2.239-5-5s2.239-5,5-5h469.678c2.762,0,5,2.239,5,5
			S551.658,242.44,548.896,242.44z"/>
	</g>
	<g>
		<path fill="#52A1FF" d="M548.896,108.247H79.219c-2.761,0-5-2.239-5-5s2.239-5,5-5h469.678c2.762,0,5,2.239,5,5
			S551.658,108.247,548.896,108.247z"/>
	</g>
</g>
<g>
	<path fill="#213B4D" d="M574.059,535.989h-520c-2.762,0-5-2.238-5-5v-520c0-2.761,2.238-5,5-5h520c2.762,0,5,2.239,5,5v520
		C579.059,533.751,576.82,535.989,574.059,535.989z M59.059,525.989h510v-510h-510V525.989z"/>
</g>
<g>
	<g>
		<g>
			<path fill="#C7F3FF" d="M562.315,510.828H65.8c-2.761,0-5-2.238-5-5s2.239-5,5-5h496.516c2.762,0,5,2.238,5,5
				S565.077,510.828,562.315,510.828z"/>
		</g>
		<g>
			<path fill="#C7F3FF" d="M562.315,41.15H65.8c-2.761,0-5-2.239-5-5s2.239-5,5-5h496.516c2.762,0,5,2.239,5,5
				S565.077,41.15,562.315,41.15z"/>
		</g>
		<g>
			<path fill="#C7F3FF" d="M548.896,524.247c-2.762,0-5-2.238-5-5V22.731c0-2.761,2.238-5,5-5s5,2.239,5,5v496.516
				C553.896,522.009,551.658,524.247,548.896,524.247z"/>
		</g>
		<g>
			<path fill="#C7F3FF" d="M79.22,524.247c-2.761,0-5-2.238-5-5V22.731c0-2.761,2.239-5,5-5s5,2.239,5,5v496.516
				C84.22,522.009,81.981,524.247,79.22,524.247z"/>
		</g>
	</g>
	<g>
		<path fill="#C7F3FF" d="M213.413,457.15c-2.761,0-5-2.238-5-5V89.828c0-2.761,2.239-5,5-5s5,2.239,5,5V452.15
			C218.413,454.912,216.174,457.15,213.413,457.15z"/>
	</g>
	<g>
		<path fill="#C7F3FF" d="M280.511,457.15c-2.761,0-5-2.238-5-5V291.119c0-2.762,2.239-5,5-5s5,2.238,5,5V452.15
			C285.511,454.912,283.272,457.15,280.511,457.15z"/>
	</g>
	<g>
		<path fill="#C7F3FF" d="M428.124,108.247h-228.13c-2.761,0-5-2.239-5-5s2.239-5,5-5h228.13c2.762,0,5,2.239,5,5
			S430.886,108.247,428.124,108.247z"/>
	</g>
	<g>
		<path fill="#C7F3FF" d="M428.124,175.344H267.091c-2.761,0-5-2.239-5-5s2.239-5,5-5h161.033c2.762,0,5,2.239,5,5
			S430.886,175.344,428.124,175.344z"/>
	</g>
	<g>
		<path fill="#C7F3FF" d="M428.124,242.44H267.091c-2.761,0-5-2.239-5-5s2.239-5,5-5h161.033c2.762,0,5,2.239,5,5
			S430.886,242.44,428.124,242.44z"/>
	</g>
	<g>
		<path fill="#C7F3FF" d="M428.124,309.538H267.091c-2.761,0-5-2.238-5-5s2.239-5,5-5h161.033c2.762,0,5,2.238,5,5
			S430.886,309.538,428.124,309.538z"/>
	</g>
	<g>
		<path fill="#C7F3FF" d="M414.704,322.957c-2.762,0-5-2.238-5-5v-93.935c0-2.761,2.238-5,5-5s5,2.239,5,5v93.935
			C419.704,320.719,417.466,322.957,414.704,322.957z"/>
	</g>
	<g>
		<path fill="#C7F3FF" d="M414.704,188.764c-2.762,0-5-2.239-5-5V89.828c0-2.761,2.238-5,5-5s5,2.239,5,5v93.936
			C419.704,186.525,417.466,188.764,414.704,188.764z"/>
	</g>
	<g>
		<path fill="#C7F3FF" d="M280.511,255.86c-2.761,0-5-2.239-5-5v-93.936c0-2.761,2.239-5,5-5s5,2.239,5,5v93.936
			C285.511,253.621,283.272,255.86,280.511,255.86z"/>
	</g>
	<g>
		<path fill="#C7F3FF" d="M293.929,443.731h-93.935c-2.761,0-5-2.238-5-5s2.239-5,5-5h93.935c2.761,0,5,2.238,5,5
			S296.69,443.731,293.929,443.731z"/>
	</g>
</g>
</svg>
