<?xml version="1.0" encoding="utf-8"?>
<!-- Generator: Adobe Illustrator 16.0.4, SVG Export Plug-In . SVG Version: 6.00 Build 0)  -->
<!DOCTYPE svg PUBLIC "-//W3C//DTD SVG 1.1//EN" "http://www.w3.org/Graphics/SVG/1.1/DTD/svg11.dtd">
<svg version="1.1" id="Layer_1" xmlns="http://www.w3.org/2000/svg" xmlns:xlink="http://www.w3.org/1999/xlink" x="0px" y="0px"
	 width="260px" height="260px" viewBox="0 0 260 260" enable-background="new 0 0 260 260" xml:space="preserve">
<g>
	<g>
		<path fill="#CEF6D1" d="M248.937,81.135c27.633,67.257-6.877,107.041-82.304,138.029
			c-75.427,30.988-127.935,26.957-155.569-40.298c-27.632-67.257,6.877-107.04,82.302-138.03
			C168.794,9.847,221.304,13.878,248.937,81.135z"/>
	</g>
	<g>
		<g>
			<circle fill="#FFF268" cx="130" cy="130" r="92.702"/>
		</g>
		<g>
			<path fill="#A8A045" d="M222.702,130c0,51.2-41.506,92.702-92.703,92.702c0,0,72.698-16.907,72.698-92.702
				c0-75.792-72.698-92.702-72.698-92.702C181.196,37.298,222.702,78.802,222.702,130z"/>
		</g>
		<g>
			<path fill="#213B4D" d="M129.999,228.539c-54.334,0-98.538-44.204-98.538-98.539c0-54.334,44.204-98.539,98.538-98.539
				c54.335,0,98.54,44.205,98.54,98.539C228.539,184.335,184.334,228.539,129.999,228.539z M129.999,43.135
				c-47.897,0-86.864,38.968-86.864,86.865c0,47.897,38.967,86.865,86.864,86.865c47.898,0,86.866-38.968,86.866-86.865
				C216.865,82.103,177.897,43.135,129.999,43.135z"/>
		</g>
		<g>
			<g>
				<g>
					<path fill="#213B4D" d="M159.427,112.538c-7.084,0-12.828-5.741-12.828-12.828c0-7.088,5.744-12.831,12.83-12.832
						c7.088,0,12.832,5.746,12.832,12.832C172.258,106.797,166.517,112.538,159.427,112.538z"/>
				</g>
				<g>
					<path fill="#213B4D" d="M100.569,112.538c-7.086,0-12.829-5.741-12.829-12.828s5.744-12.831,12.829-12.832
						c7.09,0,12.833,5.746,12.833,12.832C113.401,106.797,107.659,112.538,100.569,112.538z"/>
				</g>
			</g>
			<g>
				<path fill="#213B4D" d="M130.002,178.959c-19.048,0-36.929-7.455-50.349-20.991c-2.27-2.289-2.253-5.985,0.036-8.255
					c2.289-2.271,5.986-2.253,8.254,0.035c11.211,11.309,26.147,17.537,42.058,17.537c15.91,0,30.843-6.229,42.05-17.536
					c2.271-2.29,5.967-2.307,8.255-0.038c2.29,2.271,2.306,5.966,0.037,8.256C166.928,171.503,149.05,178.959,130.002,178.959z"/>
			</g>
		</g>
	</g>
</g>
</svg>
