<?xml version="1.0" encoding="utf-8"?>
<!-- Generator: Adobe Illustrator 16.0.4, SVG Export Plug-In . SVG Version: 6.00 Build 0)  -->
<!DOCTYPE svg PUBLIC "-//W3C//DTD SVG 1.1//EN" "http://www.w3.org/Graphics/SVG/1.1/DTD/svg11.dtd">
<svg version="1.1" id="Layer_1" xmlns="http://www.w3.org/2000/svg" xmlns:xlink="http://www.w3.org/1999/xlink" x="0px" y="0px"
	 width="1238.518px" height="120.527px" viewBox="0 0 1238.518 120.527" enable-background="new 0 0 1238.518 120.527"
	 xml:space="preserve">
<g>
	<path fill="#213B4D" d="M4.308,84.114V20.801c0-6.76,3.77-10.66,10.01-10.66H57.74c5.98,0,8.84,2.73,8.84,7.67v0.78
		c0,5.33-2.86,7.931-8.84,7.931H23.289v20.931H48.12c6.11,0,8.84,2.601,8.84,7.411v0.389c0,5.07-2.73,7.802-8.84,7.802H23.809
		v22.881c0,5.85-2.86,8.84-8.45,8.84h-2.99C7.168,94.774,4.308,90.874,4.308,84.114z"/>
	<path fill="#213B4D" d="M85.56,40.952c2.6-7.28,7.8-11.57,15.471-11.57c7.41,0,11.831,4.16,11.831,10.66
		c0,7.28-5.59,9.88-5.851,9.62c-1.95-1.82-4.81-3.12-8.32-3.12c-8.97,0-12.87,7.801-12.87,20.541v18.98
		c0,6.631-3.38,8.711-8.061,8.711h-1.95c-4.94,0-8.32-1.949-8.32-8.711V32.241c0-0.52,3.25-2.08,6.891-2.08
		C79.189,30.161,84.39,32.371,85.56,40.952z"/>
	<path fill="#213B4D" d="M114.029,77.354c0-14.561,13-21.192,40.822-21.581h2.08c0-8.191-4.55-12.611-13.001-12.611
		c-8.84,0-13.39,4.811-15.73,9.75c0,0.26-11.83,0.65-11.83-7.8c0-7.931,9.36-15.73,28.731-15.73c20.021,0,29.901,9.1,29.901,26.131
		v37.571c0,0.91-3.38,2.08-6.89,2.08c-5.85,0-9.75-3.121-10.791-10.012c-4.55,6.631-12.61,10.531-21.971,10.531
		C122.089,95.684,114.029,88.143,114.029,77.354z M156.931,69.422v-3.639l-3.38,0.129c-14.431,0.391-21.971,3.25-21.971,10.141
		c0,4.68,3.77,7.67,9.88,7.67C150.561,83.723,156.931,77.743,156.931,69.422z"/>
	<path fill="#213B4D" d="M185.008,110.764V32.241c0-0.52,3.25-2.08,6.89-2.08c4.811,0,10.011,2.341,11.181,11.051
		c4.03-7.28,11.181-11.83,20.801-11.83c17.161,0,29.381,12.87,29.381,33.152c0,19.76-12.09,33.41-29.641,33.41
		c-9.75,0-17.031-5.199-20.281-11.57v26.391c0,6.631-3.38,8.84-8.06,8.84h-1.95C188.388,119.604,185.008,117.524,185.008,110.764z
		 M235.58,62.663c0-11.05-6.63-18.59-16.25-18.59c-7.67,0-13.26,4.03-15.991,10.4v12.351c0.26,8.58,7.15,14.561,15.861,14.561
		C229.08,81.383,235.58,73.842,235.58,62.663z"/>
	<path fill="#213B4D" d="M260.407,110.764V32.241c0-0.52,3.25-2.08,6.89-2.08c4.811,0,10.011,2.341,11.181,11.051
		c4.03-7.28,11.181-11.83,20.801-11.83c17.161,0,29.381,12.87,29.381,33.152c0,19.76-12.09,33.41-29.641,33.41
		c-9.75,0-17.031-5.199-20.281-11.57v26.391c0,6.631-3.38,8.84-8.06,8.84h-1.95C263.788,119.604,260.407,117.524,260.407,110.764z
		 M310.979,62.663c0-11.05-6.63-18.59-16.25-18.59c-7.67,0-13.26,4.03-15.991,10.4v12.351c0.26,8.58,7.15,14.561,15.861,14.561
		C304.479,81.383,310.979,73.842,310.979,62.663z"/>
	<path fill="#213B4D" d="M332.427,63.053c0-19.372,13.911-33.671,33.151-33.671c18.721,0,31.591,13.13,31.591,31.72v1.301
		c-0.13,3.25-1.04,5.07-4.42,5.07h-43.812c1.3,9.49,8.581,15.08,18.461,15.08c9.62,0,14.951-4.289,17.94-9.359
		c0.13-0.26,8.841,0.91,8.841,8.189c0,6.891-9.75,14.561-27.431,14.561C346.077,95.944,332.427,83.073,332.427,63.053z
		 M348.937,56.812h31.201c-0.39-8.839-5.98-14.69-14.82-14.69C356.738,42.122,350.237,48.232,348.937,56.812z M369.608,2.211
		c2.21-1.431,4.42-2.211,6.5-2.211c4.68,0,8.32,3.12,8.32,7.15c0,3.641-2.34,7.41-6.371,9.881c-10.14,6.11-22.36,5.98-23.4,4.42
		C353.748,19.761,361.028,7.541,369.608,2.211z"/>
	<path fill="#213B4D" d="M416.794,38.352v-1.04c0-4.29,2.34-6.5,7.67-6.5h5.2v-3.38c0-17.681,8.71-24.312,21.971-24.312
		c11.18,0,16.12,4.811,16.12,10.011c0,4.42-3.64,7.801-3.9,7.41c-1.82-1.689-5.07-3.38-8.71-3.38c-5.33,0-7.8,2.99-7.8,10.271v3.38
		h8.19c5.33,0,7.67,2.34,7.67,6.761v1.17c0,4.16-2.34,6.37-7.67,6.37h-7.541v40.951c0,6.762-3.25,8.711-8.19,8.711h-1.95
		c-4.68,0-8.19-2.08-8.19-8.711V45.112h-5.2C419.135,45.112,416.794,42.771,416.794,38.352z"/>
	<path fill="#213B4D" d="M463.466,62.534c0-19.501,13.911-33.152,34.061-33.152c20.021,0,33.801,13.65,33.801,33.412
		c0,19.76-13.78,33.15-34.061,33.15C477.116,95.944,463.466,82.553,463.466,62.534z M515.078,62.793
		c0-11.051-7.41-19.112-17.681-19.112s-17.811,7.931-17.811,18.852c0,11.049,7.54,18.98,17.811,18.98
		C507.538,81.514,515.078,73.583,515.078,62.793z"/>
	<path fill="#213B4D" d="M556.545,40.952c2.6-7.28,7.8-11.57,15.471-11.57c7.41,0,11.831,4.16,11.831,10.66
		c0,7.28-5.59,9.88-5.851,9.62c-1.95-1.82-4.81-3.12-8.32-3.12c-8.97,0-12.87,7.801-12.87,20.541v18.98
		c0,6.631-3.38,8.711-8.061,8.711h-1.95c-4.94,0-8.32-1.949-8.32-8.711V32.241c0-0.52,3.25-2.08,6.891-2.08
		C550.175,30.161,555.375,32.371,556.545,40.952z"/>
	<path fill="#213B4D" d="M608.673,83.723V20.801c0-6.76,4.29-10.66,10.14-10.66h21.321c28.211,0,45.242,15.73,45.242,41.731
		c0,26.13-17.551,42.382-45.892,42.382h-20.151C613.353,94.254,608.673,89.575,608.673,83.723z M639.354,77.874
		c16.771,0,26.912-9.49,26.912-25.872c0-16.12-10.141-25.48-26.651-25.48h-11.96v51.352H639.354z"/>
	<path fill="#213B4D" d="M689.795,63.053c0-19.372,13.91-33.671,33.15-33.671c18.721,0,31.592,13.13,31.592,31.72v1.301
		c-0.131,3.25-1.041,5.07-4.42,5.07h-43.812c1.301,9.49,8.58,15.08,18.461,15.08c9.621,0,14.951-4.289,17.941-9.359
		c0.129-0.26,8.84,0.91,8.84,8.189c0,6.891-9.75,14.561-27.432,14.561C703.445,95.944,689.795,83.073,689.795,63.053z
		 M706.305,56.812h31.201c-0.39-8.839-5.98-14.69-14.82-14.69C714.105,42.122,707.605,48.232,706.305,56.812z"/>
	<path fill="#213B4D" d="M800.424,39.392c2.34-7.28,6.111-9.36,10.012-9.36c5.59,0,10.27,4.42,9.879,5.461l-22.75,54.731
		c-1.561,3.771-6.111,4.811-10.271,4.811c-4.289,0-8.709-0.91-10.27-4.68l-23.012-54.862c-0.389-1.041,4.422-5.461,9.881-5.461
		c4.42,0,8.061,2.08,10.4,9.36l12.871,38.091L800.424,39.392z"/>
	<path fill="#213B4D" d="M819.793,63.053c0-19.372,13.91-33.671,33.15-33.671c18.721,0,31.592,13.13,31.592,31.72v1.301
		c-0.129,3.25-1.039,5.07-4.42,5.07h-43.812c1.301,9.49,8.582,15.08,18.461,15.08c9.621,0,14.951-4.289,17.941-9.359
		c0.129-0.26,8.84,0.91,8.84,8.189c0,6.891-9.75,14.561-27.432,14.561C833.443,95.944,819.793,83.073,819.793,63.053z
		 M836.303,56.812h31.201c-0.389-8.839-5.979-14.69-14.82-14.69C844.104,42.122,837.604,48.232,836.303,56.812z"/>
	<path fill="#213B4D" d="M891.941,86.063V5.98c0-0.65,3.25-2.08,6.891-2.08c5.459,0,11.439,2.86,11.439,14.69v67.472
		c0,6.631-3.379,8.711-8.061,8.711h-1.949C895.451,94.774,891.941,92.825,891.941,86.063z"/>
	<path fill="#213B4D" d="M917.939,62.534c0-19.501,13.91-33.152,34.061-33.152c20.021,0,33.803,13.65,33.803,33.412
		c0,19.76-13.781,33.15-34.062,33.15C931.59,95.944,917.939,82.553,917.939,62.534z M969.551,62.793
		c0-11.051-7.41-19.112-17.68-19.112c-10.271,0-17.811,7.931-17.811,18.852c0,11.049,7.539,18.98,17.811,18.98
		C962.012,81.514,969.551,73.583,969.551,62.793z"/>
	<path fill="#213B4D" d="M992.949,110.764V32.241c0-0.52,3.25-2.08,6.889-2.08c4.811,0,10.012,2.341,11.182,11.051
		c4.029-7.28,11.18-11.83,20.801-11.83c17.16,0,29.381,12.87,29.381,33.152c0,19.76-12.09,33.41-29.641,33.41
		c-9.752,0-17.031-5.199-20.281-11.57v26.391c0,6.631-3.381,8.84-8.061,8.84h-1.949
		C996.328,119.604,992.949,117.524,992.949,110.764z M1043.52,62.663c0-11.05-6.629-18.59-16.25-18.59
		c-7.67,0-13.26,4.03-15.99,10.4v12.351c0.26,8.58,7.15,14.561,15.861,14.561C1037.02,81.383,1043.52,73.842,1043.52,62.663z"/>
	<path fill="#213B4D" d="M1064.967,63.053c0-19.372,13.912-33.671,33.152-33.671c18.721,0,31.592,13.13,31.592,31.72v1.301
		c-0.131,3.25-1.041,5.07-4.422,5.07h-43.811c1.301,9.49,8.58,15.08,18.461,15.08c9.619,0,14.949-4.289,17.939-9.359
		c0.131-0.26,8.842,0.91,8.842,8.189c0,6.891-9.752,14.561-27.432,14.561C1078.619,95.944,1064.967,83.073,1064.967,63.053z
		 M1081.479,56.812h31.201c-0.391-8.839-5.98-14.69-14.82-14.69C1089.279,42.122,1082.779,48.232,1081.479,56.812z"/>
	<path fill="#213B4D" d="M1154.666,40.952c2.602-7.28,7.801-11.57,15.471-11.57c7.41,0,11.83,4.16,11.83,10.66
		c0,7.28-5.59,9.88-5.85,9.62c-1.949-1.82-4.811-3.12-8.32-3.12c-8.971,0-12.871,7.801-12.871,20.541v18.98
		c0,6.631-3.379,8.711-8.059,8.711h-1.951c-4.939,0-8.32-1.949-8.32-8.711V32.241c0-0.52,3.25-2.08,6.891-2.08
		C1148.297,30.161,1153.496,32.371,1154.666,40.952z"/>
	<path fill="#213B4D" d="M1183.006,81.903c0-4.68,5.199-7.93,5.59-7.539c4.42,4.68,11.57,8.449,20.93,8.449
		c7.15,0,11.182-2.08,11.182-6.109c0-4.811-5.07-5.59-13.65-7.41c-8.711-1.951-22.361-4.811-22.361-19.241
		c0-12.351,10.4-20.541,26.521-20.541c17.16,0,25.74,6.24,25.74,13.521c0,4.81-5.59,8.19-5.98,7.8
		c-4.289-4.939-11.18-8.45-18.59-8.45c-6.891,0-10.791,2.21-10.791,6.24c0,4.55,5.07,5.2,13.52,7.151
		c8.971,1.949,23.402,4.939,23.402,19.37c0,12.74-10.531,20.541-27.951,20.541C1191.975,95.684,1183.006,89.184,1183.006,81.903z"/>
</g>
</svg>
