<?xml version="1.0" encoding="utf-8"?>
<!-- Generator: Adobe Illustrator 16.0.4, SVG Export Plug-In . SVG Version: 6.00 Build 0)  -->
<!DOCTYPE svg PUBLIC "-//W3C//DTD SVG 1.1//EN" "http://www.w3.org/Graphics/SVG/1.1/DTD/svg11.dtd">
<svg version="1.1" id="Layer_1" xmlns="http://www.w3.org/2000/svg" xmlns:xlink="http://www.w3.org/1999/xlink" x="0px" y="0px"
	 width="1331px" height="713px" viewBox="0 0 1331 713" enable-background="new 0 0 1331 713" xml:space="preserve">
<g>
	<path fill="#FFF268" d="M1250.5,341.918c0,249.552-227.241,330.836-621.197,330.836S8.105,591.47,8.105,341.918
		c0-249.553,227.241-330.837,621.197-330.837S1250.5,92.365,1250.5,341.918z"/>
</g>
<g>
	<g>
		<g>
			<path fill="#FF7847" d="M213.39,220.15c35.555,38.035,45.691,90.842,31.121,137.297"/>
			<path fill="#213B4D" d="M244.512,362.448c-0.496,0-1-0.074-1.498-0.23c-2.635-0.826-4.101-3.632-3.274-6.267
				c14.528-46.32,3.032-97.047-30.002-132.386c-1.886-2.018-1.779-5.182,0.238-7.067c2.019-1.885,5.182-1.778,7.067,0.238
				c35.49,37.966,47.843,92.457,32.239,142.208C248.611,361.08,246.639,362.448,244.512,362.448z"/>
		</g>
	</g>
	<g>
		<path fill="#7575FF" d="M192.016,404.283h-65.522H95.807v274.333h40.687v-184.92h0.272c0-18.019,4.607-32.625,22.625-32.625
			c18.018,0,22.625,14.606,22.625,32.625v184.92h40.687V404.283H192.016z"/>
	</g>
	<g>
		<path fill="#4D4DA8" d="M124.652,489.086l-0.28,189.53h15.045l0.28-189.53c0-15.952,1.13-29.296,16.047-32.713
			c-2.42-0.554-4.936-0.856-7.522-0.856C129.682,455.517,124.652,470.546,124.652,489.086z"/>
	</g>
	<g>
		<rect x="210.581" y="404.283" fill="#4D4DA8" width="14.622" height="274.333"/>
	</g>
	<g>
		<path fill="#213B4D" d="M222.703,683.616h-40.687c-2.761,0-5-2.238-5-5v-184.92c0-24.343-8.909-27.625-17.625-27.625
			c-8.333,0-17.897,3.14-17.897,27.625v184.92c0,2.762-2.239,5-5,5H95.807c-2.761,0-5-2.238-5-5V404.283c0-2.762,2.239-5,5-5
			h126.896c2.761,0,5,2.238,5,5v274.333C227.703,681.378,225.464,683.616,222.703,683.616z M187.016,673.616h30.687V409.283H100.807
			v264.333h30.687v-179.92c0-11.071,1.76-19.446,5.382-25.604c4.625-7.863,12.411-12.021,22.516-12.021
			c18.33,0,27.625,12.659,27.625,37.625V673.616z"/>
	</g>
	<g>
		<g>
			<g>
				<path fill="#ECF9CC" d="M301.708,599.605c7.645,2.984,16.478,4.688,25.884,4.688c7.373,0,14.385-1.059,20.756-2.948v-7.328
					c0-6.25-5.115-11.365-11.364-11.365h-5.704c-6.25,0-11.364-5.113-11.364-11.363v-29.268c0-6.251-5.114-11.366-11.364-11.366
					h-14.163c-6.25,0-11.364,5.115-11.364,11.366v29.268c0,6.25-5.114,11.363-11.365,11.363h-5.702
					c-6.251,0-11.364,5.115-11.364,11.365v3.994c6.498-1.98,13.672-3.096,21.229-3.096
					C285.23,594.916,294.063,596.619,301.708,599.605z"/>
			</g>
			<g>
				<path fill="#6BE373" d="M327.592,604.294c-9.407,0-18.239-1.704-25.884-4.688c-7.644-2.986-16.478-4.689-25.885-4.689
					c-7.558,0-14.731,1.115-21.229,3.096v89.761c0,6.251,5.113,11.364,11.364,11.364h71.026c6.249,0,11.364-5.113,11.364-11.364
					v-86.427C341.977,603.235,334.965,604.294,327.592,604.294z"/>
			</g>
			<g>
				<path fill="#D9F399" d="M337.457,582.678v20.962c3.787-0.499,7.436-1.27,10.891-2.294v-7.328
					C348.348,587.926,343.489,582.93,337.457,582.678z"/>
			</g>
			<g>
				<path fill="#428C47" d="M337.457,699.112c6.032-0.251,10.891-5.249,10.891-11.34v-86.427c-3.455,1.024-7.104,1.795-10.891,2.294
					V699.112z"/>
			</g>
			<g>
				<path fill="#D9F399" d="M327.824,584.619c-12.386,0-18.828-7.08-18.828-13.33v-29.268h12.995l-1.388,31.693l7.221,7.221V584.619
					z"/>
			</g>
		</g>
		<g>
			<g>
				<rect x="254.593" y="615.325" fill="#FFF268" width="93.755" height="54.484"/>
				<path fill="#213B4D" d="M348.348,674.81h-93.755c-2.761,0-5-2.238-5-5v-54.484c0-2.762,2.239-5,5-5h93.755c2.761,0,5,2.238,5,5
					v54.484C353.348,672.571,351.109,674.81,348.348,674.81z M259.593,664.81h83.755v-44.484h-83.755V664.81z"/>
			</g>
			<g>
				<rect x="337.457" y="615.325" fill="#A8A045" width="10.891" height="54.484"/>
			</g>
			<g>
				<g>
					<line fill="#FFFFFF" x1="270.692" y1="633.51" x2="332.723" y2="633.51"/>
					<path fill="#213B4D" d="M332.723,638.51h-62.031c-2.761,0-5-2.238-5-5s2.239-5,5-5h62.031c2.761,0,5,2.238,5,5
						S335.484,638.51,332.723,638.51z"/>
				</g>
				<g>
					<line fill="#FFFFFF" x1="280.163" y1="651.658" x2="323.251" y2="651.658"/>
					<path fill="#213B4D" d="M323.251,656.658h-43.088c-2.761,0-5-2.238-5-5s2.239-5,5-5h43.088c2.761,0,5,2.238,5,5
						S326.013,656.658,323.251,656.658z"/>
				</g>
			</g>
		</g>
		<g>
			<rect x="277.173" y="530.655" fill="#ECF9CC" width="48.595" height="18.763"/>
		</g>
		<g>
			<rect x="315.438" y="530.655" fill="#D9F399" width="10.329" height="18.763"/>
		</g>
		<g>
			<g>
				<g>
					<path fill="#213B4D" d="M348.348,606.346c-2.761,0-5-2.238-5-5v-7.328c0-3.51-2.855-6.365-6.364-6.365h-5.704
						c-9.023,0-16.364-7.341-16.364-16.363v-21.871c0-2.762,2.239-5,5-5s5,2.238,5,5v21.871c0,3.509,2.855,6.363,6.364,6.363h5.704
						c9.023,0,16.364,7.342,16.364,16.365v7.328C353.348,604.107,351.109,606.346,348.348,606.346z"/>
				</g>
				<g>
					<path fill="#213B4D" d="M254.593,603.012c-2.761,0-5-2.238-5-5v-3.994c0-9.023,7.341-16.365,16.364-16.365h5.702
						c3.51,0,6.365-2.854,6.365-6.363v-21.871c0-2.762,2.239-5,5-5s5,2.238,5,5v21.871c0,9.022-7.341,16.363-16.365,16.363h-5.702
						c-3.509,0-6.364,2.855-6.364,6.365v3.994C259.593,600.773,257.354,603.012,254.593,603.012z"/>
				</g>
				<g>
					<path fill="#213B4D" d="M336.983,704.137h-71.026c-9.023,0-16.364-7.341-16.364-16.364v-89.761c0-2.762,2.239-5,5-5
						s5,2.238,5,5v89.761c0,3.509,2.855,6.364,6.364,6.364h71.026c3.509,0,6.364-2.855,6.364-6.364v-86.427c0-2.762,2.239-5,5-5
						s5,2.238,5,5v86.427C353.348,696.796,346.007,704.137,336.983,704.137z"/>
				</g>
			</g>
			<g>
				<g>
					<path fill="#213B4D" d="M348.348,674.81h-93.755c-2.761,0-5-2.238-5-5v-54.484c0-2.762,2.239-5,5-5h93.755c2.761,0,5,2.238,5,5
						v54.484C353.348,672.571,351.109,674.81,348.348,674.81z M259.593,664.81h83.755v-44.484h-83.755V664.81z"/>
				</g>
				<g>
					<g>
						<path fill="#213B4D" d="M332.723,638.51h-62.031c-2.761,0-5-2.238-5-5s2.239-5,5-5h62.031c2.761,0,5,2.238,5,5
							S335.484,638.51,332.723,638.51z"/>
					</g>
					<g>
						<path fill="#213B4D" d="M323.251,656.658h-43.088c-2.761,0-5-2.238-5-5s2.239-5,5-5h43.088c2.761,0,5,2.238,5,5
							S326.013,656.658,323.251,656.658z"/>
					</g>
				</g>
			</g>
			<g>
				<path fill="#213B4D" d="M325.768,554.418h-48.595c-2.761,0-5-2.238-5-5v-18.763c0-2.762,2.239-5,5-5h48.595c2.761,0,5,2.238,5,5
					v18.763C330.768,552.18,328.529,554.418,325.768,554.418z M282.173,544.418h38.595v-8.763h-38.595V544.418z"/>
			</g>
		</g>
	</g>
	<g>
		<path fill="#FF7847" d="M209.895,230.521c-31.932-34.307-114.088-23.174-114.088,32.749c0,69.41,0,109.391,0,144.687
			c0,18.712,35.574,27.335,69.003,26.14c29.632-1.06,57.58-9.833,57.58-26.14c0-34.704,0-74.847,0-144.687
			C222.39,249.699,217.597,238.795,209.895,230.521z"/>
	</g>
	<g>
		<g>
			<path fill="#A84F2F" d="M209.895,230.521c-13.682-14.7-36.583-21.049-58.293-19.114c16.609,1.498,32.486,7.861,42.96,19.114
				c7.702,8.274,12.495,19.179,12.495,32.749c0,69.84,0,109.982,0,144.687c0,16.018-26.968,24.762-56.009,26.07
				c4.564,0.205,9.182,0.232,13.761,0.069c29.632-1.06,57.58-9.833,57.58-26.14c0-34.704,0-74.847,0-144.687
				C222.39,249.699,217.597,238.795,209.895,230.521z"/>
		</g>
	</g>
	<g>
		<path fill="#213B4D" d="M158.702,439.206c-0.002,0-0.002,0-0.005,0c-33.792,0-67.89-9.664-67.89-31.25V263.27
			c0-17.77,7.566-32.7,21.879-43.179c12.368-9.054,28.902-14.04,46.558-14.04c17.617,0,34.088,4.974,46.381,14.006
			c14.238,10.461,21.764,25.403,21.764,43.213v144.687c0,7.227-4.026,17.317-23.207,24.354
			C192.062,436.757,175.909,439.206,158.702,439.206z M159.245,216.051c-28.145,0-58.438,14.776-58.438,47.219v144.687
			c0,12.114,24.887,21.25,57.89,21.25c0.001,0,0.003,0,0.004,0c15.83,0,31.151-2.29,42.037-6.284
			c6.219-2.281,16.651-7.259,16.651-14.966V263.27C217.39,230.827,187.249,216.051,159.245,216.051z"/>
	</g>
	<g>
		<path fill="#FFE8CD" d="M174.15,229.68c0,0-4.358,7-14.759,7c-10.4,0-14.758-7-14.758-7v-39.678h29.517V229.68z"/>
	</g>
	<g>
		<path fill="#FFD19C" d="M172.608,229.68c0,0-1.553,7-5.26,7c-3.707,0-5.259-7-5.259-7v-39.678h10.52V229.68z"/>
	</g>
	<g>
		<path fill="#213B4D" d="M159.391,241.68c-13.027,0-18.765-8.975-19.003-9.357c-0.494-0.793-0.755-1.708-0.755-2.643v-39.678
			c0-2.761,2.239-5,5-5h29.517c2.761,0,5,2.239,5,5v39.678c0,0.934-0.262,1.85-0.755,2.643
			C178.157,232.704,172.419,241.68,159.391,241.68z M149.633,227.924c1.319,1.349,4.421,3.756,9.758,3.756
			c5.315,0,8.414-2.387,9.759-3.765v-32.913h-19.517V227.924z"/>
	</g>
	<g>
		<path fill="#FFE8CD" d="M96.08,96.366h0.044c0-0.034-0.002-0.067-0.002-0.102c0-69.956,126.583-69.956,126.583,0
			c0,0.034-0.002,0.067-0.002,0.102h0.003v52.962h-0.045c0,0.034,0.002,0.067,0.002,0.102c0,69.956-126.582,69.956-126.582,0
			c0-0.034,0.001-0.067,0.001-0.102H96.08V96.366z"/>
	</g>
	<g>
		<g>
			<path fill="#FFFFFF" d="M170.11,122.135c1.04-11.879,11.506-20.66,23.382-19.624c11.878,1.04,20.664,11.514,19.624,23.388
				C212.07,137.773,169.069,134.012,170.11,122.135z"/>
		</g>
		<g>
			<path fill="#FFFFFF" d="M105.668,125.898c-1.04-11.874,7.742-22.344,19.615-23.385c11.883-1.042,22.348,7.748,23.386,19.624
				C149.711,134.012,106.705,137.773,105.668,125.898z"/>
		</g>
		<g>
			<path fill="#213B4D" d="M176.828,129.656c7.927,3.492,21.03,4.554,29.143,2.284c0.089-0.653,0.15-1.313,0.15-1.989
				c0-8.094-6.561-14.654-14.655-14.654C183.474,115.297,176.987,121.7,176.828,129.656z"/>
		</g>
		<g>
			<path fill="#213B4D" d="M141.783,129.656c-7.927,3.492-21.03,4.554-29.143,2.284c-0.09-0.653-0.151-1.313-0.151-1.989
				c0-8.094,6.561-14.654,14.655-14.654C135.138,115.297,141.625,121.7,141.783,129.656z"/>
		</g>
	</g>
	<g>
		<path fill="#E0B789" d="M160.616,175.015c-0.201,0-0.401,0-0.602-0.001l-0.623,0l-0.616,0c-4.432,0.019-9.03,0.015-12.486-3.584
			c-0.957-0.996-0.924-2.579,0.072-3.535c0.996-0.957,2.579-0.923,3.535,0.072c1.881,1.959,4.588,2.059,8.871,2.047l0.625,0l0.631,0
			c4.267,0.018,6.984-0.088,8.866-2.047c0.957-0.995,2.539-1.027,3.535-0.071c0.996,0.957,1.027,2.539,0.071,3.535
			C169.195,174.867,164.863,175.015,160.616,175.015z"/>
	</g>
	<g>
		<path fill="#213B4D" d="M159.098,466.071c-2.761,0-5-2.238-5-5V236.68c0-2.761,2.239-5,5-5s5,2.239,5,5v224.392
			C164.098,463.833,161.859,466.071,159.098,466.071z"/>
	</g>
	<g>
		<g>
			<g>
				<line fill="#FFFFFF" x1="209.894" y1="180.669" x2="209.894" y2="154.621"/>
			</g>
			<g>
				<path fill="#FFD19C" d="M204.894,180.669l5-26.048l5,26.048c0.53,2.761-1.279,5.43-4.04,5.96
					c-2.762,0.529-5.43-1.279-5.96-4.041C204.77,181.94,204.779,181.28,204.894,180.669z"/>
			</g>
		</g>
		<g>
			<g>
				<line fill="#FFFFFF" x1="197.269" y1="189.689" x2="197.269" y2="148.818"/>
			</g>
			<g>
				<path fill="#FFD19C" d="M192.269,189.689l5-40.871l5,40.871c0.337,2.762-1.627,5.273-4.389,5.611
					c-2.761,0.338-5.274-1.627-5.611-4.389C192.219,190.506,192.224,190.079,192.269,189.689z"/>
			</g>
		</g>
		<g>
			<g>
				<line fill="#FFFFFF" x1="184.644" y1="194.759" x2="184.644" y2="143.523"/>
			</g>
			<g>
				<path fill="#FFD19C" d="M179.644,194.759l5-51.235l5,51.235c0.27,2.761-1.751,5.218-4.512,5.487
					c-2.762,0.27-5.219-1.75-5.488-4.512C179.613,195.414,179.615,195.068,179.644,194.759z"/>
			</g>
		</g>
		<g>
			<g>
				<line fill="#FFFFFF" x1="172.02" y1="197.723" x2="172.02" y2="183.355"/>
			</g>
			<g>
				<path fill="#FFD19C" d="M167.02,197.723l5-14.367l5,14.367c0.961,2.762-0.499,5.779-3.261,6.74
					c-2.761,0.961-5.778-0.498-6.739-3.26C166.612,200.031,166.641,198.811,167.02,197.723z"/>
			</g>
		</g>
		<g>
			<g>
				<line fill="#FFFFFF" x1="159.395" y1="197.723" x2="159.395" y2="183.355"/>
			</g>
			<g>
				<path fill="#FFD19C" d="M154.395,197.723l5-14.367l5,14.367c0.961,2.762-0.499,5.779-3.26,6.74
					c-2.761,0.961-5.779-0.498-6.74-3.26C153.987,200.031,154.016,198.811,154.395,197.723z"/>
			</g>
		</g>
		<g>
			<g>
				<line fill="#FFFFFF" x1="146.768" y1="197.723" x2="146.768" y2="183.355"/>
			</g>
			<g>
				<path fill="#FFD19C" d="M141.768,197.723l5-14.367l5,14.367c0.961,2.762-0.499,5.779-3.261,6.74
					c-2.76,0.961-5.778-0.498-6.739-3.26C141.36,200.031,141.389,198.811,141.768,197.723z"/>
			</g>
		</g>
		<g>
			<g>
				<line fill="#FFFFFF" x1="134.14" y1="194.759" x2="134.14" y2="143.523"/>
			</g>
			<g>
				<path fill="#FFD19C" d="M129.14,194.759l5-51.235l5,51.235c0.27,2.761-1.75,5.218-4.511,5.487
					c-2.762,0.27-5.219-1.75-5.489-4.512C129.108,195.414,129.112,195.068,129.14,194.759z"/>
			</g>
		</g>
		<g>
			<g>
				<line fill="#FFFFFF" x1="121.513" y1="189.689" x2="121.513" y2="149.877"/>
			</g>
			<g>
				<path fill="#FFD19C" d="M116.513,189.689l5-39.812l5,39.812c0.347,2.762-1.61,5.281-4.372,5.628s-5.281-1.61-5.628-4.372
					C116.46,190.527,116.465,190.09,116.513,189.689z"/>
			</g>
		</g>
		<g>
			<path fill="#FFD19C" d="M103.887,180.669l5-26.048l5,26.048c0.53,2.761-1.279,5.43-4.04,5.96c-2.762,0.529-5.43-1.279-5.96-4.041
				C103.763,181.94,103.772,181.28,103.887,180.669z"/>
		</g>
	</g>
	<g opacity="0.3">
		<path fill="#A87A45" d="M222.706,96.366h-0.003c0-0.034,0.002-0.067,0.002-0.102c0-37.703-36.767-55.073-70.671-52.136
			c29.003,2.513,55.912,19.883,55.912,52.136c0,0.034-0.002,0.067-0.002,0.102h0.003v52.962h-0.045c0,0.034,0.002,0.067,0.002,0.102
			c0,32.253-26.909,49.623-55.912,52.136c33.905,2.938,70.671-14.433,70.671-52.136c0-0.034-0.002-0.067-0.002-0.102h0.045V96.366z"
			/>
	</g>
	<g>
		<path fill="#A84F2F" d="M174.15,207.861v21.818c0,0-4.358,7-14.759,7l13.817,13.817c0,0,18.808-4.558,18.808-19.808
			c0-11.5,0-17.32,0-17.32S186.033,207.861,174.15,207.861z"/>
		<path fill="#213B4D" d="M173.208,255.497c-1.31,0-2.587-0.516-3.536-1.464l-13.817-13.817c-1.43-1.43-1.857-3.581-1.084-5.449
			c0.774-1.868,2.597-3.086,4.62-3.086c5.315,0,8.414-2.387,9.759-3.765v-20.053c0-2.761,2.239-5,5-5
			c13.446,0,20.493,6.13,21.252,6.83c1.028,0.946,1.613,2.28,1.613,3.678v17.32c0,8.014-4.041,14.867-11.686,19.819
			c-5.354,3.468-10.719,4.793-10.944,4.848C173.996,255.451,173.6,255.497,173.208,255.497z M169.417,239.634l5.159,5.159
			c1.525-0.587,3.544-1.501,5.521-2.81c4.656-3.083,6.92-6.776,6.92-11.293v-14.736c-1.528-0.887-4.144-2.084-7.866-2.696v16.422
			c0,0.934-0.262,1.85-0.755,2.643C178.23,232.586,175.435,236.961,169.417,239.634z"/>
	</g>
	<g>
		<path fill="#FF7847" d="M144.632,207.861v21.818c0,0,4.356,7,14.759,7l-13.818,13.817c0,0-18.807-4.558-18.807-19.808
			c0-11.5,0-17.32,0-17.32S132.748,207.861,144.632,207.861z"/>
		<path fill="#213B4D" d="M145.573,255.497c-0.392,0-0.787-0.046-1.178-0.141c-0.226-0.055-5.59-1.38-10.944-4.848
			c-7.645-4.952-11.685-11.805-11.685-19.819v-17.32c0-1.398,0.585-2.731,1.613-3.678c0.759-0.699,7.806-6.83,21.253-6.83
			c2.761,0,5,2.239,5,5v20.062c1.319,1.349,4.42,3.756,9.759,3.756c2.022,0,3.846,1.218,4.62,3.086
			c0.773,1.869,0.346,4.019-1.084,5.449l-13.818,13.817C148.159,254.981,146.883,255.497,145.573,255.497z M131.766,215.952v14.738
			c0,4.517,2.264,8.211,6.92,11.294c1.976,1.308,3.995,2.222,5.52,2.81l5.16-5.159c-6.02-2.673-8.813-7.048-8.978-7.312
			c-0.493-0.793-0.755-1.708-0.755-2.642v-16.423C135.909,213.869,133.293,215.065,131.766,215.952z"/>
	</g>
	<g>
		<path fill="#213B4D" d="M159.372,206.897c-17.64,0-34.146-5.005-46.479-14.092c-14.27-10.515-21.812-25.514-21.812-43.375v0
			c0-0.034-0.001-0.067-0.001-0.101V96.366c0-0.228,0.015-0.451,0.044-0.67c0.159-17.611,7.692-32.403,21.81-42.807
			c12.332-9.087,28.838-14.092,46.479-14.092s34.147,5.005,46.479,14.092c14.27,10.515,21.812,25.514,21.812,43.375v0
			c0,0.034,0.001,0.067,0.001,0.101v52.962c0,0.23-0.016,0.456-0.045,0.678c-0.161,17.607-7.694,32.397-21.81,42.799
			C193.518,201.892,177.012,206.897,159.372,206.897z M101.08,149.17c0.001,0.052,0.002,0.105,0.002,0.158
			c0,0.036-0.001,0.123-0.002,0.159c0,32.556,30.217,47.41,58.292,47.41s58.291-14.854,58.291-47.467l-0.002-0.102
			c0-0.228,0.015-0.453,0.045-0.673V96.539c-0.002-0.057-0.003-0.115-0.003-0.172c0-0.048,0.001-0.146,0.003-0.194
			c-0.001-32.521-30.218-47.375-58.292-47.375c-28.068,0-58.277,14.848-58.292,47.445l0.002,0.124c0,0.227-0.015,0.45-0.044,0.669
			V149.17z"/>
	</g>
	<g>
		<path fill="#E0B789" d="M159.598,152.873c-4.521,0-8.2-3.679-8.2-8.2c0-1.381,1.119-2.5,2.5-2.5s2.5,1.119,2.5,2.5
			c0,1.765,1.436,3.2,3.2,3.2s3.2-1.436,3.2-3.2c0-1.381,1.119-2.5,2.5-2.5s2.5,1.119,2.5,2.5
			C167.797,149.194,164.119,152.873,159.598,152.873z"/>
	</g>
	<g>
		<g>
			<path fill="#6BE373" d="M213.566,253.918c-15.799,17.668-45.777,16.637-45.777,16.637s-4.37-29.68,11.429-47.348
				c15.8-17.67,45.784-16.637,45.784-16.637S229.368,236.25,213.566,253.918z"/>
		</g>
		<g>
			<path fill="#428C47" d="M225.002,206.57c0,0-5.452-0.183-12.924,0.97c-0.104,10.245-2.092,26.015-11.984,37.075
				c-9.067,10.141-22.794,14.116-32.854,15.67c-0.061,6.119,0.549,10.27,0.549,10.27s29.979,1.031,45.777-16.637
				C229.368,236.25,225.002,206.57,225.002,206.57z"/>
		</g>
		<g>
			<path fill="#213B4D" d="M168.721,275.566c-0.716,0-1.104-0.014-1.104-0.014c-2.409-0.088-4.424-1.884-4.775-4.269
				c-0.192-1.307-4.513-32.217,12.649-51.409c15.587-17.432,43.199-18.315,48.576-18.315c0.719,0,1.108,0.014,1.108,0.014
				c2.409,0.089,4.423,1.884,4.774,4.27c0.192,1.306,4.509,32.216-12.656,51.408C201.706,274.683,174.098,275.566,168.721,275.566z
				 M220.441,211.67c-8.407,0.478-26.811,2.92-37.496,14.87c-10.679,11.943-11.054,30.524-10.595,38.915
				c8.407-0.479,26.806-2.922,37.489-14.87C220.521,238.642,220.898,220.061,220.441,211.67z"/>
		</g>
		<g>
			<path fill="#6BE373" d="M196.198,243.287c-4.784,23.215-31.229,37.381-31.229,37.381s-18.684-23.469-13.896-46.682
				c4.787-23.219,31.229-37.386,31.229-37.386S200.984,220.074,196.198,243.287z"/>
		</g>
		<g>
			<path fill="#428C47" d="M196.198,243.287c4.786-23.213-13.897-46.687-13.897-46.687s-2.307,1.241-5.671,3.573
				c4.396,8.924,8.501,21.354,5.952,33.713c-3.374,16.371-17.512,28.234-25.559,33.811c3.86,7.837,7.946,12.971,7.946,12.971
				S191.414,266.502,196.198,243.287z"/>
		</g>
		<g>
			<path fill="#213B4D" d="M164.971,285.668c-1.483,0-2.938-0.66-3.914-1.886c-0.823-1.033-20.082-25.59-14.882-50.806
				c5.199-25.221,32.601-40.16,33.765-40.783c2.129-1.141,4.769-0.596,6.273,1.293c0.822,1.033,20.081,25.595,14.882,50.81
				c-5.197,25.217-32.602,40.155-33.766,40.778C166.583,285.476,165.772,285.668,164.971,285.668z M180.924,203.311
				c-7.015,4.649-21.733,16.056-24.955,31.685c-3.221,15.617,5.776,31.905,10.384,38.957c7.022-4.654,21.729-16.057,24.948-31.675
				C194.535,226.594,185.536,210.343,180.924,203.311z"/>
		</g>
		<g>
			<path fill="#6BE373" d="M212.212,283.285c-19.8,13.031-48.517,4.352-48.517,4.352s3.382-29.808,23.185-42.84
				c19.797-13.027,48.517-4.352,48.517-4.352S232.011,270.259,212.212,283.285z"/>
		</g>
		<g>
			<path fill="#428C47" d="M235.397,240.445c0,0-5.424-1.635-13.176-2.42c-2.091,9.374-7.83,27.505-22.115,36.904
				c-11.199,7.371-25.246,7.794-35.341,6.773c-0.805,3.617-1.07,5.934-1.07,5.934s28.716,8.68,48.517-4.352
				C232.011,270.259,235.397,240.445,235.397,240.445z"/>
		</g>
		<g>
			<path fill="#213B4D" d="M184.791,295.469c-12.323,0-22.13-2.921-22.542-3.046c-2.312-0.699-3.793-2.95-3.521-5.35
				c0.149-1.312,3.894-32.296,25.405-46.453c8.072-5.312,18.223-8.005,30.171-8.005c12.324,0,22.129,2.92,22.541,3.044
				c2.312,0.698,3.794,2.95,3.522,5.351c-0.149,1.312-3.898,32.302-25.405,46.452C206.888,292.775,196.737,295.469,184.791,295.469z
				 M169.413,283.87c3.604,0.735,9.16,1.599,15.378,1.599c9.959,0,18.261-2.14,24.673-6.36c13.38-8.803,18.507-26.665,20.216-34.896
				c-3.604-0.735-9.159-1.598-15.377-1.598c-9.96,0-18.262,2.14-24.674,6.359C176.247,257.781,171.121,275.64,169.413,283.87z"/>
		</g>
		<g>
			<path fill="#E6E6E6" d="M201.671,341.057l-20.289-39.999l64.248-32.591c0,0,8.705,1.871,18.56-3.129
				c9.858-5.002,14.916-13.854,14.916-13.854l21.59-10.948l20.288,39.995l-21.588,10.952c0,0-11.021-0.694-19.986,3.854
				c-8.965,4.548-13.49,13.128-13.49,13.128L201.671,341.057z"/>
		</g>
		<g>
			<path fill="#E6E6E6" d="M201.671,341.057l-20.289-39.999l64.248-32.591c0,0,8.705,1.871,18.56-3.129
				c9.858-5.002,14.916-13.854,14.916-13.854l21.59-10.948l20.288,39.995l-21.588,10.952c0,0-11.021-0.694-19.986,3.854
				c-8.965,4.548-13.49,13.128-13.49,13.128L201.671,341.057z"/>
		</g>
		<g>
			<path fill="#B3B3B3" d="M313.791,266.348l-21.45,10.883c0,0-11.021-0.695-19.987,3.854c-8.964,4.549-13.49,13.129-13.49,13.129
				l-64.248,32.592l-13.096-25.816l-0.138,0.069l20.289,39.999l64.248-32.593c0,0,4.525-8.58,13.49-13.128
				c8.966-4.548,19.986-3.854,19.986-3.854l21.588-10.952L313.791,266.348z"/>
		</g>
		<g>
			<path fill="#213B4D" d="M201.671,346.057c-0.523,0-1.047-0.082-1.554-0.248c-1.26-0.412-2.306-1.308-2.905-2.491l-20.289-39.999
				c-1.25-2.462-0.266-5.472,2.197-6.721l64.248-32.591c1.022-0.518,2.191-0.669,3.312-0.429c0,0,0,0,0,0
				c0.002,0,1.21,0.231,3.142,0.231c2.887,0,7.331-0.508,12.105-2.931c8.291-4.207,12.793-11.8,12.837-11.876
				c0.485-0.849,1.208-1.537,2.08-1.979l21.59-10.948c2.462-1.248,5.471-0.266,6.72,2.198l20.288,39.995
				c1.25,2.462,0.266,5.471-2.197,6.721l-21.588,10.952c-0.796,0.404-1.683,0.584-2.577,0.531c-0.059-0.003-0.541-0.028-1.327-0.028
				c-2.85,0-10.121,0.327-16.083,3.351c-7.341,3.724-11.292,10.93-11.329,11.001c-0.483,0.915-1.238,1.658-2.161,2.126
				l-64.248,32.593C203.226,345.875,202.45,346.057,201.671,346.057z M188.104,303.255l15.765,31.081l58.495-29.674
				c1.876-2.974,6.782-9.725,14.784-13.784c7.603-3.857,16.174-4.433,20.607-4.433c0.183,0,0.355,0.001,0.515,0.003l15.994-8.114
				l-15.764-31.078l-15.909,8.067c-1.984,2.958-7.376,10.028-16.137,14.474c-6.537,3.316-12.651,4.013-16.629,4.013
				c-1.335,0-2.468-0.079-3.335-0.171L188.104,303.255z"/>
		</g>
		<g>
			<path fill="#77EDCB" d="M141.724,231.264l-20.588,29.824c-20.468,29.65-12.69,62.5,31.231,92.819
				c43.92,30.319,77.392,25.944,97.86-3.706l20.589-29.824L141.724,231.264z"/>
		</g>
		<g>
			<path fill="#5FBDA2" d="M249.529,305.683l-20.588,29.824c-18.735,27.14-48.373,33.081-86.938,10.646
				c3.206,2.599,6.644,5.187,10.363,7.754c43.92,30.319,77.392,25.944,97.86-3.706l20.589-29.824L249.529,305.683z"/>
		</g>
		<g>
			<path fill="#213B4D" d="M206.757,379.645c-0.002,0-0.004,0-0.006,0c-17.19-0.002-36.443-7.276-57.224-21.622
				c-59.742-41.241-46.009-80.214-32.506-99.775l20.588-29.824c1.569-2.274,4.682-2.844,6.955-1.274l129.092,89.113
				c1.091,0.753,1.839,1.909,2.078,3.214c0.239,1.304-0.05,2.65-0.803,3.741l-20.589,29.825
				C242.328,370.445,225.873,379.645,206.757,379.645z M142.998,238.219l-17.748,25.709c-25.188,36.488,2.388,66.833,29.957,85.864
				c19.08,13.171,36.422,19.85,51.544,19.852c0.001,0,0.004,0,0.005,0c15.908,0.001,29.147-7.497,39.355-22.284l17.748-25.709
				L142.998,238.219z"/>
		</g>
	</g>
	<g>
		<path fill="#A87A45" d="M240.794,94.959c3.111-3.769,4.98-8.601,4.98-13.869c0-9.212-5.722-17.07-13.798-20.264
			c0.443-2.039,0.679-4.152,0.679-6.322c0-16.445-13.333-29.777-29.776-29.777c-4.988,0-9.687,1.232-13.816,3.4
			c-5.158-8.867-14.756-14.834-25.753-14.834c-9.222,0-17.464,4.195-22.925,10.777c-5.38-4.719-12.425-7.586-20.146-7.586
			c-16.885,0-30.572,13.689-30.572,30.575c0,1.19,0.074,2.36,0.207,3.514c-9.522,3.401-16.337,12.497-16.337,23.185
			c0,5.68,1.928,10.905,5.158,15.07c-9.056,3.496-15.482,12.28-15.482,22.571c0,13.36,10.831,24.193,24.194,24.193
			c13.361,0,22.377-34.706,19.317-38.759c8.227-3.057,14.377-10.385,15.751-19.289c8.835-0.641,16.626-5.027,21.792-11.586
			c5.163,4.299,11.801,6.889,19.045,6.889c4.989,0,9.687-1.232,13.817-3.4c5.085,8.744,14.494,14.66,25.303,14.821
			c0.981,6.69,4.984,12.384,10.596,15.652c-3.111,3.771,4.778,35.672,16.82,35.672c12.039,0,21.802-9.762,21.802-21.802
			C251.647,105.748,247.277,98.738,240.794,94.959z"/>
	</g>
	<g>
		<g>
			<path fill="#C99253" d="M202.899,28.127c2.158-1.133,4.474-2.003,6.903-2.582c-2.223-0.529-4.539-0.818-6.923-0.818
				c-0.748,0-1.486,0.037-2.22,0.091C201.476,25.867,202.227,26.971,202.899,28.127z"/>
		</g>
		<g>
			<path fill="#C99253" d="M77.048,111.399c0-10.291,6.427-19.075,15.482-22.571c-3.229-4.165-5.158-9.391-5.158-15.07
				c0-10.688,6.815-19.783,16.337-23.185c-0.133-1.153-0.207-2.323-0.207-3.514c0-14.511,10.11-26.651,23.668-29.782
				c-2.227-0.518-4.547-0.793-6.932-0.793c-16.885,0-30.572,13.689-30.572,30.575c0,1.19,0.074,2.36,0.207,3.514
				c-9.522,3.401-16.337,12.497-16.337,23.185c0,5.68,1.928,10.905,5.158,15.07c-9.056,3.496-15.482,12.28-15.482,22.571
				c0,13.36,10.831,24.193,24.194,24.193c1.756,0,3.435-0.612,5.023-1.663C83.426,130.406,77.048,121.649,77.048,111.399z"/>
		</g>
		<g>
			<path fill="#C99253" d="M154.222,24.07c4.045-4.875,9.618-8.436,15.983-9.957c-2.214-0.526-4.519-0.82-6.895-0.82
				c-6.48,0-12.473,2.078-17.36,5.594C148.988,20.172,151.778,21.928,154.222,24.07z"/>
		</g>
		<g>
			<path fill="#C99253" d="M158.102,65.959c-1.483,1.883-3.188,3.578-5.066,5.066c3.203,1.178,6.664,1.822,10.275,1.822
				c2.38,0,4.69-0.288,6.908-0.816C165.691,70.951,161.564,68.842,158.102,65.959z"/>
		</g>
	</g>
	<g>
		<path fill="#785731" d="M109.678,77.545c-1.375,8.904-7.524,16.232-15.751,19.289c2.69,3.562-3.956,30.811-14.68,37.345
			c2.549,0.913,5.295,1.414,8.159,1.414c13.361,0,22.377-34.706,19.317-38.759c8.227-3.057,14.377-10.385,15.751-19.289
			c6.454-0.468,12.345-2.941,17.068-6.793c-2.95-1.172-5.672-2.795-8.072-4.793C126.304,72.518,118.513,76.904,109.678,77.545z"/>
	</g>
	<g>
		<path fill="#785731" d="M240.794,94.959c3.111-3.769,4.98-8.601,4.98-13.869c0-9.212-5.722-17.07-13.798-20.264
			c0.443-2.039,0.679-4.152,0.679-6.322c0-16.445-13.333-29.777-29.776-29.777c-2.191,0-4.322,0.251-6.378,0.701
			c13.358,2.937,23.358,14.836,23.358,29.076c0,2.17-0.236,4.283-0.679,6.322c8.076,3.193,13.798,11.052,13.798,20.264
			c0,5.269-1.869,10.101-4.981,13.869c6.483,3.779,10.853,10.789,10.853,18.832c0,9.143-5.632,16.968-13.614,20.205
			c1.451,1.006,2.991,1.597,4.608,1.597c12.039,0,21.802-9.762,21.802-21.802C251.647,105.748,247.277,98.738,240.794,94.959z"/>
	</g>
	<g>
		<path fill="#213B4D" d="M229.846,140.593c-4.463,0-10.979-2.536-16.674-14.617c-2.467-5.235-6.27-16.402-5.761-23.836
			c-4.301-3.374-7.44-7.95-9.034-13.164c-9.097-1.203-17.44-6.013-23.052-13.271c-3.834,1.41-7.918,2.143-12.015,2.143
			c-6.499,0-12.861-1.833-18.338-5.23c-5.057,4.886-11.471,8.184-18.389,9.439c-2.208,7.581-7.38,13.981-14.328,17.744
			c0.113,7.82-3.927,19.532-6.889,25.48c-6.302,12.655-13.246,15.312-17.961,15.312c-16.098,0-29.194-13.096-29.194-29.193
			c0-9.964,5.196-19.214,13.377-24.526c-2.009-4.045-3.053-8.494-3.053-13.116c0-11.192,6.347-21.359,16.132-26.37
			c-0.001-0.11-0.001-0.219-0.001-0.329c0-19.616,15.958-35.575,35.572-35.575c7.014,0,13.829,2.072,19.62,5.906
			c6.372-5.829,14.69-9.097,23.451-9.097c10.823,0,21.021,5.108,27.556,13.576c3.833-1.409,7.916-2.142,12.013-2.142
			c19.176,0,34.776,15.601,34.776,34.777c0,1.15-0.058,2.302-0.172,3.449c8.186,4.75,13.291,13.452,13.291,23.137
			c0,4.433-1.107,8.787-3.176,12.654c5.677,5.039,9.049,12.34,9.049,20.047C256.647,128.569,244.624,140.593,229.846,140.593z
			 M217.376,102.386c-0.489,3.279,2.378,17.583,8.282,25.109c1.544,1.969,3.071,3.098,4.187,3.098
			c9.265,0,16.802-7.537,16.802-16.802c0-5.941-3.208-11.502-8.371-14.513c-1.268-0.739-2.147-1.998-2.404-3.442
			s0.132-2.929,1.067-4.061c2.473-2.996,3.835-6.791,3.835-10.686c0-6.93-4.175-13.059-10.636-15.614
			c-2.277-0.901-3.567-3.318-3.048-5.711c0.375-1.727,0.565-3.497,0.565-5.261c0-13.662-11.115-24.777-24.776-24.777
			c-4.052,0-7.918,0.951-11.492,2.827c-2.37,1.247-5.3,0.4-6.646-1.913c-4.431-7.617-12.643-12.348-21.431-12.348
			c-7.394,0-14.347,3.27-19.077,8.97c-0.862,1.039-2.107,1.685-3.453,1.792c-1.347,0.104-2.677-0.335-3.692-1.225
			c-4.666-4.092-10.649-6.345-16.85-6.345c-14.101,0-25.572,11.473-25.572,25.575c0,0.948,0.059,1.938,0.174,2.942
			c0.266,2.31-1.096,4.498-3.285,5.28c-7.788,2.782-13.02,10.207-13.02,18.476c0,4.388,1.421,8.54,4.109,12.006
			c0.968,1.249,1.29,2.882,0.866,4.404c-0.423,1.522-1.542,2.755-3.016,3.324c-7.347,2.836-12.283,10.033-12.283,17.907
			c0,10.583,8.61,19.193,19.194,19.193c1.482,0,3.352-1.318,5.263-3.712c6.675-8.359,10.128-24.187,9.63-27.716
			c-0.601-1.139-0.743-2.477-0.376-3.732c0.443-1.517,1.577-2.735,3.058-3.285c6.662-2.475,11.471-8.362,12.551-15.365
			c0.355-2.303,2.255-4.056,4.58-4.224c7.139-0.518,13.782-4.051,18.226-9.693c0.835-1.061,2.063-1.738,3.405-1.879
			c1.343-0.14,2.685,0.267,3.722,1.13c4.439,3.696,10.066,5.731,15.846,5.731c4.052,0,7.918-0.951,11.493-2.828
			c2.37-1.244,5.3-0.4,6.646,1.914c4.416,7.593,12.287,12.205,21.055,12.335c2.453,0.037,4.516,1.847,4.873,4.274
			c0.744,5.074,3.72,9.468,8.165,12.058c1.268,0.738,2.147,1.997,2.406,3.441C218.154,100.198,217.946,101.379,217.376,102.386z"/>
	</g>
	<g>
		<path fill="#A87A45" d="M201.266,83.75c-16.568,0-30-13.432-30-30"/>
		<path fill="#213B4D" d="M201.266,88.75c-19.299,0-35-15.701-35-35c0-2.761,2.239-5,5-5s5,2.239,5,5c0,13.785,11.215,25,25,25
			c2.761,0,5,2.239,5,5S204.027,88.75,201.266,88.75z"/>
	</g>
	<g>
		<path fill="#A87A45" d="M88.181,51.456c7.334-3.851,16.402-1.026,20.252,6.309"/>
		<path fill="#213B4D" d="M108.438,62.766c-1.799,0-3.538-0.974-4.432-2.677c-1.241-2.365-3.329-4.104-5.879-4.899
			c-2.549-0.793-5.255-0.548-7.621,0.693c-2.445,1.284-5.468,0.341-6.751-2.103c-1.284-2.445-0.342-5.467,2.103-6.751
			c4.73-2.483,10.144-2.976,15.244-1.387c5.101,1.589,9.277,5.069,11.76,9.799c1.283,2.445,0.342,5.467-2.104,6.751
			C110.015,62.581,109.221,62.766,108.438,62.766z"/>
	</g>
	<g>
		<g>
			<path fill="#876238" d="M142.573,689.139c0,16.096-58.281,16.096-58.281,0c0-16.092,13.047-29.139,29.141-29.139
				S142.573,673.047,142.573,689.139z"/>
		</g>
		<g>
			<path fill="#6B4E2C" d="M116.433,660c-3.08,0-6.047,0.481-8.833,1.367c11.774,3.742,20.307,14.76,20.307,27.771
				c0,6.398-9.21,10.25-20.307,11.562c16.819,1.988,37.974-1.864,37.974-11.562C145.573,673.047,132.526,660,116.433,660z"/>
		</g>
		<g>
			<path fill="#213B4D" d="M113.433,706.21c-15.75,0-34.141-4.471-34.141-17.071c0-18.824,15.315-34.139,34.141-34.139
				c18.825,0,34.14,15.314,34.14,34.139C147.573,701.739,129.182,706.21,113.433,706.21z M113.433,665
				c-13.311,0-24.141,10.828-24.141,24.139c0,2.884,9.404,7.071,24.141,7.071c14.736,0,24.14-4.188,24.14-7.071
				C137.573,675.828,126.744,665,113.433,665z"/>
		</g>
	</g>
	<g>
		<g>
			<path fill="#876238" d="M234.073,689.139c0,16.096-58.281,16.096-58.281,0c0-16.092,13.047-29.139,29.141-29.139
				S234.073,673.047,234.073,689.139z"/>
		</g>
		<g>
			<path fill="#6B4E2C" d="M207.933,660c-3.08,0-6.047,0.481-8.833,1.367c11.774,3.742,20.307,14.76,20.307,27.771
				c0,6.398-9.21,10.25-20.307,11.562c16.819,1.988,37.974-1.864,37.974-11.562C237.073,673.047,224.026,660,207.933,660z"/>
		</g>
		<g>
			<path fill="#213B4D" d="M204.933,706.21c-15.75,0-34.141-4.471-34.141-17.071c0-18.824,15.315-34.139,34.141-34.139
				c18.825,0,34.14,15.314,34.14,34.139C239.073,701.739,220.682,706.21,204.933,706.21z M204.933,665
				c-13.311,0-24.141,10.828-24.141,24.139c0,2.884,9.404,7.071,24.141,7.071c14.736,0,24.14-4.188,24.14-7.071
				C229.073,675.828,218.244,665,204.933,665z"/>
		</g>
	</g>
	<g>
		<g>
			<g>
				<path fill="#FF7847" d="M246.281,353.811c-10.862-14.02-18.154-24.895-21.161-43.602l-29.618,4.759
					c3.659,22.78,12.349,37.427,25.22,54.798l17.428-1.764L246.281,353.811z"/>
			</g>
		</g>
		<g>
			<g>
				<path fill="#A84F2F" d="M236.863,367.475c-12.704-16.089-25.81-34.414-30.444-55.562l-9.609,1.547
					c3.696,22.984,12.519,37.797,25.578,55.264L236.863,367.475z"/>
			</g>
		</g>
		<g>
			<path fill="#213B4D" d="M228.054,376.241c-5.241,0-9.075-1.766-9.495-1.968c-0.733-0.352-1.37-0.877-1.855-1.531
				c-13.735-18.538-22.416-33.805-26.139-56.981c-0.438-2.727,1.417-5.292,4.144-5.729l29.618-4.759
				c2.725-0.442,5.291,1.416,5.729,4.143c2.885,17.95,9.862,28.02,20.177,41.333c0.634,0.819,0.999,1.813,1.043,2.848
				c0.019,0.442,0.344,10.925-10.22,18.474C237.182,374.838,232.807,376.241,228.054,376.241z M223.868,365.608
				c0.923,0.282,2.422,0.633,4.186,0.633c2.626,0,5.045-0.776,7.19-2.308c4.262-3.046,5.517-6.674,5.886-8.613
				c-9.401-12.232-16.482-22.815-20.029-39.401l-19.767,3.176C205.028,337.182,212.293,349.854,223.868,365.608z"/>
		</g>
		<g>
			<path fill="#FFE8CD" d="M225.121,310.209c-1.327-8.261-9.64-17.255-17.9-15.93c-8.257,1.327-13.045,12.43-11.718,20.688
				C196.827,323.228,226.448,318.465,225.121,310.209z"/>
			<path fill="#213B4D" d="M205.434,324.271c-0.001,0-0.001,0-0.002,0c-12.186-0.001-14.456-5.953-14.866-8.512
				c-0.823-5.123,0.21-11.119,2.764-16.039c3.022-5.82,7.673-9.506,13.097-10.377c0.803-0.129,1.625-0.194,2.442-0.194
				c10.568,0,19.648,10.681,21.188,20.268c0.406,2.525-0.37,5.089-2.185,7.219C223.601,321.648,213.351,324.271,205.434,324.271z
				 M200.354,313.523c0.672,0.3,2.275,0.747,5.079,0.748c0,0,0.002,0,0.002,0c6.962,0,13.108-2.406,14.631-3.895
				c-1.31-6.027-7.42-11.91-12.053-11.16c-2.186,0.351-4.303,2.214-5.808,5.112C200.738,307.152,200.051,310.611,200.354,313.523z"
				/>
		</g>
	</g>
	<g>
		<g>
			<g>
				<path fill="#FF7847" d="M219.819,346.834c-31.422,31.421-82.55,31.421-113.973,0c-31.422-31.423-31.422-82.552,0-113.974
					l21.214,21.213c-19.726,19.726-19.726,51.821,0,71.547c19.725,19.725,51.821,19.725,71.546,0L219.819,346.834z"/>
			</g>
		</g>
		<g>
			<g>
				<path fill="#A84F2F" d="M117.15,257.883c-19.726,19.726-19.726,51.821,0,71.547c11.688,11.688,27.72,16.448,42.947,14.284
					c-10.47-1.487-20.561-6.248-28.598-14.284c-19.726-19.726-19.726-56.707,0-76.433L117.15,257.883z"/>
			</g>
			<g>
				<path fill="#A84F2F" d="M205.47,346.834c-13.888,13.887-31.627,21.625-49.812,23.236c22.958,2.035,46.627-5.703,64.161-23.236
					H205.47z"/>
			</g>
		</g>
		<g>
			<g>
				<path fill="#213B4D" d="M162.833,375.397c-21.918,0-43.836-8.343-60.522-25.028c-33.372-33.373-33.372-87.673,0-121.045
					c1.953-1.952,5.118-1.952,7.071,0c1.953,1.953,1.953,5.119,0,7.071c-29.473,29.473-29.473,77.429,0,106.902
					c28.286,28.285,73.593,29.425,103.25,3.42l-14.184-14.185c-21.818,18.229-54.441,17.104-74.924-3.378
					c-21.675-21.675-21.675-56.943,0-78.618c1.953-1.952,5.118-1.952,7.071,0c1.953,1.953,1.953,5.119,0,7.071
					c-17.776,17.776-17.776,46.7,0,64.476c17.775,17.776,46.699,17.776,64.475,0c0.938-0.938,2.209-1.464,3.536-1.464
					s2.598,0.527,3.536,1.464l21.213,21.214c1.953,1.953,1.953,5.119,0,7.071C206.669,367.055,184.751,375.397,162.833,375.397z"/>
			</g>
		</g>
		<g>
			<path fill="#FFE8CD" d="M219.819,346.834c5.915-5.915,8.334-17.923,2.419-23.838c-5.914-5.914-17.717-3.29-23.632,2.624
				C192.692,331.535,213.905,352.747,219.819,346.834z"/>
			<path fill="#213B4D" d="M217.095,352.864c0,0-0.001,0-0.002,0c-8.782-0.002-20.218-11.659-23.348-19.216
				c-2.608-6.298-0.289-9.948,1.326-11.563c4.58-4.58,11.536-7.424,18.154-7.424c5.07,0,9.41,1.66,12.55,4.799
				c8.022,8.022,5.287,23.203-2.419,30.909C221.723,352.001,219.558,352.864,217.095,352.864z M202.614,328.709
				c0.234,1.184,1.577,4.076,5.009,7.707c3.676,3.889,7.44,6.098,9.107,6.41c3.875-4.352,5.535-12.732,1.974-16.294
				c-1.546-1.546-3.833-1.871-5.479-1.871C209.507,324.661,205.332,326.269,202.614,328.709z"/>
		</g>
	</g>
</g>
<g>
	<g>
		<g opacity="0.3">
			<polygon points="769.005,657.535 804.113,628.32 804.113,256.255 769.005,256.255 			"/>
		</g>
		<g>
			<g>
				<polygon fill="#213B4D" points="769.005,657.535 461.046,657.535 496.153,256.255 804.113,256.255 				"/>
			</g>
			<g>
				<polygon fill="#FFFFFF" points="756.231,643.537 476.27,643.537 508.928,270.254 788.89,270.254 				"/>
			</g>
			<g>
				<path fill="#213B4D" d="M756.231,648.537H476.27c-1.402,0-2.739-0.589-3.687-1.622c-0.947-1.033-1.417-2.417-1.294-3.813
					l32.658-373.283c0.226-2.583,2.388-4.564,4.981-4.564H788.89c1.401,0,2.739,0.588,3.687,1.622s1.417,2.417,1.295,3.813
					l-32.658,373.283C760.986,646.556,758.824,648.537,756.231,648.537z M481.726,638.537h269.923l31.783-363.283H513.509
					L481.726,638.537z"/>
			</g>
			<g>
				<g>
					<polygon fill="#78D7FF" points="542.989,307.582 516.863,606.209 748.296,307.582 					"/>
				</g>
				<g>
					<polygon fill="#6BE373" points="516.863,606.209 722.17,606.209 748.296,307.582 					"/>
				</g>
				<g>
					<path fill="#FFFFFF" d="M516.859,611.209c-1.07,0-2.148-0.342-3.06-1.048c-2.183-1.691-2.581-4.832-0.889-7.015
						l231.433-298.627c1.69-2.183,4.832-2.582,7.015-0.889c2.183,1.691,2.581,4.833,0.89,7.015L520.815,609.271
						C519.83,610.543,518.353,611.209,516.859,611.209z"/>
				</g>
			</g>
		</g>
		<g opacity="0.5">
			<g>
				<polygon fill="#FFFFFF" points="520.808,630.01 488.793,630.01 613.878,286.34 645.894,286.34 				"/>
			</g>
			<g>
				<polygon fill="#FFFFFF" points="541.398,630.01 530.202,630.01 655.288,286.34 666.484,286.34 				"/>
			</g>
		</g>
	</g>
	<g>
		<g>
			<path fill="#FF4D4D" d="M665,404.283h-65.523h-30.686v274.333h40.686v-184.92h0.273c0-18.019,4.605-32.625,22.625-32.625
				c18.018,0,22.625,14.606,22.625,32.625v184.92h40.686V404.283H665z"/>
		</g>
		<g>
			<path fill="#A83333" d="M597.636,489.086l-0.28,189.53H612.4l0.28-189.53c0-15.952,1.13-29.296,16.048-32.713
				c-2.42-0.554-4.936-0.856-7.523-0.856C602.665,455.517,597.636,470.546,597.636,489.086z"/>
		</g>
		<g>
			<rect x="683.564" y="404.283" fill="#A83333" width="14.621" height="274.333"/>
		</g>
		<g>
			<path fill="#213B4D" d="M695.686,683.616H655c-2.761,0-5-2.238-5-5v-184.92c0-24.343-8.91-27.625-17.625-27.625
				c-8.333,0-17.898,3.14-17.898,27.625v184.92c0,2.762-2.239,5-5,5h-40.686c-2.761,0-5-2.238-5-5V404.283c0-2.762,2.239-5,5-5
				h126.895c2.762,0,5,2.238,5,5v274.333C700.686,681.378,698.447,683.616,695.686,683.616z M660,673.616h30.686V409.283H573.791
				v264.333h30.686v-179.92c0-11.071,1.76-19.446,5.382-25.604c4.625-7.863,12.411-12.021,22.517-12.021
				c18.331,0,27.625,12.659,27.625,37.625V673.616z"/>
		</g>
		<g>
			<g>
				<path fill="#7575FF" d="M615.557,689.139c0,16.096-58.28,16.096-58.28,0c0-16.092,13.046-29.139,29.14-29.139
					S615.557,673.047,615.557,689.139z"/>
			</g>
			<g>
				<path fill="#4D4DA8" d="M589.416,660c-3.08,0-6.047,0.481-8.834,1.367c11.775,3.742,20.307,14.76,20.307,27.771
					c0,6.398-9.21,10.25-20.307,11.562c16.82,1.988,37.975-1.864,37.975-11.562C618.557,673.047,605.51,660,589.416,660z"/>
			</g>
			<g>
				<path fill="#213B4D" d="M586.417,706.21c-15.749,0-34.14-4.471-34.14-17.071c0-18.824,15.315-34.139,34.14-34.139
					c18.825,0,34.141,15.314,34.141,34.139C620.557,701.739,602.166,706.21,586.417,706.21z M586.416,665
					c-13.311,0-24.14,10.828-24.14,24.139c0,2.884,9.404,7.071,24.14,7.071s24.14-4.188,24.14-7.071
					C610.557,675.828,599.727,665,586.416,665z"/>
			</g>
		</g>
		<g>
			<g>
				<path fill="#7575FF" d="M707.057,689.139c0,16.096-58.281,16.096-58.281,0c0-16.092,13.047-29.139,29.141-29.139
					S707.057,673.047,707.057,689.139z"/>
			</g>
			<g>
				<path fill="#4D4DA8" d="M680.916,660c-3.08,0-6.047,0.481-8.834,1.367c11.775,3.742,20.307,14.76,20.307,27.771
					c0,6.398-9.21,10.25-20.307,11.562c16.82,1.988,37.975-1.864,37.975-11.562C710.057,673.047,697.01,660,680.916,660z"/>
			</g>
			<g>
				<path fill="#213B4D" d="M677.916,706.21c-15.75,0-34.141-4.471-34.141-17.071c0-18.824,15.315-34.139,34.141-34.139
					s34.141,15.314,34.141,34.139C712.057,701.739,693.665,706.21,677.916,706.21z M677.916,665
					c-13.311,0-24.141,10.828-24.141,24.139c0,2.884,9.404,7.071,24.141,7.071s24.141-4.188,24.141-7.071
					C702.057,675.828,691.228,665,677.916,665z"/>
			</g>
		</g>
	</g>
	<g>
		<path fill="#8C4227" d="M700.442,68.975c12.728,13.248,5.692,17.355,5.692,35.727c0,18.373-2.703,18.373-2.703,36.746
			s0.202,18.373,0.202,36.747s-2.786,18.374-2.786,36.747c0,18.374,4.295,18.374,4.295,36.748c0,18.376-1.938,18.376-1.938,36.752
			s13.506,25.881,0.777,39.135c-12.225,12.729-20.129-6.459-37.777-6.459c-17.647,0-17.647,7.919-35.293,7.919
			c-17.649,0-17.649-3.597-35.298-3.597c-17.649,0-21.479,10.951-33.707-1.775c-12.728-13.248-2.059-16.842-2.059-35.213
			c0-18.373-0.789-18.373-0.789-36.746s4.764-18.373,4.764-36.747s-7.557-18.374-7.557-36.748s1.137-18.374,1.137-36.748
			c0-18.376,2.869-18.376,2.869-36.751c0-18.376-9.001-19.959,3.728-33.213c12.224-12.729,13.963-0.77,31.61-0.77
			c17.646,0,17.646-2.338,35.293-2.338c17.649,0,18.745,6.716,36.037,3.182C684.881,67.906,688.215,56.247,700.442,68.975z"/>
	</g>
	<g>
		<g>
			<path fill="#B35432" d="M611.444,70.729c13.639,0,16.742-1.396,25.593-2.03c-1.813-0.191-3.83-0.308-6.135-0.308
				c-13.145,0-16.502,1.297-24.651,1.959C607.822,70.582,609.535,70.729,611.444,70.729z"/>
		</g>
		<g>
			<path fill="#B35432" d="M682.774,71.572c6.339-1.295,10.851-3.586,14.579-5.449c-9.852-7.843-14.081,2.111-30.414,5.449
				c-0.195,0.04-0.377,0.072-0.568,0.109C670.553,72.682,675.045,73.152,682.774,71.572z"/>
		</g>
		<g>
			<path fill="#B35432" d="M577.742,323.664c-12.728-13.248-2.059-16.842-2.059-35.213c0-18.373-0.789-18.373-0.789-36.746
				s4.764-18.373,4.764-36.747s-7.557-18.374-7.557-36.748s1.137-18.374,1.137-36.748c0-18.376,2.869-18.376,2.869-36.751
				c0-18.376-9.001-19.959,3.728-33.213c1.202-1.252,2.301-2.258,3.325-3.066c-7.229-2.701-10.664-5.781-19.16,3.066
				c-12.729,13.254-3.728,14.837-3.728,33.213c0,18.375-2.869,18.375-2.869,36.751c0,18.374-1.137,18.374-1.137,36.748
				s7.557,18.374,7.557,36.748s-4.764,18.374-4.764,36.747s0.789,18.373,0.789,36.746c0,18.371-10.668,21.965,2.059,35.213
				c8.366,8.707,12.803,6.33,20.422,3.961C580.917,326.683,579.409,325.4,577.742,323.664z"/>
		</g>
		<g>
			<path fill="#B35432" d="M682.039,321.117c-3.757,0-6.709,0.361-9.207,0.926c12.629,3.505,19.902,15.396,29.747,6.857
				C696.965,325.7,690.668,321.117,682.039,321.117z"/>
		</g>
		<g>
			<path fill="#B35432" d="M611.448,325.439c-2.267,0-4.302,0.183-6.16,0.471c8.873,0.975,11.968,3.126,25.623,3.126
				c2.489,0,4.618-0.161,6.504-0.433C628.273,327.648,625.28,325.439,611.448,325.439z"/>
		</g>
	</g>
	<g>
		<g>
			<path fill="#69311D" d="M650.112,71.578c-5.012-1.246-9.716-3.188-19.209-3.188c-4.31,0-7.563,0.141-10.282,0.351
				C632.362,70.07,635.267,74.605,650.112,71.578z"/>
		</g>
		<g>
			<path fill="#69311D" d="M578.813,70.729c4.837,0,8.345-0.176,11.257-0.432c-11.375-1.815-14.644-8.486-23.047-1.623
				C570.074,69.764,573.801,70.729,578.813,70.729z"/>
		</g>
		<g>
			<path fill="#69311D" d="M703.204,288.441c0-18.376,1.938-18.376,1.938-36.752c0-18.374-4.295-18.374-4.295-36.748
				c0-18.373,2.786-18.373,2.786-36.747s-0.202-18.374-0.202-36.747s2.703-18.373,2.703-36.746c0-18.371,7.035-22.479-5.692-35.727
				c-8.137-8.469-12.339-6.139-19.524-2.552c0.864,0.716,1.766,1.55,2.729,2.552c12.728,13.248,5.692,17.355,5.692,35.727
				c0,18.373-2.704,18.373-2.704,36.746s0.203,18.373,0.203,36.747s-2.785,18.374-2.785,36.747c0,18.374,4.295,18.374,4.295,36.748
				c0,18.376-1.939,18.376-1.939,36.752s13.506,25.881,0.777,39.135c-0.344,0.358-0.684,0.684-1.021,0.992
				c6.114,3.551,11.364,5.727,17.817-0.992C716.71,314.322,703.204,306.817,703.204,288.441z"/>
		</g>
		<g>
			<path fill="#69311D" d="M578.817,325.439c-5.233,0-9.246,0.963-12.628,1.986c7.696,5.363,12.375,0.284,22.876-1.451
				C586.353,325.653,583.109,325.439,578.817,325.439z"/>
		</g>
		<g>
			<path fill="#69311D" d="M649.409,321.117c-14.973,0-17.247,5.698-28.368,7.426c2.636,0.298,5.775,0.493,9.871,0.493
				c13.621,0,16.734-4.716,25.558-6.868C654.288,321.523,651.952,321.117,649.409,321.117z"/>
		</g>
	</g>
	<g>
		<path fill="#213B4D" d="M695.432,336.937c-4.995,0-9.398-2.619-13.658-5.152c-4.685-2.787-9.529-5.667-15.569-5.667
			c-7.753,0-11.389,1.632-15.6,3.521c-4.593,2.061-9.8,4.397-19.693,4.397c-9.329,0-14.066-0.965-18.647-1.899
			c-4.284-0.873-8.33-1.698-16.65-1.698c-5.72,0-9.835,1.322-13.465,2.489c-3.027,0.973-5.886,1.892-9.06,1.892
			c-5.115,0-9.675-2.372-14.787-7.692c-10.106-10.52-8.038-17.418-5.849-24.721c1.123-3.744,2.395-7.988,2.395-13.956
			c0-9.079-0.198-13.695-0.39-18.159c-0.196-4.569-0.399-9.293-0.399-18.587c0-9.824,1.292-14.808,2.542-19.628
			c1.143-4.407,2.222-8.57,2.222-17.119c0-8.199-1.577-12.033-3.402-16.472c-1.947-4.734-4.154-10.101-4.154-20.276
			c0-9.341,0.294-14.09,0.578-18.683c0.287-4.646,0.559-9.033,0.559-18.065c0-9.576,0.76-14.442,1.495-19.147
			c0.707-4.527,1.375-8.804,1.375-17.604c0-5.794-0.973-9.672-1.832-13.094c-2.016-8.033-2.758-13.47,6.953-23.582
			c4.915-5.118,9.126-7.4,13.655-7.4c3.12,0,5.743,1.064,8.52,2.191c3.354,1.361,7.155,2.903,13.042,2.903
			c8.494,0,12.621-0.547,16.99-1.125c4.499-0.596,9.15-1.212,18.304-1.212c8.347,0,13.505,1.438,17.65,2.593
			c3.24,0.903,5.799,1.616,9.393,1.616h0c2.328,0,4.942-0.303,7.992-0.927c5.573-1.139,9.59-3.146,13.135-4.918
			c3.683-1.84,7.162-3.579,11.169-3.579c4.675,0,8.933,2.262,13.806,7.334c10.066,10.478,9.683,16.901,8.224,26.514
			c-0.533,3.508-1.137,7.485-1.137,12.676c0,9.552-0.714,14.407-1.405,19.101c-0.667,4.538-1.298,8.824-1.298,17.645
			c0,9.159,0.051,13.815,0.101,18.318c0.05,4.53,0.102,9.214,0.102,18.429c0,9.564-0.737,14.424-1.449,19.124
			c-0.688,4.533-1.337,8.814-1.337,17.624c0,8.61,0.979,12.8,2.017,17.236c1.12,4.793,2.278,9.749,2.278,19.512
			c0,9.451-0.507,14.255-0.997,18.9c-0.484,4.591-0.941,8.927-0.941,17.852c0,6.127,1.722,10.889,3.388,15.494
			c2.824,7.809,6.025,16.661-4.004,27.104c-3.811,3.967-7.786,5.896-12.153,5.897C695.434,336.937,695.433,336.937,695.432,336.937z
			 M666.205,316.117c8.789,0,15.382,3.921,20.68,7.072c3.382,2.011,6.302,3.748,8.548,3.748c0.958,0,2.512-0.293,4.942-2.824
			c5.725-5.961,4.499-9.35,1.812-16.777c-1.774-4.907-3.983-11.014-3.983-18.895c0-9.451,0.507-14.255,0.997-18.9
			c0.484-4.591,0.941-8.927,0.941-17.852c0-8.61-0.979-12.8-2.017-17.236c-1.12-4.793-2.278-9.749-2.278-19.512
			c0-9.563,0.737-14.423,1.449-19.123c0.688-4.533,1.337-8.814,1.337-17.625c0-9.16-0.051-13.816-0.101-18.319
			c-0.05-4.53-0.102-9.214-0.102-18.428c0-9.552,0.714-14.406,1.405-19.101c0.667-4.538,1.298-8.824,1.298-17.645
			c0-5.946,0.693-10.51,1.25-14.177c1.174-7.736,1.613-10.631-5.548-18.085c-4.095-4.262-5.977-4.262-6.595-4.262
			c-1.647,0-3.876,1.114-6.698,2.524c-3.895,1.946-8.74,4.368-15.604,5.771c-3.716,0.759-6.985,1.129-9.994,1.129c0,0,0,0,0,0
			c-4.961,0-8.579-1.008-12.078-1.983c-3.926-1.094-7.986-2.226-14.965-2.226c-8.494,0-12.621,0.547-16.99,1.125
			c-4.499,0.596-9.15,1.212-18.303,1.212c-7.838,0-13.019-2.102-16.802-3.637c-2.007-0.814-3.592-1.458-4.76-1.458
			c-0.565,0-2.287,0-6.442,4.327c-6.371,6.633-5.967,8.241-4.466,14.222c0.9,3.586,2.132,8.498,2.132,15.528
			c0,9.575-0.76,14.441-1.495,19.146c-0.707,4.528-1.375,8.804-1.375,17.604c0,9.341-0.294,14.09-0.578,18.683
			c-0.287,4.646-0.559,9.033-0.559,18.065c0,8.199,1.577,12.033,3.402,16.472c1.947,4.734,4.154,10.101,4.154,20.276
			c0,9.825-1.292,14.809-2.542,19.629c-1.143,4.407-2.222,8.569-2.222,17.118c0,9.079,0.198,13.695,0.39,18.159
			c0.196,4.569,0.399,9.293,0.399,18.587c0,7.436-1.562,12.643-2.816,16.828c-1.931,6.441-2.582,8.611,3.481,14.921
			c4.419,4.599,6.616,4.62,7.562,4.62c0.004,0,0.009,0,0.013,0c1.607,0,3.546-0.624,6.001-1.413
			c4.115-1.322,9.237-2.968,16.524-2.968c9.329,0,14.066,0.965,18.647,1.899c4.284,0.873,8.33,1.698,16.65,1.698
			c7.753,0,11.389-1.632,15.6-3.521C651.104,318.454,656.311,316.117,666.205,316.117z"/>
	</g>
	<g>
		<path fill="#FFFFFF" d="M682.879,230.521c-31.932-34.307-114.088-23.174-114.088,32.749c0,69.41,0,109.391,0,144.687
			c0,18.712,35.574,27.335,69.002,26.14c29.633-1.06,57.58-9.833,57.58-26.14c0-34.704,0-74.847,0-144.687
			C695.373,249.699,690.58,238.795,682.879,230.521z"/>
	</g>
	<g>
		<path fill="#A6E5FF" d="M690.312,292.282c-2.458,0-4.741-1.395-6.946-1.191c-2.465,0.228-3.209,6.723-5.344,7.236
			c-2.412,0.582-3.283,0.494-5.252,1.486c-2.158,1.09-11.05-7.318-12.646-5.672c-1.579,1.631-8.341,3.226-9.343,5.464
			c-0.885,1.978,8.832,8.612,8.417,11.112c-0.353,2.125-0.655,4.307-0.655,6.837s11.113,2.917,11.466,5.041
			c0.414,2.497-7.016,5.063-6.132,7.04c1.001,2.238,3.742,0.901,5.32,2.53c1.597,1.649,3.566-2.23,5.725-1.14
			c1.969,0.994-2.188,17.074,0.227,17.656c2.136,0.515,5.711-4.465,8.179-4.236c2.204,0.203,4.527-1.806,6.985-1.806
			c0.021,0,0.042,0.004,0.063,0.004v-50.355C690.354,292.289,690.333,292.282,690.312,292.282z"/>
	</g>
	<g opacity="0.2">
		<g>
			<path d="M680.041,263.27c0,69.84,0,109.982,0,144.687c0,16.018-26.969,24.762-56.008,26.07c4.562,0.205,9.181,0.232,13.76,0.069
				c29.633-1.06,57.58-9.833,57.58-26.14c0-34.704,0-74.847,0-144.687c0-13.57-4.793-24.475-12.494-32.749L680.041,263.27z"/>
		</g>
	</g>
	<g>
		<path fill="#213B4D" d="M631.686,439.206c-0.002,0-0.003,0-0.005,0c-33.792,0-67.89-9.664-67.89-31.25V263.27
			c0-17.77,7.566-32.7,21.879-43.179c12.368-9.054,28.902-14.04,46.558-14.04c17.616,0,34.088,4.974,46.381,14.006
			c14.238,10.461,21.764,25.403,21.764,43.213v144.687c0,7.227-4.026,17.317-23.206,24.354
			C665.046,436.757,648.893,439.206,631.686,439.206z M632.229,216.051c-28.145,0-58.438,14.776-58.438,47.219v144.687
			c0,12.114,24.887,21.25,57.89,21.25c0.001,0,0.003,0,0.004,0c15.831,0,31.151-2.29,42.038-6.283
			c6.218-2.282,16.65-7.26,16.65-14.967V263.27C690.373,230.827,660.232,216.051,632.229,216.051z"/>
	</g>
	<g>
		<polygon fill="#FFD19C" points="647.133,229.68 632.375,259.667 617.617,229.68 617.617,190.002 647.133,190.002 		"/>
	</g>
	<g>
		<path fill="#E3BA8B" d="M645.592,229.68c0,0-1.553,7-5.26,7s-5.26-7-5.26-7v-39.678h10.52V229.68z"/>
	</g>
	<g>
		<path fill="#213B4D" d="M632.375,264.667c-1.905,0-3.645-1.083-4.486-2.792l-14.758-29.987c-0.338-0.687-0.514-1.442-0.514-2.208
			v-39.678c0-2.761,2.239-5,5-5h29.516c2.761,0,5,2.239,5,5v39.678c0,0.766-0.176,1.521-0.514,2.208l-14.758,29.987
			C636.02,263.584,634.28,264.667,632.375,264.667z M622.617,228.516l9.758,19.827l9.758-19.827v-33.514h-19.516V228.516z"/>
	</g>
	<g>
		<path fill="#FFD19C" d="M576.831,96.366h0.04c0-0.034-0.003-0.067-0.003-0.102c0-69.956,111.055-69.956,111.055,0
			c0,0.034-0.002,0.067-0.002,0.102h0.002l-4.732,52.962h-0.039c0,0.034,0.003,0.067,0.003,0.102c0,69.956-101.591,69.956-101.591,0
			c0-0.034,0.002-0.067,0.002-0.102h-0.002L576.831,96.366z"/>
	</g>
	<g>
		<g>
			<path fill="#FFFFFF" d="M641.404,126.068c0.904-10.332,10.007-17.969,20.337-17.068c10.332,0.904,17.973,10.015,17.068,20.342
				C677.899,139.671,640.498,136.398,641.404,126.068z"/>
		</g>
		<g>
			<path fill="#FFFFFF" d="M585.354,129.342c-0.904-10.327,6.733-19.434,17.061-20.339c10.335-0.907,19.438,6.739,20.34,17.068
				C623.662,136.398,586.256,139.671,585.354,129.342z"/>
		</g>
		<g>
			<path fill="#213B4D" d="M660.393,114.999c-6.63,0-12.005,5.376-12.005,12.005c0,2.525,0.784,4.867,2.117,6.801
				c5.618,1.764,13.049,2.326,18.667,1.368c1.996-2.144,3.227-5.01,3.227-8.169C672.398,120.375,667.022,114.999,660.393,114.999z"
				/>
		</g>
		<g>
			<path fill="#213B4D" d="M603.752,114.999c6.63,0,12.004,5.376,12.004,12.005c0,2.525-0.784,4.867-2.116,6.801
				c-5.618,1.764-13.05,2.326-18.667,1.368c-1.996-2.144-3.226-5.01-3.226-8.169C591.748,120.375,597.123,114.999,603.752,114.999z"
				/>
		</g>
		<g>
			<path fill="#FFD19C" d="M583.59,139.345c0-6.146,9.694-11.132,21.661-11.132c11.965,0,21.664,4.985,21.664,11.132"/>
		</g>
		<g>
			<path fill="#FFD19C" d="M637.23,139.345c0-6.146,9.694-11.132,21.661-11.132c11.965,0,21.664,4.985,21.664,11.132"/>
		</g>
	</g>
	<g>
		<g>
			<circle fill="#FFBB9C" cx="665.253" cy="146.511" r="11.607"/>
		</g>
		<g>
			<circle fill="#FFBB9C" cx="599.499" cy="146.511" r="11.607"/>
		</g>
	</g>
	<g opacity="0.3">
		<path fill="#A87A45" d="M687.922,96.366h-0.002c0-0.034,0.002-0.067,0.002-0.102c0-37.703-32.257-55.073-62.002-52.136
			c25.445,2.513,49.053,19.883,49.053,52.136c0,0.034-0.002,0.067-0.002,0.102h0.003l-4.732,52.962h-0.039
			c0,0.034,0.002,0.067,0.002,0.102c0,32.253-18.876,49.623-44.32,52.136c29.745,2.938,57.27-14.433,57.27-52.136
			c0-0.034-0.003-0.067-0.003-0.102h0.039L687.922,96.366z"/>
	</g>
	<g>
		<path fill="#213B4D" d="M632.357,206.897c-15.267,0-29.536-5.094-40.181-14.343c-12.073-10.49-18.466-25.36-18.494-43.01
			l-4.978-52.708c-0.035-0.371-0.028-0.74,0.018-1.103c0.138-17.554,7.123-32.321,20.223-42.733
			c11.522-9.159,26.953-14.203,43.45-14.203s31.927,5.044,43.45,14.203c13.231,10.517,20.225,25.478,20.225,43.265
			c0,0.048-0.002,0.148-0.003,0.196c0,0.157-0.007,0.219-0.021,0.375l-4.998,52.962c-0.005,0.054-0.011,0.108-0.018,0.162
			c-0.127,17.467-6.515,32.188-18.492,42.595C661.893,201.803,647.624,206.897,632.357,206.897z M578.722,96.543l4.939,52.315
			c0.005,0.061,0.01,0.122,0.014,0.183c0.007,0.128,0.01,0.324,0.008,0.452c0,32.55,25.232,47.404,48.675,47.404
			c23.424,0,48.634-14.831,48.674-47.39c-0.002-0.06-0.003-0.12-0.003-0.179c0-0.381,0.043-0.752,0.123-1.109l4.918-52.093
			c-0.044-32.496-27.844-47.329-53.674-47.329c-25.824,0-53.617,14.823-53.674,47.365c0.002,0.068,0.004,0.136,0.004,0.204
			C578.725,96.425,578.724,96.484,578.722,96.543z"/>
	</g>
	<g>
		<path fill="#B3926D" d="M632.58,152.873c-7.751,0-13.596-3.526-13.596-8.201c0-1.381,1.119-2.5,2.5-2.5s2.5,1.119,2.5,2.5
			c0,1.099,3.348,3.201,8.596,3.201c5.247,0,8.594-2.102,8.594-3.201c0-1.381,1.119-2.5,2.5-2.5s2.5,1.119,2.5,2.5
			C646.174,149.347,640.33,152.873,632.58,152.873z"/>
	</g>
	<g>
		<g>
			<g>
				<g>
					<path fill="#FFFFFF" d="M672.582,252.977c76.961,0,139.574-62.612,139.574-139.574h-30
						c0,60.419-49.155,109.574-109.574,109.574V252.977z"/>
				</g>
			</g>
			<g>
				<g>
					<path fill="#213B4D" d="M690.871,256.784c-2.472,0-4.62-1.832-4.951-4.349c-0.36-2.738,1.567-5.249,4.306-5.609
						c65.005-8.547,114.423-63.301,116.838-128.423h-20.015c-2.624,60.868-52.964,109.574-114.467,109.574c-2.762,0-5-2.239-5-5
						s2.238-5,5-5c57.662,0,104.574-46.912,104.574-104.574c0-2.761,2.238-5,5-5h30c2.762,0,5,2.239,5,5
						c0,72.3-54.008,133.922-125.628,143.338C691.308,256.77,691.088,256.784,690.871,256.784z"/>
				</g>
			</g>
		</g>
		<g>
			<path fill="#FFE8CD" d="M812.156,113.402c0-8.367-6.779-18.566-15.146-18.568c-8.363,0.002-14.854,10.203-14.854,18.568
				C782.156,121.766,812.154,121.766,812.156,113.402z"/>
			<path fill="#213B4D" d="M797.155,124.675c-12.336,0-19.999-4.319-19.999-11.272c0-5.19,1.972-10.947,5.275-15.399
				c3.906-5.267,9.084-8.167,14.577-8.169c11.348,0.002,20.147,12.671,20.147,23.568
				C817.154,120.356,809.491,124.675,797.155,124.675z M787.175,112.757c1.146,0.778,4.677,1.917,9.98,1.917s8.836-1.14,9.982-1.917
				c-0.335-5.817-5.09-12.922-10.129-12.923C792.117,99.835,787.5,106.939,787.175,112.757z"/>
		</g>
	</g>
	<g>
		<g>
			<g>
				<g>
					<path fill="#FFFFFF" d="M608.688,246.712c-58.298,50.244-146.603,43.691-196.847-14.606l22.726-19.585
						c39.444,45.767,108.769,50.911,154.536,11.468L608.688,246.712z"/>
				</g>
			</g>
			<g>
				<g>
					<path fill="#213B4D" d="M517.483,285.461c-10.378,0-20.763-1.099-30.931-3.321c-30.78-6.725-57.925-22.898-78.499-46.771
						c-0.866-1.004-1.297-2.312-1.199-3.634c0.098-1.322,0.718-2.552,1.722-3.417l22.726-19.585
						c2.091-1.802,5.249-1.568,7.052,0.523c37.644,43.678,103.806,48.589,147.484,10.944c2.091-1.802,5.248-1.568,7.052,0.523
						c1.803,2.092,1.568,5.249-0.523,7.052c-46.589,40.15-116.518,36.118-158.242-8.274l-15.164,13.068
						c18.706,20.176,42.712,33.898,69.726,39.801c27.713,6.056,57.185,3.159,82.989-8.153c2.529-1.109,5.479,0.043,6.587,2.571
						c1.109,2.529-0.042,5.479-2.571,6.587C557.44,281.377,537.479,285.461,517.483,285.461z"/>
				</g>
			</g>
		</g>
		<g>
			<path fill="#FFE8CD" d="M434.566,212.519c-5.462-6.336-17.256-9.637-23.595-4.177c-6.335,5.462-4.591,17.427,0.869,23.764
				C417.301,238.44,440.025,218.855,434.566,212.519z"/>
			<path fill="#213B4D" d="M414.92,238.351c-0.001,0-0.001,0-0.003,0c-2.77-0.001-5.208-1.06-6.864-2.981
				c-3.388-3.933-5.652-9.581-6.057-15.109c-0.479-6.541,1.55-12.118,5.711-15.706c3.017-2.599,6.985-3.972,11.476-3.972
				c7.105,0,14.63,3.403,19.171,8.671c1.418,1.646,3.401,5.263,0.767,11.007C435.463,228.235,423.336,238.351,414.92,238.351z
				 M419.183,210.583c-1.438,0-3.463,0.268-4.948,1.547c-3.704,3.193-2.565,11.587,0.984,16.208
				c4.751-0.371,14.4-9.269,15.142-13.013C427.684,212.552,423.093,210.583,419.183,210.583z"/>
		</g>
	</g>
	<g>
		<path fill="#FFFFFF" d="M651.581,168.467c0,7.661-8.729,13.871-19.499,13.871c-10.769,0-19.499-6.21-19.499-13.871
			C612.583,160.807,651.581,160.807,651.581,168.467z"/>
	</g>
	<g>
		<path fill="#B3926D" d="M632.082,184.838c-12.13,0-21.999-7.344-21.999-16.371c0-7.65,16.838-8.245,21.999-8.245
			s21.999,0.595,21.999,8.245C654.081,177.494,644.212,184.838,632.082,184.838z M632.082,165.222
			c-10.809,0-16.499,2.212-17.016,3.341c0.017,6.067,7.801,11.275,17.016,11.275s16.999-5.208,16.999-11.371
			C648.581,167.434,642.891,165.222,632.082,165.222z"/>
	</g>
	<g>
		<path fill="#A84F2F" d="M706.414,81.086c1.878-3.707,0.074-8.779-4.021-14.229c0.122-0.815,0.197-1.646,0.197-2.495
			c0-9.275-19.841-31.861-30.191-31.861c-4.614,0-20.24-12.043-39.819-12.043S596.448,31.5,591.748,31.5
			c-10.351,0-29.182,23.586-29.182,32.861c0,1.82,0.303,3.566,0.841,5.207c-3.409,4.309-5.272,8.389-4.729,11.633
			c-0.992,1.869-1.559,3.998-1.559,6.262c0,7.406,6.003,13.408,13.41,13.408c5.251,0,9.784-3.023,11.984-7.42
			c13.293,1.938,27.654-0.754,37.967-8.09c3.754-2.67,6.633-5.725,8.659-8.982c2.09,2.674,4.717,5.191,7.909,7.462
			c12.253,8.716,29.553,11.646,45.207,8.802c2.026,4.834,6.801,8.229,12.37,8.229c7.406,0,13.411-6.002,13.411-13.408
			C708.038,85.151,707.445,82.982,706.414,81.086z"/>
	</g>
	<g>
		<g>
			<path fill="#C25B36" d="M571.674,87.463c0-2.264,0.566-4.393,1.559-6.262c-0.544-3.244,1.319-7.324,4.729-11.633
				c-0.538-1.641-0.841-3.387-0.841-5.207c0-9.275,18.831-32.861,29.182-32.861c4.09,0,17.157-8.359,33.382-10.53
				c-2.298-0.326-4.671-0.513-7.105-0.513C613,20.457,596.448,31.5,591.748,31.5c-10.351,0-29.182,23.586-29.182,32.861
				c0,1.82,0.303,3.566,0.841,5.207c-3.409,4.309-5.272,8.389-4.729,11.633c-0.992,1.869-1.559,3.998-1.559,6.262
				c0,7.406,6.003,13.408,13.41,13.408c2.686,0,5.182-0.795,7.275-2.156C574.119,96.326,571.674,92.184,571.674,87.463z"/>
		</g>
		<g>
			<path fill="#C25B36" d="M598.243,93.596c-0.392-0.049-0.785-0.088-1.175-0.145c-0.05,0.101-0.108,0.196-0.161,0.295
				C597.354,93.701,597.799,93.652,598.243,93.596z"/>
		</g>
		<g>
			<path fill="#C25B36" d="M696.811,92.643c-4.608,0.838-9.359,1.16-14.082,0.996c2.233,4.297,6.721,7.232,11.898,7.232
				c2.684,0,5.178-0.797,7.275-2.154C699.65,97.258,697.859,95.146,696.811,92.643z"/>
		</g>
	</g>
	<g>
		<g>
			<path fill="#8A4127" d="M567.553,93.451c-1.04,2.078-2.605,3.843-4.517,5.133c2.14,1.443,4.718,2.287,7.494,2.287
				c5.147,0,9.599-2.908,11.846-7.164C577.459,94.244,572.435,94.163,567.553,93.451z"/>
		</g>
		<g>
			<path fill="#8A4127" d="M622.088,83.841c-3.192-2.271-5.819-4.788-7.909-7.462c-2.026,3.258-4.905,6.312-8.659,8.982
				c-6.242,4.44-13.971,7.168-22.045,8.209c13.021,1.675,26.941-1.049,37.007-8.209c0.632-0.449,1.229-0.914,1.812-1.384
				C622.227,83.93,622.155,83.889,622.088,83.841z"/>
		</g>
		<g>
			<path fill="#8A4127" d="M706.414,81.086c1.878-3.707,0.074-8.779-4.021-14.229c0.122-0.815,0.197-1.646,0.197-2.495
				c0-9.275-19.841-31.861-30.191-31.861c-4.614,0-20.24-12.043-39.819-12.043c-2.615,0-5.173,0.201-7.659,0.543
				c16.092,2.343,28.492,11.5,32.516,11.5c10.351,0,30.193,22.586,30.193,31.861c0,0.85-0.076,1.68-0.198,2.495
				c4.096,5.45,5.899,10.522,4.021,14.229c1.03,1.896,1.624,4.065,1.624,6.377c0,4.635-2.353,8.721-5.929,11.128
				c2.137,1.439,4.709,2.28,7.479,2.28c7.406,0,13.411-6.002,13.411-13.408C708.038,85.151,707.445,82.982,706.414,81.086z"/>
		</g>
		<g>
			<path fill="#8A4127" d="M663.014,93.256c1.575,0.178,3.158,0.308,4.746,0.373c-0.166-0.322-0.324-0.65-0.465-0.986
				C665.881,92.899,664.45,93.093,663.014,93.256z"/>
		</g>
	</g>
	<g>
		<path fill="#213B4D" d="M694.627,105.871c-6.067,0-11.62-2.949-15.022-7.76c-3.003,0.387-6.054,0.582-9.109,0.582
			c-13.666,0-26.573-3.828-36.343-10.778c-1.671-1.188-3.23-2.458-4.67-3.801c-1.778,1.917-3.817,3.696-6.103,5.322
			c-8.724,6.206-20.24,9.624-32.427,9.624c-1.974,0-3.953-0.092-5.914-0.274c-3.444,4.44-8.738,7.085-14.508,7.085
			c-10.151,0-18.41-8.258-18.41-18.408c0-2.466,0.504-4.923,1.467-7.19c-0.067-3.792,1.599-8.015,4.971-12.593
			c0.67-5.465,4.201-15.118,10.465-23.762c9.408-12.983,28.071-28.46,63.556-28.46c18.415,0,44.029,4.254,61.486,24.519
			c8.221,9.543,11.985,19.742,13.005,24.807c5.058,7.098,5.618,12.395,4.728,16.058c0.815,2.108,1.24,4.36,1.24,6.623
			C713.038,97.613,704.779,105.871,694.627,105.871z M682.259,87.642c1.984,0,3.82,1.185,4.609,3.067
			c1.314,3.136,4.359,5.162,7.759,5.162c4.638,0,8.411-3.772,8.411-8.408c0-1.406-0.342-2.748-1.017-3.988
			c-0.785-1.444-0.811-3.182-0.067-4.648c0.59-1.166,0.013-4.213-3.559-8.966c-0.573-0.762-0.911-1.666-0.986-2.601
			c-0.407-2.126-9.009-41.803-64.83-41.803c-55.453,0-63.759,41.292-64.179,43.85c0.063,1.2-0.309,2.398-1.072,3.364
			c-3.051,3.856-3.91,6.56-3.718,7.704c0.182,1.085,0.001,2.199-0.515,3.171c-0.647,1.219-0.975,2.537-0.975,3.917
			c0,4.636,3.773,8.408,8.41,8.408c3.196,0,6.075-1.785,7.513-4.658c0.965-1.928,3.056-3.02,5.193-2.71
			c2.53,0.369,5.126,0.556,7.716,0.556c10.127,0,19.585-2.76,26.631-7.772c3.114-2.215,5.574-4.755,7.312-7.548
			c0.862-1.387,2.348-2.265,3.979-2.353c1.632-0.085,3.201,0.627,4.207,1.914c1.847,2.363,4.158,4.539,6.868,6.467
			c8.092,5.756,18.94,8.926,30.547,8.926c3.669,0,7.325-0.326,10.868-0.97C681.663,87.668,681.963,87.642,682.259,87.642z"/>
	</g>
	<g>
		<path fill="#213B4D" d="M629.174,80.85c-1.393,0-2.779-0.579-3.767-1.71c-0.415-0.474-10.08-11.798-3.444-27
			c1.104-2.531,4.051-3.687,6.583-2.582c2.531,1.105,3.687,4.052,2.582,6.583c-4.129,9.459,1.75,16.351,1.809,16.419
			c1.817,2.08,1.604,5.238-0.476,7.055C631.514,80.443,630.341,80.85,629.174,80.85z"/>
	</g>
	<g>
		<path fill="#213B4D" d="M382.843,280.563c-1.106,0-2.217-0.365-3.138-1.108c-6.609-5.333-7.514-6.628-7.602-8.95
			c-0.045-1.204,0.346-2.385,1.101-3.324l69.354-86.189c0.154-0.196,0.322-0.38,0.504-0.551l19.529-18.366
			c-0.371-4.614,1.145-9.227,4.268-12.728c8.954-10.038,21.582-15.498,38.604-16.689l0.235-0.016
			c0.379-0.026,0.821-0.055,1.248-0.079c2.184-0.139,4.221,1.201,4.979,3.268c0.759,2.067,0.077,4.387-1.681,5.714
			c-7.068,5.337-8.226,9.403-9.691,14.55c-1.32,4.638-2.817,9.895-8.232,15.966c-3.219,3.608-7.841,5.682-12.688,5.692
			l-15.812,21.207c-0.132,0.178-0.276,0.346-0.432,0.505l-76.951,79.574C385.463,280.049,384.156,280.563,382.843,280.563z
			 M450.168,187.486l-53.992,67.099l59.821-61.86l17.284-23.181c1.146-1.538,3.076-2.283,4.956-1.92
			c0.447,0.086,0.904,0.13,1.36,0.13c2.042,0,3.91-0.834,5.261-2.349c3.889-4.36,4.903-7.922,6.077-12.047
			c0.794-2.79,1.639-5.757,3.372-8.9c-8.403,2.134-14.998,5.955-19.987,11.547c-1.529,1.713-2.125,4.077-1.596,6.326l0.064,0.247
			c0.48,1.781-0.057,3.688-1.4,4.952L450.168,187.486z"/>
	</g>
	<g>
		<g>
			<polygon fill="#D3F2FF" points="469.556,162.39 478.741,170.586 459.813,195.972 446.487,184.084 			"/>
		</g>
		<g>
			<polygon fill="#A6E5FF" points="474.723,166.114 477.416,168.519 458.488,193.904 455.72,191.435 			"/>
		</g>
		<g>
			<polygon fill="#FF7847" points="382.845,275.563 376.241,269.531 446.486,184.086 446.487,184.084 459.813,195.972 
				459.812,195.974 			"/>
		</g>
		<g>
			<polygon fill="#B55632" points="380.465,274.791 376.706,273.435 454.479,192.943 454.479,192.94 457.247,195.41 
				457.246,195.412 			"/>
		</g>
		<g>
			<path fill="#213B4D" d="M459.813,198.472c-0.611,0-1.204-0.224-1.664-0.634l-13.326-11.888c-0.523-0.467-0.827-1.132-0.836-1.833
				c-0.009-0.701,0.276-1.374,0.787-1.854l23.068-21.694c0.945-0.888,2.411-0.907,3.377-0.044l9.186,8.196
				c0.967,0.862,1.114,2.321,0.34,3.359l-18.928,25.386c-0.419,0.562-1.055,0.922-1.753,0.993
				C459.981,198.467,459.897,198.472,459.813,198.472z M450.188,184.035l9.252,8.254l15.928-21.362l-5.769-5.147L450.188,184.035z"
				/>
		</g>
		<g>
			<path fill="#213B4D" d="M381.724,277.238c-1.684,0-3.303-0.651-4.685-1.883c-3.493-3.117-2.516-7.065-1.512-8.717
				c0.061-0.101,0.129-0.196,0.204-0.287l68.812-83.838c0.369-0.456,0.891-0.772,1.478-0.884c0.762-0.148,1.551,0.073,2.13,0.589
				l13.326,11.888c0.512,0.457,0.813,1.103,0.835,1.789c0.021,0.686-0.24,1.35-0.723,1.837l-75.457,77.897
				c-0.082,0.084-0.169,0.163-0.262,0.235C385.576,276.093,383.988,277.238,381.724,277.238z M379.749,269.336
				c-0.224,0.479-0.399,1.379,0.619,2.288c0.463,0.413,0.907,0.614,1.356,0.614c0.439,0,0.836-0.188,1-0.277l73.481-75.858
				l-9.438-8.419L379.749,269.336z"/>
		</g>
		<g>
			<path fill="#FFB968" d="M488.59,168.733c10.594-11.877,3.654-19.861,18.642-31.178c-9.902,0.564-25.553,2.689-36.643,15.121
				c-4.434,4.97-3.998,12.594,0.972,17.029C476.531,174.14,484.157,173.704,488.59,168.733z"/>
		</g>
		<g>
			<path fill="#C28D4F" d="M495.058,139.13c-4.659,7.471-2.883,14.137-10.737,22.941c-4.269,4.786-11.486,5.354-16.455,1.436
				c0.552,2.316,1.785,4.495,3.696,6.199c4.97,4.434,12.595,3.998,17.029-0.973c10.594-11.877,3.654-19.861,18.642-31.178
				C503.74,137.755,499.527,138.161,495.058,139.13z"/>
		</g>
		<g>
			<path fill="#213B4D" d="M479.585,175.266C479.585,175.266,479.585,175.266,479.585,175.266c-3.578,0-7.018-1.312-9.688-3.694
				c-5.991-5.347-6.517-14.569-1.173-20.559c12.938-14.503,32.077-15.595,38.366-15.953c1.105-0.059,2.11,0.601,2.489,1.635
				c0.379,1.033,0.038,2.193-0.84,2.856c-7.737,5.842-9.059,10.485-10.589,15.86c-1.247,4.379-2.659,9.343-7.693,14.986
				C487.696,173.492,483.734,175.266,479.585,175.266z M499.983,140.766c-8.993,1.294-19.509,4.586-27.527,13.575
				c-3.509,3.933-3.163,9.989,0.771,13.5c1.753,1.564,4.011,2.425,6.359,2.425c2.725,0,5.328-1.165,7.14-3.197
				c4.271-4.788,5.41-8.79,6.616-13.027C494.542,149.823,495.773,145.497,499.983,140.766z"/>
		</g>
	</g>
	<g>
		<path fill="#FFE8CD" d="M431.112,208.51c-3.906-4.529-13.801-5.629-20.14-0.168c-6.336,5.461-6.489,15.224-2.585,19.755
			C412.29,232.627,435.015,213.041,431.112,208.51z"/>
		<path fill="#213B4D" d="M410.131,233.772c0,0-0.001,0-0.001,0c-2.227,0-4.191-0.857-5.531-2.412
			c-5.63-6.536-5.497-19.389,3.109-26.806c3.66-3.153,8.467-4.89,13.535-4.89c5.538,0,10.642,2.086,13.655,5.58
			c1.144,1.328,2.744,4.237,0.637,8.833C432.297,221.137,418.251,233.772,410.131,233.772z M421.243,209.665
			c-2.673,0-5.162,0.875-7.007,2.465c-3.603,3.105-4.105,8.284-2.888,11.298c4.136-1.662,12.404-8.783,14.69-12.646
			C424.89,210.146,423.228,209.665,421.243,209.665z"/>
	</g>
	<g>
		<path fill="#213B4D" d="M632.375,308.702c-2.761,0-5-2.239-5-5v-44.035c0-2.761,2.239-5,5-5s5,2.239,5,5v44.035
			C637.375,306.463,635.136,308.702,632.375,308.702z"/>
	</g>
	<g>
		<path fill="#9DEDA3" d="M583.775,375.315c0.579-2.227,6.65-2.25,6.65-5.139c0-2.887-1.623-4.066-2.201-6.291
			c-0.713-2.746-0.555-3.082-2.099-4.93c-1.624-1.945,2.039-10.809-0.444-11.898c-2.17-0.949-5.286-5.658-8.067-6.055
			c-1.062-0.152-2.404,1.522-3.812,3.408v45.513c0.678-1.527,1.357-2.659,2.07-2.761c2.78-0.396,6.925,5.471,9.093,4.521
			c2.484-1.088,5.723-3.162,7.348-5.105C593.86,384.731,583.062,378.062,583.775,375.315z"/>
	</g>
</g>
<g>
	<g>
		<g>
			<g>
				<rect x="890.727" y="628.32" fill="#BF8B4E" width="377.342" height="23.897"/>
			</g>
			<g>
				<rect x="1257.068" y="628.32" fill="#A87A45" width="11" height="23.897"/>
			</g>
			<g>
				<path fill="#213B4D" d="M1273.068,657.218H885.727V623.32h387.342V657.218z M895.727,647.218h367.342V633.32H895.727V647.218z"
					/>
			</g>
		</g>
		<g>
			<g>
				<rect x="905.727" y="604.423" fill="#E6A75E" width="377.342" height="23.897"/>
			</g>
			<g>
				<rect x="1272.068" y="604.423" fill="#A87A45" width="11" height="23.897"/>
			</g>
			<g>
				<path fill="#213B4D" d="M1288.068,633.32H900.727v-33.897h387.342V633.32z M910.727,623.32h367.342v-13.897H910.727V623.32z"/>
			</g>
		</g>
		<g>
			<g>
				<rect x="875.727" y="580.525" fill="#EBC08F" width="377.342" height="23.897"/>
			</g>
			<g>
				<rect x="1242.068" y="580.525" fill="#A87A45" width="11" height="23.897"/>
			</g>
			<g>
				<path fill="#213B4D" d="M1258.068,609.423H870.727v-33.897h387.342V609.423z M880.727,599.423h367.342v-13.897H880.727V599.423z
					"/>
			</g>
		</g>
		<g>
			<g>
				<rect x="910.727" y="556.628" fill="#FFB968" width="377.342" height="23.897"/>
			</g>
			<g>
				<rect x="1277.068" y="556.628" fill="#A87A45" width="11" height="23.897"/>
			</g>
			<g>
				<path fill="#213B4D" d="M1293.068,585.525H905.727v-33.897h387.342V585.525z M915.727,575.525h367.342v-13.897H915.727V575.525z
					"/>
			</g>
		</g>
		<g>
			<g>
				<rect x="940.727" y="532.73" fill="#FFD19C" width="377.342" height="23.897"/>
			</g>
			<g>
				<rect x="1307.068" y="532.73" fill="#A87A45" width="11" height="23.897"/>
			</g>
			<g>
				<path fill="#213B4D" d="M1323.068,561.628H935.727V527.73h387.342V561.628z M945.727,551.628h367.342V537.73H945.727V551.628z"
					/>
			</g>
		</g>
	</g>
	<g>
		<g>
			<g>
				<path fill="#3E6E8F" d="M1074.329,404.283h-65.523H978.12v274.333h40.686v-184.92h0.273c0-18.019,4.605-32.625,22.625-32.625
					c18.018,0,22.625,14.606,22.625,32.625v184.92h40.686V404.283H1074.329z"/>
			</g>
			<g>
				<path fill="#325873" d="M1006.965,489.086l-0.28,189.53h15.045l0.28-189.53c0-15.952,1.13-29.296,16.048-32.713
					c-2.42-0.554-4.936-0.856-7.523-0.856C1011.994,455.517,1006.965,470.546,1006.965,489.086z"/>
			</g>
			<g>
				<rect x="1092.894" y="404.283" fill="#325873" width="14.621" height="274.333"/>
			</g>
			<g>
				<path fill="#213B4D" d="M1105.015,683.616h-40.686c-2.762,0-5-2.238-5-5v-184.92c0-24.343-8.909-27.625-17.625-27.625
					c-8.333,0-17.898,3.14-17.898,27.625v184.92c0,2.762-2.238,5-5,5H978.12c-2.762,0-5-2.238-5-5V404.283c0-2.762,2.238-5,5-5
					h126.895c2.762,0,5,2.238,5,5v274.333C1110.015,681.378,1107.776,683.616,1105.015,683.616z M1069.329,673.616h30.686V409.283
					H983.12v264.333h30.686v-179.92c0-11.071,1.761-19.446,5.382-25.604c4.625-7.863,12.411-12.021,22.517-12.021
					c18.331,0,27.625,12.659,27.625,37.625V673.616z"/>
			</g>
			<g>
				<g>
					<path fill="#CCCCCC" d="M1024.886,689.139c0,16.096-58.28,16.096-58.28,0c0-16.092,13.046-29.139,29.14-29.139
						S1024.886,673.047,1024.886,689.139z"/>
				</g>
				<g>
					<path fill="#B3B3B3" d="M998.745,660c-3.08,0-6.047,0.481-8.834,1.367c11.775,3.742,20.307,14.76,20.307,27.771
						c0,6.398-9.21,10.25-20.307,11.562c16.82,1.988,37.975-1.864,37.975-11.562C1027.886,673.047,1014.839,660,998.745,660z"/>
				</g>
				<g>
					<path fill="#213B4D" d="M995.746,706.21c-15.75,0-34.141-4.471-34.141-17.071c0-18.824,15.315-34.139,34.14-34.139
						c18.825,0,34.141,15.314,34.141,34.139C1029.886,701.739,1011.495,706.21,995.746,706.21z M995.745,665
						c-13.311,0-24.14,10.828-24.14,24.139c0,2.884,9.404,7.071,24.141,7.071c14.735,0,24.14-4.188,24.14-7.071
						C1019.886,675.828,1009.057,665,995.745,665z"/>
				</g>
			</g>
			<g>
				<g>
					<path fill="#CCCCCC" d="M1116.386,689.139c0,16.096-58.281,16.096-58.281,0c0-16.092,13.047-29.139,29.141-29.139
						S1116.386,673.047,1116.386,689.139z"/>
				</g>
				<g>
					<path fill="#B3B3B3" d="M1090.245,660c-3.08,0-6.047,0.481-8.834,1.367c11.775,3.742,20.307,14.76,20.307,27.771
						c0,6.398-9.21,10.25-20.307,11.562c16.82,1.988,37.975-1.864,37.975-11.562C1119.386,673.047,1106.339,660,1090.245,660z"/>
				</g>
				<g>
					<path fill="#213B4D" d="M1087.245,706.21c-15.749,0-34.141-4.471-34.141-17.071c0-18.824,15.315-34.139,34.141-34.139
						s34.141,15.314,34.141,34.139C1121.386,701.739,1102.994,706.21,1087.245,706.21z M1087.245,665
						c-13.312,0-24.141,10.828-24.141,24.139c0,2.884,9.404,7.071,24.141,7.071s24.141-4.188,24.141-7.071
						C1111.386,675.828,1100.557,665,1087.245,665z"/>
				</g>
			</g>
		</g>
		<g>
			<g>
				<path fill="#FFB968" d="M932.4,453.721l-24.094-24.094c0,0,66.127-59.074,86.111-79.057
					c19.98-19.984,122.524-122.526,122.524-122.526l17.041,17.043c0,0-103.72,103.718-122.524,122.524
					C992.654,386.416,932.4,453.721,932.4,453.721z"/>
			</g>
			<g>
				<path fill="#B8854B" d="M1011.459,367.611c18.805-18.807,122.524-122.524,122.524-122.524l-7.75-7.75
					c-14.529,14.527-100.616,100.614-114.774,114.774c-18.805,18.805-79.059,86.109-79.059,86.109l-15.793-15.793
					c-5.105,4.443-8.301,7.199-8.301,7.199l24.094,24.094C932.4,453.721,992.654,386.416,1011.459,367.611z"/>
			</g>
			<g>
				<path fill="#213B4D" d="M932.4,458.721c-1.324,0-2.597-0.525-3.535-1.465l-24.094-24.094c-0.973-0.972-1.502-2.302-1.463-3.676
					s0.642-2.672,1.667-3.588c0.66-0.59,66.25-59.209,85.907-78.864c19.979-19.984,122.524-122.526,122.524-122.526
					c0.938-0.938,2.209-1.464,3.535-1.464l0,0c1.326,0,2.598,0.527,3.536,1.465l17.041,17.043c1.952,1.953,1.952,5.118-0.001,7.071
					c0,0-103.719,103.717-122.523,122.524c-18.494,18.493-78.268,85.237-78.869,85.909c-0.917,1.023-2.214,1.625-3.588,1.663
					C932.492,458.72,932.446,458.721,932.4,458.721z M915.579,429.829l16.623,16.622c13.272-14.788,59.445-66.099,75.722-82.375
					c16.729-16.731,100.667-100.668,118.988-118.989l-9.97-9.972c-18.206,18.205-101.226,101.224-118.988,118.99
					C980.688,371.37,930.228,416.707,915.579,429.829z"/>
			</g>
			<g>
				<path fill="#E6E6E6" d="M1133.983,245.087l-17.041-17.043l19.58-19.582c0,0-2.129-10.82-7.709-16.398
					c-5.578-5.578-16.08-7.145-16.08-7.145l-11.658-11.531l28.584-28.584l11.596,11.596l23.666,23.666l17.033,17.033l15.875,42.322
					l-11.834,11.834l-21.41-36.77L1133.983,245.087z"/>
			</g>
			<g>
				<g>
					<path fill="#B3B3B3" d="M1135.022,193.962c0,0-3.503-9.446-9.083-15.024c-5.578-5.578-18.947-4.277-18.947-4.277l2.126-9.317
						l-18.87,18.872l22.485,0.704c0,0,10.502,1.566,16.08,7.145c1.334,1.334,2.469,2.969,3.427,4.682L1135.022,193.962z"/>
				</g>
				<g>
					<polygon fill="#B3B3B3" points="1185.995,251.255 1197.829,239.421 1193.464,227.786 1185.995,235.255 1164.585,198.485 
						1133.983,229.087 1124.942,220.044 1116.942,228.044 1133.983,245.087 1164.585,214.485 					"/>
				</g>
			</g>
			<g>
				<path fill="#213B4D" d="M1185.995,256.255c-0.214,0-0.429-0.014-0.644-0.042c-1.538-0.2-2.896-1.102-3.678-2.442l-18.144-31.16
					l-26.012,26.012c-0.938,0.938-2.209,1.464-3.535,1.464l0,0c-1.326,0-2.598-0.527-3.536-1.465l-17.041-17.043
					c-1.952-1.952-1.952-5.118,0-7.07l17.585-17.586c-0.978-3.399-2.9-8.512-5.713-11.323c-3.073-3.074-9.219-3.312-11.028-3.312
					c-0.641,0-1.054,0.025-1.131,0.031c-0.259,0.021-0.536,0.02-0.793-0.001l-23.668-1.936c-1.942-0.159-3.615-1.431-4.286-3.26
					c-0.672-1.829-0.22-3.881,1.158-5.259l40.594-40.594c1.951-1.952,5.119-1.952,7.07,0l52.295,52.295
					c0.505,0.505,0.896,1.111,1.146,1.78l15.875,42.322c0.688,1.836,0.24,3.905-1.146,5.292l-11.834,11.834
					C1188.587,255.734,1187.312,256.255,1185.995,256.255z M1164.585,209.485c0.214,0,0.429,0.014,0.644,0.042
					c1.538,0.2,2.896,1.102,3.678,2.442l18.144,31.16l4.967-4.967l-14.363-38.293l-47.994-47.994l-29.42,29.419l12.549,1.026
					c0.334-0.017,0.832-0.034,1.462-0.034c4.429,0,12.669,0.811,18.099,6.241c6.47,6.468,8.832,17.708,9.08,18.969
					c0.321,1.635-0.192,3.322-1.37,4.5l-16.046,16.047l9.971,9.972l27.066-27.066
					C1161.993,210.006,1163.268,209.485,1164.585,209.485z"/>
			</g>
		</g>
		<g>
			<path fill="#D9F399" d="M1092.208,230.521c-31.932-34.307-114.088-23.174-114.088,32.749c0,69.41,0,109.391,0,144.687
				c0,18.712,35.574,27.335,69.002,26.14c29.633-1.06,57.58-9.833,57.58-26.14c0-34.704,0-74.847,0-144.687
				C1104.702,249.699,1099.909,238.795,1092.208,230.521z"/>
		</g>
		<g>
			<g>
				<path fill="#B8CF82" d="M1092.208,230.521c-13.682-14.7-36.584-21.049-58.293-19.114c16.609,1.498,32.486,7.861,42.96,19.114
					c7.702,8.274,12.495,19.179,12.495,32.749c0,69.84,0,109.982,0,144.687c0,16.018-26.969,24.762-56.008,26.07
					c4.562,0.205,9.181,0.232,13.76,0.069c29.633-1.06,57.58-9.833,57.58-26.14c0-34.704,0-74.847,0-144.687
					C1104.702,249.699,1099.909,238.795,1092.208,230.521z"/>
			</g>
		</g>
		<g>
			<path fill="#213B4D" d="M1041.015,439.206c-0.002,0-0.003,0-0.005,0c-33.792,0-67.89-9.664-67.89-31.25V263.27
				c0-17.77,7.565-32.7,21.879-43.179c12.368-9.054,28.902-14.04,46.559-14.04c17.616,0,34.088,4.974,46.381,14.006
				c14.238,10.461,21.764,25.403,21.764,43.213v144.687c0,7.227-4.026,17.317-23.206,24.354
				C1074.375,436.757,1058.222,439.206,1041.015,439.206z M1041.558,216.051c-28.146,0-58.438,14.776-58.438,47.219v144.687
				c0,12.114,24.888,21.25,57.89,21.25c0.001,0,0.004,0,0.005,0c15.83,0,31.15-2.29,42.037-6.283
				c6.218-2.282,16.65-7.26,16.65-14.967V263.27C1099.702,230.827,1069.562,216.051,1041.558,216.051z"/>
		</g>
		<g>
			<path fill="#FFD19C" d="M1056.462,229.68c0,0-4.357,7-14.758,7s-14.758-7-14.758-7v-39.678h29.516V229.68z"/>
		</g>
		<g>
			<path fill="#E3BA8B" d="M1054.921,229.68c0,0-1.553,7-5.26,7s-5.26-7-5.26-7v-39.678h10.52V229.68z"/>
		</g>
		<g>
			<path fill="#213B4D" d="M1041.704,241.68c-13.027,0-18.765-8.976-19.003-9.358c-0.493-0.792-0.755-1.708-0.755-2.642v-39.678
				c0-2.761,2.238-5,5-5h29.516c2.762,0,5,2.239,5,5v39.678c0,0.934-0.262,1.85-0.755,2.642
				C1060.469,232.704,1054.731,241.68,1041.704,241.68z M1031.946,227.924c1.319,1.349,4.421,3.756,9.758,3.756
				c5.314,0,8.413-2.387,9.758-3.765v-32.913h-19.516V227.924z"/>
		</g>
		<g>
			<path fill="#FFD19C" d="M981.329,96.366h0.043c0-0.034-0.004-0.067-0.004-0.102c0-69.956,120.713-69.956,120.713,0
				c0,0.034-0.002,0.067-0.002,0.102h0.002v52.962h-0.042c0,0.034,0.002,0.067,0.002,0.102c0,69.956-120.712,69.956-120.712,0
				c0-0.034,0.002-0.067,0.002-0.102h-0.002V96.366z"/>
		</g>
		<g>
			<g>
				<path fill="#FFFFFF" d="M1051.468,122.135c0.947-11.879,10.482-15.66,21.301-14.624c10.821,1.04,18.824,6.514,17.877,18.388
					C1089.692,137.773,1050.521,134.012,1051.468,122.135z"/>
			</g>
			<g>
				<path fill="#FFFFFF" d="M992.765,125.898c-0.947-11.874,7.053-17.344,17.869-18.385c10.824-1.042,20.357,2.748,21.303,14.624
					C1032.886,134.012,993.708,137.773,992.765,125.898z"/>
			</g>
			<g>
				<path fill="#213B4D" d="M1062.613,131.518c9.378,2.604,21.938,2.227,26.396-2.223c-1.229-6.701-6.617-11.748-13.085-11.748
					C1068.762,117.547,1062.942,123.744,1062.613,131.518z"/>
			</g>
			<g>
				<path fill="#213B4D" d="M1029.794,127.027c-1.904-5.535-6.756-9.48-12.467-9.48c-7.373,0-13.35,6.561-13.35,14.654
					c0,0.233,0.015,0.463,0.026,0.693C1013.036,133.935,1024.972,131.658,1029.794,127.027z"/>
			</g>
		</g>
		<g>
			<path fill="#213B4D" d="M1041.411,466.071c-2.762,0-5-2.238-5-5v-26.976c0-2.762,2.238-5,5-5s5,2.238,5,5v26.976
				C1046.411,463.833,1044.173,466.071,1041.411,466.071z"/>
		</g>
		<g opacity="0.3">
			<path fill="#A87A45" d="M1102.081,96.366h-0.002c0-0.034,0.002-0.067,0.002-0.102c0-37.703-35.062-55.073-67.394-52.136
				c27.658,2.513,53.318,19.883,53.318,52.136c0,0.034-0.002,0.067-0.002,0.102h0.003v52.962h-0.043
				c0,0.034,0.002,0.067,0.002,0.102c0,32.253-25.66,49.623-53.318,52.136c32.332,2.938,67.394-14.433,67.394-52.136
				c0-0.034-0.002-0.067-0.002-0.102h0.042V96.366z"/>
		</g>
		<g>
			<path fill="#213B4D" d="M1041.686,206.897c-16.913,0-32.735-5.029-44.553-14.161c-13.609-10.517-20.804-25.492-20.804-43.307
				c0-0.048,0.002-0.146,0.003-0.194l-0.003-52.87c0-0.215,0.014-0.43,0.041-0.641c0.145-17.577,7.33-32.357,20.803-42.767
				c11.817-9.131,27.64-14.161,44.552-14.161s32.734,5.029,44.552,14.161c13.61,10.517,20.805,25.492,20.805,43.307
				c0,0.048-0.002,0.146-0.003,0.194l0.003,52.87c0,0.218-0.015,0.435-0.042,0.649c-0.146,17.574-7.331,32.35-20.802,42.759
				C1074.42,201.868,1058.598,206.897,1041.686,206.897z M986.329,149.318c0.001,0.062,0.001,0.123,0,0.172
				c0,32.552,28.695,47.406,55.356,47.406c26.66,0,55.355-14.854,55.355-47.467l-0.002-0.102c0-0.221,0.015-0.438,0.042-0.651
				V96.376c-0.001-0.062-0.001-0.123,0-0.172c0-32.552-28.695-47.406-55.356-47.406c-26.634,0-55.297,14.823-55.356,47.365
				c0.003,0.068,0.004,0.136,0.004,0.204c0,0.223-0.015,0.443-0.043,0.658V149.318z"/>
		</g>
		<g>
			<path fill="#B3926D" d="M1041.909,152.873c-7.751,0-13.596-3.526-13.596-8.201c0-1.381,1.119-2.5,2.5-2.5s2.5,1.119,2.5,2.5
				c0,1.099,3.348,3.201,8.596,3.201c5.247,0,8.594-2.102,8.594-3.201c0-1.381,1.119-2.5,2.5-2.5s2.5,1.119,2.5,2.5
				C1055.503,149.347,1049.659,152.873,1041.909,152.873z"/>
		</g>
		<g>
			<path fill="#B3926D" d="M1041.901,177.715c-3.963,0-7.777-0.449-11.339-1.336c-1.34-0.333-2.156-1.69-1.822-3.029
				c0.333-1.341,1.693-2.159,3.029-1.822c3.167,0.788,6.576,1.188,10.132,1.188c3.57,0,6.988-0.4,10.159-1.189
				c1.331-0.338,2.695,0.481,3.029,1.822c0.334,1.34-0.482,2.696-1.822,3.03C1049.702,177.265,1045.878,177.715,1041.901,177.715z"
				/>
		</g>
		<g>
			<g>
				<polygon fill="#666666" points="1115.304,93.869 1126.779,79.275 1113.134,55.994 1106.319,54.152 1082.805,22.463 
					1072.174,25.865 1045.413,14.855 1022.901,20.457 1004.712,13.961 971.872,47.117 977.326,53.136 958.121,72.348 964.666,85.99 
					963.104,107.918 981.685,133.756 985.604,96.816 1004.751,73.709 1028.071,67.973 1045.413,75.25 1056.897,70.478 
					1083.785,79.863 1098.002,97.92 1103.287,133.986 1120.515,110.178 				"/>
			</g>
			<g>
				<g>
					<polygon fill="#808080" points="1039.79,20.457 1051.778,17.475 1045.413,14.855 1032.855,17.98 					"/>
				</g>
				<g>
					<polygon fill="#808080" points="979.993,107.918 981.555,85.99 975.01,72.348 994.215,53.136 988.761,47.117 1017.188,18.416 
						1004.712,13.961 971.872,47.117 977.326,53.136 958.121,72.348 964.666,85.99 963.104,107.918 981.685,133.756 983.856,113.29 
											"/>
				</g>
				<g>
					<polygon fill="#808080" points="1083.689,23.654 1082.805,22.463 1081.673,22.825 					"/>
				</g>
				<g>
					<polyline fill="#808080" points="1034.312,70.592 1045.413,75.25 1053.898,71.724 					"/>
				</g>
			</g>
			<g>
				<g>
					<polygon fill="#4D4D4D" points="1055.435,25.865 1064.85,22.852 1045.413,14.855 1034.983,17.451 					"/>
				</g>
				<g>
					<polygon fill="#4D4D4D" points="1006.162,20.457 1016.027,18.002 1004.712,13.961 1000.338,18.377 					"/>
				</g>
				<g>
					<polygon fill="#4D4D4D" points="1011.332,67.973 988.012,73.709 973.865,96.816 972.092,121.713 981.685,133.756 
						985.604,96.816 1004.751,73.709 1017.518,70.568 					"/>
				</g>
				<g>
					<polygon fill="#4D4D4D" points="1115.304,93.869 1126.779,79.275 1113.134,55.994 1106.319,54.152 1082.805,22.463 
						1072.174,25.865 1067.016,23.744 1089.58,54.152 1096.395,55.994 1110.04,79.275 1098.563,93.869 1103.775,110.178 
						1097.396,122.366 1103.287,133.986 1120.515,110.178 					"/>
				</g>
				<g>
					<polygon fill="#4D4D4D" points="1040.159,70.478 1037.085,71.754 1045.413,75.25 1049.257,73.652 					"/>
				</g>
			</g>
			<g>
				<path fill="#213B4D" d="M1103.287,138.987c-0.396,0-0.795-0.047-1.19-0.145c-1.977-0.484-3.462-2.118-3.757-4.131l-5.092-34.747
					l-12.488-15.862l-23.707-8.275l-9.721,4.04c-1.233,0.513-2.622,0.51-3.854-0.007l-15.818-6.638l-20.112,4.947l-17.131,20.675
					l-3.761,35.439c-0.219,2.062-1.688,3.775-3.691,4.306c-2.004,0.532-4.129-0.23-5.34-1.915l-18.58-25.838
					c-0.683-0.949-1.011-2.108-0.928-3.274l1.468-20.605l-5.972-12.447c-0.918-1.913-0.528-4.197,0.972-5.697l15.841-15.846
					l-2.259-2.492c-1.784-1.968-1.717-4.988,0.152-6.876l32.84-33.156c1.365-1.379,3.407-1.845,5.234-1.19l16.767,5.988
					l21.046-5.237c1.032-0.256,2.123-0.177,3.109,0.228l25.073,10.315l8.892-2.846c2.039-0.652,4.266,0.064,5.54,1.783
					l22.479,30.295l5.139,1.389c1.266,0.342,2.346,1.167,3.009,2.298l13.646,23.281c1.04,1.774,0.888,4.003-0.383,5.619
					l-9.836,12.508l4.403,13.781c0.483,1.513,0.22,3.166-0.712,4.453l-17.228,23.809
					C1106.384,138.236,1104.867,138.987,1103.287,138.987z M1056.897,65.478c0.557,0,1.113,0.093,1.647,0.279l26.888,9.386
					c0.9,0.314,1.691,0.879,2.281,1.627l14.217,18.057c0.54,0.687,0.892,1.503,1.019,2.368l3.501,23.891l8.533-11.792l-4.442-13.902
					c-0.505-1.581-0.193-3.309,0.832-4.613l9.369-11.915l-10.888-18.577l-4.84-1.308c-1.086-0.293-2.04-0.944-2.711-1.847
					l-21.383-28.816l-7.223,2.312c-1.125,0.358-2.336,0.31-3.427-0.138l-25.243-10.386l-20.92,5.206
					c-0.955,0.237-1.96,0.188-2.889-0.144l-15.193-5.426l-27.269,27.53l2.273,2.508c1.79,1.975,1.716,5.007-0.169,6.892
					l-16.701,16.708l5.013,10.45c0.376,0.783,0.541,1.651,0.479,2.518l-1.433,20.123l9.874,13.731l2.538-23.911
					c0.104-0.979,0.494-1.905,1.122-2.662l19.146-23.107c0.684-0.826,1.614-1.409,2.655-1.666l23.32-5.736
					c1.043-0.256,2.139-0.17,3.129,0.245l15.417,6.469l9.556-3.971C1055.592,65.605,1056.244,65.478,1056.897,65.478z"/>
			</g>
			<g>
				<path fill="#213B4D" d="M1054.716,76.386c-1.977,0-3.848-1.179-4.636-3.124c-1.037-2.559,0.196-5.475,2.756-6.512l24.004-9.728
					c2.561-1.039,5.475,0.197,6.512,2.756s-0.196,5.475-2.756,6.512l-24.004,9.728C1055.977,76.268,1055.341,76.386,1054.716,76.386
					z"/>
			</g>
			<g>
				<path fill="#213B4D" d="M1037.081,34.108c-0.787,0-1.585-0.186-2.328-0.578l-21.059-11.105
					c-2.443-1.288-3.379-4.312-2.091-6.755s4.316-3.376,6.755-2.09l21.059,11.105c2.443,1.288,3.379,4.312,2.091,6.755
					C1040.612,33.138,1038.876,34.108,1037.081,34.108z"/>
			</g>
		</g>
		<g>
			<g>
				<polygon fill="#E6E6E6" points="993.179,656.245 1003.149,647.676 1003.73,635.666 1013.703,627.098 1014.283,615.088 
					1024.254,606.518 1024.836,594.51 1034.805,585.94 1035.385,573.931 1045.358,565.359 1045.938,553.35 1055.909,544.781 
					1056.488,532.771 1066.461,524.202 1067.04,512.191 1077.011,503.625 1077.591,491.613 1087.563,483.043 1088.145,471.035 
					1098.116,462.466 1098.695,450.459 1108.666,441.889 1044.353,434.291 971.271,648.209 				"/>
			</g>
			<g>
				<polygon fill="#B3B3B3" points="971.271,648.209 971.616,647.203 981.587,650.86 991.559,642.291 992.139,630.283 
					1002.109,621.714 1002.69,609.703 1012.661,601.135 1013.244,589.125 1023.213,580.558 1023.792,568.548 1033.766,559.976 
					1034.345,547.966 1044.316,539.396 1044.897,527.388 1054.868,518.82 1055.448,506.809 1065.419,498.241 1065.998,486.229 
					1075.97,477.66 1076.553,465.65 1086.523,457.084 1087.103,445.074 1092.968,440.035 1108.666,441.889 1098.695,450.459 
					1098.116,462.466 1088.145,471.035 1087.563,483.043 1077.591,491.613 1077.011,503.625 1067.04,512.191 1066.461,524.202 
					1056.488,532.771 1055.909,544.781 1045.938,553.35 1045.358,565.359 1035.385,573.931 1034.805,585.94 1024.836,594.51 
					1024.254,606.518 1014.283,615.088 1013.703,627.098 1003.73,635.666 1003.149,647.676 993.179,656.245 				"/>
			</g>
			<g>
				<path fill="#213B4D" d="M993.178,661.245c-0.578,0-1.16-0.101-1.721-0.306l-21.907-8.036c-2.552-0.937-3.889-3.739-3.01-6.311
					l73.081-213.918c0.762-2.23,2.972-3.628,5.318-3.35l64.313,7.598c1.97,0.233,3.616,1.608,4.195,3.506
					c0.579,1.898-0.019,3.958-1.523,5.252l-8.339,7.168l-0.476,9.858c-0.066,1.371-0.693,2.655-1.735,3.551l-8.34,7.168
					l-0.478,9.858c-0.066,1.372-0.694,2.656-1.735,3.551l-8.341,7.168l-0.477,9.863c-0.066,1.372-0.694,2.656-1.735,3.552
					l-8.339,7.164l-0.476,9.861c-0.066,1.372-0.693,2.656-1.735,3.551l-8.341,7.166l-0.476,9.862
					c-0.066,1.371-0.693,2.656-1.735,3.551l-8.34,7.166l-0.476,9.861c-0.066,1.371-0.693,2.655-1.735,3.551l-8.342,7.169
					l-0.477,9.861c-0.066,1.371-0.693,2.655-1.734,3.551l-8.339,7.167l-0.478,9.86c-0.066,1.371-0.693,2.654-1.735,3.55
					l-8.339,7.168l-0.477,9.861c-0.066,1.372-0.694,2.656-1.735,3.551l-8.341,7.167l-0.478,9.86
					c-0.066,1.372-0.693,2.655-1.735,3.551l-9.971,8.569C995.517,660.829,994.355,661.245,993.178,661.245z M977.584,645.198
					l14.562,5.342l6.113-5.254l0.478-9.861c0.066-1.372,0.694-2.656,1.735-3.551l8.341-7.167l0.477-9.86
					c0.066-1.371,0.693-2.655,1.735-3.551l8.34-7.168l0.478-9.86c0.066-1.371,0.693-2.654,1.734-3.55l8.338-7.167l0.477-9.861
					c0.066-1.372,0.693-2.656,1.735-3.551l8.342-7.169l0.476-9.861c0.066-1.371,0.693-2.656,1.735-3.551l8.34-7.166l0.476-9.862
					c0.066-1.372,0.693-2.656,1.735-3.551l8.341-7.166l0.476-9.862c0.066-1.372,0.694-2.656,1.735-3.552l8.339-7.164l0.477-9.862
					c0.066-1.372,0.693-2.656,1.735-3.551l8.341-7.169l0.478-9.858c0.066-1.372,0.694-2.656,1.735-3.551l8.34-7.167l0.476-9.858
					c0.066-1.371,0.693-2.655,1.735-3.551l1.336-1.148l-48.994-5.788L977.584,645.198z"/>
			</g>
			<g>
				<path fill="#FFB968" d="M1039.655,432.57l31.927,11.703l35.364,2.307l20.817-56.805l-69.008-9.316L1039.655,432.57z
					 M1064.308,420.528l6.414-17.507l30.673,3.491l-7.252,19.783l-15.754-0.606L1064.308,420.528z"/>
			</g>
			<g>
				<g>
					<polygon fill="#C28D4F" points="1071.582,444.273 1039.655,432.57 1042.25,425.494 1064.087,433.498 1099.451,435.807 
						1116.861,388.303 1127.764,389.775 1106.946,446.58 					"/>
				</g>
			</g>
			<g>
				<path fill="#213B4D" d="M1106.948,451.58c-0.108,0-0.218-0.004-0.327-0.011l-35.364-2.307c-0.478-0.031-0.947-0.13-1.396-0.295
					l-31.927-11.703c-2.593-0.95-3.924-3.822-2.974-6.415l19.101-52.111c0.807-2.203,3.04-3.547,5.363-3.234l69.008,9.316
					c1.502,0.203,2.83,1.075,3.612,2.373c0.783,1.298,0.935,2.88,0.413,4.303l-20.817,56.805
					C1110.916,450.279,1109.033,451.58,1106.948,451.58z M1072.626,439.331l30.913,2.017l17.389-47.45l-58.859-7.946l-15.998,43.646
					L1072.626,439.331z M1094.144,431.296c-0.064,0-0.129-0.001-0.193-0.004l-15.754-0.606c-0.522-0.02-1.038-0.122-1.528-0.302
					l-14.081-5.161c-2.593-0.95-3.924-3.821-2.974-6.414l6.414-17.507c0.794-2.167,2.974-3.504,5.26-3.248l30.673,3.491
					c1.523,0.173,2.884,1.036,3.689,2.342c0.806,1.305,0.968,2.907,0.439,4.347l-7.252,19.783
					C1098.113,429.992,1096.233,431.296,1094.144,431.296z M1079.369,420.724l11.331,0.437l3.812-10.398l-20.448-2.327l-3.341,9.12
					L1079.369,420.724z"/>
			</g>
		</g>
		<g>
			<path fill="#213B4D" d="M1041.411,295.469c-2.762,0-5-2.239-5-5V237.01c0-2.761,2.238-5,5-5s5,2.239,5,5v53.459
				C1046.411,293.23,1044.173,295.469,1041.411,295.469z"/>
		</g>
		<g>
			<g>
				<g>
					<path fill="#D9F399" d="M1080.044,220.475c58.984,49.435,66.756,137.64,17.32,196.625l-22.992-19.27
						c29.106-34.73,32.952-82.364,13.521-120.383"/>
				</g>
			</g>
			<g>
				<path fill="#B8CF82" d="M1078.044,220.475l1.906,13.833c43.862,48.892,47.867,123.059,7.956,176.542l7.458,6.25
					C1144.8,358.114,1137.028,269.909,1078.044,220.475z"/>
			</g>
			<g>
				<g>
					<path fill="#213B4D" d="M1097.361,422.1c-1.133,0-2.272-0.383-3.209-1.168l-22.992-19.27c-2.116-1.773-2.394-4.927-0.62-7.044
						c27.027-32.249,32.091-77.349,12.9-114.896c-1.257-2.458-0.282-5.471,2.177-6.728s5.471-0.283,6.728,2.177
						c20.259,39.636,15.837,86.961-11.012,121.969l15.341,12.856c20.899-26.865,30.718-60.173,27.707-94.353
						c-3.158-35.849-20.045-68.287-47.549-91.338c-2.116-1.774-2.394-4.927-0.62-7.044c1.774-2.116,4.927-2.395,7.044-0.62
						c29.551,24.767,47.694,59.615,51.086,98.124c3.393,38.51-8.379,75.993-33.146,105.545
						C1100.207,421.491,1098.789,422.1,1097.361,422.1z"/>
				</g>
			</g>
			<g>
				<path fill="#FFE8CD" d="M1074.372,397.83c-5.374,6.411-6.731,18.584-0.319,23.959c6.411,5.372,17.938,1.722,23.312-4.689
					C1102.736,410.69,1079.744,391.42,1074.372,397.83z"/>
				<path fill="#213B4D" d="M1081.852,429.386c-0.001,0-0.001,0-0.002,0c-4.263,0-8.069-1.302-11.008-3.765
					c-8.696-7.289-7.303-22.651-0.302-31.003c1.662-1.983,4.142-3.076,6.98-3.076c8.471,0,20.67,9.993,24.346,17.87
					c2.634,5.646,0.711,9.252-0.67,10.899C1096.646,425.739,1088.872,429.386,1081.852,429.386z M1077.801,401.553
					c-3.478,4.676-4.396,13.169-0.536,16.404c1.131,0.948,2.674,1.429,4.586,1.429c0,0,0,0,0.001,0
					c3.896,0,8.526-2.089,11.269-5.032C1092.322,410.664,1082.543,401.897,1077.801,401.553z"/>
			</g>
		</g>
		<g>
			<circle fill="#7C943E" cx="1056.462" cy="255.497" r="4.377"/>
		</g>
		<g>
			<circle fill="#7C943E" cx="1056.462" cy="274.942" r="4.377"/>
		</g>
		<g>
			<g>
				<g>
					<path fill="#D9F399" d="M1002.122,220.975c-58.984,49.435-66.756,137.64-17.32,196.625l22.992-19.27
						c-29.106-34.73-32.952-82.364-13.521-120.383"/>
					<path fill="#213B4D" d="M984.805,422.6c-1.429,0-2.846-0.608-3.835-1.788c-24.767-29.552-36.538-67.035-33.146-105.545
						c3.392-38.509,21.535-73.357,51.086-98.124c2.118-1.773,5.271-1.495,7.044,0.62c1.773,2.117,1.496,5.27-0.62,7.044
						c-27.504,23.051-44.391,55.489-47.549,91.338c-3.011,34.18,6.808,67.487,27.707,94.353l15.341-12.856
						c-26.849-35.008-31.271-82.333-11.012-121.969c1.257-2.459,4.269-3.435,6.728-2.177c2.459,1.257,3.434,4.269,2.177,6.728
						c-19.19,37.547-14.127,82.646,12.9,114.896c1.773,2.117,1.496,5.271-0.62,7.044l-22.992,19.27
						C987.077,422.217,985.938,422.6,984.805,422.6z"/>
				</g>
			</g>
			<g>
				<path fill="#FFE8CD" d="M1007.794,398.33c5.374,6.411,6.731,18.584,0.319,23.959c-6.411,5.372-17.938,1.722-23.312-4.689
					C979.43,411.19,1002.422,391.92,1007.794,398.33z"/>
				<path fill="#213B4D" d="M1000.316,429.886c-7.022,0-14.797-3.646-19.347-9.074c-1.381-1.647-3.304-5.254-0.67-10.899
					c3.676-7.877,15.875-17.87,24.346-17.87c2.839,0,5.318,1.093,6.98,3.076c7.001,8.352,8.395,23.714-0.301,31.003
					C1008.386,428.584,1004.579,429.886,1000.316,429.886z M989.046,414.854c2.741,2.943,7.374,5.032,11.271,5.032
					c1.911,0,3.454-0.48,4.586-1.429c3.855-3.233,2.942-11.716-0.529-16.394C999.513,402.499,989.84,411.186,989.046,414.854z"/>
			</g>
		</g>
	</g>
</g>
</svg>
