<?xml version="1.0" encoding="utf-8"?>
<!-- Generator: Adobe Illustrator 16.0.4, SVG Export Plug-In . SVG Version: 6.00 Build 0)  -->
<!DOCTYPE svg PUBLIC "-//W3C//DTD SVG 1.1//EN" "http://www.w3.org/Graphics/SVG/1.1/DTD/svg11.dtd">
<svg version="1.1" id="Layer_1" xmlns="http://www.w3.org/2000/svg" xmlns:xlink="http://www.w3.org/1999/xlink" x="0px" y="0px"
	 width="768px" height="550px" viewBox="0 0 768 550" enable-background="new 0 0 768 550" xml:space="preserve">
<g>
	<path fill="#A6E4FF" d="M705.03,274.698c0,200.646-115.735,266-316.379,266c-200.643,0-316.378-65.354-316.378-266
		s115.735-266,316.378-266C589.295,8.698,705.03,74.053,705.03,274.698z"/>
</g>
<g>
	<path fill="#FFF168" d="M121.253,41.657c7.039,0.983,17.936-0.936,24.215-4.265l33.385-17.691
		c6.28-3.329,14.922-1.411,19.204,4.261l22.761,30.149c4.282,5.673,13.345,12.021,20.138,14.107l36.108,11.091
		c6.794,2.086,11.549,9.553,10.567,16.591l-5.222,37.422c-0.983,7.039,0.937,17.936,4.264,24.216l17.692,33.384
		c3.328,6.278,1.409,14.92-4.263,19.202l-30.147,22.757c-5.673,4.283-12.021,13.346-14.108,20.139l-11.093,36.111
		c-2.086,6.795-9.554,11.548-16.593,10.566l-37.416-5.226c-7.039-0.982-17.936,0.937-24.215,4.265l-33.383,17.695
		c-6.279,3.328-14.92,1.41-19.202-4.262l-22.759-30.152c-4.282-5.674-13.344-12.021-20.138-14.107l-36.116-11.094
		c-6.793-2.087-11.547-9.553-10.564-16.592l5.227-37.418c0.984-7.039-0.936-17.937-4.265-24.217L7.636,145.217
		c-3.329-6.279-1.412-14.92,4.26-19.202l30.154-22.763c5.672-4.281,12.021-13.344,14.107-20.137l11.09-36.112
		c2.086-6.794,9.553-11.55,16.591-10.567L121.253,41.657z"/>
</g>
<g>
	<path fill="#FFFBCD" d="M262.03,191.596c-12.991,58.559-70.998,95.494-129.562,82.5c-58.558-12.992-95.495-71.001-82.5-129.559
		c12.998-58.561,71.005-95.496,129.563-82.5C238.093,75.029,275.028,133.033,262.03,191.596z"/>
</g>
<g>
	<path fill="#E09748" d="M739.397,540.391H45.85V277.195c0-12.902,10.461-23.358,23.361-23.358l646.83,0.001
		c12.901,0,23.357,10.458,23.357,23.357V540.391z"/>
	<path fill="#213B4D" d="M739.397,545.391H45.85c-2.761,0-5-2.238-5-5V277.195c0-15.637,12.723-28.358,28.361-28.358l646.83,0.001
		c15.637,0,28.357,12.721,28.357,28.357v263.195C744.397,543.152,742.159,545.391,739.397,545.391z M50.85,535.391h683.548V277.195
		c0-10.123-8.235-18.357-18.357-18.357l-646.83-0.001c-10.124,0-18.361,8.235-18.361,18.358V535.391z"/>
</g>
<g opacity="0.6">
	<rect x="219.929" y="253.838" fill="#915E2C" width="17.893" height="286.553"/>
</g>
<g opacity="0.6">
	<rect x="478.66" y="253.838" fill="#915E2C" width="17.894" height="286.553"/>
</g>
<g opacity="0.6">
	<polygon fill="#915E2C" points="721.507,253.838 739.397,265.514 739.397,540.391 721.507,540.391 	"/>
</g>
<g>
	<path fill="#213B4D" d="M739.397,545.391H45.85c-2.761,0-5-2.238-5-5V277.195c0-15.637,12.723-28.358,28.361-28.358l646.83,0.001
		c15.637,0,28.357,12.721,28.357,28.357v263.195C744.397,543.152,742.159,545.391,739.397,545.391z M50.85,535.391h683.548V277.195
		c0-10.123-8.235-18.357-18.357-18.357l-646.83-0.001c-10.124,0-18.361,8.235-18.361,18.358V535.391z"/>
</g>
<g>
	<path fill="#754011" d="M392.624,341.93c0,0-75.224,33.678-75.224,75.224v123.237h150.447V417.153
		C467.848,375.607,392.624,341.93,392.624,341.93z"/>
	<path fill="#213B4D" d="M467.848,545.391H317.4c-2.761,0-5-2.238-5-5V417.153c0-44.276,74.988-78.358,78.181-79.787
		c1.299-0.582,2.787-0.582,4.086,0c3.192,1.429,78.181,35.511,78.181,79.787v123.237
		C472.848,543.152,470.609,545.391,467.848,545.391z M322.4,535.391h140.447V417.153c0-34.186-58.452-64.037-70.224-69.699
		c-11.771,5.662-70.224,35.514-70.224,69.699V535.391z"/>
</g>
<g>
	<path fill="#754011" d="M624.683,380.919c0,0-41.325,18.501-41.325,41.323v118.148h82.649V422.242
		C666.007,399.42,624.683,380.919,624.683,380.919z"/>
	<path fill="#213B4D" d="M666.007,545.391h-82.649c-2.762,0-5-2.238-5-5V422.242c0-11.159,7.647-22.353,22.73-33.271
		c10.627-7.691,21.11-12.419,21.552-12.616c1.299-0.582,2.787-0.582,4.086,0c0.441,0.197,10.924,4.925,21.551,12.616
		c15.083,10.918,22.73,22.111,22.73,33.271v118.148C671.007,543.152,668.769,545.391,666.007,545.391z M588.357,535.391h72.649
		V422.242c0-15.087-24.543-30.1-36.324-35.805c-11.779,5.704-36.325,20.717-36.325,35.805V535.391z"/>
</g>
<g>
	<path fill="#FFBD52" d="M521.991,110.391c0,0-25.438,11.39-25.438,25.438v404.562h50.874V135.828
		C547.428,121.78,521.991,110.391,521.991,110.391z"/>
	<path fill="#213B4D" d="M547.428,545.391h-50.874c-2.762,0-5-2.238-5-5V135.828c0-16.802,25.488-28.7,28.395-30.001
		c1.299-0.582,2.787-0.582,4.086,0c2.906,1.301,28.394,13.199,28.394,30.001v404.562
		C552.428,543.152,550.189,545.391,547.428,545.391z M501.554,535.391h40.874V135.828c0-7.468-12.666-15.988-20.442-19.902
		c-8.646,4.307-20.432,12.652-20.432,19.902V535.391z"/>
</g>
<g>
	<path fill="#FFBD52" d="M263.259,110.391c0,0-25.437,11.39-25.437,25.438v404.562h50.874V135.828
		C288.696,121.78,263.259,110.391,263.259,110.391z"/>
	<path fill="#213B4D" d="M288.696,545.391h-50.874c-2.761,0-5-2.238-5-5V135.828c0-16.802,25.487-28.7,28.394-30.001
		c1.301-0.582,2.786-0.582,4.087,0c2.906,1.301,28.394,13.199,28.394,30.001v404.562
		C293.696,543.152,291.457,545.391,288.696,545.391z M242.822,535.391h40.874V135.828c0-7.468-12.667-15.988-20.442-19.902
		c-8.646,4.307-20.432,12.652-20.432,19.902V535.391z"/>
</g>
<g opacity="0.6">
	<path fill="#915E2C" d="M288.696,135.828c0-8.846-10.082-16.634-17.551-21.191v425.754h17.551V135.828z"/>
</g>
<g opacity="0.6">
	<path fill="#915E2C" d="M547.428,135.828c0-8.846-10.082-16.634-17.551-21.191v425.754h17.551V135.828z"/>
</g>
<g>
	<rect x="290.192" y="179.745" fill="#E09748" width="206.361" height="74.093"/>
	<path fill="#213B4D" d="M496.554,258.838H290.192c-2.761,0-5-2.239-5-5v-74.093c0-2.761,2.239-5,5-5h206.361c2.762,0,5,2.239,5,5
		v74.093C501.554,256.599,499.315,258.838,496.554,258.838z M295.192,248.838h196.361v-64.093H295.192V248.838z"/>
</g>
<g opacity="0.6">
	<rect x="478.66" y="179.745" fill="#915E2C" width="17.894" height="74.093"/>
</g>
<g>
	<rect x="290.192" y="253.838" fill="#FFBD52" width="206.361" height="65.188"/>
	<path fill="#213B4D" d="M496.554,324.025H290.192c-2.761,0-5-2.238-5-5v-65.188c0-2.761,2.239-5,5-5h206.361c2.762,0,5,2.239,5,5
		v65.188C501.554,321.787,499.315,324.025,496.554,324.025z M295.192,314.025h196.361v-55.188H295.192V314.025z"/>
</g>
<g opacity="0.6">
	<rect x="478.66" y="253.838" fill="#915E2C" width="17.894" height="65.188"/>
</g>
<g>
	<polygon fill="#FFBD52" points="237.822,357.537 22.493,357.537 43.833,319.025 237.822,319.025 	"/>
	<path fill="#213B4D" d="M237.822,362.537H22.493c-1.771,0-3.409-0.937-4.308-2.462c-0.898-1.525-0.923-3.413-0.065-4.962
		l21.339-38.511c0.881-1.591,2.556-2.577,4.374-2.577h193.989c2.761,0,5,2.238,5,5v38.512
		C242.822,360.299,240.583,362.537,237.822,362.537z M30.98,352.537h201.842v-28.512H46.778L30.98,352.537z"/>
</g>
<g opacity="0.6">
	<rect x="219.929" y="319.025" fill="#915E2C" width="17.893" height="38.512"/>
</g>
<g>
	<polygon fill="#FFBD52" points="762.757,357.537 547.428,357.537 547.428,319.025 741.417,319.025 	"/>
	<path fill="#213B4D" d="M762.776,362.537c-0.005,0-0.013,0-0.02,0H547.428c-2.762,0-5-2.238-5-5v-38.512c0-2.762,2.238-5,5-5
		h193.989c1.817,0,3.492,0.986,4.373,2.576l21.14,38.149c0.535,0.796,0.847,1.755,0.847,2.786
		C767.776,360.299,765.538,362.537,762.776,362.537z M552.428,352.537H754.27l-15.798-28.512H552.428V352.537z"/>
</g>
<g opacity="0.6">
	<polygon fill="#915E2C" points="762.757,357.537 746.604,357.537 725.65,319.025 741.417,319.025 	"/>
</g>
<g>
	<path fill="#754011" d="M160.568,380.919c0,0-41.324,18.501-41.324,41.323v118.148h82.648V422.242
		C201.892,399.42,160.568,380.919,160.568,380.919z"/>
	<path fill="#213B4D" d="M201.892,545.391h-82.648c-2.761,0-5-2.238-5-5V422.242c0-11.159,7.647-22.353,22.73-33.271
		c10.626-7.691,21.109-12.419,21.551-12.616c1.3-0.582,2.786-0.582,4.086,0c0.441,0.197,10.924,4.925,21.551,12.616
		c15.083,10.918,22.73,22.111,22.73,33.271v118.148C206.892,543.152,204.653,545.391,201.892,545.391z M124.244,535.391h72.648
		V422.242c0-15.087-24.543-30.1-36.324-35.805c-11.78,5.705-36.324,20.718-36.324,35.805V535.391z"/>
</g>
<g opacity="0.6">
	<path fill="#422A10" d="M392.624,341.93c0,0-3.919,1.757-9.959,4.953c12.009,5.738,73.183,36.802,73.183,74.271v119.237h12V417.153
		C467.848,375.607,392.624,341.93,392.624,341.93z"/>
</g>
<g opacity="0.6">
	<path fill="#422A10" d="M624.683,380.919c0,0-4.112,1.842-9.739,5.077c8.633,4.26,39.063,20.661,39.063,40.246v114.148h12V422.242
		C666.007,399.42,624.683,380.919,624.683,380.919z"/>
</g>
<g opacity="0.6">
	<path fill="#422A10" d="M160.568,380.919c0,0-4.112,1.842-9.74,5.077c8.634,4.26,39.064,20.661,39.064,40.246v114.148h12V422.242
		C201.892,399.42,160.568,380.919,160.568,380.919z"/>
</g>
<g>
	<path fill="#213B4D" d="M467.848,545.391H317.4c-2.761,0-5-2.238-5-5V417.153c0-44.276,74.988-78.358,78.181-79.787
		c1.299-0.582,2.787-0.582,4.086,0c3.192,1.429,78.181,35.511,78.181,79.787v123.237
		C472.848,543.152,470.609,545.391,467.848,545.391z M322.4,535.391h140.447V417.153c0-34.186-58.452-64.037-70.224-69.699
		c-11.771,5.662-70.224,35.514-70.224,69.699V535.391z"/>
</g>
<g>
	<path fill="#213B4D" d="M666.007,545.391h-82.649c-2.762,0-5-2.238-5-5V422.242c0-11.159,7.647-22.353,22.73-33.271
		c10.627-7.691,21.11-12.419,21.552-12.616c1.299-0.582,2.787-0.582,4.086,0c0.441,0.197,10.924,4.925,21.551,12.616
		c15.083,10.918,22.73,22.111,22.73,33.271v118.148C671.007,543.152,668.769,545.391,666.007,545.391z M588.357,535.391h72.649
		V422.242c0-15.087-24.543-30.1-36.324-35.805c-11.779,5.704-36.325,20.717-36.325,35.805V535.391z"/>
</g>
<g>
	<path fill="#213B4D" d="M547.428,545.391h-50.874c-2.762,0-5-2.238-5-5V135.828c0-16.802,25.488-28.7,28.395-30.001
		c1.299-0.582,2.787-0.582,4.086,0c2.906,1.301,28.394,13.199,28.394,30.001v404.562
		C552.428,543.152,550.189,545.391,547.428,545.391z M501.554,535.391h40.874V135.828c0-7.468-12.666-15.988-20.442-19.902
		c-8.646,4.307-20.432,12.652-20.432,19.902V535.391z"/>
</g>
<g>
	<path fill="#213B4D" d="M288.696,545.391h-50.874c-2.761,0-5-2.238-5-5V135.828c0-16.802,25.487-28.7,28.394-30.001
		c1.301-0.582,2.786-0.582,4.087,0c2.906,1.301,28.394,13.199,28.394,30.001v404.562
		C293.696,543.152,291.457,545.391,288.696,545.391z M242.822,535.391h40.874V135.828c0-7.468-12.667-15.988-20.442-19.902
		c-8.646,4.307-20.432,12.652-20.432,19.902V535.391z"/>
</g>
<g>
	<path fill="#213B4D" d="M496.554,258.838H290.192c-2.761,0-5-2.239-5-5v-74.093c0-2.761,2.239-5,5-5h206.361c2.762,0,5,2.239,5,5
		v74.093C501.554,256.599,499.315,258.838,496.554,258.838z M295.192,248.838h196.361v-64.093H295.192V248.838z"/>
</g>
<g>
	<path fill="#213B4D" d="M496.554,324.025H290.192c-2.761,0-5-2.238-5-5v-65.188c0-2.761,2.239-5,5-5h206.361c2.762,0,5,2.239,5,5
		v65.188C501.554,321.787,499.315,324.025,496.554,324.025z M295.192,314.025h196.361v-55.188H295.192V314.025z"/>
</g>
<g>
	<path fill="#213B4D" d="M237.822,362.537H22.493c-1.771,0-3.409-0.937-4.308-2.462c-0.898-1.525-0.923-3.413-0.065-4.962
		l21.339-38.511c0.881-1.591,2.556-2.577,4.374-2.577h193.989c2.761,0,5,2.238,5,5v38.512
		C242.822,360.299,240.583,362.537,237.822,362.537z M30.98,352.537h201.842v-28.512H46.778L30.98,352.537z"/>
</g>
<g>
	<path fill="#213B4D" d="M762.776,362.537c-0.005,0-0.013,0-0.02,0H547.428c-2.762,0-5-2.238-5-5v-38.512c0-2.762,2.238-5,5-5
		h193.989c1.817,0,3.492,0.986,4.373,2.576l21.14,38.149c0.535,0.796,0.847,1.755,0.847,2.786
		C767.776,360.299,765.538,362.537,762.776,362.537z M552.428,352.537H754.27l-15.798-28.512H552.428V352.537z"/>
</g>
<g>
	<path fill="#213B4D" d="M201.892,545.391h-82.648c-2.761,0-5-2.238-5-5V422.242c0-11.159,7.647-22.353,22.73-33.271
		c10.626-7.691,21.109-12.419,21.551-12.616c1.3-0.582,2.786-0.582,4.086,0c0.441,0.197,10.924,4.925,21.551,12.616
		c15.083,10.918,22.73,22.111,22.73,33.271v118.148C206.892,543.152,204.653,545.391,201.892,545.391z M124.244,535.391h72.648
		V422.242c0-15.087-24.543-30.1-36.324-35.805c-11.78,5.705-36.324,20.718-36.324,35.805V535.391z"/>
</g>
</svg>
