<?xml version="1.0" encoding="utf-8"?>
<!-- Generator: Adobe Illustrator 16.0.4, SVG Export Plug-In . SVG Version: 6.00 Build 0)  -->
<!DOCTYPE svg PUBLIC "-//W3C//DTD SVG 1.1//EN" "http://www.w3.org/Graphics/SVG/1.1/DTD/svg11.dtd">
<svg version="1.1" id="Layer_1" xmlns="http://www.w3.org/2000/svg" xmlns:xlink="http://www.w3.org/1999/xlink" x="0px" y="0px"
	 width="397.882px" height="122.588px" viewBox="0 0 397.882 122.588" enable-background="new 0 0 397.882 122.588"
	 xml:space="preserve">
<g>
	<path fill="#213B4D" d="M3.073,86.109V22.797c0-6.76,3.77-10.66,10.01-10.66h43.421c5.98,0,8.84,2.73,8.84,7.67v0.78
		c0,5.33-2.86,7.931-8.84,7.931H22.053v20.931h24.831c6.11,0,8.84,2.601,8.84,7.41v0.39c0,5.07-2.73,7.8-8.84,7.8H22.573V87.93
		c0,5.852-2.86,8.84-8.45,8.84h-2.99C5.933,96.77,3.073,92.871,3.073,86.109z"/>
	<path fill="#213B4D" d="M84.324,42.949c2.6-7.28,7.8-11.57,15.471-11.57c7.41,0,11.831,4.16,11.831,10.66
		c0,7.28-5.59,9.88-5.851,9.62c-1.95-1.82-4.81-3.12-8.32-3.12c-8.97,0-12.87,7.801-12.87,20.542v18.98
		c0,6.629-3.38,8.709-8.061,8.709h-1.95c-4.94,0-8.32-1.949-8.32-8.709V34.238c0-0.52,3.25-2.08,6.891-2.08
		C77.954,32.158,83.154,34.368,84.324,42.949z"/>
	<path fill="#213B4D" d="M112.794,79.35c0-14.561,13-21.191,40.822-21.581h2.08c0-8.19-4.55-12.61-13.001-12.61
		c-8.84,0-13.39,4.811-15.73,9.75c0,0.26-11.83,0.65-11.83-7.8c0-7.931,9.36-15.73,28.731-15.73c20.021,0,29.901,9.1,29.901,26.131
		V95.08c0,0.91-3.38,2.08-6.89,2.08c-5.85,0-9.75-3.119-10.791-10.01c-4.55,6.631-12.61,10.529-21.971,10.529
		C120.854,97.68,112.794,90.141,112.794,79.35z M155.696,71.42v-3.641l-3.38,0.131c-14.431,0.389-21.971,3.25-21.971,10.139
		c0,4.682,3.77,7.672,9.88,7.672C149.325,85.721,155.696,79.74,155.696,71.42z"/>
	<path fill="#213B4D" d="M183.772,112.762V34.238c0-0.52,3.25-2.08,6.89-2.08c4.811,0,10.011,2.341,11.181,11.051
		c4.03-7.28,11.181-11.83,20.8-11.83c17.161,0,29.381,12.87,29.381,33.151c0,19.76-12.09,33.412-29.641,33.412
		c-9.75,0-17.03-5.201-20.281-11.572v26.393c0,6.629-3.38,8.84-8.06,8.84h-1.95C187.153,121.602,183.772,119.521,183.772,112.762z
		 M234.345,64.66c0-11.051-6.631-18.591-16.251-18.591c-7.67,0-13.26,4.03-15.991,10.4V68.82c0.26,8.58,7.15,14.561,15.861,14.561
		C227.845,83.381,234.345,75.84,234.345,64.66z"/>
	<path fill="#213B4D" d="M259.172,112.762V34.238c0-0.52,3.251-2.08,6.89-2.08c4.811,0,10.012,2.341,11.182,11.051
		c4.029-7.28,11.18-11.83,20.801-11.83c17.16,0,29.381,12.87,29.381,33.151c0,19.76-12.091,33.412-29.641,33.412
		c-9.751,0-17.031-5.201-20.281-11.572v26.393c0,6.629-3.381,8.84-8.061,8.84h-1.95
		C262.552,121.602,259.172,119.521,259.172,112.762z M309.743,64.66c0-11.051-6.629-18.591-16.25-18.591
		c-7.67,0-13.26,4.03-15.99,10.4V68.82c0.26,8.58,7.15,14.561,15.86,14.561C303.243,83.381,309.743,75.84,309.743,64.66z"/>
	<path fill="#213B4D" d="M331.191,65.049c0-19.371,13.911-33.67,33.151-33.67c18.721,0,31.591,13.13,31.591,31.721v1.299
		c-0.13,3.25-1.04,5.07-4.42,5.07h-43.812c1.3,9.49,8.58,15.082,18.461,15.082c9.619,0,14.95-4.291,17.939-9.361
		c0.131-0.26,8.842,0.91,8.842,8.191c0,6.889-9.751,14.561-27.432,14.561C344.842,97.941,331.191,85.07,331.191,65.049z
		 M347.702,58.809h31.201c-0.391-8.84-5.98-14.69-14.82-14.69C355.503,44.119,349.002,50.229,347.702,58.809z M368.372,4.208
		c2.211-1.431,4.421-2.211,6.501-2.211c4.681,0,8.32,3.12,8.32,7.15c0,3.641-2.341,7.41-6.37,9.881
		c-10.141,6.11-22.361,5.98-23.4,4.42C352.513,21.757,359.792,9.538,368.372,4.208z"/>
</g>
</svg>
