<?xml version="1.0" encoding="utf-8"?>
<!-- Generator: Adobe Illustrator 16.0.4, SVG Export Plug-In . SVG Version: 6.00 Build 0)  -->
<!DOCTYPE svg PUBLIC "-//W3C//DTD SVG 1.1//EN" "http://www.w3.org/Graphics/SVG/1.1/DTD/svg11.dtd">
<svg version="1.1" id="Layer_1" xmlns="http://www.w3.org/2000/svg" xmlns:xlink="http://www.w3.org/1999/xlink" x="0px" y="0px"
	 width="40px" height="40px" viewBox="0 0 40 40" enable-background="new 0 0 40 40" xml:space="preserve">
<g>
	<path fill-rule="evenodd" clip-rule="evenodd" fill="#6C7680" d="M19.998-0.007C8.955-0.007,0,9.177,0,20.506
		c0,9.065,5.729,16.75,13.679,19.465c0.999,0.188,1.364-0.445,1.364-0.99c0-0.486-0.017-1.775-0.026-3.488
		c-5.563,1.24-6.737-2.75-6.737-2.75c-0.909-2.369-2.221-3-2.221-3c-1.815-1.271,0.138-1.248,0.138-1.248
		c2.007,0.146,3.062,2.115,3.062,2.115c1.784,3.133,4.682,2.23,5.82,1.705c0.183-1.326,0.699-2.229,1.27-2.742
		c-4.44-0.52-9.109-2.277-9.109-10.139c0-2.238,0.779-4.07,2.059-5.502c-0.205-0.521-0.892-2.605,0.195-5.432
		c0,0,1.68-0.553,5.501,2.104c1.595-0.457,3.307-0.682,5.007-0.689c1.698,0.008,3.409,0.232,5.007,0.689
		c3.818-2.656,5.496-2.104,5.496-2.104c1.09,2.826,0.402,4.91,0.197,5.432c1.283,1.432,2.057,3.264,2.057,5.502
		c0,7.881-4.676,9.613-9.133,10.123c0.719,0.633,1.359,1.885,1.359,3.799c0,2.742-0.025,4.953-0.025,5.625
		c0,0.553,0.361,1.188,1.377,0.988C34.273,37.251,40,29.567,40,20.506C40,9.177,31.045-0.007,19.998-0.007z"/>
</g>
</svg>
