<?xml version="1.0" encoding="utf-8"?>
<!-- Generator: Adobe Illustrator 16.0.4, SVG Export Plug-In . SVG Version: 6.00 Build 0)  -->
<!DOCTYPE svg PUBLIC "-//W3C//DTD SVG 1.1//EN" "http://www.w3.org/Graphics/SVG/1.1/DTD/svg11.dtd">
<svg version="1.1" id="Layer_1" xmlns="http://www.w3.org/2000/svg" xmlns:xlink="http://www.w3.org/1999/xlink" x="0px" y="0px"
	 width="40px" height="40px" viewBox="0 0 40 40" enable-background="new 0 0 40 40" xml:space="preserve">
<g>
	<path fill="#6C7680" d="M20,0C8.954,0,0,6.904,0,17.5C0,28.102,8.954,35,20,35c1.84,0,3.613-0.209,5.307-0.576L34.965,40V29.457
		C38.088,26.457,40,22.379,40,17.5C40,6.904,31.047,0,20,0z M10,21.752c-1.841,0-3.333-1.494-3.333-3.334S8.159,15.084,10,15.084
		s3.333,1.494,3.333,3.334S11.841,21.752,10,21.752z M20,21.752c-1.841,0-3.333-1.494-3.333-3.334s1.492-3.334,3.333-3.334
		c1.84,0,3.332,1.494,3.332,3.334S21.84,21.752,20,21.752z M30,21.666c-1.84,0-3.332-1.492-3.332-3.332
		C26.668,16.492,28.16,15,30,15s3.332,1.492,3.332,3.334C33.332,20.174,31.84,21.666,30,21.666z"/>
</g>
</svg>
