<?xml version="1.0" encoding="utf-8"?>
<!-- Generator: Adobe Illustrator 16.0.4, SVG Export Plug-In . SVG Version: 6.00 Build 0)  -->
<!DOCTYPE svg PUBLIC "-//W3C//DTD SVG 1.1//EN" "http://www.w3.org/Graphics/SVG/1.1/DTD/svg11.dtd">
<svg version="1.1" id="Layer_1" xmlns="http://www.w3.org/2000/svg" xmlns:xlink="http://www.w3.org/1999/xlink" x="0px" y="0px"
	 width="782.667px" height="619.333px" viewBox="0 0 782.667 619.333" enable-background="new 0 0 782.667 619.333"
	 xml:space="preserve">
<g>
	<g>
		<path fill="#ECF0F2" d="M774.833,268.527c20.031,198.128-113,275.791-354.947,298.551
			C177.94,589.837,31.858,538.43,11.827,340.302C-8.205,142.177,124.829,64.515,366.775,41.754
			C608.72,18.996,754.803,70.402,774.833,268.527z"/>
	</g>
</g>
<g>
	<circle fill="#FF7846" cx="651" cy="75.511" r="36"/>
</g>
<g>
	<circle fill="#FFB868" cx="643" cy="67.511" r="12"/>
</g>
<g>
	<g>
		<circle fill="#A6E4FF" cx="353.607" cy="349.038" r="260"/>
	</g>
	<g>
		<g>
			<path fill="#99D850" d="M557.109,510.854v-16.475c0-4.4-1.871-4.925-4.159-1.166l-4.735,7.78
				c-2.287,3.759-5.629,3.548-7.426-0.469l-1.394-3.113c-1.797-4.017-6.704-6.233-10.905-4.926l-5.704,1.774
				c-4.201,1.308-10.113,4.991-13.138,8.188l-38.423,40.597c-3.024,3.196-8.894,7.009-13.043,8.473l-0.763,0.27
				c-4.149,1.464-8.025,6.229-8.615,10.59l-2.519,18.648c-0.411,3.047-0.771,7.463-0.95,11.35
				C489.618,575.673,528.138,547.24,557.109,510.854z"/>
		</g>
		<g>
			<path fill="#99D850" d="M490.113,127.732c-17.138-10.594-35.596-19.25-55.073-25.669c-3.091,2.14-6.693,4.284-9.386,5.521
				l-9.162,4.21c-3.998,1.837-10.584,2.331-14.636,1.098s-10.7-0.884-14.774,0.776l-2.48,1.01c-4.074,1.66-9.858,0.713-12.854-2.105
				c-2.995-2.819-8.684-3.553-12.642-1.63l-13.309,6.463c-3.958,1.923-7.196,5.369-7.196,7.659c0,2.289-3.07,6.043-6.822,8.342
				l-4.134,2.531c-3.753,2.299-10.353,4.885-14.667,5.748l-0.325,0.065c-4.314,0.863-5.825-1.411-3.358-5.054l4.479-6.611
				c2.467-3.644,1.047-5.56-3.156-4.259L299,129.423c-4.203,1.301-11.058,3.504-15.232,4.895l-4.039,1.347
				c-4.175,1.392-11.17,2.906-15.546,3.367l-8.43,0.888c-4.376,0.461-10.55,1.559-13.721,2.439c-3.171,0.88-4.591-1.803-3.157-5.963
				l1.189-3.45c1.434-4.16,4.77-5.979,7.412-4.04c2.642,1.938,6.245,1.938,8.008,0c1.762-1.938,1.762-5.829,0-8.648
				c-1.763-2.818-6.756-4.54-11.098-3.826l-10.392,1.708c-13.585,7.052-26.463,15.271-38.514,24.517
				c3.893-1.703,8.911-3.715,11.959-4.781c3.523-1.233,5.108,0.929,3.523,4.805c-1.585,3.875-6.165,8.524-10.177,10.331
				l-13.599,6.126c-3.407,1.535-8.803,2.191-12.966,1.695c-17.691,16.867-32.996,36.211-45.384,57.463
				c-0.319,4.244,2.28,7.807,5.896,7.979c3.699,0.177,8.312,2.627,10.25,5.445s1.244,7.911-1.543,11.316l-1.398,1.71
				c-2.787,3.405-2.029,8.124,1.683,10.486l7.642,4.862c3.712,2.362,4.883,7.374,2.603,11.137l-4.52,7.456
				c-2.28,3.763-7.717,6.381-12.081,5.817l-3.988-0.514c-4.363-0.563-11.012-2.891-14.775-5.171l-7.456-4.519
				c-1.727-1.046-3.823-1.91-5.878-2.492c-7.58,24.398-11.664,50.337-11.664,77.229c0,49.608,13.9,95.969,38.009,135.408
				c0.8-3.075,2.3-6.122,4.14-8.062l18.774-19.783c3.028-3.191,8.009-8.392,11.066-11.555l7.456-7.714
				c3.058-3.163,6.824-9.123,8.369-13.242l2.069-5.518c1.545-4.119-0.778-7.197-5.164-6.84l-15.441,1.261
				c-4.386,0.357-9.745-2.483-11.91-6.314l-0.455-0.805c-2.165-3.83-5.313-10.29-6.995-14.356l-9.256-22.369
				c-1.682-4.066-2.892-10.988-2.688-15.384l1.818-39.106c0.204-4.396,1.524-7.991,2.934-7.991c1.41,0,2.961,3.578,3.447,7.951
				l2.717,24.454c0.485,4.373,1.797,11.433,2.915,15.688l4.265,16.241c1.118,4.255,2.752,11.265,3.633,15.575l0.002,0.01
				c0.88,4.312,5.181,7.469,9.557,7.016l21.238-2.196c4.376-0.453,10.945-2.831,14.598-5.284l27.717-18.622
				c3.652-2.453,4.837-7.576,2.633-11.385l-6.076-10.495c-2.205-3.809-7.143-5.152-10.974-2.987l-0.804,0.454
				c-3.831,2.165-9.127,1.281-11.77-1.965c-2.642-3.246-5.439-9.444-6.217-13.775l-2.299-12.806
				c-0.777-4.331,0.893-6.865,3.712-5.632s6.423,5.557,8.008,9.608s6.335,8.389,10.554,9.64l1.953,0.578
				c4.219,1.251,10.469,4.539,13.889,7.307l1.017,0.823c3.42,2.769,9.812,5.249,14.203,5.513l16.058,0.964
				c4.392,0.264,10.004,2.93,12.47,5.924s8.024,4.789,12.351,3.987l53.451-9.898c4.326-0.802,10.854,0.552,14.505,3.007
				l23.876,16.056c3.651,2.455,9.81,3.022,13.686,1.262c3.875-1.762,7.767-1.762,8.646,0c0.881,1.761,3.493,6.265,5.806,10.008
				l5.046,8.168c2.312,3.743,4.204,8.535,4.204,10.649s3.323,2.459,7.385,0.767l0.604-0.252c4.062-1.692,8.359,0.389,9.55,4.624
				l1.434,5.097c1.19,4.235,2.523,11.283,2.962,15.661l0.971,9.703c0.438,4.378,2.813,10.698,5.279,14.046
				c2.467,3.347,8.609,8.159,9.95,12.35l1.664-0.744c1.341,4.19,2.784,8.809,6.903,10.354l0,0c4.119,1.545,5.106,2.571,3.446-1.504
				l-1.009-2.477c-1.66-4.074-5.294-10.198-8.075-13.607l-9.745-11.945c-2.781-3.409-4.74-9.785-4.354-14.168l0.516-5.842
				c0.387-4.383,4.037-6.61,8.111-4.95l2.479,1.01c4.074,1.66,10.078,5.434,13.341,8.386l1.588,1.436
				c3.263,2.952,8.378,2.726,11.368-0.503l5.143-5.555c2.99-3.229,4.675-9.389,3.745-13.689l-1.743-8.063
				c-0.93-4.301-4.749-9.718-8.487-12.038l-4.983-3.093c-3.738-2.32-4.481-6.976-1.651-10.345l3.161-3.763
				c2.83-3.369,8.365-7.736,12.301-9.703l17.719-8.859c3.936-1.967,8.452-6.936,10.038-11.04l5.123-13.26
				c1.586-4.104,1.347-10.719-0.53-14.698l-9.188-19.479c-1.877-3.979-3.18-10.828-2.896-15.219l0.25-3.892
				c0.283-4.391-1.358-5.966-3.648-3.5c-2.29,2.467-5.461,1.602-7.047-1.922c-1.585-3.522-1.873-9.576-0.641-13.451
				c1.233-3.875,3.972-6.037,6.086-4.805c2.114,1.233,6.438,2.242,9.609,2.242c3.17,0,7.673,3.053,10.005,6.783l1.129,1.807
				c2.332,3.73,5.681,7.648,7.442,8.705c1.762,1.058,2.193-1.393,0.961-5.445c-1.233-4.052-4.116-9.385-6.406-11.85
				c-2.29-2.466-3.655-8.047-3.033-12.403l0.94-6.58c0.622-4.356,2.14-8.929,3.374-10.163c1.232-1.233,0.887-5.577-0.769-9.654
				l-10.634-26.173c-1.656-4.077-5.605-8.709-8.776-10.295s-7.927-2.883-10.569-2.883s-5.941-3.415-7.333-7.59l-3.269-9.804
				c-1.391-4.175-0.656-9.464,1.635-11.754C487.829,136.458,489.648,131.837,490.113,127.732z"/>
		</g>
		<g>
			<path fill="#99D850" d="M167.1,509.865c1.423,4.164,5.084,6.033,8.139,4.153c3.053-1.88,5.133-6.992,4.621-11.362l-3.691-31.5
				c-0.512-4.37-3.826-5.806-7.365-3.191l-6.352,4.694c-3.538,2.614-5.271,8.161-3.848,12.324L167.1,509.865z"/>
		</g>
		<g>
			<path fill="#99D850" d="M495.509,477.586c-1.391-4.175-0.323-10.435,2.373-13.911l22.655-29.215
				c2.696-3.477,5.671-4.783,6.61-2.904c0.94,1.88,2.229,6.98,2.866,11.334l1.683,11.504c0.637,4.354,0.056,11.344-1.291,15.532
				l-2.518,7.83c-1.347,4.188-6.049,7.616-10.448,7.616h-11.335c-4.4,0-9.139-3.415-10.529-7.59L495.509,477.586z"/>
		</g>
		<g>
			<path fill="#99D850" d="M467.146,501.657c3.402,2.789,6.955,1.996,7.895-1.763c0.94-3.759-1.119-9.061-4.577-11.782
				l-27.575-21.709c-3.457-2.722-9.779-5.821-14.047-6.889l-3.271-0.817c-4.268-1.067-5.178,0.567-2.021,3.633l15.759,20.734
				c3.156,3.065,8.332,7.591,11.734,10.38L467.146,501.657z"/>
		</g>
		<g>
			<path fill="#99D850" d="M347.044,463.751c-3.718,2.706-7.869,1.323-9.222-3.072c-1.353-4.396-1.908-12.142-1.23-17.214
				c0.677-5.072,4.826-3.688,9.222,3.074C350.208,453.301,350.762,461.048,347.044,463.751z"/>
		</g>
	</g>
	<g>
		<path fill="#FF7846" d="M294.258,372.097c3.435-2.75,6.571-1.415,6.969,2.967l1.079,11.874c0.398,4.382,2.086,11.299,3.751,15.372
			l14.171,34.666c1.665,4.073,5.613,4.9,8.773,1.839l0.063-0.062c3.16-3.062,6.398-9.107,7.195-13.434l1.892-10.27
			c0.797-4.326,4.052-10.354,7.232-13.395l10.729-10.252c3.181-3.04,8.688-7.652,12.24-10.251c0,0,8.352-6.109,8.352-7.916
			c0-1.806,1.281-8.054,1.281-8.054c0.884-4.311,2.256-11.087,3.051-15.06s4.832-6.003,8.972-4.513l3.003,1.08
			c4.141,1.49,7.527,6.258,7.527,10.594c0,4.337,1.688,4.705,3.753,0.819l5.857-11.027c2.064-3.886,4.856-10.072,6.206-13.747
			c1.35-3.674-1.058-5.889-5.35-4.921l-1.371,0.309c-4.293,0.968-11.05,3.318-15.017,5.223l-1.674,0.804
			c-3.967,1.904-10.138,5.023-13.712,6.93c-3.576,1.907-9.785,1.993-13.799,0.19l-18.534-8.325
			c-4.014-1.803-6.913-5.309-6.442-7.791c0.471-2.483-1.883-6.852-5.23-9.707l-0.105-0.09c-3.348-2.855-4.219-8.269-1.936-12.029
			l3.975-6.547c2.284-3.762,1.877-7.896-0.903-9.186c-2.78-1.291-6.519-0.642-8.306,1.443c-1.788,2.086-5.852,2.086-9.029,0
			c-3.178-2.085-7.729-2.734-10.112-1.443c-2.384,1.29-2.871,3.891-1.083,5.777c1.787,1.887,3.006,5.462,2.708,7.945
			s0.839,5.896,2.527,7.584c1.688,1.688,1.094,6.08-1.32,9.758l-6.748,10.28c-2.414,3.678-7.315,7.134-10.891,7.681
			c-3.575,0.546-5.282,3.836-3.792,7.312c1.489,3.476-0.873,6.688-5.25,7.14l-6.231,0.642c-4.377,0.451-4.689,1.809-0.695,3.017
			s4.597,4.615,1.339,7.572l-2.678,2.43c-3.258,2.957-3.052,7.547,0.458,10.2l0.213,0.16c3.51,2.653,9.192,2.574,12.627-0.176
			L294.258,372.097z"/>
	</g>
	<g>
		<path fill="#213B4D" d="M353.607,614.038c-70.784,0-137.332-27.564-187.383-77.617c-50.052-50.052-77.617-116.599-77.617-187.383
			s27.564-137.332,77.617-187.383c50.052-50.052,116.599-77.617,187.383-77.617s137.331,27.565,187.383,77.617
			c50.053,50.052,77.617,116.6,77.617,187.383c0,70.784-27.564,137.331-77.617,187.383
			C490.938,586.473,424.391,614.038,353.607,614.038z M353.607,94.038c-68.113,0-132.149,26.525-180.312,74.688
			S98.607,280.925,98.607,349.038c0,68.113,26.524,132.149,74.688,180.312s112.199,74.688,180.312,74.688
			s132.148-26.524,180.312-74.688c48.163-48.164,74.688-112.199,74.688-180.312c0-68.113-26.524-132.149-74.688-180.312
			C485.755,120.562,421.72,94.038,353.607,94.038z"/>
	</g>
	<g>
		<path fill="#213B4D" d="M324.955,445.664c-4.057,0-7.641-2.604-9.355-6.796l-14.171-34.666c-1.856-4.54-3.658-11.924-4.102-16.811
			l-0.961-10.576l-3.249,2.6c-2.586,2.071-5.986,3.212-9.571,3.212c0,0-0.001,0-0.001,0c-3.413,0-6.678-1.048-9.195-2.951
			l-0.204-0.152c-2.874-2.173-4.604-5.362-4.756-8.758c-0.152-3.396,1.285-6.728,3.943-9.141l2.099-1.905
			c-4.599-1.747-5.378-4.517-5.178-6.605c0.318-3.323,2.997-5.268,7.961-5.779l6.232-0.642c0.553-0.057,0.917-0.191,1.123-0.301
			c-1.3-3.111-1.183-6.446,0.328-9.164c1.479-2.663,4.158-4.469,7.349-4.956c1.947-0.298,5.711-2.81,7.466-5.482l6.748-10.28
			c1.15-1.751,1.453-3.322,1.465-4.015c-2.471-2.84-3.908-7.41-3.456-11.178c0.112-0.934-0.547-3.039-1.374-3.912
			c-1.905-2.01-2.76-4.653-2.346-7.251c0.425-2.664,2.13-4.982,4.679-6.362c1.552-0.84,3.406-1.267,5.511-1.267
			c3.295,0,6.931,1.094,9.724,2.927c0.711,0.467,1.568,0.745,2.293,0.745c0.173,0,0.303-0.017,0.388-0.034
			c2.08-2.283,5.337-3.638,8.779-3.638c1.836,0,3.647,0.391,5.238,1.129c2.324,1.079,4.034,3.082,4.812,5.639
			c1.006,3.307,0.371,7.198-1.741,10.677l-3.975,6.546c-1.017,1.675-0.584,4.358,0.906,5.631l0.103,0.087
			c3.86,3.293,7.595,8.976,6.983,13.921c0.349,0.65,1.573,1.959,3.497,2.822l18.534,8.326c1.215,0.546,2.941,0.858,4.735,0.858
			c2.193,0,3.846-0.465,4.662-0.9c3.645-1.943,9.88-5.095,13.901-7.025l1.674-0.804c4.333-2.08,11.396-4.536,16.081-5.593
			l1.373-0.309c4.375-0.985,8.335,0.252,10.388,3.193c1.611,2.308,1.878,5.266,0.753,8.329c-1.42,3.867-4.329,10.312-6.484,14.369
			l-5.856,11.027c-0.703,1.322-2.84,5.344-6.916,5.344c-1.044,0-6.253-0.41-6.253-8.509c0-2.246-2.051-5.108-4.221-5.889
			l-3.002-1.08c-0.358-0.129-0.703-0.194-1.024-0.194c-0.767,0-1.222,0.331-1.352,0.983c-0.796,3.979-2.17,10.766-3.056,15.082
			c-0.554,2.704-1.16,6.188-1.179,7.063c0,1.716,0,4.33-10.399,11.938c-3.358,2.457-8.733,6.959-11.738,9.83l-10.729,10.253
			c-2.414,2.308-5.164,7.4-5.769,10.685l-1.892,10.27c-0.991,5.382-4.703,12.312-8.634,16.119
			C330.312,444.507,327.639,445.664,324.955,445.664z M297.671,365.667c3.844,0,7.975,2.766,8.535,8.945l1.079,11.874
			c0.356,3.914,1.913,10.295,3.4,13.933l14.171,34.666c0.087,0.214,0.175,0.37,0.248,0.478c0.109-0.069,0.252-0.178,0.418-0.338
			c2.47-2.393,5.214-7.516,5.82-10.81l1.892-10.27c0.993-5.393,4.731-12.315,8.695-16.104l10.729-10.253
			c3.317-3.17,9.034-7.958,12.742-10.671c2.58-1.89,5.296-4.168,6.398-5.341c0.253-2.401,0.952-5.956,1.289-7.599
			c0.882-4.304,2.252-11.069,3.046-15.036c0.093-0.465,0.213-0.918,0.359-1.357c-1.36,0.248-2.8,0.377-4.276,0.377
			c-3.202,0-6.338-0.617-8.833-1.736l-18.534-8.326c-5.35-2.402-10.232-7.648-9.341-13.086c-0.119-0.894-1.369-3.326-3.528-5.169
			l-0.103-0.087c-5.231-4.462-6.533-12.557-2.967-18.431l3.975-6.547c0.565-0.93,0.74-1.738,0.755-2.21
			c-0.164-0.029-0.338-0.044-0.517-0.044c-0.767,0-1.285,0.273-1.387,0.373c-1.82,2.124-4.586,3.299-7.78,3.299
			c-2.674,0-5.437-0.847-7.779-2.385c-0.896-0.588-2.102-1.029-3.228-1.204c1.834,2.931,2.826,6.752,2.449,9.899
			c-0.122,1.016,0.54,2.895,1.098,3.452c3.905,3.906,2.616,11.024-0.675,16.039l-6.748,10.28c-3.199,4.873-9.353,9.12-14.315,9.879
			c-0.027,0.004-0.052,0.009-0.074,0.014c0.017,0.095,0.052,0.225,0.122,0.387c1.268,2.959,1.104,6.171-0.449,8.812
			c-1.64,2.789-4.628,4.659-8.26,5.193c0.067,0.214,0.125,0.431,0.175,0.651c0.734,3.257-0.556,6.679-3.539,9.386l-2.678,2.431
			c-0.453,0.411-0.692,0.868-0.674,1.286c0.019,0.419,0.298,0.853,0.787,1.223l0.204,0.152c0.79,0.598,1.943,0.936,3.174,0.936
			c0,0,0,0,0,0c1.283,0,2.525-0.381,3.321-1.019l4.266-3.414C293.199,366.541,295.459,365.667,297.671,365.667z M391.712,340.91
			l2.991,1.076c3.514,1.265,6.588,4.047,8.556,7.403l2.474-4.658c1.616-3.041,3.763-7.703,5.171-11.174l-0.172,0.038
			c-3.927,0.885-10.315,3.107-13.95,4.853l-1.674,0.804C394.093,339.738,392.935,340.305,391.712,340.91z"/>
	</g>
</g>
<g opacity="0.2">
	<path d="M315.876,391.511c62.122-41.178,119.428-109.588,139.081-165.74h0.013c7.033-17.373,10.906-36.364,10.906-56.26
		c0-82.843-67.158-150-150-150c-82.843,0-150,67.157-150,150c0,19.896,3.874,38.889,10.908,56.263h0.012
		C196.451,281.925,253.755,350.334,315.876,391.511"/>
</g>
<g>
	<path fill="#FFFACD" d="M305.876,379.511c62.122-41.178,119.428-109.588,139.081-165.74h0.013
		c7.033-17.373,10.906-36.364,10.906-56.26c0-82.843-67.158-150-150-150c-82.843,0-150,67.157-150,150
		c0,19.896,3.874,38.889,10.908,56.263h0.012C186.451,269.925,243.755,338.334,305.876,379.511"/>
</g>
<g>
	<path fill="#FF4D4D" d="M305.876,65.511c-50.81,0-92,41.189-92,92c0,50.81,41.19,92,92,92s92-41.19,92-92
		C397.876,106.701,356.686,65.511,305.876,65.511z M305.876,213.511c-30.879,0-56-25.121-56-56s25.121-56,56-56s56,25.121,56,56
		S336.755,213.511,305.876,213.511z"/>
</g>
<g>
	<path fill="#6B6BF7" d="M421.802,181.511c0,2.2-1.8,4-4,4h-224c-2.2,0-4-1.8-4-4v-48c0-2.2,1.8-4,4-4h224c2.2,0,4,1.8,4,4V181.511z
		"/>
</g>
<g>
	<path fill="#FFFACD" d="M240.319,167.431v-18.502c0-1.728,0.972-2.663,2.628-2.663h1.476c1.655,0,2.159,0.504,2.771,1.871
		l4.716,11.051l4.751-11.051c0.647-1.439,1.224-1.871,2.699-1.871h1.404c1.728,0,2.699,0.936,2.699,2.663v18.502
		c0,1.584-0.575,2.411-2.087,2.411h-0.828c-1.44,0-2.088-0.827-2.088-2.411v-13.858l-3.888,9.431
		c-0.396,0.9-0.611,1.656-2.699,1.656c-2.124,0-2.268-0.721-2.664-1.656l-3.888-9.251v13.679c0,1.584-0.54,2.411-2.088,2.411h-0.827
		C240.93,169.842,240.319,169.015,240.319,167.431z"/>
	<path fill="#FFFACD" d="M267.462,159.908v-11.23c0-1.62,0.863-2.411,2.304-2.411h0.684c1.512,0,2.304,0.791,2.304,2.411v11.159
		c0,3.743,1.584,5.65,4.751,5.65c3.204,0,4.716-1.835,4.716-5.687v-11.123c0-1.62,0.828-2.411,2.304-2.411h0.72
		c1.512,0,2.268,0.791,2.268,2.411v11.159c0,6.73-3.455,10.258-10.043,10.258C270.881,170.094,267.462,166.603,267.462,159.908z"/>
	<path fill="#FFFACD" d="M291.51,167.431v-18.502c0-1.728,0.972-2.663,2.628-2.663h1.476c1.655,0,2.159,0.504,2.771,1.871
		l4.716,11.051l4.751-11.051c0.647-1.439,1.224-1.871,2.699-1.871h1.404c1.728,0,2.699,0.936,2.699,2.663v18.502
		c0,1.584-0.575,2.411-2.087,2.411h-0.828c-1.44,0-2.088-0.827-2.088-2.411v-13.858l-3.888,9.431
		c-0.396,0.9-0.611,1.656-2.699,1.656c-2.124,0-2.268-0.721-2.664-1.656l-3.888-9.251v13.679c0,1.584-0.54,2.411-2.088,2.411h-0.827
		C292.122,169.842,291.51,169.015,291.51,167.431z"/>
	<path fill="#FFFACD" d="M318.833,166.748v-17.387c0-1.871,1.044-2.951,2.771-2.951h7.991c5.255,0,8.099,2.124,8.099,5.939
		c0,2.628-1.476,4.211-4.176,4.967c3.456,0.792,5.04,2.952,5.04,5.76c0,4.499-2.844,6.623-9.396,6.623h-7.559
		C319.877,169.699,318.833,168.619,318.833,166.748z M328.336,156.201c2.447,0,3.888-1.116,3.888-2.988
		c0-1.907-1.296-2.843-3.888-2.843h-4.248v5.831H328.336z M328.625,165.739c3.167,0,4.499-0.936,4.499-3.167
		c0-2.052-1.439-2.987-4.464-2.987h-4.571v6.154H328.625z"/>
	<path fill="#FFFACD" d="M355.66,163.759h-8.531l-1.404,3.744c-0.647,1.835-1.764,2.447-2.915,2.447
		c-1.476,0-2.952-1.151-2.771-1.62l7.955-20.553c0.287-0.973,1.043-1.584,3.455-1.584c2.447,0,3.096,0.611,3.42,1.584l8.135,20.517
		c0.18,0.433-1.296,1.656-2.88,1.656c-1.151,0-2.34-0.612-3.06-2.52L355.66,163.759z M348.172,159.8h6.407l-3.204-8.459
		L348.172,159.8z"/>
	<path fill="#FFFACD" d="M365.669,167.431v-18.754c0-1.62,0.792-2.411,2.268-2.411h0.72c1.548,0,2.34,0.791,2.34,2.411v18.754
		c0,1.584-0.792,2.411-2.34,2.411h-0.72C366.461,169.842,365.669,169.015,365.669,167.431z"/>
</g>
<g>
	<path fill="#213B4D" d="M305.881,384.512c-1.621,0-3.21-0.787-4.172-2.238c-1.526-2.302-0.896-5.404,1.405-6.931
		c61.329-40.651,117.717-107.772,137.125-163.226c0.913-2.605,3.768-3.979,6.371-3.067c2.606,0.912,3.98,3.765,3.068,6.371
		c-20.062,57.322-78.06,126.512-141.04,168.258C307.789,384.243,306.83,384.512,305.881,384.512z"/>
</g>
<g>
	<path fill="#213B4D" d="M305.872,384.512c-0.949,0-1.908-0.27-2.757-0.833c-62.98-41.746-120.978-110.936-141.039-168.258
		c-0.912-2.606,0.461-5.459,3.067-6.371c2.606-0.911,5.459,0.462,6.371,3.067c19.408,55.454,75.796,122.575,137.125,163.226
		c2.302,1.526,2.931,4.629,1.405,6.931C309.082,383.725,307.492,384.512,305.872,384.512z"/>
</g>
<g>
	<path fill="#213B4D" d="M166.786,218.775c-1.977,0-3.849-1.18-4.636-3.125c-7.48-18.477-11.273-38.038-11.273-58.139
		c0-85.467,69.533-155,155-155s155,69.533,155,155c0,20.101-3.792,39.661-11.271,58.136c-1.035,2.56-3.954,3.792-6.511,2.758
		c-2.56-1.037-3.795-3.951-2.759-6.511c6.994-17.277,10.541-35.574,10.541-54.383c0-79.953-65.047-145-145-145s-145,65.047-145,145
		c0,18.809,3.547,37.107,10.543,54.386c1.036,2.56-0.199,5.475-2.758,6.511C168.046,218.657,167.411,218.775,166.786,218.775z"/>
</g>
<g>
	<path fill="#213B4D" d="M651,116.511c-22.607,0-41-18.393-41-41s18.393-41,41-41s41,18.393,41,41S673.607,116.511,651,116.511z
		 M651,44.511c-17.094,0-31,13.907-31,31s13.906,31,31,31s31-13.907,31-31S668.093,44.511,651,44.511z"/>
</g>
</svg>
