<?xml version="1.0" encoding="utf-8"?>
<!-- Generator: Adobe Illustrator 16.0.4, SVG Export Plug-In . SVG Version: 6.00 Build 0)  -->
<!DOCTYPE svg PUBLIC "-//W3C//DTD SVG 1.1//EN" "http://www.w3.org/Graphics/SVG/1.1/DTD/svg11.dtd">
<svg version="1.1" id="Layer_1" xmlns="http://www.w3.org/2000/svg" xmlns:xlink="http://www.w3.org/1999/xlink" x="0px" y="0px"
	 width="645px" height="418px" viewBox="0 0 645 418" enable-background="new 0 0 645 418" xml:space="preserve">
<g>
	<g>
		<path fill="#FFF9CD" d="M640.1,209.529c0.006,152.27-116.207,201.863-317.682,201.854S4.727,361.77,4.719,209.502
			C4.715,57.234,120.928,7.643,322.402,7.65S640.094,57.262,640.1,209.529z"/>
	</g>
</g>
<g>
	<g>
		<path fill="#37A731" d="M322.408,7.409c-113.891,0-206.226,92.331-206.226,206.228c0,89.043,56.441,164.902,135.496,193.772
			l43.986-125.166c-27.459-10.71-46.946-37.354-46.946-68.606c0-40.699,32.99-73.69,73.689-73.69
			c40.703,0,73.689,32.991,73.689,73.69c0,30.65-18.719,56.914-45.346,68.023l42.631,125.664
			c78.93-28.932,135.254-104.728,135.254-193.688C528.637,99.74,436.307,7.409,322.408,7.409z"/>
	</g>
	<g>
		<g>
			<path fill="#268E1E" d="M449.186,50.977c42.596,37.779,69.451,92.912,69.451,154.326c0,86.558-53.327,160.646-128.912,191.235
				l3.658,10.786c78.93-28.932,135.254-104.728,135.254-193.688C528.637,147.543,497.541,88.718,449.186,50.977z"/>
		</g>
		<g>
			<path fill="#268E1E" d="M241.679,399.076c-20.449-7.468-39.38-18.086-56.216-31.257c19.202,17.067,41.613,30.605,66.216,39.59
				l43.986-125.166c-3.845-1.499-7.524-3.322-11.026-5.415L241.679,399.076z"/>
		</g>
		<g>
			<path fill="#268E1E" d="M312.408,131.613c-40.699,0-73.689,32.99-73.689,73.689c0,25.068,12.544,47.162,31.678,60.455
				c-13.385-13.32-21.678-31.739-21.678-52.121c0-40.699,32.99-73.69,73.689-73.69c15.602,0,30.066,4.852,41.977,13.122
				C351.062,139.809,332.694,131.613,312.408,131.613z"/>
		</g>
	</g>
	<g>
		<path fill="#213B4D" d="M251.679,412.409c-0.58,0-1.16-0.101-1.715-0.304c-40.282-14.71-74.775-41.031-99.751-76.118
			c-25.533-35.868-39.029-78.177-39.029-122.351c0-116.471,94.755-211.228,211.226-211.228
			c116.472,0,211.229,94.756,211.229,211.228c0,44.132-13.47,86.405-38.953,122.251c-24.927,35.063-59.36,61.389-99.58,76.131
			c-1.265,0.464-2.664,0.397-3.878-0.184c-1.216-0.582-2.145-1.629-2.578-2.904l-42.631-125.664
			c-0.845-2.49,0.384-5.209,2.811-6.221c25.678-10.714,42.271-35.604,42.271-63.409c0-37.876-30.813-68.69-68.689-68.69
			c-37.875,0-68.689,30.814-68.689,68.69c0,28.478,17.178,53.579,43.763,63.948c2.511,0.979,3.794,3.773,2.9,6.316l-43.986,125.166
			c-0.443,1.261-1.373,2.292-2.582,2.862C253.14,412.249,252.41,412.409,251.679,412.409z M322.408,12.409
			c-110.956,0-201.226,90.271-201.226,201.228c0,42.083,12.855,82.386,37.176,116.552c22.814,32.048,53.959,56.421,90.302,70.729
			l40.732-115.908c-27.904-12.85-45.674-40.362-45.674-71.372c0-43.39,35.3-78.69,78.689-78.69s78.689,35.3,78.689,78.69
			c0,30.286-17.181,57.552-44.154,70.71l39.508,116.459c36.26-14.338,67.327-38.703,90.082-70.712
			c24.273-34.144,37.104-74.414,37.104-116.457C523.637,102.68,433.366,12.409,322.408,12.409z"/>
	</g>
</g>
</svg>
