<?xml version="1.0" encoding="utf-8"?>
<!-- Generator: Adobe Illustrator 16.0.4, SVG Export Plug-In . SVG Version: 6.00 Build 0)  -->
<!DOCTYPE svg PUBLIC "-//W3C//DTD SVG 1.1//EN" "http://www.w3.org/Graphics/SVG/1.1/DTD/svg11.dtd">
<svg version="1.1" id="Layer_1" xmlns="http://www.w3.org/2000/svg" xmlns:xlink="http://www.w3.org/1999/xlink" x="0px" y="0px"
	 width="786.086px" height="543.812px" viewBox="0 0 786.086 543.812" enable-background="new 0 0 786.086 543.812"
	 xml:space="preserve">
<g>
	<g>
		<path fill="#FFF268" d="M755.895,271.906c0,205.102-118.307,271.906-323.402,271.906c-205.099,0-323.404-66.806-323.404-271.907
			C109.088,66.806,227.394,0,432.491,0C637.588,0,755.895,66.806,755.895,271.906z"/>
	</g>
	<g>
		<g>
			<g>
				<path fill="#7575FF" d="M15.758,341.646c-5.5,0-10-4.5-10-10v-235c0-5.5,4.5-10,10-10h180c5.5,0,10,4.5,10,10v235
					c0,5.5-4.5,10-10,10H15.758z"/>
			</g>
			<g>
				<path fill="#213B4D" d="M195.758,346.646h-180c-8.271,0-15-6.729-15-15v-235c0-8.271,6.729-15,15-15h180c8.271,0,15,6.729,15,15
					v235C210.758,339.918,204.029,346.646,195.758,346.646z M15.758,91.646c-2.757,0-5,2.243-5,5v235c0,2.757,2.243,5,5,5h180
					c2.757,0,5-2.243,5-5v-235c0-2.757-2.243-5-5-5H15.758z"/>
			</g>
		</g>
		<g>
			<g>
				<path fill="#4D4DA8" d="M198.351,341.646c-4.074,0-7.407-4.5-7.407-10v-235c0-5.5,3.333-10,7.407-10c4.074,0,7.407,4.5,7.407,10
					v235C205.758,337.146,202.425,341.646,198.351,341.646z"/>
			</g>
		</g>
		<g>
			<rect x="25.758" y="106.645" fill="#FFFFFF" width="160" height="215"/>
			<path fill="#213B4D" d="M185.758,326.645h-160c-2.761,0-5-2.238-5-5v-215c0-2.761,2.239-5,5-5h160c2.761,0,5,2.239,5,5v215
				C190.758,324.406,188.519,326.645,185.758,326.645z M30.758,316.645h150v-205h-150V316.645z"/>
		</g>
		<g>
			<rect x="171.443" y="106.643" fill="#E6E6E6" width="14.314" height="215"/>
		</g>
		<g>
			<g>
				<path fill="#D2D2FF" d="M126.002,227.308H58.33c-2.761,0-5-2.239-5-5s2.239-5,5-5h67.672c2.761,0,5,2.239,5,5
					S128.763,227.308,126.002,227.308z"/>
			</g>
			<g>
				<path fill="#D2D2FF" d="M153.393,271.972H58.33c-2.761,0-5-2.239-5-5s2.239-5,5-5h95.063c2.761,0,5,2.239,5,5
					S156.154,271.972,153.393,271.972z"/>
			</g>
			<g>
				<path fill="#D2D2FF" d="M153.393,249.64H58.33c-2.761,0-5-2.239-5-5s2.239-5,5-5h95.063c2.761,0,5,2.239,5,5
					S156.154,249.64,153.393,249.64z"/>
			</g>
			<g>
				<path fill="#D2D2FF" d="M134.059,294.305H58.33c-2.761,0-5-2.238-5-5s2.239-5,5-5h75.729c2.761,0,5,2.238,5,5
					S136.82,294.305,134.059,294.305z"/>
			</g>
			<g>
				<g>
					<rect x="53.498" y="148.317" fill="#A4A4FF" width="25.494" height="48.551"/>
				</g>
				<g>
					<rect x="78.992" y="165.587" fill="#D2D2FF" width="25.494" height="31.281"/>
				</g>
				<g>
					<rect x="129.98" y="165.587" fill="#D2D2FF" width="25.494" height="31.281"/>
				</g>
				<g>
					<rect x="104.486" y="136.647" fill="#A4A4FF" width="25.494" height="60.221"/>
				</g>
			</g>
		</g>
		<g>
			<g>
				<path fill="#213B4D" d="M195.758,346.646h-180c-8.271,0-15-6.729-15-15v-235c0-8.271,6.729-15,15-15h180c8.271,0,15,6.729,15,15
					v235C210.758,339.918,204.029,346.646,195.758,346.646z M15.758,91.646c-2.757,0-5,2.243-5,5v235c0,2.757,2.243,5,5,5h180
					c2.757,0,5-2.243,5-5v-235c0-2.757-2.243-5-5-5H15.758z"/>
			</g>
		</g>
		<g>
			<path fill="#213B4D" d="M185.758,326.645h-160c-2.761,0-5-2.238-5-5v-215c0-2.761,2.239-5,5-5h160c2.761,0,5,2.239,5,5v215
				C190.758,324.406,188.519,326.645,185.758,326.645z M30.758,316.645h150v-205h-150V316.645z"/>
		</g>
	</g>
	<g>
		<g>
			<g>
				<path fill="#7575FF" d="M679.786,271.976c-5.5,0-10-4.5-10-10V96.647c0-5.5,4.5-10,10-10h89.512c5.5,0,10,4.5,10,10v165.329
					c0,5.5-4.5,10-10,10H679.786z"/>
			</g>
			<g>
				<path fill="#213B4D" d="M769.297,276.976h-89.512c-8.271,0-15-6.729-15-15V96.647c0-8.271,6.729-15,15-15h89.512
					c8.271,0,15,6.729,15,15v165.329C784.297,270.247,777.569,276.976,769.297,276.976z M679.786,91.647c-2.757,0-5,2.243-5,5
					v165.329c0,2.757,2.243,5,5,5h89.512c2.757,0,5-2.243,5-5V96.647c0-2.757-2.243-5-5-5H679.786z"/>
			</g>
		</g>
		<g>
			<g>
				<path fill="#4D4DA8" d="M773.153,271.974c-3.379,0-6.145-4.5-6.145-10V96.645c0-5.5,2.766-10,6.145-10s6.143,4.5,6.143,10
					v165.329C779.295,267.474,776.532,271.974,773.153,271.974z"/>
			</g>
		</g>
		<g>
			<rect x="686.633" y="103.917" fill="#FFFFFF" width="75.816" height="134.784"/>
			<path fill="#213B4D" d="M762.45,243.701h-75.816c-2.762,0-5-2.239-5-5V103.917c0-2.761,2.238-5,5-5h75.816c2.762,0,5,2.239,5,5
				v134.784C767.45,241.462,765.211,243.701,762.45,243.701z M691.633,233.701h65.816V108.917h-65.816V233.701z"/>
		</g>
		<g>
			<rect x="750.51" y="103.915" fill="#E6E6E6" width="11.938" height="134.784"/>
		</g>
		<g>
			<path fill="#213B4D" d="M762.45,260.267h-75.816c-2.762,0-5-2.239-5-5s2.238-5,5-5h75.816c2.762,0,5,2.239,5,5
				S765.211,260.267,762.45,260.267z"/>
		</g>
		<g>
			<g>
				<path fill="#D2D2FF" d="M745.899,170.811h-43.326c-1.381,0-2.5-1.119-2.5-2.5s1.119-2.5,2.5-2.5h43.326
					c1.381,0,2.5,1.119,2.5,2.5S747.28,170.811,745.899,170.811z"/>
			</g>
			<g>
				<path fill="#D2D2FF" d="M745.897,195.894h-43.324c-1.381,0-2.5-1.119-2.5-2.5s1.119-2.5,2.5-2.5h43.324
					c1.381,0,2.5,1.119,2.5,2.5S747.278,195.894,745.897,195.894z"/>
			</g>
			<g>
				<path fill="#D2D2FF" d="M740.209,183.353h-37.637c-1.381,0-2.5-1.119-2.5-2.5s1.119-2.5,2.5-2.5h37.637
					c1.381,0,2.5,1.119,2.5,2.5S741.59,183.353,740.209,183.353z"/>
			</g>
			<g>
				<path fill="#D2D2FF" d="M745.897,220.978h-43.324c-1.381,0-2.5-1.119-2.5-2.5s1.119-2.5,2.5-2.5h43.324
					c1.381,0,2.5,1.119,2.5,2.5S747.278,220.978,745.897,220.978z"/>
			</g>
			<g>
				<path fill="#D2D2FF" d="M737.084,208.436h-34.512c-1.381,0-2.5-1.119-2.5-2.5s1.119-2.5,2.5-2.5h34.512
					c1.381,0,2.5,1.119,2.5,2.5S738.465,208.436,737.084,208.436z"/>
			</g>
			<g>
				<g>
					<rect x="703.184" y="125.112" fill="#A4A4FF" width="10.68" height="29.566"/>
				</g>
				<g>
					<rect x="713.864" y="135.629" fill="#D2D2FF" width="10.678" height="19.05"/>
				</g>
				<g>
					<rect x="735.219" y="135.629" fill="#D2D2FF" width="10.678" height="19.05"/>
				</g>
				<g>
					<rect x="724.542" y="118.006" fill="#A4A4FF" width="10.678" height="36.673"/>
				</g>
			</g>
		</g>
		<g>
			<g>
				<path fill="#213B4D" d="M769.297,276.976h-89.512c-8.271,0-15-6.729-15-15V96.647c0-8.271,6.729-15,15-15h89.512
					c8.271,0,15,6.729,15,15v165.329C784.297,270.247,777.569,276.976,769.297,276.976z M679.786,91.647c-2.757,0-5,2.243-5,5
					v165.329c0,2.757,2.243,5,5,5h89.512c2.757,0,5-2.243,5-5V96.647c0-2.757-2.243-5-5-5H679.786z"/>
			</g>
		</g>
		<g>
			<path fill="#213B4D" d="M762.45,243.701h-75.816c-2.762,0-5-2.239-5-5V103.917c0-2.761,2.238-5,5-5h75.816c2.762,0,5,2.239,5,5
				v134.784C767.45,241.462,765.211,243.701,762.45,243.701z M691.633,233.701h65.816V108.917h-65.816V233.701z"/>
		</g>
	</g>
	<g>
		<g>
			<g>
				<path fill="#7575FF" d="M630.506,433.792c0,5.5-4.5,10-10,10H256.844c-5.5,0-10-4.5-10-10V198.019c0-5.5,4.5-10,10-10h363.663
					c5.5,0,10,4.5,10,10V433.792z"/>
			</g>
			<g>
				<path fill="#213B4D" d="M620.506,448.792H256.844c-8.271,0-15-6.729-15-15V198.019c0-8.271,6.729-15,15-15h363.663
					c8.271,0,15,6.729,15,15v235.773C635.506,442.062,628.778,448.792,620.506,448.792z M256.844,193.019c-2.757,0-5,2.243-5,5
					v235.773c0,2.757,2.243,5,5,5h363.663c2.757,0,5-2.243,5-5V198.019c0-2.757-2.243-5-5-5H256.844z"/>
			</g>
		</g>
		<g>
			<g>
				<path fill="#4D4DA8" d="M630.506,433.792c0,5.5-4.152,10-9.229,10c-5.078,0-9.23-4.5-9.23-10V198.019c0-5.5,4.152-10,9.23-10
					c5.076,0,9.229,4.5,9.229,10V433.792z"/>
			</g>
		</g>
		<g>
			<rect x="268.16" y="209.333" fill="#FFFFFF" width="341.032" height="213.145"/>
			<path fill="#213B4D" d="M609.192,427.478H268.16c-2.761,0-5-2.238-5-5V209.333c0-2.761,2.239-5,5-5h341.032c2.762,0,5,2.239,5,5
				v213.145C614.192,425.239,611.954,427.478,609.192,427.478z M273.16,417.478h331.032V214.333H273.16V417.478z"/>
		</g>
		<g>
			<rect x="594.161" y="209.333" fill="#E6E6E6" width="15.031" height="213.145"/>
		</g>
		<g>
			<rect x="201.844" y="481.894" fill="#7575FF" width="473.663" height="19.853"/>
			<path fill="#213B4D" d="M675.506,506.746H201.844c-2.761,0-5-2.238-5-5v-19.853c0-2.762,2.239-5,5-5h473.663c2.762,0,5,2.238,5,5
				v19.853C680.506,504.508,678.268,506.746,675.506,506.746z M206.844,496.746h463.663v-9.853H206.844V496.746z"/>
		</g>
		<g>
			<rect x="648.28" y="481.894" fill="#4D4DA8" width="27.227" height="19.853"/>
		</g>
		<g>
			<polygon fill="#A4A4FF" points="675.506,480.274 201.844,480.274 246.844,442.921 630.506,442.921 			"/>
			<path fill="#213B4D" d="M675.526,485.274c-0.004,0-0.012,0-0.02,0H201.844c-2.107,0-3.988-1.32-4.703-3.303
				c-0.715-1.981-0.111-4.199,1.51-5.545l45-37.354c0.897-0.744,2.027-1.152,3.193-1.152h383.663c1.166,0,2.296,0.408,3.193,1.152
				l44.733,37.132c1.268,0.907,2.093,2.392,2.093,4.069C680.526,483.036,678.288,485.274,675.526,485.274z M215.696,475.274h445.959
				l-32.953-27.354H248.648L215.696,475.274z"/>
		</g>
		<g>
			<polygon fill="#7575FF" points="675.506,480.274 646.444,480.274 612.049,442.921 630.506,442.921 			"/>
		</g>
		<g>
			<g>
				<path fill="#D2D2FF" d="M562.278,331.984h-93.74c-2.762,0-5-2.238-5-5s2.238-5,5-5h93.74c2.762,0,5,2.238,5,5
					S565.04,331.984,562.278,331.984z"/>
			</g>
			<g>
				<path fill="#D2D2FF" d="M550.561,357.643h-82.023c-2.762,0-5-2.238-5-5s2.238-5,5-5h82.023c2.762,0,5,2.238,5,5
					S553.323,357.643,550.561,357.643z"/>
			</g>
			<g>
				<path fill="#D2D2FF" d="M562.278,255.015h-93.74c-2.762,0-5-2.239-5-5s2.238-5,5-5h93.74c2.762,0,5,2.239,5,5
					S565.04,255.015,562.278,255.015z"/>
			</g>
			<g>
				<path fill="#D2D2FF" d="M550.561,306.327h-82.023c-2.762,0-5-2.238-5-5s2.238-5,5-5h82.023c2.762,0,5,2.238,5,5
					S553.323,306.327,550.561,306.327z"/>
			</g>
			<g>
				<path fill="#D2D2FF" d="M534.584,280.671h-66.047c-2.762,0-5-2.238-5-5s2.238-5,5-5h66.047c2.762,0,5,2.238,5,5
					S537.346,280.671,534.584,280.671z"/>
			</g>
			<g>
				<path fill="#D2D2FF" d="M531.206,383.298h-62.668c-2.762,0-5-2.238-5-5s2.238-5,5-5h62.668c2.762,0,5,2.238,5,5
					S533.967,383.298,531.206,383.298z"/>
			</g>
			<g>
				<g>
					<rect x="319.961" y="271.405" fill="#A4A4FF" width="27.15" height="112.328"/>
				</g>
				<g>
					<rect x="347.111" y="311.359" fill="#D2D2FF" width="27.149" height="72.373"/>
				</g>
				<g>
					<rect x="401.413" y="311.359" fill="#D2D2FF" width="27.146" height="72.373"/>
				</g>
				<g>
					<rect x="374.262" y="244.407" fill="#A4A4FF" width="27.151" height="139.325"/>
				</g>
			</g>
		</g>
		<g>
			<g>
				<path fill="#213B4D" d="M620.506,448.792H256.844c-8.271,0-15-6.729-15-15V198.019c0-8.271,6.729-15,15-15h363.663
					c8.271,0,15,6.729,15,15v235.773C635.506,442.062,628.778,448.792,620.506,448.792z M256.844,193.019c-2.757,0-5,2.243-5,5
					v235.773c0,2.757,2.243,5,5,5h363.663c2.757,0,5-2.243,5-5V198.019c0-2.757-2.243-5-5-5H256.844z"/>
			</g>
		</g>
		<g>
			<path fill="#213B4D" d="M609.192,427.478H268.16c-2.761,0-5-2.238-5-5V209.333c0-2.761,2.239-5,5-5h341.032c2.762,0,5,2.239,5,5
				v213.145C614.192,425.239,611.954,427.478,609.192,427.478z M273.16,417.478h331.032V214.333H273.16V417.478z"/>
		</g>
		<g>
			<path fill="#213B4D" d="M675.506,506.746H201.844c-2.761,0-5-2.238-5-5v-19.853c0-2.762,2.239-5,5-5h473.663c2.762,0,5,2.238,5,5
				v19.853C680.506,504.508,678.268,506.746,675.506,506.746z M206.844,496.746h463.663v-9.853H206.844V496.746z"/>
		</g>
		<g>
			<path fill="#213B4D" d="M675.526,485.274c-0.004,0-0.012,0-0.02,0H201.844c-2.107,0-3.988-1.32-4.703-3.303
				c-0.715-1.981-0.111-4.199,1.51-5.545l45-37.354c0.897-0.744,2.027-1.152,3.193-1.152h383.663c1.166,0,2.296,0.408,3.193,1.152
				l44.733,37.132c1.268,0.907,2.093,2.392,2.093,4.069C680.526,483.036,678.288,485.274,675.526,485.274z M215.696,475.274h445.959
				l-32.953-27.354H248.648L215.696,475.274z"/>
		</g>
	</g>
</g>
</svg>
