<?xml version="1.0" encoding="utf-8"?>
<!-- Generator: Adobe Illustrator 16.0.4, SVG Export Plug-In . SVG Version: 6.00 Build 0)  -->
<!DOCTYPE svg PUBLIC "-//W3C//DTD SVG 1.1//EN" "http://www.w3.org/Graphics/SVG/1.1/DTD/svg11.dtd">
<svg version="1.1" id="Layer_1" xmlns="http://www.w3.org/2000/svg" xmlns:xlink="http://www.w3.org/1999/xlink" x="0px" y="0px"
	 width="40px" height="40px" viewBox="0 0 40 40" enable-background="new 0 0 40 40" xml:space="preserve">
<g>
	<path fill="#6C7680" d="M20,34c-2.209,0-4-1.789-4-3.998S17.791,26,20,26s4,1.793,4,4.002S22.209,34,20,34 M17.395,20.734
		L16.02,10.232h0.043L16.02,9.82c0-2.162,1.793-3.92,4-3.92c2.211,0,4,1.758,4,3.92l-0.041,0.412H24l-1.352,10.502h-0.008
		c-0.217,1.229-1.305,2.166-2.621,2.166s-2.402-0.938-2.619-2.166H17.395 M20,0C8.953,0,0,8.955,0,20s8.953,20,20,20s20-8.955,20-20
		S31.047,0,20,0"/>
</g>
</svg>
