<?xml version="1.0" standalone="no"?>
<!DOCTYPE svg PUBLIC "-//W3C//DTD SVG 1.1//EN" "http://www.w3.org/Graphics/SVG/1.1/DTD/svg11.dtd">
<svg width="100%" height="100%" viewBox="0 0 690 699" version="1.1" xmlns="http://www.w3.org/2000/svg" xmlns:xlink="http://www.w3.org/1999/xlink" xml:space="preserve" style="fill-rule:evenodd;clip-rule:evenodd;stroke-linejoin:round;stroke-miterlimit:1.41421;">
    <g transform="matrix(1,0,0,1,-138.916,-146.369)">
        <path d="M283.71,445.849C283.71,445.849 297.184,332.803 422.298,299.984C547.412,267.165 689.85,354.683 695.625,480.492C701.399,606.299 601.309,741.224 437.697,704.758C437.697,704.758 260.611,644.588 283.71,445.849" style="fill:rgb(255,241,104);fill-rule:nonzero;"/>
        <path d="M695.385,497.592C695.385,497.592 695.348,496.28 695.278,493.737C695.242,492.464 695.198,490.885 695.147,489.008C695.106,488.071 695.123,487.055 695.031,485.973C694.946,484.89 694.856,483.734 694.758,482.507C694.098,472.703 692.485,458.241 687.41,440.566C686.766,438.363 686.104,436.101 685.424,433.781C684.633,431.497 683.824,429.155 682.996,426.759C682.209,424.347 681.188,421.959 680.192,419.502C679.176,417.053 678.231,414.513 677.01,412.03C672.535,401.921 666.76,391.406 659.645,380.824C652.533,370.242 643.99,359.637 633.93,349.509C623.869,339.389 612.295,329.736 599.227,321.166C586.137,312.641 571.604,305.143 555.848,299.263C540.1,293.365 523.069,289.332 505.328,287.303C503.112,286.977 500.892,286.866 498.665,286.695C496.433,286.538 494.21,286.347 491.953,286.216C489.664,286.164 487.367,286.111 485.062,286.059C483.911,286.032 482.757,286.006 481.601,285.98C481.396,285.978 481.393,285.969 481.236,285.976L480.808,285.988L479.951,286.012L478.235,286.061C475.945,286.119 473.648,286.178 471.345,286.237C469.043,286.321 466.742,286.561 464.43,286.716C459.797,286.961 455.185,287.669 450.533,288.236C441.28,289.688 431.954,291.49 422.787,294.239C418.154,295.444 413.647,297.129 409.055,298.621C406.79,299.453 404.55,300.368 402.287,301.24L398.896,302.567L395.567,304.061C377.712,311.863 360.708,322.41 345.269,335.23C343.367,336.867 341.463,338.507 339.555,340.148C337.671,341.815 335.884,343.596 334.038,345.318C333.126,346.19 332.196,347.045 331.297,347.933L328.671,350.671L326.041,353.413C325.16,354.325 324.275,355.234 323.46,356.207C321.792,358.12 320.122,360.036 318.45,361.954C316.795,363.886 315.271,365.931 313.672,367.917C312.885,368.921 312.08,369.911 311.305,370.926L309.073,374.041L306.833,377.156C306.082,378.193 305.327,379.228 304.651,380.317C281.687,414.291 268.721,455.747 268.432,497.593C268.493,508.045 269.064,518.504 270.517,528.861C270.839,531.455 271.367,534.015 271.781,536.595L272.443,540.457L273.292,544.281C273.885,546.824 274.38,549.39 275.051,551.912L277.139,559.455C277.468,560.718 277.883,561.955 278.305,563.187L279.549,566.894L280.792,570.597C281.231,571.824 281.731,573.027 282.197,574.242C283.164,576.658 284.052,579.105 285.082,581.492C286.147,583.863 287.211,586.232 288.275,588.601C288.784,589.797 289.37,590.955 289.967,592.105L291.731,595.572L293.494,599.037C294.108,600.177 294.772,601.291 295.407,602.418C296.71,604.654 297.934,606.935 299.299,609.129C300.688,611.308 302.075,613.486 303.462,615.66C304.135,616.761 304.885,617.81 305.633,618.859L307.864,622.013L310.101,625.158C310.88,626.181 311.689,627.179 312.48,628.191C314.089,630.193 315.621,632.256 317.285,634.203C318.967,636.136 320.646,638.068 322.323,639.998C329.22,647.539 336.473,654.707 344.296,661.115C359.857,674.019 377.065,684.509 395.063,692.261L398.42,693.744L401.838,695.06C404.119,695.925 406.377,696.832 408.66,697.656C413.284,699.134 417.826,700.797 422.494,701.967C431.729,704.654 441.113,706.39 450.413,707.773C455.087,708.304 459.731,708.976 464.352,709.183C466.668,709.32 468.948,709.541 471.272,709.609C473.604,709.65 475.93,709.691 478.249,709.734C479.384,709.75 480.622,709.799 481.666,709.789C482.81,709.754 483.953,709.72 485.093,709.685C487.375,709.617 489.649,709.55 491.916,709.482C494.178,709.336 496.429,709.127 498.676,708.955C500.92,708.765 503.162,708.636 505.375,708.295C523.139,706.17 540.18,702.084 555.928,696.134C571.686,690.207 586.209,682.668 599.295,674.121C612.35,665.517 623.928,655.861 633.983,645.728C644.041,635.59 652.571,624.97 659.684,614.386C666.799,603.802 672.574,593.283 677.047,583.172C678.27,580.687 679.213,578.146 680.229,575.697C681.225,573.24 682.244,570.851 683.033,568.439C683.862,566.043 684.67,563.699 685.457,561.414C686.137,559.093 686.799,556.832 687.444,554.629C692.514,536.951 694.115,522.478 694.77,512.683C694.865,511.457 694.955,510.3 695.039,509.218C695.129,508.136 695.114,507.119 695.153,506.181C695.203,504.302 695.246,502.72 695.28,501.447C695.35,498.901 695.385,497.586 695.385,497.586L695.385,497.592ZM695.885,497.599C695.885,497.599 695.854,498.913 695.793,501.461C695.764,502.734 695.727,504.314 695.682,506.195C695.647,507.134 695.666,508.148 695.58,509.236C695.5,510.322 695.414,511.482 695.323,512.713C694.698,522.558 693.108,537.039 688.289,554.861C687.668,557.082 687.031,559.363 686.377,561.703C685.614,564.008 684.83,566.371 684.028,568.789C683.287,571.23 682.317,573.652 681.367,576.144C680.399,578.629 679.502,581.209 678.326,583.732C674.043,594.006 668.451,604.73 661.494,615.576C654.533,626.412 646.156,637.357 636.184,647.863C631.223,653.14 625.801,658.236 620.051,663.224C618.653,664.521 617.114,665.664 615.627,666.884C614.123,668.09 612.612,669.302 611.092,670.519C609.543,671.699 607.934,672.816 606.344,673.978C604.737,675.115 603.166,676.326 601.502,677.418C594.865,681.808 587.969,686.148 580.58,689.914C578.739,690.861 576.885,691.814 575.026,692.771C573.121,693.638 571.209,694.509 569.287,695.386C565.483,697.222 561.471,698.675 557.49,700.291C555.512,701.133 553.438,701.744 551.397,702.47C549.344,703.162 547.295,703.898 545.207,704.543C543.106,705.136 540.994,705.734 538.877,706.334C537.817,706.633 536.756,706.933 535.692,707.234C534.621,707.506 533.537,707.736 532.457,707.99C530.295,708.488 528.125,708.986 525.946,709.486C523.764,709.974 521.541,710.299 519.328,710.713C518.221,710.91 517.11,711.107 515.996,711.304L514.326,711.601L512.641,711.814C510.391,712.092 508.133,712.371 505.867,712.65C503.606,712.976 501.315,713.09 499.024,713.261C496.731,713.418 494.433,713.607 492.125,713.736C489.812,713.785 487.493,713.834 485.167,713.881C484.004,713.906 482.839,713.929 481.672,713.953C480.405,713.949 479.328,713.892 478.144,713.865C475.826,713.789 473.502,713.715 471.17,713.638C468.832,713.533 466.452,713.267 464.086,713.088C459.326,712.793 454.63,712.033 449.883,711.412C440.444,709.847 430.941,707.922 421.611,705.037C416.895,703.771 412.312,702.008 407.653,700.425C405.353,699.55 403.079,698.592 400.784,697.675L397.345,696.283L393.97,694.722C375.869,686.568 358.733,675.607 343.147,662.486C341.23,660.808 339.31,659.127 337.387,657.443C335.488,655.736 333.69,653.912 331.828,652.152C330.907,651.263 329.967,650.39 329.059,649.484L326.407,646.693L323.752,643.898C322.864,642.968 321.97,642.043 321.148,641.05C314.247,633.396 308.039,625.09 302.175,616.517C300.766,614.334 299.357,612.146 297.947,609.959C296.561,607.756 295.316,605.465 293.992,603.217C293.345,602.086 292.671,600.967 292.047,599.82L290.252,596.34L288.456,592.853C287.848,591.695 287.252,590.531 286.732,589.33C285.648,586.947 284.563,584.564 283.477,582.177C282.427,579.777 281.518,577.314 280.531,574.883C280.054,573.66 279.544,572.449 279.094,571.217L277.822,567.486L276.549,563.754C276.116,562.513 275.692,561.267 275.353,559.996L273.146,552.412C272.434,549.877 271.897,547.295 271.263,544.734L270.352,540.884L269.629,536.994C269.174,534.394 268.605,531.812 268.243,529.195C266.629,518.748 265.903,508.175 265.695,497.593L265.831,489.67C265.872,488.353 265.836,487.047 265.94,485.72L266.209,481.745L266.48,477.77L266.615,475.781C266.668,475.12 266.764,474.466 266.837,473.808L267.776,465.921C268.099,463.294 268.631,460.698 269.049,458.085L269.716,454.171L270.572,450.296C271.169,447.72 271.67,445.119 272.346,442.563L274.454,434.918C274.784,433.637 275.201,432.384 275.625,431.133L276.875,427.374L278.125,423.617C278.567,422.374 279.07,421.154 279.539,419.921C280.512,417.47 281.407,414.987 282.444,412.565C283.517,410.158 284.589,407.754 285.66,405.35C286.175,404.138 286.764,402.963 287.366,401.793L289.145,398.274L290.924,394.757C291.543,393.6 292.212,392.47 292.853,391.325C294.168,389.055 295.404,386.739 296.781,384.511C298.183,382.298 299.584,380.087 300.984,377.878C301.664,376.759 302.422,375.695 303.177,374.628L305.43,371.424L307.687,368.226C308.47,367.185 309.286,366.168 310.083,365.138C311.704,363.099 313.25,361.002 314.928,359.018C316.624,357.049 318.318,355.081 320.01,353.116C320.838,352.117 321.737,351.183 322.63,350.245L325.3,347.427L327.968,344.613C328.881,343.699 329.826,342.82 330.753,341.922C332.628,340.151 334.446,338.321 336.362,336.604C338.302,334.914 340.239,333.226 342.173,331.54C357.881,318.335 375.22,307.432 393.466,299.327L396.868,297.778L400.334,296.395C402.647,295.487 404.939,294.536 407.256,293.67C411.948,292.1 416.567,290.361 421.318,289.129C430.716,286.305 440.276,284.446 449.762,282.952C454.531,282.366 459.26,281.641 464.008,281.384C466.377,281.223 468.736,280.977 471.096,280.889C473.457,280.83 475.811,280.771 478.157,280.713L479.917,280.673L480.795,280.653L481.233,280.643C481.366,280.636 481.651,280.649 481.736,280.65C482.891,280.682 484.045,280.714 485.197,280.746C487.501,280.81 489.798,280.874 492.087,280.938C494.401,281.081 496.727,281.288 499.034,281.461C501.342,281.65 503.655,281.781 505.912,282.123C508.182,282.417 510.442,282.71 512.694,283.002L514.383,283.222L516.055,283.524C517.168,283.726 518.28,283.927 519.389,284.128C521.604,284.551 523.83,284.883 526.012,285.378C528.194,285.887 530.365,286.394 532.53,286.899C533.61,287.156 534.694,287.392 535.766,287.667C536.83,287.971 537.891,288.276 538.951,288.579C541.071,289.187 543.182,289.792 545.283,290.395C547.371,291.046 549.42,291.79 551.475,292.487C553.516,293.218 555.59,293.835 557.571,294.682C573.633,300.859 588.399,308.7 601.571,317.666C603.233,318.762 604.801,319.976 606.408,321.116C607.998,322.28 609.606,323.403 611.155,324.584C612.672,325.805 614.184,327.018 615.686,328.225C617.174,329.449 618.711,330.593 620.11,331.89C625.858,336.885 631.278,341.988 636.237,347.27C646.207,357.787 654.572,368.744 661.535,379.583C668.49,390.431 674.082,401.159 678.365,411.436C679.539,413.961 680.436,416.54 681.405,419.026C682.354,421.519 683.324,423.94 684.065,426.383C684.867,428.802 685.649,431.166 686.412,433.472C687.067,435.812 687.701,438.092 688.323,440.314C693.139,458.139 694.717,472.63 695.332,482.467C695.422,483.697 695.508,484.857 695.588,485.943C695.674,487.029 695.653,488.046 695.688,488.987C695.731,490.867 695.768,492.451 695.797,493.727C695.854,496.277 695.885,497.592 695.885,497.592L695.885,497.599Z" style="fill:rgb(53,53,53);fill-rule:nonzero;"/>
        <path d="M412.551,541.846C412.822,583.313 446.509,616.846 488.038,616.846C529.568,616.846 563.256,583.313 563.525,541.846L412.551,541.846Z" style="fill:rgb(147,79,146);fill-rule:nonzero;"/>
        <path d="M551.539,583.514C551.539,583.514 535.539,564.18 504.205,560.846C472.872,557.514 458.872,557.514 426.206,585.514C426.206,585.514 442.205,608.18 477.539,616.846C477.539,616.846 523.539,622.846 551.539,583.514" style="fill:rgb(255,77,77);fill-rule:nonzero;"/>
        <path d="M665.076,533.385C665.076,544.856 648.89,554.155 628.924,554.155C608.955,554.155 592.769,544.856 592.769,533.385C592.769,521.914 608.955,512.615 628.924,512.615C648.89,512.615 665.076,521.914 665.076,533.385" style="fill:rgb(255,137,137);fill-rule:nonzero;"/>
        <path d="M384.308,535.691C384.308,547.162 368.121,556.461 348.155,556.461C328.187,556.461 312,547.162 312,535.691C312,524.22 328.187,514.921 348.155,514.921C368.121,514.921 384.308,524.22 384.308,535.691" style="fill:rgb(255,137,137);fill-rule:nonzero;"/>
        <path d="M354.063,472.567C354.063,472.567 353.981,470.825 354.508,467.863C354.769,466.382 355.184,464.597 355.841,462.598C356.504,460.603 357.414,458.391 358.664,456.094C359.926,453.811 361.487,451.396 363.576,449.198C365.653,446.992 368.288,445.082 371.177,443.547C374.073,442.009 377.158,440.771 380.337,439.703C381.14,439.454 381.934,439.165 382.758,438.97C383.574,438.741 384.391,438.49 385.231,438.34C386.063,438.152 386.897,437.921 387.748,437.808C388.611,437.675 389.404,437.453 390.368,437.391C393.912,437.125 397.467,437.437 400.828,438.431C404.183,439.401 407.37,440.838 410.196,442.654C413.046,444.433 415.495,446.631 417.473,448.964C419.471,451.291 420.976,453.758 422.21,456.073C423.43,458.404 424.278,460.645 424.934,462.643C425.563,464.652 425.99,466.426 426.249,467.902C426.56,469.364 426.645,470.545 426.744,471.335C426.818,472.129 426.858,472.552 426.858,472.552L426.374,472.679C426.374,472.679 426.184,472.3 425.828,471.59C425.471,470.883 425.022,469.828 424.343,468.539C423.996,467.897 423.684,467.164 423.26,466.404C422.848,465.645 422.402,464.826 421.924,463.949C420.907,462.243 419.816,460.308 418.394,458.381C415.664,454.454 411.965,450.382 407.281,446.956C406.124,446.074 404.845,445.327 403.55,444.566C402.234,443.841 400.848,443.202 399.417,442.622C396.551,441.528 393.481,440.527 390.344,440.129C389.637,440.025 388.772,440.076 387.972,440.048C387.156,440.029 386.352,440.119 385.541,440.178C383.929,440.351 382.327,440.645 380.798,441.142C377.715,442.066 374.952,443.741 372.683,445.74C370.404,447.744 368.584,450 366.874,452.098C365.175,454.212 363.62,456.263 362.312,458.275C360.991,460.276 359.872,462.194 358.917,463.93C357.957,465.665 357.166,467.219 356.523,468.516C355.249,471.115 354.553,472.665 354.553,472.665L354.063,472.567Z" style="fill:rgb(147,79,146);fill-rule:nonzero;"/>
        <path d="M555.217,465.593C555.217,465.593 555.135,463.851 555.662,460.889C555.924,459.408 556.338,457.623 556.996,455.624C557.658,453.629 558.569,451.417 559.819,449.12C561.08,446.837 562.641,444.422 564.731,442.224C566.807,440.018 569.442,438.108 572.332,436.573C575.227,435.035 578.313,433.797 581.492,432.729C582.295,432.48 583.088,432.191 583.912,431.996C584.729,431.767 585.545,431.516 586.385,431.366C587.217,431.178 588.051,430.947 588.903,430.834C589.766,430.701 590.559,430.479 591.522,430.417C595.067,430.151 598.621,430.463 601.983,431.457C605.338,432.427 608.524,433.864 611.35,435.68C614.201,437.459 616.649,439.657 618.627,441.99C620.625,444.317 622.131,446.784 623.365,449.099C624.584,451.43 625.432,453.671 626.088,455.669C626.717,457.678 627.145,459.452 627.403,460.928C627.715,462.39 627.799,463.571 627.899,464.361C627.973,465.155 628.012,465.578 628.012,465.578L627.528,465.705C627.528,465.705 627.338,465.326 626.983,464.616C626.625,463.909 626.176,462.854 625.498,461.565C625.151,460.923 624.838,460.19 624.414,459.43C624.002,458.671 623.557,457.852 623.078,456.975C622.061,455.269 620.971,453.334 619.549,451.407C616.819,447.48 613.119,443.408 608.436,439.982C607.278,439.1 606,438.353 604.705,437.592C603.389,436.867 602.002,436.228 600.572,435.648C597.705,434.554 594.635,433.553 591.498,433.155C590.791,433.051 589.926,433.102 589.127,433.074C588.311,433.055 587.506,433.145 586.696,433.204C585.084,433.377 583.481,433.671 581.953,434.168C578.869,435.092 576.106,436.767 573.838,438.766C571.559,440.77 569.738,443.026 568.028,445.124C566.33,447.238 564.774,449.289 563.467,451.301C562.145,453.302 561.026,455.22 560.072,456.956C559.112,458.691 558.321,460.245 557.678,461.542C556.403,464.141 555.707,465.691 555.707,465.691L555.217,465.593Z" style="fill:rgb(147,79,146);fill-rule:nonzero;"/>
        <path d="M594.24,539.036C594.24,539.036 593.913,538.338 593.576,536.948C593.249,535.562 592.942,533.448 593.228,530.76C593.503,528.083 594.573,524.84 596.8,521.767C598.993,518.675 602.316,515.852 606.336,513.602C610.366,511.35 615.025,509.541 620.131,508.309L621.079,508.083L622.075,507.915C622.741,507.807 623.413,507.696 624.088,507.586C624.762,507.505 625.442,507.469 626.125,507.407C626.806,507.345 627.492,507.294 628.184,507.303C630.95,507.181 633.77,507.456 636.594,507.861C642.232,508.807 647.879,510.694 653.113,513.574C655.739,514.993 658.266,516.669 660.555,518.658C662.87,520.613 664.991,522.852 666.691,525.423C668.383,527.978 669.704,530.901 670.01,534.057C670.334,537.195 669.583,540.463 667.919,543.134C666.284,545.829 663.817,547.87 661.365,549.476C658.873,551.116 656.184,552.439 653.502,553.475C648.08,555.498 642.543,556.458 637.303,556.785C632.056,557.113 627.088,556.848 622.561,556.248C618.03,555.674 613.928,554.78 610.384,553.687C606.837,552.61 603.818,551.4 601.481,550.098C599.141,548.811 597.461,547.478 596.568,546.33C595.668,545.173 595.606,544.331 595.569,544.356L595.764,544.311C595.801,544.29 595.92,545.064 596.859,546.085C597.783,547.106 599.481,548.292 601.843,549.387C604.2,550.49 607.197,551.567 610.73,552.44C614.261,553.308 618.303,554.087 622.759,554.514C627.211,554.961 632.067,555.062 637.159,554.706C639.699,554.48 642.304,554.183 644.925,553.67C647.541,553.146 650.178,552.453 652.782,551.533C655.385,550.572 657.896,549.39 660.291,547.877C662.708,546.358 664.901,544.552 666.432,542.187C667.973,539.857 668.719,537.029 668.518,534.185C668.373,531.328 667.277,528.524 665.764,526.007C664.234,523.485 662.261,521.22 660.065,519.221C657.848,517.238 655.384,515.553 652.814,514.116C650.234,512.7 647.545,511.511 644.783,510.669C642.023,509.823 639.226,509.237 636.449,508.928C630.897,508.331 625.45,508.744 620.559,510.01C615.623,511.289 611.046,512.975 607.158,515.09C603.243,517.163 600.06,519.761 597.845,522.552C595.604,525.343 594.513,528.355 594.058,530.881C593.601,533.424 593.759,535.499 593.969,536.873C594.173,538.259 594.427,538.964 594.427,538.964L594.24,539.036Z" style="fill:rgb(147,79,146);fill-rule:nonzero;"/>
        <path d="M385.025,541.631C385.025,541.631 385.279,540.926 385.483,539.539C385.693,538.166 385.851,536.091 385.393,533.548C384.939,531.023 383.848,528.01 381.607,525.219C379.392,522.428 376.209,519.83 372.295,517.757C368.407,515.643 363.829,513.956 358.892,512.677C354.003,511.411 348.555,510.998 343.003,511.595C340.226,511.904 337.429,512.489 334.67,513.335C331.907,514.178 329.218,515.367 326.637,516.782C324.068,518.22 321.603,519.905 319.387,521.888C317.191,523.887 315.218,526.152 313.687,528.674C312.175,531.192 311.079,533.995 310.934,536.852C310.733,539.696 311.478,542.525 313.02,544.855C314.55,547.219 316.744,549.026 319.161,550.544C321.556,552.057 324.068,553.239 326.67,554.2C329.275,555.119 331.911,555.814 334.527,556.338C337.148,556.851 339.753,557.148 342.293,557.373C347.385,557.73 352.242,557.628 356.693,557.181C361.149,556.754 365.19,555.976 368.722,555.108C372.255,554.235 375.252,553.157 377.609,552.054C379.97,550.959 381.67,549.774 382.593,548.752C383.532,547.732 383.651,546.957 383.688,546.979L383.883,547.024C383.846,546.998 383.784,547.84 382.884,548.997C381.991,550.146 380.311,551.479 377.971,552.765C375.634,554.068 372.616,555.277 369.068,556.355C365.524,557.447 361.422,558.341 356.891,558.915C352.364,559.515 347.396,559.78 342.148,559.453C336.91,559.125 331.372,558.165 325.95,556.143C323.268,555.107 320.579,553.783 318.087,552.144C315.635,550.537 313.168,548.496 311.534,545.801C309.869,543.13 309.118,539.861 309.442,536.724C309.749,533.568 311.069,530.646 312.761,528.09C314.461,525.52 316.583,523.28 318.896,521.325C321.186,519.336 323.713,517.66 326.338,516.241C331.574,513.36 337.22,511.475 342.857,510.527C345.682,510.123 348.502,509.848 351.268,509.97C351.96,509.961 352.646,510.012 353.328,510.074C354.01,510.136 354.69,510.172 355.364,510.253C356.039,510.363 356.711,510.473 357.378,510.582L358.373,510.75L359.321,510.977C364.427,512.208 369.086,514.018 373.117,516.27C377.136,518.52 380.459,521.342 382.652,524.435C384.879,527.507 385.95,530.75 386.223,533.427C386.509,536.115 386.203,538.23 385.876,539.615C385.539,541.006 385.212,541.703 385.212,541.703L385.025,541.631Z" style="fill:rgb(147,79,146);fill-rule:nonzero;"/>
        <path d="M264.966,414.432C264.966,414.432 263.949,414.533 262.289,414.415C260.627,414.3 258.335,413.931 255.716,413.157C254.415,412.75 253.003,412.315 251.61,411.605C250.209,410.913 248.862,409.86 247.447,408.821C246.038,407.768 244.516,406.847 242.839,406.235C241.178,405.585 239.385,405.186 237.544,404.91C235.703,404.632 233.866,404.346 232.145,403.844C230.425,403.341 228.729,402.853 227.107,402.335C223.853,401.319 221.027,399.845 218.65,398.467C216.276,397.083 214.387,395.703 213.097,394.66C211.805,393.619 211.12,392.893 211.12,392.893L211.342,392.337C211.342,392.337 212.34,392.285 213.992,392.422C215.647,392.556 217.966,392.858 220.639,393.495C223.31,394.136 226.374,395.017 229.43,396.525C230.963,397.268 232.527,398.086 234.12,398.907C235.712,399.73 237.24,400.79 238.764,401.859C240.288,402.929 241.862,403.876 243.513,404.551C245.149,405.265 246.887,405.647 248.633,405.857C250.374,406.079 252.076,406.246 253.567,406.712C255.066,407.158 256.388,407.817 257.611,408.42C260.041,409.665 261.956,410.978 263.238,412.041C264.523,413.101 265.189,413.875 265.189,413.875L264.966,414.432Z" style="fill:rgb(255,241,104);fill-rule:nonzero;"/>
        <path d="M260.454,486.761C260.454,486.761 258.543,487.191 255.207,487.599C251.871,488.04 247.111,488.418 241.407,488.53C238.556,488.564 235.467,488.607 232.206,488.382C228.946,488.178 225.516,487.613 221.966,487.083C218.416,486.554 214.745,486.148 211.005,486.117C207.266,486.034 203.46,486.235 199.651,486.565C195.843,486.874 192.034,487.228 188.29,487.294C184.548,487.37 180.864,487.455 177.3,487.486C170.172,487.57 163.534,487.083 157.846,486.542C155.004,486.238 152.398,485.965 150.09,485.636C147.782,485.337 145.771,485.007 144.116,484.721C140.805,484.151 138.916,483.684 138.916,483.684L138.932,483.085C138.932,483.085 140.841,482.714 144.177,482.312C145.844,482.111 147.869,481.883 150.19,481.701C152.511,481.49 155.127,481.348 157.982,481.188C163.689,480.936 170.344,480.785 177.458,481.23C181.016,481.442 184.691,481.712 188.425,481.978C192.16,482.233 195.947,482.78 199.734,483.281C203.522,483.803 207.312,484.196 211.051,484.303C214.787,484.461 218.475,484.241 222.047,483.892C225.619,483.543 229.073,483.152 232.34,483.114C235.607,483.054 238.69,483.253 241.536,483.43C247.226,483.832 251.962,484.449 255.272,485.058C258.582,485.635 260.47,486.161 260.47,486.161L260.454,486.761Z" style="fill:rgb(255,241,104);fill-rule:nonzero;"/>
        <path d="M262.189,555.924C262.189,555.924 261.717,556.915 260.69,558.403C259.667,559.893 258.064,561.85 255.916,563.921C254.829,564.941 253.655,566.05 252.244,567.014C250.845,567.994 249.149,568.756 247.43,569.586C245.701,570.406 244.028,571.392 242.548,572.665C241.042,573.906 239.689,575.385 238.42,576.966C237.151,578.547 235.876,580.121 234.47,581.486C233.064,582.849 231.685,584.197 230.319,585.463C227.602,588.013 224.708,589.952 222.15,591.52C219.589,593.082 217.3,594.195 215.645,594.908C213.992,595.624 212.959,595.924 212.959,595.924L212.581,595.459C212.581,595.459 213.085,594.509 214.125,593.037C215.162,591.564 216.719,589.551 218.773,587.363C220.831,585.181 223.322,582.745 226.374,580.608C227.892,579.529 229.495,578.456 231.117,577.359C232.74,576.262 234.542,575.336 236.349,574.417C238.157,573.498 239.881,572.477 241.404,571.257C242.953,570.07 244.26,568.633 245.417,567.11C246.582,565.596 247.675,564.092 248.92,562.924C250.152,561.739 251.479,560.818 252.699,559.962C255.167,558.283 257.411,557.115 259.079,556.418C260.745,555.718 261.811,555.459 261.811,555.459L262.189,555.924Z" style="fill:rgb(255,241,104);fill-rule:nonzero;"/>
        <path d="M282.195,629.767C282.195,629.767 281.16,631.285 279.125,633.677C277.111,636.095 274.07,639.358 270.198,643.014C268.248,644.826 266.139,646.792 263.733,648.667C261.34,650.558 258.589,652.287 255.779,654.117C252.969,655.947 250.157,657.944 247.548,660.264C244.906,662.545 242.407,665.079 239.992,667.709C237.563,670.325 235.164,672.975 232.618,675.368C230.079,677.77 227.587,680.14 225.141,682.395C220.266,686.923 215.347,690.719 211.05,693.88C208.88,695.435 206.894,696.864 205.077,698.065C203.28,699.288 201.669,700.302 200.332,701.127C197.66,702.777 196.041,703.613 196.041,703.613L195.651,703.158C195.651,703.158 196.724,701.686 198.763,699.297C199.783,698.102 201.031,696.664 202.516,695.077C203.981,693.464 205.696,691.72 207.565,689.814C211.345,686.051 215.849,681.77 221.07,677.645C223.672,675.573 226.396,673.472 229.158,671.33C231.912,669.18 234.898,667.215 237.854,665.215C240.823,663.231 243.709,661.149 246.367,658.886C249.059,656.663 251.463,654.19 253.701,651.693C255.939,649.196 258.068,646.742 260.303,644.666C262.524,642.575 264.79,640.791 266.878,639.141C271.084,635.874 274.773,633.369 277.471,631.747C280.147,630.102 281.804,629.312 281.804,629.312L282.195,629.767Z" style="fill:rgb(255,241,104);fill-rule:nonzero;"/>
        <path d="M339.144,702.049C339.144,702.049 338.679,703.262 337.611,705.152C336.568,707.064 334.891,709.624 332.628,712.466C331.48,713.871 330.241,715.399 328.732,716.831C327.237,718.278 325.404,719.567 323.548,720.937C321.682,722.298 319.885,723.824 318.316,725.612C316.716,727.372 315.3,729.352 313.979,731.419C312.658,733.486 311.331,735.547 309.849,737.415C308.366,739.282 306.913,741.126 305.47,742.875C302.6,746.39 299.504,749.287 296.76,751.687C295.383,752.883 294.08,753.941 292.892,754.848C291.719,755.77 290.645,756.526 289.751,757.139C287.962,758.366 286.836,758.973 286.836,758.973L286.395,758.567C286.395,758.567 286.904,757.394 287.976,755.508C288.512,754.566 289.175,753.432 289.994,752.185C290.798,750.924 291.742,749.536 292.817,748.064C294.977,745.127 297.602,741.798 300.862,738.642C302.484,737.056 304.198,735.453 305.934,733.818C307.67,732.184 309.611,730.687 311.56,729.196C313.508,727.705 315.362,726.128 316.98,724.385C318.629,722.671 319.999,720.752 321.198,718.778C322.406,716.812 323.536,714.876 324.851,713.266C326.151,711.641 327.568,710.278 328.872,709.015C331.513,706.52 333.923,704.633 335.74,703.432C337.533,702.209 338.703,701.643 338.703,701.643L339.144,702.049Z" style="fill:rgb(255,241,104);fill-rule:nonzero;"/>
        <path d="M409.992,720.309C409.992,720.309 410.471,722.256 410.963,725.663C411.488,729.071 411.986,733.939 412.243,739.78C412.348,742.701 412.47,745.865 412.327,749.211C412.206,752.558 411.728,756.087 411.288,759.738C410.849,763.389 410.536,767.162 410.599,770.995C410.612,774.829 410.909,778.722 411.335,782.617C411.74,786.511 412.191,790.405 412.351,794.239C412.522,798.072 412.7,801.844 412.821,805.496C413.086,812.797 412.766,819.612 412.37,825.454C412.138,828.373 411.93,831.051 411.66,833.424C411.42,835.797 411.141,837.866 410.897,839.57C410.411,842.977 409.992,844.924 409.992,844.924L409.392,844.924C409.392,844.924 408.973,842.977 408.487,839.57C408.243,837.866 407.965,835.797 407.724,833.424C407.454,831.051 407.246,828.373 407.014,825.454C406.618,819.612 406.299,812.797 406.564,805.496C406.685,801.844 406.862,798.072 407.034,794.239C407.194,790.405 407.644,786.511 408.05,782.617C408.475,778.722 408.773,774.829 408.785,770.995C408.848,767.162 408.535,763.389 408.096,759.738C407.657,756.087 407.179,752.558 407.057,749.211C406.915,745.865 407.036,742.701 407.141,739.78C407.398,733.939 407.896,729.071 408.421,725.663C408.914,722.256 409.392,720.309 409.392,720.309L409.992,720.309Z" style="fill:rgb(255,241,104);fill-rule:nonzero;"/>
        <path d="M482.3,720.303C482.3,720.303 482.795,721.447 483.344,723.455C483.897,725.464 484.465,728.338 484.791,731.794C484.932,733.523 485.092,735.395 484.991,737.381C484.911,739.367 484.477,741.468 484.083,743.641C483.674,745.814 483.431,748.055 483.533,750.325C483.593,752.597 483.936,754.899 484.411,757.198C484.886,759.496 485.35,761.795 485.571,764.064C485.789,766.331 486.013,768.563 486.179,770.724C486.534,775.045 486.3,779.091 485.975,782.561C485.645,786.031 485.125,788.927 484.677,790.956C484.233,792.986 483.838,794.149 483.838,794.149L483.238,794.16C483.238,794.16 482.796,793.016 482.267,791.006C481.735,788.997 481.095,786.125 480.621,782.672C480.152,779.219 479.749,775.187 479.924,770.855C480,768.689 480.131,766.449 480.255,764.174C480.38,761.899 480.749,759.582 481.127,757.266C481.506,754.949 481.753,752.635 481.719,750.364C481.726,748.091 481.39,745.862 480.891,743.707C480.406,741.553 479.885,739.472 479.722,737.491C479.539,735.511 479.621,733.633 479.691,731.901C479.872,728.434 480.32,725.538 480.788,723.508C481.253,721.479 481.7,720.315 481.7,720.315L482.3,720.303Z" style="fill:rgb(255,241,104);fill-rule:nonzero;"/>
        <path d="M556.116,718.64C556.116,718.64 557.365,720.14 559.239,722.914C561.143,725.674 563.636,729.726 566.319,734.736C567.64,737.25 569.078,739.971 570.354,742.966C571.649,745.952 572.7,749.251 573.836,752.642C574.972,756.032 576.273,759.474 577.939,762.806C579.56,766.161 581.463,769.447 583.481,772.676C585.481,775.914 587.522,779.133 589.276,782.424C591.04,785.71 592.783,788.94 594.425,792.088C597.729,798.373 600.302,804.485 602.396,809.777C603.413,812.437 604.349,814.873 605.101,817.07C605.882,819.254 606.498,821.188 606.994,822.786C607.985,825.983 608.425,827.87 608.425,827.87L607.884,828.13C607.884,828.13 606.688,826.604 604.819,823.828C603.885,822.439 602.764,820.746 601.552,818.77C600.312,816.807 599.001,814.549 597.566,812.089C594.756,807.141 591.607,801.305 588.782,794.79C587.358,791.538 585.935,788.155 584.48,784.72C583.015,781.291 581.788,777.683 580.518,774.094C579.267,770.497 577.901,766.955 576.303,763.59C574.752,760.203 572.886,757.031 570.957,754.021C569.028,751.01 567.115,748.123 565.601,745.243C564.068,742.37 562.849,739.544 561.719,736.939C559.498,731.707 557.904,727.226 556.947,724.012C555.961,720.813 555.575,718.9 555.575,718.9L556.116,718.64Z" style="fill:rgb(255,241,104);fill-rule:nonzero;"/>
        <path d="M625.285,683.17C625.285,683.17 626.484,683.668 628.342,684.787C630.222,685.883 632.732,687.63 635.508,689.97C636.88,691.155 638.37,692.436 639.759,693.984C641.161,695.518 642.396,697.385 643.713,699.277C645.019,701.181 646.494,703.019 648.235,704.636C649.948,706.283 651.886,707.753 653.913,709.13C655.941,710.507 657.963,711.891 659.787,713.423C661.61,714.957 663.411,716.459 665.117,717.95C668.548,720.915 671.353,724.089 673.674,726.898C674.829,728.307 675.848,729.638 676.722,730.851C677.608,732.048 678.334,733.142 678.921,734.053C680.097,735.874 680.67,737.016 680.67,737.016L680.252,737.445C680.252,737.445 679.095,736.904 677.241,735.781C676.314,735.22 675.2,734.525 673.977,733.672C672.741,732.834 671.382,731.852 669.94,730.737C667.068,728.497 663.816,725.781 660.756,722.437C659.218,720.773 657.665,719.015 656.081,717.235C654.497,715.455 653.056,713.474 651.624,711.485C650.189,709.497 648.666,707.602 646.971,705.937C645.306,704.24 643.427,702.818 641.487,701.566C639.558,700.304 637.657,699.122 636.085,697.763C634.498,696.419 633.177,694.965 631.952,693.627C629.535,690.919 627.719,688.458 626.57,686.609C625.399,684.784 624.867,683.6 624.867,683.6L625.285,683.17Z" style="fill:rgb(255,241,104);fill-rule:nonzero;"/>
        <path d="M679.06,612.348C679.06,612.348 680.983,612.786 684.193,613.862C687.416,614.909 691.909,616.627 697.145,618.994C699.752,620.199 702.581,621.496 705.45,623.111C708.329,624.706 711.206,626.702 714.207,628.716C717.208,630.731 720.373,632.687 723.763,634.333C727.128,636.027 730.676,637.493 734.283,638.843C737.879,640.212 741.497,641.541 744.929,643.102C748.367,644.653 751.753,646.171 755.008,647.686C761.529,650.695 767.358,654.008 772.298,656.958C774.753,658.463 777.006,659.838 778.964,661.134C780.936,662.403 782.623,663.571 784.006,664.545C786.773,666.494 788.29,667.733 788.29,667.733L788.019,668.268C788.019,668.268 786.123,667.776 782.916,666.696C781.313,666.156 779.373,665.485 777.184,664.645C774.982,663.83 772.541,662.826 769.876,661.735C764.577,659.493 758.459,656.748 752.179,653.267C749.034,651.536 745.807,649.701 742.524,647.844C739.237,645.998 736.027,643.866 732.796,641.773C729.576,639.662 726.296,637.666 722.942,635.952C719.611,634.192 716.163,632.794 712.764,631.563C709.365,630.332 706.055,629.191 703.067,627.811C700.069,626.451 697.35,624.937 694.838,623.544C689.834,620.719 685.792,618.112 683.043,616.129C680.279,614.175 678.789,612.883 678.789,612.883L679.06,612.348Z" style="fill:rgb(255,241,104);fill-rule:nonzero;"/>
        <path d="M700.573,538.491C700.573,538.491 701.883,538.505 704.044,538.847C706.218,539.16 709.229,539.84 712.715,540.971C714.449,541.559 716.331,542.189 718.219,543.106C720.115,544.004 721.984,545.274 723.937,546.538C725.886,547.815 727.967,548.97 730.212,549.817C732.44,550.705 734.811,551.344 737.23,551.862C739.65,552.38 742.066,552.907 744.355,553.646C746.643,554.387 748.899,555.106 751.063,555.85C755.399,557.317 759.234,559.212 762.474,560.95C764.093,561.825 765.554,562.679 766.834,563.477C768.121,564.257 769.217,565.001 770.114,565.627C771.909,566.877 772.882,567.721 772.882,567.721L772.657,568.278C772.657,568.278 771.37,568.21 769.211,567.861C768.131,567.687 766.826,567.461 765.359,567.127C763.884,566.812 762.239,566.41 760.468,565.915C756.929,564.913 752.855,563.61 748.718,561.651C746.645,560.683 744.522,559.634 742.362,558.576C740.203,557.516 738.099,556.217 736,554.907C733.899,553.599 731.751,552.41 729.531,551.5C727.328,550.55 725.03,549.933 722.742,549.498C720.458,549.049 718.231,548.664 716.244,547.992C714.249,547.339 712.458,546.484 710.802,545.701C707.51,544.093 704.872,542.489 703.092,541.204C701.299,539.948 700.348,539.048 700.348,539.048L700.573,538.491Z" style="fill:rgb(255,241,104);fill-rule:nonzero;"/>
        <path d="M709.697,484.624C709.697,484.624 711.554,484.169 714.8,483.719C718.046,483.236 722.679,482.798 728.236,482.614C731.013,482.544 734.023,482.462 737.203,482.645C740.383,482.809 743.731,483.33 747.196,483.814C750.661,484.299 754.243,484.659 757.887,484.642C761.532,484.677 765.237,484.428 768.945,484.05C772.652,483.693 776.36,483.291 780.006,483.178C783.652,483.054 787.241,482.923 790.713,482.847C797.657,482.672 804.132,483.075 809.679,483.544C812.453,483.812 814.995,484.053 817.248,484.352C819.5,484.622 821.463,484.926 823.08,485.19C826.312,485.719 828.158,486.162 828.158,486.162L828.15,486.762C828.15,486.762 826.294,487.157 823.049,487.601C821.426,487.824 819.455,488.077 817.196,488.288C814.937,488.529 812.389,488.703 809.61,488.899C804.051,489.224 797.569,489.458 790.632,489.103C787.163,488.937 783.579,488.713 779.937,488.495C776.295,488.288 772.599,487.789 768.902,487.335C765.206,486.861 761.508,486.516 757.864,486.457C754.22,486.346 750.631,486.612 747.154,487.006C743.677,487.401 740.317,487.835 737.134,487.916C733.951,488.016 730.945,487.856 728.17,487.714C722.62,487.386 717.999,486.828 714.766,486.261C711.534,485.726 709.689,485.224 709.689,485.224L709.697,484.624Z" style="fill:rgb(255,241,104);fill-rule:nonzero;"/>
        <path d="M691.211,401.337C691.211,401.337 692.072,400.434 693.71,399.143C695.347,397.849 697.774,396.201 700.834,394.55C702.372,393.743 704.036,392.863 705.907,392.18C707.77,391.477 709.876,391.055 712.033,390.568C714.196,390.094 716.358,389.441 718.412,388.46C720.482,387.516 722.471,386.3 724.404,384.963C726.339,383.627 728.277,382.3 730.282,381.211C732.288,380.122 734.258,379.043 736.186,378.045C740.031,376.027 743.853,374.662 747.179,373.604C750.507,372.55 753.381,371.896 755.427,371.514C757.472,371.13 758.697,371.039 758.697,371.038L758.943,371.586C758.943,371.586 758.061,372.441 756.414,373.713C754.77,374.989 752.371,376.702 749.372,378.489C746.371,380.271 742.812,382.219 738.749,383.753C736.722,384.53 734.607,385.285 732.46,386.061C730.314,386.836 728.033,387.402 725.75,387.96C723.466,388.517 721.236,389.195 719.155,390.115C717.057,390.997 715.132,392.179 713.341,393.48C711.544,394.769 709.828,396.063 708.065,396.987C706.312,397.931 704.549,398.59 702.924,399.204C699.656,400.393 696.812,401.112 694.757,401.475C692.704,401.841 691.457,401.884 691.457,401.885L691.211,401.337Z" style="fill:rgb(255,241,104);fill-rule:nonzero;"/>
        <path d="M660.293,341.598C660.293,341.598 661.731,340.048 664.442,337.62C667.136,335.166 671.123,331.869 676.1,328.195C678.601,326.377 681.307,324.401 684.32,322.536C687.321,320.654 690.683,318.958 694.129,317.159C697.575,315.359 701.058,313.383 704.382,311.059C707.735,308.777 710.982,306.223 714.157,303.563C717.344,300.919 720.505,298.238 723.775,295.834C727.039,293.42 730.247,291.037 733.379,288.774C739.631,284.227 745.783,280.453 751.126,277.321C753.816,275.782 756.279,274.368 758.511,273.185C760.726,271.978 762.695,270.983 764.324,270.175C767.584,268.559 769.525,267.752 769.525,267.752L769.861,268.249C769.861,268.249 768.389,269.749 765.675,272.172C764.317,273.383 762.66,274.84 760.715,276.446C758.786,278.076 756.556,279.834 754.125,281.757C749.228,285.547 743.433,289.85 736.884,293.957C733.616,296.021 730.209,298.109 726.753,300.239C723.304,302.378 719.638,304.312 715.997,306.284C712.345,308.239 708.766,310.301 705.398,312.562C702.002,314.781 698.871,317.276 695.917,319.804C692.963,322.331 690.137,324.818 687.272,326.902C684.418,329.003 681.576,330.778 678.957,332.421C673.693,335.67 669.147,338.142 665.866,339.726C662.604,341.337 660.629,342.095 660.629,342.095L660.293,341.598Z" style="fill:rgb(255,241,104);fill-rule:nonzero;"/>
        <path d="M286.448,356.172C286.448,356.172 284.473,355.414 281.211,353.803C277.93,352.219 273.384,349.747 268.12,346.498C265.501,344.855 262.659,343.08 259.806,340.979C256.94,338.895 254.115,336.408 251.16,333.88C248.206,331.353 245.075,328.858 241.679,326.639C238.312,324.378 234.732,322.316 231.08,320.361C227.44,318.389 223.774,316.455 220.324,314.316C216.868,312.186 213.462,310.098 210.194,308.034C203.645,303.927 197.85,299.624 192.952,295.834C190.522,293.911 188.292,292.152 186.363,290.523C184.417,288.917 182.76,287.46 181.403,286.249C178.689,283.826 177.217,282.326 177.217,282.326L177.552,281.829C177.552,281.829 179.494,282.636 182.753,284.252C184.383,285.06 186.352,286.055 188.567,287.262C190.799,288.444 193.261,289.859 195.951,291.398C201.294,294.53 207.447,298.304 213.698,302.851C216.831,305.114 220.038,307.497 223.302,309.911C226.573,312.315 229.734,314.996 232.92,317.64C236.095,320.3 239.342,322.854 242.696,325.136C246.02,327.46 249.502,329.436 252.948,331.236C256.395,333.035 259.756,334.731 262.758,336.613C265.77,338.478 268.476,340.454 270.977,342.272C275.953,345.946 279.941,349.243 282.634,351.697C285.345,354.125 286.784,355.675 286.784,355.675L286.448,356.172Z" style="fill:rgb(255,241,104);fill-rule:nonzero;"/>
        <path d="M610.975,304.767C610.975,304.767 611.102,303.656 611.594,301.877C612.084,300.096 612.973,297.668 614.343,294.939C615.046,293.586 615.802,292.117 616.832,290.704C617.845,289.28 619.211,287.96 620.578,286.567C621.956,285.181 623.229,283.655 624.223,281.923C625.253,280.212 626.059,278.328 626.752,276.374C627.446,274.421 628.148,272.473 629.041,270.679C629.937,268.886 630.81,267.117 631.698,265.431C633.455,262.048 635.579,259.185 637.503,256.796C639.433,254.41 641.25,252.549 642.594,251.29C643.934,250.029 644.821,249.382 644.821,249.382L645.332,249.695C645.332,249.695 645.161,250.779 644.651,252.547C644.143,254.317 643.316,256.783 642.073,259.589C640.825,262.392 639.246,265.587 637.037,268.694C635.942,270.253 634.766,271.837 633.579,273.452C632.39,275.065 630.977,276.579 629.555,278.087C628.133,279.595 626.824,281.172 625.771,282.869C624.683,284.544 623.907,286.372 623.302,288.231C622.685,290.083 622.134,291.901 621.329,293.452C620.541,295.013 619.579,296.356 618.696,297.6C616.893,300.063 615.137,301.962 613.776,303.21C612.417,304.46 611.487,305.079 611.487,305.079L610.975,304.767Z" style="fill:rgb(255,241,104);fill-rule:nonzero;"/>
        <path d="M534.023,269.446C534.023,269.446 534.193,267.375 534.818,263.858C535.413,260.33 536.502,255.368 538.132,249.52C538.969,246.602 539.87,243.44 541.08,240.178C542.269,236.911 543.856,233.573 545.447,230.103C547.036,226.633 548.545,223.004 549.714,219.198C550.933,215.408 551.901,211.47 552.746,207.492C553.611,203.521 554.432,199.535 555.51,195.7C556.578,191.861 557.62,188.08 558.676,184.437C560.768,177.144 563.259,170.511 565.511,164.865C566.669,162.052 567.726,159.472 568.746,157.212C569.735,154.942 570.665,152.985 571.443,151.378C573,148.163 574.023,146.369 574.023,146.369L574.593,146.554C574.593,146.554 574.367,148.607 573.736,152.123C573.42,153.881 573.022,156.01 572.488,158.428C571.984,160.855 571.322,163.564 570.605,166.52C569.107,172.412 567.223,179.241 564.627,186.371C563.34,189.939 561.96,193.611 560.567,197.343C559.184,201.08 557.505,204.787 555.871,208.508C554.215,212.222 552.683,215.977 551.441,219.759C550.149,223.526 549.237,227.348 548.482,231.09C547.729,234.831 547.05,238.465 546.091,241.807C545.153,245.157 544.022,248.244 542.984,251.096C540.865,256.786 538.829,261.44 537.236,264.643C535.673,267.856 534.593,269.632 534.593,269.632L534.023,269.446Z" style="fill:rgb(255,241,104);fill-rule:nonzero;"/>
        <path d="M463.239,266.461C463.239,266.461 462.76,265.067 462.268,262.627C461.743,260.187 461.245,256.701 460.988,252.519C460.883,250.427 460.761,248.162 460.904,245.766C461.025,243.369 461.503,240.842 461.943,238.228C462.382,235.614 462.696,232.913 462.632,230.168C462.619,227.422 462.322,224.634 461.896,221.846C461.47,219.057 461.053,216.269 460.88,213.524C460.709,210.779 460.531,208.078 460.41,205.463C460.145,200.235 460.465,195.356 460.861,191.173C461.066,189.082 461.31,187.165 461.571,185.465C461.811,183.766 462.09,182.285 462.334,181.065C462.82,178.625 463.239,177.231 463.239,177.231L463.839,177.231C463.839,177.231 464.258,178.625 464.744,181.065C464.988,182.285 465.266,183.766 465.507,185.465C465.768,187.165 466.011,189.082 466.217,191.173C466.613,195.356 466.932,200.235 466.667,205.463C466.546,208.078 466.369,210.779 466.197,213.524C466.025,216.269 465.608,219.057 465.181,221.846C464.756,224.634 464.458,227.422 464.446,230.168C464.382,232.913 464.696,235.614 465.135,238.228C465.574,240.842 466.052,243.369 466.174,245.766C466.316,248.162 466.195,250.427 466.09,252.519C465.833,256.701 465.335,260.187 464.81,262.627C464.317,265.067 463.839,266.461 463.839,266.461L463.239,266.461Z" style="fill:rgb(255,241,104);fill-rule:nonzero;"/>
        <path d="M381.792,270.953C381.792,270.953 380.362,269.501 378.153,266.784C375.917,264.082 372.939,260.094 369.655,255.132C368.035,252.64 366.271,249.943 364.639,246.951C362.988,243.97 361.547,240.646 360.011,237.236C358.473,233.826 356.764,230.374 354.699,227.064C352.679,223.727 350.383,220.484 347.977,217.308C345.588,214.12 343.16,210.957 341.013,207.696C338.857,204.442 336.727,201.243 334.709,198.122C330.653,191.89 327.355,185.783 324.632,180.485C323.299,177.818 322.074,175.376 321.061,173.168C320.023,170.974 319.177,169.027 318.493,167.415C317.124,164.193 316.461,162.279 316.461,162.28L316.977,161.97C316.977,161.971 318.355,163.453 320.559,166.173C321.661,167.534 322.984,169.194 324.436,171.14C325.91,173.07 327.492,175.298 329.222,177.725C332.624,182.615 336.47,188.394 340.071,194.898C341.881,198.144 343.708,201.525 345.57,204.957C347.443,208.382 349.098,212.011 350.792,215.615C352.468,219.231 354.256,222.78 356.254,226.129C358.209,229.505 360.456,232.633 362.746,235.591C365.037,238.548 367.297,241.38 369.155,244.236C371.032,247.081 372.588,249.902 374.028,252.504C376.87,257.73 378.995,262.232 380.333,265.474C381.696,268.699 382.307,270.643 382.307,270.643L381.792,270.953Z" style="fill:rgb(255,241,104);fill-rule:nonzero;"/>
        <path d="M322.8,312.07C322.8,312.07 321.592,311.633 319.708,310.613C317.802,309.616 315.247,308.005 312.408,305.817C311.004,304.706 309.477,303.507 308.044,302.037C306.596,300.583 305.301,298.789 303.926,296.973C302.561,295.148 301.031,293.394 299.243,291.873C297.484,290.32 295.508,288.956 293.445,287.687C291.383,286.419 289.326,285.143 287.46,283.711C285.595,282.277 283.754,280.872 282.005,279.475C278.493,276.698 275.593,273.684 273.189,271.008C271.991,269.665 270.93,268.392 270.02,267.231C269.096,266.085 268.337,265.034 267.72,264.158C266.488,262.406 265.877,261.3 265.877,261.3L266.277,260.853C266.277,260.853 267.445,261.334 269.325,262.359C270.265,262.871 271.396,263.506 272.64,264.294C273.898,265.066 275.283,265.974 276.754,267.011C279.686,269.095 283.011,271.633 286.17,274.806C287.757,276.383 289.362,278.053 290.999,279.742C292.635,281.433 294.136,283.331 295.632,285.236C297.127,287.14 298.708,288.948 300.451,290.519C302.165,292.122 304.082,293.442 306.051,294.591C308.011,295.75 309.942,296.832 311.551,298.104C313.175,299.362 314.539,300.741 315.803,302.009C318.3,304.581 320.193,306.936 321.4,308.716C322.629,310.472 323.199,311.622 323.199,311.622L322.8,312.07Z" style="fill:rgb(255,241,104);fill-rule:nonzero;"/>
    </g>
</svg>
