<?xml version="1.0" encoding="utf-8"?>
<!-- Generator: Adobe Illustrator 16.0.4, SVG Export Plug-In . SVG Version: 6.00 Build 0)  -->
<!DOCTYPE svg PUBLIC "-//W3C//DTD SVG 1.1//EN" "http://www.w3.org/Graphics/SVG/1.1/DTD/svg11.dtd">
<svg version="1.1" id="Layer_1" xmlns="http://www.w3.org/2000/svg" xmlns:xlink="http://www.w3.org/1999/xlink" x="0px" y="0px"
	 width="260px" height="260px" viewBox="0 0 260 260" enable-background="new 0 0 260 260" xml:space="preserve">
<g>
	<g>
		<path fill="#A6E4FF" d="M249.115,130c0,68.408-43.574,90.688-119.115,90.688c-75.541,0-119.115-22.281-119.115-90.688
			c0-68.406,43.574-90.688,119.115-90.688C205.541,39.312,249.115,61.594,249.115,130z"/>
	</g>
	<g>
		<g>
			<g>
				<path fill="#213B4D" d="M237.754,238.706c-3.224,0-5.837-2.613-5.837-5.837c0-14.374-11.694-26.068-26.068-26.068
					c-3.224,0-5.837-2.613-5.837-5.837c0-3.224,2.613-5.837,5.837-5.837c20.811,0,37.742,16.931,37.742,37.742
					C243.591,236.093,240.979,238.706,237.754,238.706z"/>
			</g>
		</g>
		<g>
			<g>
				<path fill="#213B4D" d="M216.914,217.864c-3.223,0-5.837-2.613-5.837-5.837c0-11.574-9.417-20.989-20.99-20.989
					c-3.224,0-5.837-2.613-5.837-5.837c0-3.224,2.613-5.837,5.837-5.837c18.011,0,32.664,14.653,32.664,32.663
					C222.75,215.251,220.138,217.864,216.914,217.864z"/>
			</g>
		</g>
		<g>
			<g>
				<path fill="#213B4D" d="M205.85,228.929c-9.32,0-16.901-7.582-16.901-16.902c0-9.318,7.581-16.9,16.901-16.9
					c3.223,0,5.837,2.613,5.837,5.837c0,3.224-2.614,5.837-5.837,5.837c-2.882,0-5.227,2.344-5.227,5.226
					c0,2.883,2.345,5.228,5.227,5.228s5.227-2.345,5.227-5.228c0-3.224,2.614-5.837,5.837-5.837c3.224,0,5.837,2.613,5.837,5.837
					C222.75,221.347,215.169,228.929,205.85,228.929z"/>
			</g>
		</g>
		<g>
			
				<ellipse transform="matrix(0.7071 -0.7071 0.7071 0.7071 -17.5965 67.4375)" fill="#6BE373" cx="72.611" cy="54.961" rx="15.165" ry="36.306"/>
			<path fill="#213B4D" d="M92.18,88.626c-9.625,0-22.813-7.209-34.419-18.815C50.37,62.419,44.586,54.18,41.476,46.607
				c-5.095-12.404-1.35-18.762,1.336-21.447c1.764-1.764,4.97-3.866,10.23-3.866c9.625,0,22.814,7.21,34.421,18.816
				c14.808,14.808,24.697,34.9,14.948,44.649C100.646,86.524,97.439,88.626,92.18,88.626z M53.042,32.968
				c-1.126,0-1.759,0.23-1.976,0.447c-0.553,0.552-0.984,3.419,1.208,8.757c2.5,6.086,7.509,13.151,13.741,19.384
				C76.594,72.134,86.994,76.953,92.18,76.953c1.127,0,1.76-0.231,1.977-0.447c1.914-1.914-0.954-14.145-14.949-28.14
				C68.629,37.787,58.229,32.968,53.042,32.968z"/>
		</g>
		<g>
			
				<ellipse transform="matrix(0.7071 -0.7071 0.7071 0.7071 -17.5954 67.446)" fill="#428C47" cx="72.611" cy="54.961" rx="6.593" ry="20.253"/>
		</g>
		<g>
			
				<ellipse transform="matrix(0.7071 -0.7071 0.7071 0.7071 -58.1313 162.7299)" fill="#6BE373" cx="167.367" cy="151.536" rx="15.165" ry="36.307"/>
			<path fill="#213B4D" d="M186.937,185.203c-9.625,0-22.813-7.21-34.42-18.816c-7.391-7.391-13.175-15.631-16.285-23.204
				c-5.095-12.403-1.35-18.761,1.335-21.447c1.764-1.764,4.971-3.866,10.23-3.866c9.625,0,22.814,7.209,34.42,18.815
				c14.809,14.809,24.699,34.901,14.949,44.652C195.402,183.1,192.196,185.203,186.937,185.203z M147.797,129.544
				c-1.127,0-1.76,0.231-1.976,0.447c-0.552,0.553-0.983,3.42,1.208,8.757c2.5,6.086,7.509,13.152,13.741,19.384
				c10.579,10.579,20.979,15.397,26.166,15.397c1.127,0,1.76-0.231,1.976-0.447c1.914-1.914-0.954-14.146-14.95-28.142
				C163.385,134.362,152.984,129.544,147.797,129.544z"/>
		</g>
		<g>
			<path fill="#6BE373" d="M194.857,177.208c-5.922,5.921-22.217-0.771-36.396-14.95c-14.18-14.179-20.872-30.473-14.949-36.396
				c-5.932,5.932-10.13,12.825-12.522,19.895c-7.917,7.208-21.44,5.406-39.484-12.636c-18.482-18.483-20.031-32.125-12.099-40.056
				c-0.102-0.057-0.194-0.114-0.294-0.172c6.816-2.428,13.442-6.532,19.169-12.26c-5.923,5.922-22.217-0.771-36.396-14.949
				C47.709,51.505,41.015,35.21,46.938,29.288C28.133,48.094-4.942,92.215,63.665,160.821
				c68.606,68.607,112.724,35.531,131.531,16.724c0,0-0.757,0.562-2.123,1.365C193.676,178.358,194.272,177.793,194.857,177.208z"/>
		</g>
		<g>
			<path fill="#428C47" d="M69.148,159.038c68.605,68.607,107.241,37.314,126.047,18.507c0,0-0.757,0.562-2.123,1.365
				c0.603-0.552,1.199-1.117,1.784-1.702c-5.922,5.921-22.217-0.771-36.396-14.95c0,0,6.357,24.744-21.272,24.744
				C109.561,187.002,69.148,159.038,69.148,159.038z"/>
		</g>
		<g>
			<path fill="#213B4D" d="M142.14,208.077c-26.193,0-53.985-14.51-82.602-43.128c-31.033-31.033-45.442-61.014-42.828-89.11
				c1.697-18.235,10.235-34.812,26.101-50.678c0,0,0,0,0,0c2.28-2.279,5.977-2.278,8.254,0c2.28,2.279,2.28,5.975,0,8.254
				c-0.553,0.552-0.984,3.419,1.208,8.757c2.5,6.086,7.509,13.151,13.741,19.384C76.594,72.135,86.994,76.953,92.18,76.953
				c1.127,0,1.76-0.231,1.977-0.447c2.28-2.279,5.977-2.278,8.254,0c2.28,2.279,2.28,5.975,0,8.254h0c0,0,0,0,0,0
				c-5.584,5.584-12.208,9.994-19.267,12.844c-2.361,2.618-2.993,5.926-1.934,10.093c1.068,4.202,4.438,11.307,14.425,21.295
				c12.623,12.622,23.912,17.772,30.41,13.261c2.823-7.526,7.412-14.59,13.341-20.52c2.28-2.279,5.975-2.279,8.255,0
				c2.28,2.279,2.28,5.976,0,8.255c-0.552,0.552-0.984,3.419,1.208,8.756c2.5,6.087,7.509,13.152,13.741,19.384
				c10.58,10.58,20.979,15.397,26.165,15.397c1.127,0,1.76-0.231,1.976-0.447c2.28-2.279,5.976-2.278,8.254,0
				c0.092,0.092,0.181,0.187,0.266,0.285c0.128,0.124,0.252,0.255,0.37,0.394c1.981,2.316,1.857,5.758-0.297,7.914
				C181.803,199.193,162.564,208.077,142.14,208.077z M40.916,45.175c-7.408,10.171-11.55,20.653-12.582,31.746
				c-2.278,24.474,10.998,51.313,39.458,79.773c26.349,26.349,51.362,39.709,74.347,39.709c13.152,0,25.479-4.267,37.374-12.985
				c-7.971-2.815-16.97-8.825-25.179-17.033c-7.294-7.294-13.022-15.415-16.161-22.905c-0.627,1.362-1.18,2.746-1.653,4.147
				c-0.318,0.938-0.868,1.779-1.6,2.445c-3.929,3.577-8.867,5.467-14.279,5.467c-9.932,0-21.122-6.154-33.262-18.292
				c-9.524-9.525-15.407-18.5-17.484-26.675c-1.922-7.56-0.539-14.569,3.887-19.981c0.623-1.467,1.822-2.645,3.373-3.198
				c1.183-0.421,2.354-0.899,3.508-1.43c-7.381-3.086-15.467-8.718-22.902-16.153C50.37,62.419,44.586,54.18,41.476,46.607
				C41.275,46.121,41.089,45.644,40.916,45.175z"/>
		</g>
		<g>
			
				<ellipse transform="matrix(0.7071 -0.7071 0.7071 0.7071 -57.598 164.0154)" fill="#428C47" cx="169.185" cy="151.535" rx="6.593" ry="20.253"/>
		</g>
	</g>
</g>
</svg>
