<?xml version="1.0" standalone="no"?>
<!DOCTYPE svg PUBLIC "-//W3C//DTD SVG 1.1//EN" "http://www.w3.org/Graphics/SVG/1.1/DTD/svg11.dtd">
<svg width="100%" height="100%" viewBox="0 0 556 547" version="1.1" xmlns="http://www.w3.org/2000/svg" xmlns:xlink="http://www.w3.org/1999/xlink" xml:space="preserve" style="fill-rule:evenodd;clip-rule:evenodd;stroke-linejoin:round;stroke-miterlimit:1.41421;">
    <g transform="matrix(1,0,0,1,-222.795,-158.651)">
        <path d="M768.077,549.538C768.077,549.538 794.231,372.615 595.769,284.923C595.769,284.923 734.231,409.538 680.385,540.308C680.385,540.308 746.539,511.076 768.077,549.538" style="fill:rgb(157,235,161);fill-rule:nonzero;"/>
        <path d="M563.462,278.769C563.462,278.769 691.154,314.153 668.077,532.615C668.077,532.615 626.538,491.077 566.538,528C566.538,528 614.232,315.692 563.462,278.769" style="fill:rgb(206,246,209);fill-rule:nonzero;"/>
        <path d="M546.538,275.692C546.538,275.692 581.922,341.846 558.846,515.692C558.846,515.692 480.385,451.078 454.231,506.462C454.231,506.462 521.922,235.692 546.538,275.692" style="fill:rgb(157,235,161);fill-rule:nonzero;"/>
        <path d="M443.461,491.077C443.461,491.077 489.616,298.769 528.077,274.154C528.077,274.154 435.769,238.769 346.538,469.538C346.538,469.538 421.922,463.385 443.461,491.077" style="fill:rgb(206,246,209);fill-rule:nonzero;"/>
        <path d="M481.923,272.615C481.923,272.615 320.385,229.538 246.539,438.769C246.539,438.769 331.154,424.923 328.077,488C325,551.077 328.077,488 328.077,488C328.077,488 334.231,361.845 481.923,272.615" style="fill:rgb(157,235,161);fill-rule:nonzero;"/>
        <path d="M578,216C578,216 552,248 567,258C582,268 582,222 578,216" style="fill:rgb(120,214,255);fill-rule:nonzero;"/>
        <path d="M557.308,175.692C557.308,175.692 532,211 538,222C544,233 557.616,215.384 557.308,175.692" style="fill:rgb(120,214,255);fill-rule:nonzero;"/>
        <path d="M576,162C576,162 564,189 571,194C578,199 577,170 576,162" style="fill:rgb(120,214,255);fill-rule:nonzero;"/>
        <path d="M556.142,560.981C557.48,553.742 560.181,546.712 564.161,540.473C568.124,534.225 573.31,528.745 579.337,524.418C585.361,520.085 592.225,516.903 599.454,515.125C606.684,513.352 614.263,513.007 621.642,514.077C622.576,514.239 623.451,514.347 624.433,514.554L627.115,515.194C628.008,515.416 628.905,515.601 629.796,515.852L632.464,516.763C633.35,517.075 634.252,517.355 635.123,517.696L637.675,518.85C638.52,519.247 639.389,519.596 640.214,520.032L642.647,521.421C643.448,521.901 644.291,522.315 645.057,522.849L647.351,524.46C648.099,525.018 648.916,525.49 649.608,526.121L651.745,527.937C653.218,529.095 654.47,530.492 655.788,531.819C657.154,533.105 658.239,534.64 659.446,536.069L660.331,537.158L661.118,538.321L662.687,540.65C663.238,541.409 663.684,542.232 664.128,543.056L665.481,545.519C665.966,546.324 666.29,547.206 666.678,548.058L667.801,550.635C668.495,552.375 669.002,554.184 669.61,555.957C670.102,557.763 670.468,559.605 670.901,561.429C671.188,563.281 671.406,565.144 671.66,567.002L671.876,572.625L671.551,578.242L669.243,577.811C670.125,575.135 670.832,572.393 672.052,569.84C673.058,567.197 674.525,564.776 675.866,562.294L678.231,558.785L678.824,557.908C679.029,557.622 679.265,557.358 679.485,557.083L680.826,555.445L682.167,553.808C682.624,553.271 683.147,552.793 683.634,552.283C684.642,551.296 685.579,550.232 686.648,549.312L689.885,546.584C690.982,545.697 692.183,544.946 693.328,544.121C693.915,543.73 694.468,543.285 695.084,542.94L696.923,541.891C698.161,541.211 699.348,540.435 700.66,539.903C701.948,539.324 703.227,538.724 704.523,538.164L708.526,536.774L709.528,536.428L710.555,536.171L712.614,535.666L714.672,535.162C715.364,535.018 716.068,534.943 716.765,534.83C718.165,534.648 719.556,534.361 720.966,534.268L725.201,534.048C725.907,533.984 726.613,534.043 727.319,534.07L729.438,534.164L731.556,534.258L733.656,534.547C735.063,534.761 736.438,534.908 737.87,535.195C739.216,535.492 740.56,535.773 741.95,536.187C744.708,536.935 747.351,537.899 749.942,539.044C760.303,543.592 769.254,551.229 775.434,560.686L773.119,561.172C775.996,544.068 776.927,526.632 775.821,509.31C774.711,491.987 771.562,474.793 766.557,458.15C761.541,441.511 754.734,425.39 746.23,410.206C737.749,395.007 727.709,380.679 716.383,367.45C705.013,354.256 692.354,342.189 678.738,331.339C665.127,320.477 650.499,310.906 635.167,302.674C619.833,294.447 603.809,287.503 587.299,282.025C570.791,276.533 553.845,272.436 536.663,269.723C519.489,267.008 502.135,265.693 484.759,265.851C467.395,265.985 450.042,267.571 432.965,270.681C415.888,273.786 399.086,278.4 382.852,284.517C366.622,290.64 350.957,298.252 336.151,307.272C321.354,316.305 307.444,326.799 294.786,338.639C282.128,350.476 270.726,363.662 260.953,377.971C251.151,392.257 242.96,407.661 236.703,423.834C235.193,427.896 233.817,432.008 232.366,436.094L228.775,448.595C227.836,452.81 226.814,457.085 225.94,461.252C225.78,462.324 225.564,463.416 225.45,464.471C225.366,465.519 225.249,466.559 225.187,467.613L225.135,470.803L225.298,473.992L223.171,473.463C224.168,472.097 225.086,470.672 226.149,469.358C227.247,468.073 228.249,466.704 229.462,465.522L231.22,463.696C231.818,463.1 232.468,462.558 233.09,461.987C233.728,461.434 234.326,460.833 234.997,460.321L237,458.77L238.002,457.996L239.055,457.293L241.164,455.893C242.6,455.009 244.083,454.197 245.562,453.391C248.593,451.913 251.692,450.554 254.929,449.604L257.348,448.871L259.814,448.316C261.448,447.895 263.125,447.701 264.789,447.449C265.62,447.303 266.459,447.239 267.3,447.188L269.819,447.009C271.5,446.958 273.185,446.994 274.866,447.015C276.54,447.175 278.226,447.233 279.889,447.48L282.379,447.877L283.623,448.076L284.858,448.35C286.467,448.682 288.11,449.154 289.727,449.629L292.117,450.429C292.905,450.718 293.683,451.036 294.465,451.339C300.671,453.899 306.463,457.489 311.409,462.018C316.364,466.532 320.535,471.885 323.698,477.774C326.835,483.679 328.951,490.108 329.931,496.703C330.434,499.999 330.598,503.34 330.508,506.667C330.412,509.993 330.033,513.308 329.392,516.57L329.098,516.513C329.684,513.257 330.007,509.959 330.05,506.657C330.088,503.357 329.873,500.05 329.324,496.797C328.25,490.289 326.061,483.979 322.882,478.219C319.677,472.472 315.499,467.286 310.58,462.945C305.663,458.601 299.98,455.155 293.907,452.726L291.609,451.864L289.274,451.111C287.705,450.67 286.156,450.238 284.513,449.917L283.318,449.664L282.104,449.484L279.68,449.125C278.061,448.902 276.423,448.866 274.797,448.726C273.164,448.725 271.53,448.707 269.9,448.774L267.46,448.975C266.646,449.032 265.834,449.102 265.031,449.253C263.421,449.517 261.8,449.719 260.223,450.146L257.843,450.708L255.51,451.443C252.39,452.395 249.411,453.744 246.5,455.2C245.081,455.996 243.658,456.793 242.283,457.66L240.264,459.034L239.255,459.721L238.298,460.479L236.385,461.994C235.743,462.493 235.175,463.08 234.566,463.619C233.974,464.175 233.352,464.702 232.783,465.282L231.111,467.057C229.95,468.199 228.999,469.525 227.95,470.766C226.936,472.035 226.066,473.412 225.115,474.728L223.174,477.414L222.988,474.198L222.795,470.855L222.827,467.505C222.884,466.383 223.002,465.254 223.09,464.128C223.206,463.016 223.409,461.964 223.563,460.878C224.445,456.506 225.429,452.289 226.357,447.985L229.905,435.316C231.344,431.173 232.709,427.002 234.21,422.881C240.438,406.474 248.612,390.805 258.471,376.28C268.351,361.769 279.882,348.396 292.681,336.392C305.481,324.384 319.546,313.743 334.506,304.581C349.46,295.401 365.337,287.747 381.773,281.634C398.207,275.512 415.199,270.914 432.453,267.843C449.709,264.774 467.228,263.219 484.744,263.178C502.25,263.157 519.785,264.632 537.04,267.505C554.289,270.372 571.332,274.638 587.885,280.296C604.447,285.937 620.496,293.057 635.829,301.455C651.156,309.867 665.748,319.602 679.396,330.516C693.036,341.44 705.67,353.616 717.079,366.853C728.497,380.077 738.639,394.418 747.222,409.648C755.779,424.887 762.893,440.964 768.095,457.679C773.316,474.38 776.673,491.684 777.973,509.164C779.288,526.639 778.528,544.291 775.625,561.596L775.089,564.788L773.309,562.083C767.364,553.047 758.78,545.78 748.874,541.472C748.263,541.185 747.64,540.927 747.006,540.694C746.375,540.455 745.751,540.198 745.116,539.972C743.832,539.558 742.553,539.096 741.264,538.776C740.004,538.4 738.642,538.116 737.289,537.824C736.011,537.575 734.632,537.429 733.311,537.218L731.306,536.931L729.285,536.835L727.262,536.737C726.588,536.708 725.914,536.646 725.241,536.708L721.196,536.9C719.849,536.982 718.521,537.255 717.183,537.422C716.516,537.527 715.842,537.594 715.182,537.728L713.213,538.205L711.245,538.679L710.26,538.919L709.302,539.248L705.468,540.559L701.767,542.209C700.508,542.71 699.371,543.453 698.184,544.097L696.418,545.092C695.827,545.419 695.297,545.846 694.733,546.217C693.635,547.004 692.48,547.715 691.426,548.562L688.315,551.163C687.286,552.039 686.388,553.058 685.417,553.998C684.949,554.484 684.444,554.938 684.005,555.452L682.714,557.016L681.422,558.58C681.21,558.842 680.982,559.093 680.784,559.368L680.214,560.207L677.932,563.561C676.643,565.936 675.219,568.249 674.247,570.782C673.063,573.224 672.383,575.856 671.518,578.42L669.209,577.99L669.543,572.596L669.357,567.197C669.118,565.412 668.916,563.62 668.65,561.839C668.238,560.086 667.895,558.314 667.43,556.575C666.85,554.87 666.371,553.126 665.711,551.451L664.653,548.961C664.288,548.137 663.987,547.283 663.526,546.505L662.246,544.122C661.827,543.323 661.406,542.523 660.881,541.788L659.39,539.528L658.645,538.398L657.799,537.339C656.648,535.952 655.619,534.454 654.31,533.203C653.049,531.91 651.856,530.544 650.441,529.415L648.394,527.636C647.732,527.018 646.946,526.558 646.228,526.01L644.025,524.428C643.288,523.903 642.476,523.498 641.705,523.025L639.364,521.654C638.569,521.224 637.731,520.879 636.915,520.487L634.455,519.342C633.62,519.005 632.764,518.734 631.92,518.425L629.379,517.523C628.507,517.267 627.601,517.07 626.713,516.84L624.038,516.173C623.223,515.994 622.274,515.859 621.398,515.698C614.234,514.585 606.855,514.851 599.782,516.502C592.704,518.127 585.935,521.131 579.955,525.293C573.973,529.448 568.782,534.76 564.772,540.868C562.768,543.921 561.049,547.167 559.65,550.548C558.249,553.936 557.18,557.437 556.435,561.045L556.142,560.981Z" style="fill:black;fill-rule:nonzero;"/>
        <path d="M328.876,517.655C328.876,517.655 328.977,516.952 329.167,515.633C329.247,514.972 329.422,514.168 329.631,513.214C329.735,512.737 329.848,512.224 329.968,511.677C330.112,511.137 330.266,510.564 330.428,509.959C331.099,507.543 332.087,504.634 333.637,501.475C335.155,498.304 337.221,494.88 339.896,491.453C342.59,488.046 345.938,484.671 349.932,481.686C350.938,480.952 351.985,480.245 353.056,479.552C354.151,478.894 355.257,478.229 356.422,477.639C358.72,476.406 361.16,475.334 363.694,474.415C368.77,472.59 374.205,471.349 379.797,470.756C385.4,470.198 391.133,470.268 396.861,471.166C399.624,471.634 402.509,472.27 405.246,473.129C407.973,474.047 410.657,475.093 413.208,476.38C418.305,478.954 422.934,482.263 426.898,486.011C428.893,487.874 430.702,489.87 432.316,491.944C433.148,492.962 433.894,494.027 434.634,495.077C435.341,496.148 436.02,497.221 436.649,498.301C439.161,502.63 440.98,507.029 442.163,511.216C443.334,515.409 443.946,519.361 444.142,522.871C444.361,526.381 444.234,529.443 443.951,531.935C443.877,532.557 443.807,533.146 443.741,533.701C443.65,534.251 443.564,534.766 443.485,535.246C443.327,536.205 443.189,537.017 443.021,537.667C442.713,538.967 442.55,539.66 442.55,539.66L442.255,539.603C442.255,539.603 442.325,538.898 442.457,537.578C442.538,536.922 442.599,536.107 442.649,535.15C442.677,534.673 442.706,534.16 442.738,533.612C442.744,533.064 442.75,532.482 442.756,531.867C442.756,529.412 442.707,526.428 442.209,523.062C441.723,519.7 440.939,515.945 439.607,512.008C438.309,508.061 436.401,503.967 433.963,499.904C431.47,495.876 428.425,491.875 424.737,488.245C421.083,484.583 416.753,481.349 411.979,478.719C409.603,477.377 407.082,476.256 404.503,475.248C401.91,474.236 399.297,473.452 396.508,472.771C393.815,472.198 391.015,471.739 388.232,471.531C385.442,471.378 382.644,471.372 379.89,471.665C374.379,472.217 369.062,473.705 364.304,475.912C359.505,478.043 355.275,480.861 351.525,483.779C347.794,486.733 344.516,489.848 341.873,493.061C339.193,496.243 337.088,499.45 335.409,502.399C334.574,503.879 333.869,505.304 333.22,506.631C332.634,507.98 332.05,509.211 331.621,510.361C331.396,510.933 331.183,511.475 330.983,511.985C330.807,512.502 330.642,512.987 330.489,513.438C330.177,514.34 329.929,515.117 329.753,515.762C329.372,517.039 329.169,517.719 329.169,517.719L328.876,517.655Z" style="fill:black;fill-rule:nonzero;"/>
        <path d="M442.606,538.479C442.606,538.479 442.707,537.776 442.897,536.457C442.977,535.796 443.152,534.992 443.361,534.038C443.465,533.561 443.578,533.048 443.698,532.501C443.842,531.961 443.996,531.389 444.158,530.783C444.829,528.367 445.817,525.458 447.367,522.299C448.885,519.128 450.951,515.705 453.626,512.277C456.32,508.87 459.668,505.496 463.662,502.511C464.668,501.777 465.715,501.07 466.786,500.377C467.881,499.718 468.987,499.053 470.152,498.463C472.45,497.231 474.891,496.159 477.425,495.24C482.5,493.415 487.935,492.174 493.527,491.581C499.13,491.023 504.863,491.092 510.591,491.991C513.352,492.458 516.239,493.094 518.976,493.953C521.703,494.871 524.386,495.918 526.937,497.204C532.035,499.779 536.664,503.087 540.627,506.836C542.623,508.698 544.432,510.695 546.045,512.768C546.877,513.787 547.624,514.851 548.364,515.902C549.071,516.972 549.75,518.045 550.379,519.125C552.891,523.455 554.71,527.853 555.893,532.04C557.064,536.233 557.675,540.186 557.872,543.695C558.091,547.205 557.964,550.267 557.68,552.759C557.607,553.381 557.537,553.97 557.471,554.525C557.38,555.075 557.294,555.59 557.214,556.07C557.056,557.029 556.919,557.841 556.751,558.491C556.444,559.791 556.28,560.484 556.28,560.484L555.985,560.427C555.985,560.427 556.055,559.722 556.187,558.402C556.268,557.745 556.329,556.931 556.379,555.974C556.407,555.497 556.436,554.984 556.467,554.436C556.473,553.888 556.48,553.306 556.486,552.691C556.487,550.236 556.437,547.252 555.939,543.886C555.453,540.524 554.669,536.77 553.336,532.833C552.039,528.885 550.13,524.791 547.693,520.728C545.2,516.7 542.155,512.7 538.467,509.07C534.812,505.408 530.483,502.173 525.708,499.543C523.333,498.201 520.812,497.08 518.232,496.073C515.639,495.061 513.027,494.276 510.238,493.595C507.545,493.022 504.745,492.563 501.962,492.355C499.172,492.203 496.374,492.197 493.62,492.49C488.109,493.042 482.792,494.529 478.034,496.736C473.235,498.868 469.005,501.685 465.255,504.604C461.524,507.557 458.246,510.672 455.603,513.885C452.923,517.068 450.818,520.274 449.139,523.223C448.304,524.703 447.599,526.128 446.95,527.455C446.364,528.805 445.78,530.035 445.351,531.185C445.126,531.757 444.913,532.299 444.713,532.809C444.537,533.327 444.372,533.811 444.219,534.262C443.907,535.164 443.659,535.942 443.483,536.586C443.102,537.863 442.899,538.543 442.899,538.543L442.606,538.479Z" style="fill:black;fill-rule:nonzero;"/>
        <path d="M330.464,509.449C330.464,509.449 330.685,508.088 331.099,505.536C331.508,502.986 332.209,499.257 333.124,494.511C334.07,489.775 335.345,484.048 336.975,477.517C338.582,470.98 340.598,463.652 343.082,455.742C345.593,447.843 348.513,439.342 352.048,430.521C355.566,421.694 359.8,412.601 364.45,403.351C369.139,394.117 374.272,384.735 379.794,375.38C382.526,370.685 385.406,366.026 388.412,361.423C391.35,356.773 394.475,352.217 397.668,347.707C400.864,343.198 404.214,338.797 407.643,334.481C411.12,330.204 414.72,326.052 418.398,322.026C422.1,318.021 425.938,314.2 429.824,310.522C433.727,306.86 437.73,303.398 441.769,300.114C445.802,296.82 449.965,293.824 454.116,291.009C458.256,288.173 462.492,285.671 466.686,283.376C475.072,278.77 483.48,275.3 491.452,272.817C495.438,271.571 499.324,270.602 503.046,269.81C506.774,269.052 510.347,268.52 513.719,268.192C520.464,267.518 526.382,267.515 531.219,267.867C533.642,268.002 535.788,268.304 537.657,268.507C539.516,268.795 541.098,269.026 542.372,269.26C544.908,269.785 546.26,270.065 546.26,270.065L546.204,270.36C546.204,270.36 544.84,270.174 542.286,269.824C541.006,269.677 539.423,269.523 537.568,269.344C535.704,269.245 533.568,269.063 531.168,269.062C526.377,268.994 520.547,269.171 513.955,270.119C507.364,271.05 500.016,272.698 492.26,275.308C484.515,277.942 476.386,281.551 468.196,286.115C464.117,288.425 459.985,290.908 455.902,293.668C451.82,296.427 447.735,299.378 443.704,302.546C439.683,305.723 435.689,309.082 431.787,312.644C427.893,316.214 424.073,319.961 420.32,323.839C412.846,331.624 405.701,339.978 398.989,348.683C395.674,353.066 392.413,357.498 389.347,362.04C386.297,366.592 383.372,371.203 380.592,375.853C379.176,378.162 377.865,380.522 376.554,382.864C375.224,385.196 373.997,387.57 372.754,389.914C370.322,394.635 368.032,399.354 365.906,404.052C361.6,413.424 357.881,422.671 354.496,431.483C351.109,440.296 348.082,448.696 345.507,456.525C342.887,464.341 340.753,471.593 338.869,478.025C336.981,484.457 335.586,490.135 334.351,494.791C333.164,499.456 332.266,503.135 331.688,505.655C331.081,508.168 330.758,509.508 330.758,509.508L330.464,509.449Z" style="fill:black;fill-rule:nonzero;"/>
        <path d="M443.401,533.686C443.401,533.686 443.568,532.563 443.88,530.457C444.22,528.357 444.719,525.275 445.354,521.353C446.006,517.433 446.85,512.683 447.892,507.249C448.917,501.81 450.166,495.693 451.585,489.031C453.035,482.377 454.634,475.172 456.53,467.601C458.416,460.027 460.666,452.105 462.986,443.915C465.359,435.737 467.783,427.285 470.206,418.685C471.418,414.385 472.64,410.05 473.866,405.699C475.071,401.34 476.308,396.972 477.572,392.61C478.834,388.247 480.107,383.886 481.431,379.559C482.77,375.236 484.16,370.947 485.551,366.695C488.395,358.212 491.364,349.917 494.405,341.948C497.46,333.984 500.628,326.36 503.936,319.262C507.204,312.146 510.598,305.55 514.016,299.615C517.421,293.675 520.824,288.368 524.291,283.98C526.005,281.775 527.711,279.782 529.41,278.048C531.107,276.315 532.751,274.791 534.406,273.617C536.047,272.434 537.613,271.501 539.077,270.897C540.547,270.319 541.853,269.94 542.949,269.877C543.49,269.797 543.972,269.819 544.387,269.834C544.594,269.841 544.785,269.847 544.959,269.853C545.13,269.88 545.286,269.906 545.424,269.928C545.976,270.019 546.26,270.066 546.26,270.066L546.204,270.361C546.204,270.361 545.925,270.338 545.386,270.295C545.253,270.285 545.102,270.272 544.936,270.259C544.769,270.268 544.587,270.277 544.388,270.288C543.992,270.306 543.534,270.322 543.026,270.442C542,270.584 540.78,271.019 539.427,271.662C538.077,272.327 536.641,273.32 535.143,274.559C532.171,277.075 528.979,280.647 525.849,285.138C524.264,287.368 522.703,289.832 521.099,292.457C519.498,295.083 517.891,297.896 516.306,300.884C514.71,303.864 513.121,307.011 511.549,310.305C509.969,313.594 508.359,317.009 506.783,320.557C505.197,324.1 503.638,327.773 502.033,331.523C500.454,335.285 498.889,339.148 497.298,343.081C494.131,350.951 491.069,359.171 488.048,367.56C486.538,371.755 485.027,375.989 483.565,380.259C482.058,384.514 480.592,388.803 479.141,393.099C477.712,397.401 476.304,401.711 474.939,406.018C473.601,410.332 472.303,414.64 471.085,418.935C468.634,427.519 466.463,436.036 464.549,444.322C462.583,452.595 460.855,460.63 459.087,468.217C457.307,475.801 455.625,482.971 454.071,489.59C450.975,502.836 448.394,513.874 446.588,521.601C445.675,525.466 444.959,528.502 444.47,530.574C443.964,532.641 443.695,533.745 443.695,533.745L443.401,533.686Z" style="fill:black;fill-rule:nonzero;"/>
        <path d="M555.857,554.264C555.857,554.264 556.025,553.105 556.338,550.93C556.667,548.758 557.147,545.575 557.759,541.522C558.366,537.471 559.102,532.552 559.947,526.91C560.767,521.266 561.736,514.907 562.697,507.955C563.703,501.011 564.713,493.478 565.807,485.514C566.894,477.55 568.153,469.161 569.238,460.453C570.376,451.751 571.322,442.727 571.98,433.536C572.303,428.94 572.575,424.304 572.773,419.646C572.953,414.987 573.081,410.309 573.167,405.632C573.244,400.953 573.265,396.276 573.245,391.618C573.253,386.961 573.217,382.324 573.118,377.725C572.964,368.528 572.609,359.484 571.994,350.758C571.67,346.396 571.333,342.111 570.926,337.924C570.487,333.743 570.05,329.652 569.522,325.686C568.445,317.759 567.163,310.302 565.537,303.529C563.916,296.755 561.915,290.688 559.698,285.511C558.56,282.936 557.347,280.597 556.085,278.522C554.811,276.453 553.451,274.686 552.135,273.168C550.8,271.664 549.435,270.493 548.181,269.561C547.54,269.121 546.93,268.728 546.359,268.393C545.768,268.098 545.242,267.797 544.748,267.579C544.246,267.376 543.802,267.197 543.42,267.042C543.032,266.901 542.692,266.822 542.424,266.738C541.883,266.581 541.605,266.5 541.605,266.5L541.662,266.205C541.662,266.205 541.951,266.264 542.512,266.38C542.791,266.443 543.146,266.496 543.554,266.608C543.96,266.736 544.429,266.884 544.961,267.051C545.489,267.23 546.047,267.508 546.682,267.775C547.294,268.082 547.952,268.448 548.65,268.862C550.011,269.742 551.512,270.87 553.001,272.342C554.48,273.817 555.978,275.594 557.394,277.67C558.8,279.751 560.164,282.101 561.458,284.691C564.032,289.879 566.222,296.041 568.073,302.879C569.936,309.717 571.47,317.24 572.62,325.254C573.807,333.264 574.601,341.764 575.095,350.563C575.56,359.365 575.806,368.466 575.76,377.707C575.728,382.328 575.631,386.984 575.491,391.655C575.314,396.326 575.086,401.011 574.808,405.693C574.547,410.374 574.239,415.053 573.89,419.708C573.555,424.364 573.222,429.002 572.892,433.603C572.195,442.803 571.508,451.857 570.844,460.619C570.121,469.379 569.388,477.851 568.416,485.851C567.453,493.854 566.305,501.388 565.217,508.336C564.097,515.28 562.982,521.629 561.918,527.243C560.86,532.858 559.865,537.738 558.997,541.747C558.122,545.757 557.43,548.903 556.929,551.042C556.422,553.18 556.152,554.321 556.152,554.321L555.857,554.264Z" style="fill:black;fill-rule:nonzero;"/>
        <path d="M671.271,571.851C671.271,571.851 671.461,570.472 671.819,567.887C672.17,565.302 672.795,561.523 673.422,556.698C673.688,554.28 674.026,551.612 674.389,548.708C674.571,547.256 674.759,545.747 674.955,544.179C675.1,542.605 675.25,540.974 675.405,539.288C675.694,535.917 676.09,532.34 676.351,528.556C676.601,524.772 676.865,520.793 677.139,516.642C677.302,512.486 677.473,508.157 677.649,503.675C677.698,499.192 677.749,494.557 677.8,489.792C677.772,487.41 677.744,484.994 677.714,482.549C677.692,480.104 677.73,477.625 677.598,475.126C677.392,470.125 677.301,465.004 676.855,459.817C676.663,457.222 676.5,454.601 676.28,451.966C675.987,449.337 675.691,446.691 675.393,444.028C675.239,442.696 675.084,441.361 674.928,440.021C674.717,438.69 674.504,437.355 674.292,436.018C673.858,433.343 673.461,430.646 672.979,427.955C672.424,425.277 671.867,422.589 671.308,419.893C671.019,418.547 670.771,417.191 670.447,415.849L669.453,411.825C668.745,409.151 668.122,406.45 667.332,403.791C666.536,401.135 665.739,398.477 664.943,395.819C664.561,394.485 664.117,393.171 663.651,391.865L662.289,387.936L660.928,384.015C660.476,382.708 659.927,381.438 659.436,380.149C658.428,377.58 657.471,374.997 656.429,372.459C655.329,369.946 654.231,367.441 653.138,364.945C648.59,355.051 643.635,345.53 638.031,336.822C632.4,328.138 626.409,320.121 620.155,313.003C618.581,311.236 616.931,309.582 615.359,307.903C614.559,307.078 613.798,306.224 612.983,305.439C612.158,304.665 611.338,303.898 610.526,303.137C609.714,302.374 608.911,301.618 608.113,300.868C607.311,300.123 606.544,299.351 605.695,298.693C604.036,297.327 602.407,295.986 600.812,294.673C600.414,294.345 600.016,294.018 599.622,293.692C599.217,293.38 598.795,293.096 598.386,292.799C597.564,292.211 596.75,291.63 595.945,291.056C595.14,290.481 594.344,289.913 593.558,289.351C592.776,288.783 592,288.226 591.182,287.757C589.578,286.769 588.014,285.806 586.495,284.87C585.73,284.41 585.002,283.906 584.237,283.5C583.469,283.098 582.712,282.702 581.968,282.311C580.478,281.531 579.036,280.774 577.643,280.044C576.955,279.659 576.249,279.348 575.549,279.058C574.853,278.758 574.17,278.464 573.501,278.176C570.821,277.033 568.385,275.9 566.072,275.177C563.785,274.384 561.747,273.645 559.957,273.055C558.134,272.573 556.584,272.163 555.328,271.83C552.812,271.149 551.47,270.786 551.47,270.786L551.527,270.491C551.527,270.491 552.893,270.763 555.456,271.274C556.738,271.538 558.32,271.862 560.179,272.244C562.01,272.739 564.1,273.369 566.454,274.043C568.838,274.634 571.34,275.683 574.102,276.734C574.792,276.999 575.496,277.27 576.213,277.545C576.935,277.812 577.665,278.1 578.375,278.461C579.818,279.145 581.312,279.853 582.856,280.585C583.628,280.952 584.414,281.324 585.21,281.702C586.006,282.084 586.763,282.564 587.56,283.001C589.136,283.905 590.758,284.836 592.423,285.791C593.269,286.249 594.072,286.796 594.882,287.354C595.697,287.906 596.522,288.465 597.356,289.03C598.19,289.596 599.035,290.168 599.888,290.747C600.312,291.04 600.75,291.32 601.169,291.628C601.581,291.949 601.993,292.272 602.407,292.597C604.066,293.896 605.76,295.222 607.486,296.574C608.37,297.226 609.169,297.992 610.006,298.73C610.837,299.475 611.677,300.226 612.524,300.984C613.369,301.743 614.221,302.509 615.082,303.281C615.921,304.073 616.708,304.933 617.533,305.766C619.155,307.459 620.857,309.13 622.482,310.914C624.058,312.742 625.656,314.595 627.273,316.471L628.478,317.892L629.609,319.386C630.365,320.384 631.125,321.389 631.889,322.398C632.654,323.408 633.422,324.424 634.194,325.444C634.941,326.482 635.638,327.564 636.368,328.63C637.086,329.703 637.809,330.781 638.536,331.864C639.248,332.955 640.014,334.018 640.66,335.165C642.001,337.425 643.354,339.703 644.716,341.998C646.064,344.3 647.248,346.715 648.533,349.091C649.157,350.289 649.815,351.475 650.415,352.693C650.992,353.923 651.571,355.155 652.152,356.391C652.732,357.626 653.314,358.865 653.897,360.107L654.771,361.971L655.556,363.88C659.963,373.98 663.466,384.621 666.517,395.351C667.233,398.047 667.949,400.743 668.665,403.436C669.375,406.13 669.909,408.864 670.542,411.567L671.493,415.616C671.802,416.966 672.036,418.33 672.31,419.684C672.839,422.394 673.367,425.097 673.892,427.789C674.339,430.494 674.785,433.188 675.227,435.87C675.452,437.21 675.675,438.547 675.899,439.881C676.085,441.22 676.271,442.555 676.457,443.886C676.833,446.549 677.207,449.195 677.578,451.823C677.903,454.456 678.169,457.078 678.464,459.676C679.626,470.07 680.211,480.179 680.43,489.772C680.458,494.568 680.383,499.236 680.324,503.749C680.102,508.257 679.888,512.613 679.683,516.794C679.323,520.964 678.977,524.96 678.649,528.761C678.511,530.663 678.258,532.505 678.026,534.296C677.795,536.087 677.571,537.828 677.353,539.513C677.135,541.199 676.925,542.83 676.722,544.404C676.467,545.972 676.222,547.484 675.987,548.937C675.517,551.842 675.089,554.51 674.663,556.911C673.754,561.699 672.932,565.434 672.411,567.992C671.86,570.543 671.566,571.904 671.566,571.904L671.271,571.851Z" style="fill:black;fill-rule:nonzero;"/>
        <path d="M502.744,492.894C502.311,496.277 501.844,499.654 501.324,503.02C500.83,506.391 500.265,509.748 499.731,513.111C498.609,519.827 497.417,526.528 496.173,533.218L494.251,543.244C493.57,546.578 492.921,549.917 492.177,553.239C491.463,556.565 490.68,559.878 489.886,563.189L487.521,573.125C486.745,576.44 485.908,579.742 485.182,583.067C484.42,586.383 483.725,589.714 483.035,593.046C482.355,596.38 481.705,599.72 481.077,603.064L480.154,608.084L479.293,613.117L475.899,633.257C474.762,639.97 473.488,646.655 472.235,653.344L472.271,653.036C472.189,655.165 471.988,657.143 471.727,659.175C471.45,661.19 471.134,663.201 470.715,665.193C470.315,667.189 469.817,669.166 469.276,671.135L468.344,674.056C467.992,675.018 467.661,675.987 467.289,676.942C466.893,677.889 466.522,678.846 466.103,679.784C465.66,680.713 465.241,681.653 464.775,682.573C464.272,683.475 463.785,684.384 463.267,685.278L461.602,687.9L459.765,690.415C459.109,691.222 458.423,692.008 457.752,692.803C457.057,693.58 456.293,694.298 455.556,695.036C454.822,695.777 453.968,696.397 453.179,697.08C452.402,697.78 451.489,698.313 450.641,698.921C449.8,699.545 448.876,700.04 447.958,700.541L446.586,701.298C446.117,701.526 445.627,701.712 445.148,701.919C444.179,702.303 443.247,702.784 442.236,703.044C441.24,703.341 440.254,703.672 439.253,703.933L436.211,704.537C435.707,704.657 435.194,704.7 434.681,704.74L433.144,704.874L431.612,705.007C431.102,705.045 430.589,705.013 430.079,705.019L427.021,704.997L423.989,704.712L422.478,704.567C421.976,704.511 421.482,704.398 420.984,704.316C419.99,704.14 418.998,703.959 418.011,703.763C416.044,703.338 414.123,702.733 412.19,702.228C410.29,701.595 408.413,700.903 406.542,700.225L406.667,699.844L412.457,701.184C414.411,701.489 416.341,701.892 418.292,702.111C420.253,702.241 422.184,702.611 424.14,702.569L427.056,702.629L429.954,702.436C430.434,702.395 430.919,702.392 431.395,702.321L432.82,702.089C433.763,701.909 434.726,701.84 435.646,701.574L438.418,700.872C439.323,700.582 440.205,700.229 441.098,699.915C442.006,699.636 442.825,699.145 443.682,698.755C444.105,698.547 444.535,698.352 444.952,698.135L446.16,697.403C446.969,696.92 447.782,696.45 448.515,695.855C449.257,695.275 450.058,694.778 450.732,694.114C451.417,693.467 452.164,692.893 452.8,692.195C453.432,691.495 454.113,690.844 454.727,690.126L456.509,687.922L458.139,685.592L459.618,683.153L460.958,680.625C461.389,679.773 461.783,678.899 462.198,678.038C462.592,677.164 462.941,676.268 463.315,675.384C463.666,674.491 463.979,673.579 464.314,672.677L465.202,669.924C465.753,668.075 466.278,666.212 466.704,664.322C467.151,662.437 467.5,660.528 467.813,658.616C468.109,656.715 468.351,654.743 468.469,652.904L468.482,652.704L468.505,652.594C469.933,645.941 471.341,639.283 472.886,632.652L477.536,612.764L478.686,607.79L479.774,602.802C480.487,599.475 481.178,596.143 481.838,592.806C482.489,589.466 483.135,586.125 483.714,582.772C484.328,579.424 484.832,576.055 485.396,572.699L487.055,562.621C487.601,559.259 488.158,555.901 488.786,552.557C489.382,549.206 490.073,545.874 490.734,542.537L492.834,532.547C494.271,525.896 495.761,519.254 497.32,512.626C498.126,509.318 498.902,506.003 499.749,502.704C500.571,499.398 501.443,496.103 502.351,492.815L502.744,492.894Z" style="fill:black;fill-rule:nonzero;"/>
        <path d="M557.357,175.684C557.357,175.684 557.653,177.125 558.082,179.664C558.298,180.934 558.513,182.482 558.75,184.261C558.989,186.039 559.198,188.054 559.38,190.256C559.565,192.458 559.716,194.852 559.736,197.39C559.755,199.926 559.727,202.611 559.413,205.378C559.078,208.132 558.609,211.021 557.332,213.735C556.683,215.067 555.759,216.385 554.388,217.187C553.011,217.994 551.308,218.022 549.876,217.58C548.434,217.13 547.048,216.394 546.079,215.217C545.099,214.053 544.612,212.591 544.374,211.157C543.883,208.251 544.355,205.365 544.876,202.656C545.454,199.945 546.221,197.367 547.133,194.999C548.015,192.618 549.01,190.434 549.972,188.443C550.933,186.452 551.855,184.648 552.741,183.086C553.62,181.521 554.394,180.163 555.073,179.068C556.421,176.873 557.265,175.666 557.265,175.666L557.333,175.568L557.357,175.684ZM557.275,175.858C557.062,176.242 556.408,177.431 555.438,179.275C554.237,181.545 552.565,184.81 550.716,188.794C549.804,190.791 548.869,192.977 547.931,195.307C547.031,197.649 546.081,200.126 545.4,202.779C544.727,205.413 544.219,208.273 544.678,211.105C544.93,212.499 545.423,213.892 546.363,214.975C547.317,216.047 548.647,216.678 550.01,217.049C551.387,217.403 552.863,217.283 554.005,216.544C555.159,215.823 555.967,214.626 556.535,213.359C557.674,210.795 558.109,207.97 558.382,205.271C558.636,202.557 558.735,199.91 558.716,197.398C558.69,194.887 558.621,192.509 558.509,190.314C558.268,185.927 557.945,182.272 557.689,179.716C557.494,177.64 557.329,176.294 557.275,175.858" style="fill:black;fill-rule:nonzero;"/>
        <path d="M578.809,158.761C578.809,158.761 579.033,159.776 579.363,161.566C579.673,163.358 580.082,165.928 580.35,169.041C580.493,170.597 580.607,172.289 580.632,174.085C580.668,175.879 580.616,177.78 580.392,179.74C580.149,181.692 579.818,183.742 578.886,185.678C578.406,186.623 577.754,187.574 576.752,188.152C576.489,188.263 576.241,188.42 575.963,188.482C575.682,188.532 575.407,188.612 575.122,188.626L574.263,188.592L573.504,188.412C572.445,188.096 571.481,187.55 570.788,186.706C570.09,185.872 569.748,184.829 569.583,183.811C569.233,181.749 569.562,179.709 569.907,177.785C570.299,175.863 570.815,174.028 571.46,172.353C572.075,170.664 572.786,169.123 573.472,167.719C574.157,166.314 574.811,165.04 575.451,163.944C576.083,162.844 576.636,161.888 577.128,161.122C578.103,159.584 578.717,158.743 578.717,158.743L578.784,158.651L578.809,158.761ZM578.725,158.944C578.561,159.262 578.133,160.09 577.494,161.329C576.664,162.941 575.513,165.259 574.216,168.069C573.58,169.48 572.928,171.023 572.257,172.66C571.624,174.31 570.926,176.044 570.431,177.907C569.933,179.756 569.569,181.771 569.888,183.76C570.068,184.738 570.414,185.712 571.073,186.464C571.738,187.2 572.683,187.65 573.613,187.875L574.377,188.005L575.072,187.979C575.301,187.953 575.526,187.865 575.75,187.816C575.973,187.754 576.162,187.604 576.369,187.509C577.155,187.013 577.694,186.176 578.09,185.3C578.883,183.517 579.18,181.53 579.362,179.632C579.539,177.724 579.58,175.861 579.59,174.093C579.584,172.324 579.549,170.648 579.48,169.1C579.324,166.006 579.13,163.424 578.971,161.617C578.861,160.227 578.763,159.3 578.725,158.944" style="fill:black;fill-rule:nonzero;"/>
        <path d="M578.895,209.53C578.895,209.53 579.192,210.971 579.621,213.51C579.837,214.78 580.053,216.328 580.289,218.107C580.528,219.885 580.738,221.9 580.92,224.102C581.105,226.304 581.256,228.697 581.276,231.236C581.295,233.772 581.267,236.457 580.953,239.224C580.618,241.978 580.149,244.867 578.872,247.581C578.223,248.913 577.3,250.231 575.929,251.033C574.552,251.84 572.848,251.868 571.416,251.426C569.975,250.976 568.588,250.24 567.619,249.063C566.639,247.899 566.152,246.437 565.914,245.003C565.423,242.097 565.895,239.212 566.416,236.503C566.993,233.791 567.761,231.214 568.673,228.845C569.555,226.464 570.55,224.28 571.511,222.29C572.472,220.299 573.394,218.494 574.28,216.932C575.159,215.367 575.934,214.009 576.612,212.914C577.96,210.719 578.804,209.512 578.803,209.512L578.872,209.414L578.895,209.53ZM578.814,209.704C578.602,210.088 577.948,211.277 576.977,213.121C575.776,215.391 574.103,218.656 572.255,222.64C571.343,224.637 570.408,226.823 569.47,229.153C568.571,231.495 567.62,233.972 566.94,236.625C566.266,239.259 565.759,242.119 566.218,244.951C566.47,246.345 566.963,247.738 567.903,248.821C568.857,249.893 570.187,250.524 571.55,250.895C572.927,251.249 574.403,251.129 575.545,250.39C576.7,249.669 577.508,248.472 578.075,247.205C579.214,244.641 579.649,241.816 579.922,239.116C580.176,236.403 580.275,233.756 580.256,231.244C580.23,228.733 580.161,226.355 580.049,224.16C579.808,219.773 579.484,216.118 579.228,213.562C579.033,211.486 578.868,210.14 578.814,209.704" style="fill:black;fill-rule:nonzero;"/>
    </g>
</svg>
