<?xml version="1.0" standalone="no"?>
<!DOCTYPE svg PUBLIC "-//W3C//DTD SVG 20010904//EN"
 "http://www.w3.org/TR/2001/REC-SVG-20010904/DTD/svg10.dtd">
<svg version="1.0" xmlns="http://www.w3.org/2000/svg"
 width="600.000000pt" height="108.000000pt" viewBox="0 0 600.000000 108.000000"
 preserveAspectRatio="xMidYMid meet">
<metadata>
Created by potrace 1.15, written by Peter Selinger 2001-2017
</metadata>
<g transform="translate(0.000000,108.000000) scale(0.100000,-0.100000)"
fill="#000000" stroke="none">
<path d="M683 986 c23 -18 26 -166 2 -166 -8 0 -15 -4 -15 -10 0 -5 23 -10 50
-10 48 0 66 12 35 24 -15 5 -22 66 -7 66 4 0 21 -20 37 -45 25 -37 35 -45 63
-45 17 0 32 2 32 3 0 2 -18 23 -40 47 -39 42 -39 44 -20 57 22 16 27 62 8 81
-7 7 -42 12 -87 12 -65 -1 -74 -2 -58 -14z"/>
<path d="M1339 939 c-12 -8 -11 -11 4 -20 12 -7 17 -23 17 -54 0 -25 -4 -45
-10 -45 -5 0 -10 -4 -10 -10 0 -6 33 -10 80 -10 73 0 97 9 70 25 -5 3 -10 28
-10 54 0 27 -6 53 -12 59 -16 12 -111 13 -129 1z"/>
<path d="M2328 330 c-9 -6 -19 -24 -23 -40 -8 -38 12 -72 54 -89 16 -7 32 -19
35 -27 8 -20 -22 -30 -45 -16 -21 14 -49 6 -49 -13 0 -45 93 -62 130 -25 38
38 23 91 -36 122 -24 12 -44 26 -44 31 0 14 30 19 44 7 23 -18 59 5 46 29 -16
31 -76 42 -112 21z"/>
<path d="M2480 220 l0 -120 70 0 c68 0 70 1 70 25 0 23 -4 25 -45 25 -41 0
-45 2 -45 25 0 22 4 25 35 25 28 0 35 4 35 20 0 16 -7 20 -35 20 -31 0 -35 3
-35 25 0 23 4 25 46 25 41 0 45 2 42 23 -3 20 -9 22 -70 25 l-68 3 0 -121z"/>
<path d="M2745 328 c-3 -8 -4 -61 -3 -119 l3 -104 62 1 c34 0 69 6 77 13 20
17 21 185 1 201 -8 7 -41 14 -74 17 -47 5 -62 3 -66 -9z"/>
<path d="M2940 220 l0 -120 70 0 c68 0 70 1 70 25 0 23 -4 25 -45 25 -41 0
-45 2 -45 25 0 23 4 25 40 25 33 0 40 3 40 20 0 17 -7 20 -40 20 -36 0 -40 3
-40 25 0 23 4 25 45 25 41 0 45 2 45 25 0 24 -2 25 -70 25 l-70 0 0 -120z"/>
<path d="M3110 221 l0 -121 25 0 c23 0 25 3 25 51 0 42 3 50 17 47 9 -2 21
-20 27 -42 12 -42 34 -63 59 -53 15 6 15 10 0 53 -12 36 -13 51 -4 65 16 26
14 84 -4 99 -8 7 -44 15 -80 18 l-65 5 0 -122z"/>
<path d="M3290 315 c0 -20 5 -25 25 -25 25 0 25 0 25 -96 0 -93 1 -95 23 -92
21 3 22 8 25 96 2 84 4 92 22 92 15 0 20 7 20 25 0 24 -2 25 -70 25 -68 0 -70
-1 -70 -25z"/>
<path d="M3680 220 l0 -120 25 0 c24 0 25 3 26 58 l1 57 15 -43 c18 -52 41
-53 59 -2 l12 35 1 -52 c1 -50 3 -53 26 -53 l25 0 0 121 c0 119 0 120 -22 117
-18 -2 -29 -18 -48 -67 -13 -34 -26 -57 -29 -50 -28 92 -43 119 -67 119 l-24
0 0 -120z"/>
<path d="M3914 327 c-2 -7 -3 -60 -2 -118 l3 -104 68 -3 c66 -3 67 -3 67 23 0
23 -3 25 -45 25 -41 0 -45 2 -45 25 0 23 4 25 40 25 33 0 40 3 40 19 0 16 -8
20 -37 23 -31 2 -39 7 -41 26 -3 20 1 22 42 22 42 0 46 2 46 25 0 24 -2 25
-65 25 -45 0 -67 -4 -71 -13z"/>
<path d="M4090 220 l0 -120 46 0 c25 0 61 7 80 16 l34 16 0 88 0 88 -34 16
c-19 9 -55 16 -80 16 l-46 0 0 -120z"/>
<path d="M4391 243 c-40 -129 -41 -137 -14 -141 14 -2 26 4 33 17 14 27 56 28
63 1 3 -14 14 -20 31 -20 14 0 26 4 26 10 0 5 -16 59 -36 120 -47 145 -60 147
-103 13z"/>
<path d="M30 290 c0 -23 5 -30 19 -30 11 0 23 -4 26 -10 4 -6 -5 -10 -19 -10
-22 0 -26 -4 -26 -30 0 -23 5 -30 19 -30 11 0 23 -4 26 -10 4 -6 -5 -10 -19
-10 -22 0 -26 -4 -26 -30 0 -25 4 -30 24 -30 18 0 25 6 28 23 4 27 22 26 26
-3 4 -24 52 -29 52 -5 0 24 42 65 67 65 19 0 23 5 23 30 0 25 -4 30 -25 30
-14 0 -25 5 -25 10 0 6 11 10 25 10 21 0 25 5 25 30 0 27 -3 30 -30 30 -25 0
-30 -4 -30 -25 0 -16 -6 -25 -15 -25 -9 0 -15 9 -15 25 0 20 -5 25 -25 25 -20
0 -25 -5 -25 -25 0 -16 -6 -25 -15 -25 -9 0 -15 9 -15 25 0 20 -5 25 -25 25
-21 0 -25 -5 -25 -30z"/>
<path d="M290 210 l0 -110 80 0 c73 0 80 2 80 20 0 18 -7 20 -55 20 -48 0 -55
2 -55 20 0 17 7 20 45 20 41 0 45 2 45 25 0 23 -4 25 -45 25 -38 0 -45 3 -45
20 0 18 7 20 55 20 52 0 55 1 55 25 0 25 -1 25 -80 25 l-80 0 0 -110z"/>
<path d="M5090 280 c-22 -22 -26 -60 -10 -91 9 -15 22 -19 70 -19 47 0 60 3
60 15 0 8 9 15 19 15 10 0 21 -7 25 -15 3 -8 16 -15 30 -15 19 0 25 6 28 28
l4 27 14 -28 c11 -23 19 -27 44 -25 23 2 32 9 34 24 2 12 12 24 23 27 16 4 19
0 19 -24 0 -28 1 -29 50 -29 50 0 50 0 50 33 l1 32 28 -32 c40 -48 61 -44 61
12 0 33 4 45 15 45 11 0 15 -12 15 -45 0 -33 4 -45 15 -45 11 0 15 12 15 45 0
33 4 45 15 45 11 0 15 -12 15 -45 l0 -45 55 0 c50 0 55 2 56 23 l0 22 16 -22
c22 -32 98 -33 108 -2 5 14 0 28 -16 45 -19 20 -20 24 -5 18 14 -6 17 -2 14
17 -3 27 -32 37 -53 19 -21 -18 -18 -48 5 -62 11 -7 20 -17 20 -22 0 -4 -7 -3
-15 4 -8 6 -19 9 -25 5 -6 -4 -10 7 -10 28 0 19 -6 39 -12 45 -7 6 -68 11
-136 11 l-122 2 -7 -32 -6 -31 -24 31 c-24 30 -25 30 -114 30 l-89 -1 0 -45
c0 -27 -4 -42 -10 -38 -6 3 -7 17 -4 29 7 29 -18 56 -52 56 -22 0 -24 -4 -25
-47 -1 -39 -2 -43 -8 -22 -12 37 -30 69 -41 69 -5 0 -18 -20 -28 -44 -21 -47
-61 -68 -88 -45 -32 26 -5 55 42 43 19 -5 24 -2 24 14 0 12 -9 22 -22 26 -36
9 -47 7 -68 -14z"/>
<path d="M554 247 c-9 -24 4 -37 39 -38 l32 -2 -30 -4 c-40 -6 -55 -20 -55
-52 0 -40 18 -51 82 -51 l58 0 0 63 c0 34 -4 68 -9 76 -5 7 -32 16 -60 19 -40
3 -52 1 -57 -11z"/>
</g>
</svg>
