<?xml version="1.0" standalone="no"?>
<!DOCTYPE svg PUBLIC "-//W3C//DTD SVG 20010904//EN"
 "http://www.w3.org/TR/2001/REC-SVG-20010904/DTD/svg10.dtd">
<svg version="1.0" xmlns="http://www.w3.org/2000/svg"
 width="1562.000000pt" height="198.000000pt" viewBox="0 0 1562.000000 198.000000"
 preserveAspectRatio="xMidYMid meet">
<metadata>
Created by potrace 1.15, written by Peter Selinger 2001-2017
</metadata>
<g transform="translate(0.000000,198.000000) scale(0.100000,-0.100000)"
fill="#000000" stroke="none">
<path d="M750 1757 c0 -8 9 -17 20 -20 19 -5 20 -14 20 -140 0 -127 -1 -136
-20 -142 -43 -14 -16 -25 60 -25 78 0 105 12 55 24 -23 6 -25 11 -25 67 0 44
3 60 13 57 6 -2 36 -36 66 -76 l54 -72 54 0 c58 0 68 11 25 29 -15 6 -46 36
-70 66 -42 56 -51 75 -32 75 6 0 22 11 35 25 34 33 34 83 -1 116 -23 22 -35
24 -140 27 -95 3 -114 1 -114 -11z"/>
<path d="M1320 1755 c0 -8 9 -15 19 -15 27 0 31 -18 31 -157 0 -116 -1 -125
-20 -130 -41 -11 -18 -23 45 -23 68 0 79 7 45 28 -19 11 -20 23 -20 162 l0
150 -50 0 c-38 0 -50 -4 -50 -15z"/>
<path d="M9730 1721 l0 -50 43 -3 c29 -2 42 -8 42 -18 0 -10 -13 -16 -42 -18
l-43 -3 0 -50 0 -49 46 0 c38 0 45 -3 42 -17 -2 -13 -15 -19 -46 -21 l-42 -3
0 -45 0 -44 45 0 c44 0 45 0 45 34 0 22 6 36 16 40 24 9 24 9 24 -34 l0 -40
50 0 50 0 0 35 c0 19 3 35 8 35 4 0 12 10 17 23 6 12 15 22 22 22 6 0 15 3 19
8 4 4 25 7 46 7 l38 0 0 49 0 50 -42 3 c-30 2 -43 8 -43 18 0 10 13 16 43 18
l42 3 0 50 0 49 -55 0 -55 0 0 -38 c0 -21 -3 -42 -7 -45 -13 -13 -33 16 -33
49 l0 34 -51 0 -51 0 3 -40 c2 -21 0 -42 -4 -46 -13 -14 -37 19 -37 52 0 34
-1 34 -45 34 l-45 0 0 -49z m237 -83 c43 -42 44 -80 2 -119 -17 -16 -41 -29
-52 -29 -26 0 -97 67 -97 92 0 23 69 87 95 88 10 0 34 -14 52 -32z"/>
<path d="M10180 1585 l0 -185 135 0 135 0 0 35 0 35 -90 0 -90 0 0 35 0 35 64
0 c86 0 96 5 96 46 l0 34 -80 0 -80 0 0 35 0 35 90 0 90 0 0 40 0 40 -135 0
-135 0 0 -185z"/>
<path d="M10490 1585 l0 -185 40 0 40 0 0 185 0 185 -40 0 -40 0 0 -185z"/>
<path d="M11203 1733 c-18 -3 -23 -11 -23 -34 0 -22 -5 -29 -20 -29 -16 0 -20
-7 -20 -35 0 -28 4 -35 20 -35 18 0 20 -7 20 -83 0 -101 11 -117 83 -117 45 0
47 1 47 29 0 25 -4 30 -27 33 -27 3 -28 5 -31 70 -3 66 -3 67 25 70 23 2 29 8
31 36 3 30 1 32 -27 32 -29 0 -31 3 -31 35 0 36 -2 37 -47 28z"/>
<path d="M7622 1700 c-26 -22 -37 -71 -24 -115 11 -41 64 -68 112 -59 19 4 50
7 68 6 26 -2 35 3 44 23 16 36 74 36 88 0 8 -21 16 -25 50 -25 39 0 40 1 40
35 0 24 5 35 15 35 8 0 15 -7 15 -15 0 -8 4 -15 9 -15 5 0 13 -9 16 -20 5 -16
15 -20 51 -20 44 0 44 0 44 35 0 30 3 35 23 35 12 0 33 7 45 16 22 15 22 15
22 -35 l0 -51 60 0 c53 0 60 2 60 20 0 16 -7 20 -35 20 -24 0 -35 5 -35 15 0
10 11 15 35 15 28 0 35 4 35 20 0 16 -7 20 -35 20 -31 0 -35 3 -35 25 0 22 4
25 35 25 24 0 35 5 35 15 0 12 -13 15 -60 15 -50 0 -60 -3 -60 -17 -1 -17 -1
-17 -11 0 -7 12 -23 17 -59 17 l-50 0 0 -91 c0 -80 -2 -90 -15 -79 -8 7 -15
18 -15 26 0 7 -8 17 -17 23 -15 8 -16 13 -5 30 31 51 4 91 -62 91 l-46 0 0
-87 -1 -88 -25 55 c-14 30 -32 70 -39 88 -18 39 -52 44 -61 8 -3 -13 -16 -45
-28 -71 -21 -43 -27 -48 -62 -52 -65 -9 -85 -6 -99 13 -22 29 -18 61 12 84 27
21 37 21 91 4 21 -6 23 -4 20 17 -3 22 -8 24 -63 26 -47 2 -65 -1 -83 -17z"/>
<path d="M8370 1625 c0 -88 1 -95 20 -95 18 0 20 7 20 58 l0 57 53 -58 c74
-81 87 -78 87 23 l0 80 35 0 35 0 0 -80 c0 -73 2 -80 20 -80 18 0 20 7 20 80
l0 80 30 0 30 0 0 -80 0 -80 60 0 c53 0 60 2 60 20 0 16 -7 20 -35 20 -24 0
-35 5 -35 15 0 10 11 15 35 15 28 0 35 4 35 20 0 16 -7 20 -35 20 -31 0 -35 3
-35 25 0 22 4 25 35 25 24 0 35 5 35 15 0 13 -25 15 -165 15 l-164 0 -3 -60
-3 -60 -48 60 c-29 37 -55 60 -67 60 -19 0 -20 -7 -20 -95z"/>
<path d="M8860 1625 c0 -88 1 -95 20 -95 16 0 20 7 20 35 0 44 13 44 39 1 19
-30 27 -34 74 -39 65 -6 93 4 101 37 8 33 -4 55 -43 81 -46 30 -30 51 22 30
16 -7 18 -4 15 16 -2 20 -9 24 -45 27 -34 3 -44 -1 -53 -18 -17 -31 -4 -66 30
-87 48 -28 36 -64 -13 -38 -23 12 -26 11 -30 -3 -3 -15 -5 -14 -12 3 -5 11
-16 25 -24 31 -13 10 -13 14 2 28 39 40 6 86 -61 86 l-42 0 0 -95z"/>
<path d="M11555 1673 c-34 -9 -53 -33 -64 -81 -14 -67 -3 -137 25 -167 20 -22
31 -25 93 -25 85 0 101 6 101 36 0 22 -4 24 -53 24 -66 0 -87 19 -87 78 0 50
17 62 89 62 l51 0 0 34 c0 31 -3 34 -37 40 -42 6 -88 6 -118 -1z"/>
<path d="M1144 1652 c-33 -28 -44 -56 -44 -112 0 -46 4 -56 34 -86 29 -29 41
-34 80 -34 36 0 52 6 78 29 26 24 31 32 21 42 -10 10 -17 9 -33 -9 -41 -44
-120 -15 -120 43 0 25 1 25 80 25 44 0 80 3 80 8 0 29 -24 84 -43 97 -29 21
-107 19 -133 -3z"/>
<path d="M1488 1663 c-19 -5 -25 -23 -9 -23 27 0 41 -34 41 -101 0 -58 -3 -71
-20 -81 -34 -21 -23 -28 45 -28 63 0 85 12 45 25 -18 6 -20 15 -20 111 l0 104
-32 -1 c-18 -1 -41 -3 -50 -6z"/>
<path d="M1660 1650 c-21 -21 -26 -55 -10 -65 20 -12 50 6 50 30 0 29 22 38
49 19 37 -27 27 -51 -31 -69 -29 -10 -61 -24 -70 -33 -24 -20 -23 -74 0 -95
22 -20 74 -22 102 -5 15 10 22 10 32 0 14 -14 57 -16 78 -2 13 9 13 11 0 20
-8 5 -19 11 -24 13 -5 2 -9 39 -10 84 -1 104 -15 123 -93 123 -40 0 -58 -5
-73 -20z"/>
<path d="M1880 1660 c0 -5 9 -19 20 -30 16 -16 20 -33 20 -90 0 -59 -3 -72
-20 -82 -34 -21 -23 -28 45 -28 68 0 79 7 45 28 -17 10 -20 23 -20 82 0 58 3
71 19 80 55 29 81 2 81 -84 0 -64 -7 -86 -26 -86 -8 0 -14 -4 -14 -10 0 -6 28
-10 65 -10 68 0 79 7 45 28 -17 11 -20 23 -20 96 0 68 -3 86 -18 99 -22 20
-92 23 -111 5 -11 -10 -14 -10 -18 0 -6 14 -93 17 -93 2z"/>
<path d="M2232 1654 c-52 -36 -68 -123 -32 -182 24 -39 62 -55 114 -49 48 7
97 50 78 69 -9 9 -17 7 -35 -10 -71 -66 -150 34 -102 128 11 21 23 30 40 30
21 0 25 -5 25 -29 0 -30 28 -50 50 -36 17 10 11 61 -8 78 -24 22 -100 22 -130
1z"/>
<path d="M2444 1634 c-30 -31 -34 -42 -34 -89 0 -47 4 -58 34 -89 28 -30 40
-36 76 -36 65 0 128 46 100 74 -7 7 -15 3 -26 -12 -22 -32 -76 -30 -103 4 -12
15 -21 35 -21 45 0 17 9 19 81 19 l81 0 -7 38 c-10 58 -39 82 -98 82 -44 0
-53 -4 -83 -36z"/>
<path d="M10633 1664 c-20 -9 -15 -52 6 -64 11 -5 40 -10 65 -10 65 0 57 -16
-10 -23 -72 -7 -94 -27 -94 -82 0 -59 24 -78 105 -83 36 -2 80 -1 100 2 l35 7
0 103 c0 140 -8 150 -117 153 -43 1 -84 0 -90 -3z"/>
<path d="M10916 1649 c-55 -43 -23 -141 50 -155 18 -3 38 -12 45 -20 10 -12 0
-14 -60 -14 l-71 0 0 -30 0 -30 94 0 c102 0 120 8 132 56 9 35 -10 72 -43 85
-110 43 -115 55 -28 61 44 3 50 6 53 27 5 32 -12 41 -84 41 -47 0 -67 -5 -88
-21z"/>
<path d="M11350 1535 l0 -135 45 0 45 0 0 135 0 135 -45 0 -45 0 0 -135z"/>
<path d="M560 616 c-77 -34 -171 -141 -143 -166 4 -4 31 -5 58 -1 47 6 50 8
53 36 5 40 29 65 63 65 35 0 59 -24 59 -59 0 -35 -31 -64 -63 -59 -13 1 -31
-3 -39 -9 -7 -7 -45 -13 -83 -15 -57 -2 -70 -6 -73 -20 -3 -16 7 -18 101 -18
l104 0 46 43 c36 33 45 48 40 65 -3 13 2 33 13 49 11 16 21 44 24 63 5 33 7
35 40 33 28 -2 31 0 15 7 -42 18 -157 10 -215 -14z"/>
<path d="M4380 557 c-36 -18 -62 -74 -56 -120 5 -47 33 -78 104 -119 42 -23
52 -35 50 -52 -4 -28 -52 -34 -79 -10 -15 13 -25 15 -51 8 -44 -13 -46 -37 -8
-75 30 -30 32 -31 111 -27 70 3 83 6 100 27 21 26 27 118 9 151 -6 11 -42 38
-81 61 -47 28 -69 47 -67 58 4 23 46 26 69 5 18 -16 22 -16 54 -1 37 18 41 27
25 58 -24 44 -124 64 -180 36z"/>
<path d="M4627 563 c-4 -3 -7 -96 -7 -205 l0 -199 123 3 122 3 3 38 3 37 -80
0 -81 0 0 40 0 39 63 3 62 3 3 38 3 37 -65 0 -66 0 0 40 0 39 78 3 77 3 3 34
c2 20 -2 37 -10 42 -15 10 -222 12 -231 2z"/>
<path d="M4927 563 c-4 -3 -7 -96 -7 -205 l0 -199 43 3 42 3 3 194 c2 149 -1
196 -10 203 -16 9 -62 11 -71 1z"/>
<path d="M5082 562 c-9 -6 -12 -54 -10 -203 l3 -194 85 -3 c107 -4 155 9 175
48 19 37 19 109 0 137 -13 18 -13 22 0 33 35 29 10 146 -36 171 -26 14 -200
23 -217 11z"/>
<path d="M5417 563 c-4 -3 -7 -96 -7 -205 l0 -199 123 3 122 3 3 37 3 37 -83
3 -83 3 -3 37 -3 37 68 3 68 3 3 37 3 37 -68 3 -68 3 -3 37 -3 37 83 3 83 3 3
34 c2 20 -2 37 -10 42 -15 10 -222 12 -231 2z"/>
<path d="M5717 563 c-4 -3 -7 -96 -7 -205 l0 -198 40 0 40 0 0 80 0 80 29 0
c31 0 40 -16 66 -115 9 -37 13 -40 49 -43 21 -2 43 1 48 6 5 5 -2 42 -17 91
l-26 82 20 26 c15 18 21 40 21 79 0 92 -48 123 -191 124 -36 0 -69 -3 -72 -7z"/>
<path d="M6023 563 c-8 -2 -13 -22 -13 -44 0 -39 0 -39 40 -39 l40 0 0 -160 0
-160 45 0 45 0 0 160 0 160 40 0 c40 0 40 0 40 39 0 26 -5 41 -16 45 -19 7
-203 7 -221 -1z"/>
<path d="M6692 562 c-9 -7 -12 -54 -10 -203 l3 -194 43 -3 42 -3 1 93 c1 63 3
83 9 63 4 -16 14 -47 23 -67 13 -31 21 -38 44 -38 26 0 30 6 48 63 l20 62 3
-88 3 -88 42 3 42 3 3 197 2 198 -24 6 c-50 12 -62 -1 -96 -106 -18 -55 -36
-102 -40 -105 -9 -5 -70 141 -70 167 0 37 -54 61 -88 40z"/>
<path d="M7087 564 c-4 -4 -7 -97 -7 -206 l0 -198 120 0 120 0 0 40 0 40 -75
0 -75 0 0 40 0 39 63 3 62 3 3 38 3 37 -65 0 -66 0 0 40 0 40 76 0 75 0 -3 43
-3 42 -111 3 c-60 1 -113 -1 -117 -4z"/>
<path d="M7398 564 c-5 -4 -8 -97 -8 -207 l0 -199 105 4 c99 3 106 5 132 31
27 27 28 31 31 155 3 138 -3 160 -49 195 -21 15 -49 21 -115 24 -49 3 -92 2
-96 -3z m160 -96 c8 -8 12 -47 12 -110 0 -106 -6 -118 -64 -118 l-26 0 0 120
0 120 33 0 c18 0 38 -5 45 -12z"/>
<path d="M7722 562 c-9 -6 -12 -54 -10 -203 l3 -194 43 -3 42 -3 -2 203 -3
203 -30 3 c-16 1 -36 -2 -43 -6z"/>
<path d="M7953 558 c-6 -7 -23 -53 -38 -103 -14 -49 -40 -133 -56 -185 -16
-52 -25 -98 -20 -103 5 -5 26 -7 47 -5 34 3 39 7 48 36 8 29 13 32 47 32 35 0
40 -4 53 -35 14 -32 19 -35 55 -35 32 0 41 4 41 17 0 18 -23 100 -78 273 -34
105 -39 115 -63 118 -14 2 -30 -3 -36 -10z"/>
<path d="M1990 404 c0 -69 5 -134 10 -145 7 -12 21 -19 40 -19 25 0 30 4 30
25 0 16 -6 25 -15 25 -12 0 -15 20 -15 120 l0 120 -25 0 -25 0 0 -126z"/>
<path d="M2518 503 c-11 -3 -18 -14 -18 -28 0 -14 -7 -25 -20 -28 -25 -7 -26
-37 -1 -37 16 0 19 -9 23 -76 4 -84 11 -94 71 -94 33 0 37 3 37 25 0 21 -5 25
-30 25 l-30 0 0 60 0 60 30 0 c23 0 30 4 30 20 0 16 -7 20 -30 20 -27 0 -30 3
-30 30 0 17 -3 29 -7 29 -5 -1 -16 -3 -25 -6z"/>
<path d="M13790 340 l0 -161 33 3 32 3 5 75 5 75 28 -49 c15 -27 27 -54 27
-60 1 -26 28 -46 64 -46 l36 0 0 161 0 160 -32 -3 -33 -3 -3 -85 -3 -85 -42
85 c-41 82 -43 85 -79 88 l-38 3 0 -161z"/>
<path d="M14472 343 l3 -158 92 -3 c81 -2 92 -1 97 15 3 10 2 -10 -1 -45 l-5
-64 28 4 c29 3 37 22 100 223 l19 60 3 -98 3 -98 32 3 32 3 3 93 3 92 34 0 34
0 3 -92 3 -93 33 -3 33 -3 -3 123 -3 123 -134 0 -134 0 -16 -52 c-8 -29 -18
-53 -21 -53 -3 0 -14 24 -25 53 -18 46 -24 52 -53 55 -41 4 -42 -15 -7 -98 14
-33 25 -64 25 -70 0 -6 -24 -10 -55 -10 l-55 0 0 125 0 125 -35 0 -36 0 3
-157z"/>
<path d="M1115 423 c-32 -35 -34 -103 -5 -150 19 -33 35 -38 90 -34 27 2 70
43 70 67 0 21 -43 17 -63 -7 -16 -18 -20 -19 -40 -6 -41 27 -32 37 37 37 l66
0 0 34 c0 26 -7 41 -31 60 -42 36 -90 35 -124 -1z"/>
<path d="M1316 431 c-12 -13 -16 -32 -14 -57 3 -37 5 -39 47 -46 53 -9 67 -20
47 -37 -16 -13 -56 1 -56 19 0 6 -12 10 -26 10 -24 0 -25 -3 -19 -27 10 -43
29 -56 79 -56 57 0 86 23 86 68 0 39 -18 56 -67 64 -40 7 -55 27 -27 38 10 4
22 0 29 -10 15 -21 65 -23 65 -3 0 47 -110 75 -144 37z"/>
<path d="M1509 421 c-23 -23 -29 -38 -29 -71 0 -85 57 -134 129 -109 38 13 51
41 51 110 0 40 -5 55 -25 74 -35 36 -88 34 -126 -4z"/>
<path d="M1803 426 c-24 -21 -28 -31 -28 -79 0 -62 26 -101 73 -110 48 -9 101
25 102 66 0 23 -26 22 -57 -3 -19 -15 -30 -17 -44 -9 -10 5 -19 16 -19 24 0
12 14 15 60 15 l60 0 0 38 c0 76 -86 110 -147 58z"/>
<path d="M2123 435 c-41 -29 -48 -94 -18 -167 17 -42 123 -40 145 2 26 48 -10
70 -50 30 -22 -22 -45 -18 -61 11 -9 18 -5 19 61 19 l70 0 0 31 c0 68 -91 113
-147 74z"/>
<path d="M2313 426 c-24 -21 -27 -31 -27 -80 0 -47 4 -60 26 -82 49 -50 148
-28 148 33 0 30 -32 31 -61 2 -20 -20 -22 -20 -40 -3 -23 21 -25 76 -3 98 21
21 31 20 46 -4 7 -11 23 -20 35 -20 16 0 23 6 23 20 0 58 -94 81 -147 36z"/>
<path d="M2786 425 c-22 -20 -26 -32 -26 -79 0 -83 33 -113 118 -108 51 4 82
119 45 172 -23 35 -33 40 -74 40 -25 0 -45 -8 -63 -25z"/>
<path d="M2980 344 l0 -104 25 0 c24 0 25 2 25 69 0 51 4 74 16 86 29 28 39
12 44 -71 5 -77 6 -79 33 -82 l27 -3 0 83 c0 112 -13 128 -105 126 l-65 -1 0
-103z"/>
<path d="M3311 424 c-27 -23 -31 -32 -31 -78 0 -30 6 -61 15 -73 22 -31 75
-46 111 -33 33 13 44 26 44 58 0 28 -26 29 -56 1 l-22 -21 -22 22 c-17 17 -21
29 -16 53 11 56 46 75 66 37 16 -29 50 -26 50 4 0 56 -86 74 -139 30z"/>
<path d="M12582 418 c-24 -7 -32 -13 -28 -24 3 -9 6 -83 6 -165 l0 -149 34 0
35 0 3 53 3 52 30 -52 c29 -51 32 -53 73 -53 23 0 42 3 42 6 0 3 -13 23 -28
43 -69 87 -69 84 -27 141 l37 50 -44 0 c-41 0 -46 -3 -64 -37 l-19 -38 -5 87
c-3 47 -7 88 -10 91 -3 2 -20 0 -38 -5z"/>
<path d="M14037 424 c-12 -13 -8 -219 5 -232 8 -8 45 -12 100 -12 l88 0 0 35
0 35 -70 0 c-40 0 -70 4 -70 10 0 6 28 10 63 10 34 0 68 4 75 9 9 5 12 28 10
77 l-3 69 -95 3 c-53 1 -99 0 -103 -4z"/>
<path d="M14256 415 c-11 -31 -7 -210 6 -223 18 -18 172 -16 187 2 8 9 11 51
9 122 l-3 109 -96 3 c-81 2 -98 0 -103 -13z"/>
<path d="M15042 418 c-16 -16 -16 -210 0 -226 7 -7 44 -12 95 -12 l83 0 0 35
0 35 -60 0 -60 0 0 60 0 60 60 0 60 0 0 30 0 30 -83 0 c-51 0 -88 -5 -95 -12z"/>
<path d="M11903 322 c-51 -8 -79 -84 -48 -129 10 -14 12 -24 5 -28 -16 -10
-12 -52 6 -59 9 -3 35 -6 59 -6 47 0 73 -18 53 -38 -7 -7 -22 -12 -34 -12 -23
0 -48 22 -37 33 3 4 -12 7 -35 7 -38 0 -42 -2 -42 -24 0 -42 43 -66 117 -66
55 0 67 4 88 25 51 50 21 111 -60 123 l-50 8 39 7 c51 8 76 32 76 74 0 21 5
33 14 33 20 0 36 23 26 40 -8 13 -122 21 -177 12z"/>
<path d="M12139 315 c-61 -33 -73 -145 -22 -205 21 -26 32 -30 73 -30 79 0
122 29 87 59 -10 8 -22 7 -46 -2 -35 -13 -64 -2 -69 27 -3 13 7 16 62 16 l66
0 0 35 c0 90 -76 141 -151 100z"/>
<path d="M12371 316 c-35 -20 -50 -54 -51 -118 0 -46 5 -62 26 -87 23 -27 32
-31 79 -31 65 0 104 24 83 53 -11 15 -17 16 -46 5 -36 -14 -65 -4 -70 26 -3
13 7 16 62 16 66 0 66 0 66 29 0 93 -76 148 -149 107z"/>
<path d="M13250 191 c0 -9 -11 -12 -34 -9 -38 4 -38 1 5 -49 46 -54 82 -67
207 -71 89 -3 123 -1 157 13 54 20 91 49 109 83 l14 27 -38 -1 c-21 -1 -51
-10 -66 -21 -63 -45 -150 -40 -196 11 -15 17 -28 25 -28 18 0 -7 -14 -12 -35
-12 -33 0 -35 -2 -25 -20 16 -29 1 -24 -37 12 -18 18 -33 26 -33 19z"/>
<path d="M450 173 c0 -13 72 -72 110 -90 41 -21 207 -32 196 -14 -4 6 -14 11
-22 11 -10 0 -14 13 -14 50 l0 50 -135 0 c-74 0 -135 -3 -135 -7z"/>
<path d="M8590 105 c-17 -20 -9 -48 18 -60 24 -11 28 -20 12 -30 -6 -3 -13 1
-16 9 -9 23 -24 20 -24 -4 0 -20 6 -20 189 -19 135 0 191 4 195 12 3 9 5 8 5
0 1 -9 17 -13 46 -13 48 0 65 16 65 63 0 49 -69 76 -104 41 -15 -14 -16 -14
-16 1 0 13 -9 16 -42 13 -43 -3 -43 -3 -78 -78 -4 -8 -15 -16 -24 -18 -12 -3
-16 4 -16 32 0 19 5 38 10 41 20 12 10 25 -19 25 -16 0 -32 -6 -34 -12 -4 -10
-6 -10 -6 0 -1 18 -145 17 -161 -3z"/>
</g>
</svg>
