<?xml version="1.0" standalone="no"?>
<!DOCTYPE svg PUBLIC "-//W3C//DTD SVG 20010904//EN"
 "http://www.w3.org/TR/2001/REC-SVG-20010904/DTD/svg10.dtd">
<svg version="1.0" xmlns="http://www.w3.org/2000/svg"
 width="1000.000000pt" height="115.000000pt" viewBox="0 0 1000.000000 115.000000"
 preserveAspectRatio="xMidYMid meet">
<metadata>
Created by potrace 1.15, written by Peter Selinger 2001-2017
</metadata>
<g transform="translate(0.000000,115.000000) scale(0.100000,-0.100000)"
fill="#000000" stroke="none">
<path d="M8672 1023 c-30 -173 -30 -173 13 -173 25 0 33 -4 29 -14 -7 -18 28
-29 65 -21 25 5 31 13 36 46 5 31 11 39 29 39 23 0 63 24 83 50 20 27 24 71 7
109 -40 93 -29 86 -139 89 l-100 3 -23 -128z"/>
<path d="M2080 995 l0 -145 35 0 35 0 0 145 0 145 -35 0 -35 0 0 -145z"/>
<path d="M2600 995 l0 -145 30 0 c28 0 30 3 30 35 l0 36 31 -36 c27 -30 37
-35 76 -35 l45 0 -41 46 c-23 26 -41 51 -41 55 0 5 16 26 35 48 19 21 35 41
35 45 0 3 -17 6 -37 6 -28 0 -45 -8 -70 -32 l-33 -32 0 77 0 77 -30 0 -30 0 0
-145z"/>
<path d="M4480 980 l0 -130 25 0 c14 0 25 5 25 12 0 9 3 9 12 0 16 -16 70 -15
92 1 10 7 21 29 25 47 l8 35 15 -37 c21 -47 49 -62 106 -55 56 6 81 35 82 93
0 75 -59 117 -135 96 -21 -5 -36 -20 -50 -47 l-19 -40 -6 31 c-4 17 -10 36
-14 42 -10 17 -71 25 -95 13 -20 -11 -21 -9 -21 29 0 36 -2 40 -25 40 l-25 0
0 -130z"/>
<path d="M3730 970 l0 -120 48 0 c110 0 142 27 142 120 0 93 -32 120 -142 120
l-48 0 0 -120z"/>
<path d="M6886 1063 c-3 -16 -15 -59 -26 -98 -28 -100 -27 -115 9 -115 27 0
31 4 38 43 7 33 13 43 31 45 18 3 22 -1 22 -26 0 -50 9 -62 46 -62 19 0 34 3
34 8 -1 4 -5 27 -9 51 -8 37 -6 47 9 60 30 26 35 76 11 100 -17 17 -34 21 -90
21 -67 0 -69 -1 -75 -27z"/>
<path d="M9075 1080 c-10 -16 -43 -209 -37 -215 3 -3 18 -5 33 -5 27 0 39 15
39 51 0 15 7 19 33 19 18 0 38 5 45 12 9 9 12 6 12 -13 0 -13 7 -35 16 -47 13
-19 24 -22 84 -22 l69 0 7 48 c12 83 18 88 38 33 18 -50 18 -51 -3 -85 l-22
-34 22 -7 c28 -9 63 10 80 44 11 20 67 101 84 119 1 1 -1 -17 -6 -40 -14 -74
-13 -78 25 -78 30 0 34 3 40 34 6 29 11 35 39 38 17 3 39 8 47 12 11 5 15 -1
16 -24 2 -49 18 -60 95 -60 48 0 69 4 69 13 0 9 2 9 9 -1 5 -8 21 -12 37 -10
28 3 29 6 35 63 4 33 10 84 14 113 7 51 7 52 -18 52 -30 0 -47 -24 -47 -67 0
-20 -3 -24 -9 -14 -6 10 -28 12 -84 10 l-75 -4 -11 32 c-13 36 -45 47 -116 41
-37 -3 -40 -6 -43 -35 -3 -29 -7 -32 -40 -35 -26 -2 -40 -9 -48 -26 -18 -36
-23 -37 -35 -4 l-11 32 -96 0 c-54 0 -104 -5 -112 -10 -12 -8 -16 -3 -20 23
-3 21 -14 36 -30 44 -30 15 -116 17 -125 3z"/>
<path d="M1922 1034 c-18 -12 -22 -24 -20 -52 3 -33 7 -38 46 -52 24 -9 42
-21 40 -26 -3 -10 -9 -10 -54 0 -27 6 -32 4 -37 -16 -7 -27 4 -35 60 -44 26
-4 51 -1 70 8 23 11 29 20 31 56 3 40 1 43 -30 56 -80 32 -76 29 -51 33 12 3
31 -1 42 -6 17 -9 22 -7 32 11 10 18 8 24 -7 35 -25 18 -95 16 -122 -3z"/>
<path d="M2186 1019 c-30 -35 -34 -84 -12 -128 21 -40 55 -51 131 -44 l65 6 0
98 0 98 -79 0 c-77 0 -81 -1 -105 -30z"/>
<path d="M2419 1021 c-33 -34 -39 -83 -14 -130 28 -56 118 -65 164 -17 l22 23
-26 17 c-23 15 -27 15 -50 0 -24 -16 -27 -16 -45 1 -42 38 -11 87 42 67 24 -9
36 -8 56 2 l26 13 -27 27 c-39 38 -107 37 -148 -3z"/>
<path d="M4113 1040 c-25 -10 -53 -58 -53 -90 0 -29 27 -77 49 -90 25 -13 72
-13 105 0 55 21 53 148 -4 177 -29 15 -65 16 -97 3z"/>
<path d="M4357 1043 c-4 -3 -25 -6 -47 -5 l-40 2 0 -125 0 -125 30 0 c27 0 30
3 30 34 l0 34 43 -5 c39 -5 46 -2 65 22 32 40 31 117 -3 150 -23 24 -64 33
-78 18z"/>
<path d="M4877 1009 c10 -17 24 -35 30 -41 10 -8 5 -21 -22 -58 -19 -26 -35
-50 -35 -54 0 -3 16 -6 35 -6 28 0 38 5 47 25 6 14 14 25 18 25 4 0 15 -11 24
-25 11 -17 26 -25 46 -25 17 0 30 3 30 6 0 3 -14 27 -31 52 l-30 45 31 43 31
44 -34 0 c-25 0 -39 -6 -49 -22 l-15 -22 -12 22 c-9 16 -21 22 -47 22 l-35 0
18 -31z"/>
<path d="M6693 990 c-71 -46 -69 -42 -78 -97 l-7 -43 60 0 59 0 16 63 c27 102
30 117 21 117 -5 0 -37 -18 -71 -40z"/>
<path d="M7124 1022 c-49 -7 -93 -95 -71 -141 11 -24 18 -26 82 -28 l70 -2 19
67 c10 37 20 74 22 84 4 13 -5 17 -48 20 -29 1 -63 2 -74 0z"/>
<path d="M7482 1019 c-18 -4 -42 -15 -52 -24 -19 -17 -20 -17 -20 3 0 21 -5
22 -75 22 -73 0 -75 -1 -75 -25 0 -21 5 -25 28 -25 27 0 27 0 -15 -40 -24 -21
-43 -48 -43 -60 0 -18 6 -20 75 -20 73 0 75 1 75 25 0 21 -5 25 -32 25 l-32 0
40 35 c21 19 42 35 47 35 4 0 4 -18 1 -40 -8 -52 14 -80 63 -80 74 0 117 46
111 120 -3 40 -6 45 -33 50 -16 3 -45 3 -63 -1z"/>
<path d="M7730 1022 l-115 -3 -14 -52 c-7 -29 -16 -67 -18 -84 -5 -30 -3 -33
20 -33 21 0 28 8 43 48 10 26 22 53 27 60 9 11 57 18 57 7 0 -10 -41 -159 -46
-167 -3 -4 10 -8 29 -8 35 0 47 12 47 49 0 14 6 17 29 13 41 -6 88 17 101 49
6 14 10 46 8 69 -4 54 -10 56 -168 52z"/>
<path d="M7984 1020 c-56 -10 -98 -118 -60 -156 10 -9 34 -13 81 -11 l68 2 12
50 c29 118 30 113 -24 117 -26 1 -61 1 -77 -2z"/>
<path d="M8121 1003 c0 -10 4 -43 9 -73 8 -52 6 -58 -22 -98 l-30 -43 38 3
c35 3 43 10 110 103 40 55 73 106 74 113 0 7 -12 12 -29 12 -21 0 -34 -9 -52
-34 -27 -39 -39 -38 -39 5 0 26 -3 29 -30 29 -22 0 -30 -5 -29 -17z"/>
<path d="M1481 958 c-32 -51 13 -103 53 -62 15 14 16 12 16 -21 0 -52 15 -75
49 -75 35 0 41 13 41 91 0 54 -2 60 -26 71 -23 11 -29 10 -45 -11 -18 -22 -19
-22 -19 -3 0 28 -53 36 -69 10z"/>
<path d="M5228 393 c-21 -5 -32 -33 -19 -46 7 -7 19 -7 36 1 34 16 40 15 59
-4 25 -24 20 -29 -28 -29 -53 0 -86 -25 -86 -67 0 -57 68 -88 118 -52 14 9 22
11 22 4 0 -6 10 -10 23 -8 13 2 22 10 21 21 0 9 -1 44 -2 77 -2 50 -6 65 -27
85 -23 24 -68 31 -117 18z"/>
<path d="M5370 387 c0 -7 6 -33 14 -58 8 -24 20 -65 26 -91 11 -43 16 -48 41
-48 24 0 30 5 38 38 6 20 11 43 11 50 0 6 5 12 10 12 6 0 10 -6 10 -12 0 -7 5
-30 11 -50 8 -33 14 -38 38 -38 25 0 30 5 35 38 4 20 16 61 27 90 24 66 24 82
0 82 -25 0 -36 -16 -53 -75 l-14 -50 -15 60 c-10 42 -20 61 -32 63 -27 5 -47
-17 -47 -53 0 -68 -12 -70 -32 -6 -16 53 -22 61 -43 61 -14 0 -25 -6 -25 -13z"/>
<path d="M5668 378 c-36 -45 -18 -87 47 -108 36 -12 46 -34 20 -44 -8 -3 -27
-1 -41 4 -36 14 -44 13 -44 -10 0 -27 36 -43 82 -37 53 7 80 33 76 71 -3 30
-12 37 -103 80 -22 10 22 25 58 19 28 -4 37 -2 37 9 0 25 -23 38 -69 38 -35 0
-50 -5 -63 -22z"/>
<path d="M1796 287 c-3 -34 -8 -109 -11 -165 -6 -97 -5 -103 12 -98 10 2 37
10 61 16 l43 11 -6 52 c-19 166 -29 219 -44 224 -9 2 -24 8 -33 13 -14 8 -17
1 -22 -53z"/>
<path d="M7603 337 c-38 -9 -43 -14 -57 -55 -15 -42 -15 -47 1 -64 15 -17 15
-19 0 -36 -14 -15 -15 -23 -3 -62 11 -39 18 -46 55 -58 38 -13 44 -12 62 4 18
16 20 16 39 -1 17 -16 25 -16 64 -5 41 11 45 15 56 57 9 39 9 48 -6 64 -16 18
-16 20 0 32 17 12 17 17 4 63 -13 47 -16 49 -57 58 -31 7 -49 6 -63 -3 -16
-10 -23 -10 -36 1 -13 11 -27 12 -59 5z"/>
<path d="M3290 318 c-17 -18 -20 -35 -20 -101 0 -75 10 -113 34 -129 6 -4 57
-8 113 -8 85 0 108 -3 135 -20 42 -26 61 -26 53 -1 -5 17 1 19 75 23 58 2 84
7 90 18 5 8 10 59 10 112 0 75 -4 100 -16 112 -13 14 -49 16 -234 16 -213 0
-220 -1 -240 -22z m224 -28 c-1 -8 -5 -28 -9 -45 -7 -29 -6 -29 12 5 24 47 73
54 98 16 l17 -26 20 25 c48 62 123 1 96 -77 -16 -45 -31 -58 -66 -58 -24 0
-33 6 -43 29 l-13 29 -18 -29 c-13 -21 -25 -29 -47 -29 -32 0 -43 11 -59 55
-10 28 -10 27 -11 -23 -1 -49 -3 -53 -23 -50 -12 2 -28 16 -37 35 -9 18 -19
33 -22 33 -3 0 -13 -16 -22 -36 -32 -67 -66 -26 -81 99 -7 53 -6 57 13 57 12
0 21 -6 21 -12 0 -7 5 -31 11 -52 l11 -39 21 38 c28 49 42 53 55 18 l9 -28 13
43 c11 35 18 42 34 40 12 -2 20 -10 20 -18z"/>
<path d="M2084 273 c-4 -27 -9 -42 -11 -35 -7 20 -76 15 -101 -8 -29 -27 -28
-45 3 -76 l26 -26 -31 7 c-27 6 -30 4 -30 -19 0 -31 39 -45 82 -28 16 6 28 6
28 1 0 -5 13 -9 29 -9 31 0 41 14 41 59 0 27 24 70 34 61 3 -3 1 -23 -4 -45
-15 -65 -13 -75 16 -75 17 0 28 6 31 20 5 19 6 19 33 -2 35 -25 91 -18 116 15
14 20 15 20 10 2 -3 -11 -8 -37 -12 -57 -6 -37 -5 -38 24 -38 26 0 31 5 37 30
5 23 12 30 29 30 13 0 35 9 50 21 21 17 26 18 26 5 0 -11 9 -16 29 -16 27 0
29 3 36 55 4 36 11 55 20 55 11 0 11 -9 0 -55 -14 -60 -12 -65 21 -65 29 0 34
8 41 70 4 38 10 50 23 50 13 0 20 -13 27 -50 10 -47 9 -52 -14 -70 -18 -14
-22 -24 -17 -44 7 -30 6 -29 38 -14 29 13 45 35 93 126 40 77 42 102 9 102
-17 0 -28 -9 -39 -32 l-16 -33 -7 33 c-6 29 -10 32 -42 32 l-36 0 22 20 c32
30 28 50 -8 50 -30 0 -80 -37 -80 -60 0 -5 -4 -10 -8 -10 -5 0 -7 13 -4 30 3
21 0 32 -12 36 -24 9 -48 -16 -43 -43 2 -13 0 -23 -4 -23 -5 0 -9 -10 -9 -22
l0 -22 -15 21 c-13 18 -25 22 -75 22 -58 -1 -60 -2 -60 -26 l0 -26 -21 27
c-16 20 -29 26 -58 26 -37 0 -80 -27 -82 -53 -1 -7 -4 2 -8 18 -5 24 -12 31
-36 33 -29 3 -31 5 -27 37 4 33 3 35 -26 35 -29 0 -31 -3 -38 -47z"/>
<path d="M3840 283 c-44 -16 -56 -98 -18 -133 27 -25 78 -27 78 -3 0 15 1 15
18 0 21 -19 54 -22 83 -7 13 8 19 7 19 0 0 -6 10 -10 22 -8 16 2 25 12 29 33
l6 30 4 -30 c5 -37 35 -46 47 -14 l9 23 5 -22 c5 -18 13 -22 47 -22 34 0 43 4
50 22 l8 22 6 -23 c8 -33 40 -23 48 14 l6 30 4 -30 4 -30 83 -3 c53 -2 89 1
98 9 10 8 14 8 14 0 0 -15 47 -14 53 1 4 10 7 11 18 1 8 -8 40 -13 81 -13 65
0 68 1 68 24 0 18 -7 26 -22 29 l-23 4 23 2 c15 1 22 7 22 20 0 12 -8 21 -22
24 l-23 4 23 2 c32 2 31 41 -2 41 -13 0 -43 3 -68 6 -35 5 -48 2 -62 -11 -13
-13 -20 -15 -29 -6 -6 6 -47 11 -99 11 l-88 0 -2 -52 -1 -53 -6 50 c-6 48 -8
50 -38 53 -29 3 -33 0 -34 -20 l0 -23 -10 23 c-7 18 -15 23 -36 20 -22 -2 -29
-9 -31 -31 -4 -33 -22 -26 -22 9 0 20 -5 24 -30 24 -22 0 -33 -6 -40 -22 l-9
-23 0 23 c-1 18 -7 22 -31 22 -17 0 -33 -6 -36 -14 -5 -12 -9 -11 -25 5 -23
23 -57 24 -87 3 -20 -14 -22 -14 -22 0 0 16 -29 20 -60 9z"/>
<path d="M6260 264 c-34 -24 -40 -34 -40 -72 0 -65 82 -107 135 -69 24 19 3
32 -26 16 -25 -13 -62 0 -77 28 -9 17 -5 18 65 15 l76 -4 -7 29 c-15 60 -80
89 -126 57z"/>
<path d="M6613 270 c-28 -12 -43 -40 -43 -84 0 -49 29 -76 79 -76 32 0 44 6
65 31 14 17 26 37 26 44 0 31 -21 65 -49 80 -34 17 -46 18 -78 5z"/>
<path d="M6870 264 c-34 -24 -40 -34 -40 -72 0 -65 82 -107 135 -69 24 19 3
32 -26 16 -25 -13 -62 0 -77 28 -9 17 -5 18 64 15 69 -3 74 -2 74 17 0 29 -40
70 -75 77 -20 3 -39 -1 -55 -12z"/>
<path d="M7890 195 c0 -53 3 -65 16 -65 9 0 18 9 21 19 3 11 16 22 29 25 13 4
25 12 25 19 1 6 4 -4 8 -23 6 -35 6 -35 64 -37 31 -1 57 2 57 8 0 12 37 12 45
-1 3 -5 13 -10 22 -10 11 0 14 6 9 26 -13 50 -41 104 -54 104 -8 0 -23 -22
-34 -48 -18 -42 -24 -48 -44 -44 -21 4 -24 10 -24 48 0 37 -3 44 -20 44 -12 0
-20 -7 -20 -16 0 -14 -1 -14 -16 0 -8 9 -31 16 -50 16 l-34 0 0 -65z"/>
</g>
</svg>
