<?xml version="1.0" standalone="no"?>
<!DOCTYPE svg PUBLIC "-//W3C//DTD SVG 20010904//EN"
 "http://www.w3.org/TR/2001/REC-SVG-20010904/DTD/svg10.dtd">
<svg version="1.0" xmlns="http://www.w3.org/2000/svg"
 width="600.000000pt" height="219.000000pt" viewBox="0 0 600.000000 219.000000"
 preserveAspectRatio="xMidYMid meet">
<metadata>
Created by potrace 1.15, written by Peter Selinger 2001-2017
</metadata>
<g transform="translate(0.000000,219.000000) scale(0.100000,-0.100000)"
fill="#000000" stroke="none">
<path d="M4180 2183 c0 -5 -11 -79 -25 -166 -14 -87 -25 -163 -25 -168 0 -5
18 -9 39 -9 33 0 40 -4 43 -22 3 -25 32 -34 72 -24 18 4 24 16 32 58 9 53 9
53 51 59 23 3 49 11 58 19 42 35 60 125 30 150 -8 7 -15 23 -15 37 0 13 -11
35 -25 48 -23 23 -31 25 -130 25 -58 0 -105 -3 -105 -7z"/>
<path d="M2024 2063 c-9 -32 -23 -85 -31 -118 -7 -33 -16 -70 -20 -82 -5 -21
-2 -23 35 -23 l41 0 7 51 c6 47 8 50 33 47 19 -2 27 -9 29 -28 7 -66 10 -70
53 -70 l41 0 -7 43 c-3 23 -9 50 -11 60 -3 9 -1 17 5 17 12 0 51 72 51 95 0 9
-11 27 -25 40 -22 22 -32 25 -104 25 l-80 0 -17 -57z"/>
<path d="M4626 2098 c-6 -20 -36 -215 -36 -233 0 -12 8 -15 32 -13 27 3 33 8
42 43 11 38 14 40 58 45 25 3 52 11 60 17 12 10 13 6 10 -23 -3 -26 1 -41 18
-59 20 -21 31 -24 96 -23 84 0 76 -8 93 103 5 33 7 63 5 66 -7 13 -139 7 -166
-7 l-28 -15 0 40 c0 55 -25 71 -113 71 -45 0 -69 -4 -71 -12z"/>
<path d="M5255 2098 c-5 -17 -35 -215 -35 -234 0 -11 9 -14 32 -12 27 2 33 8
39 34 9 47 17 54 57 54 57 1 92 38 92 99 0 52 -29 71 -110 71 -48 0 -72 -4
-75 -12z"/>
<path d="M5670 2107 c0 -2 -9 -52 -20 -112 -27 -147 -27 -147 13 -143 l32 3
17 105 c24 149 24 150 -12 150 -16 0 -30 -1 -30 -3z"/>
<path d="M1834 2022 c-22 -15 -56 -37 -74 -49 -24 -15 -38 -35 -47 -65 -20
-68 -20 -68 57 -68 l69 0 21 72 c27 88 35 138 24 137 -5 0 -27 -13 -50 -27z"/>
<path d="M2321 2042 c-60 -10 -101 -67 -101 -141 0 -52 15 -60 114 -60 73 0
77 1 86 25 8 20 40 159 40 172 0 1 -22 2 -48 1 -27 -1 -53 0 -58 2 -5 3 -20 3
-33 1z"/>
<path d="M2750 2039 c-58 -14 -72 -24 -90 -60 -25 -48 -26 -101 -2 -122 19
-18 84 -21 132 -8 54 15 92 139 53 173 -22 19 -60 26 -93 17z"/>
<path d="M3343 2042 c-58 -9 -115 -109 -94 -165 12 -31 28 -36 116 -36 l70 0
28 92 c15 51 27 95 27 99 0 5 -24 7 -54 7 -29 -1 -58 0 -62 3 -5 2 -19 2 -31
0z"/>
<path d="M2480 2014 c-14 -35 -14 -34 27 -34 l36 0 -51 -46 c-35 -32 -52 -54
-52 -71 0 -24 1 -24 88 -21 87 3 87 3 90 31 3 25 1 27 -33 27 l-37 0 44 36
c53 44 68 63 68 86 0 16 -10 18 -85 18 -83 0 -86 -1 -95 -26z"/>
<path d="M2890 2012 c0 -15 -9 -54 -20 -86 -28 -83 -27 -88 17 -84 37 3 38 4
50 58 13 60 34 83 70 74 15 -4 23 -2 23 7 0 7 2 10 5 8 2 -3 -3 -27 -11 -54
-8 -28 -19 -70 -24 -95 -5 -25 -12 -53 -15 -62 -6 -15 -1 -18 29 -18 34 0 37
2 48 43 10 41 13 42 44 39 81 -10 134 41 134 129 0 65 -7 68 -189 68 l-161 0
0 -27z"/>
<path d="M3500 1993 c0 -26 5 -67 10 -91 9 -38 8 -47 -12 -75 -12 -18 -26 -33
-30 -35 -4 -2 -8 -10 -8 -18 0 -10 12 -14 38 -14 30 0 41 5 50 23 6 12 32 49
57 82 25 33 48 67 52 75 3 8 9 17 13 20 13 11 50 63 50 71 0 5 -15 9 -33 9
-33 0 -77 -33 -77 -57 0 -6 -7 -16 -15 -23 -15 -12 -18 -5 -27 55 -2 14 -12
21 -36 23 l-32 3 0 -48z"/>
<path d="M5020 2018 c0 -8 9 -42 21 -76 l21 -62 -22 -36 c-16 -25 -19 -39 -12
-46 23 -23 59 2 108 73 27 39 60 87 72 105 27 37 22 54 -13 54 -15 0 -34 -14
-56 -41 l-33 -42 -11 39 c-9 34 -15 39 -43 42 -22 2 -32 -1 -32 -10z"/>
<path d="M5473 2020 c-50 -20 -70 -114 -31 -149 18 -17 33 -20 91 -18 69 2 71
3 78 31 5 16 9 55 11 85 l3 56 -65 2 c-36 1 -75 -3 -87 -7z"/>
<path d="M736 1213 c-3 -43 -8 -131 -12 -197 -6 -112 -5 -118 12 -113 11 3 43
11 72 17 28 7 52 17 52 23 -1 7 -11 79 -23 162 -20 131 -25 150 -42 153 -11 2
-27 11 -36 19 -15 13 -17 7 -23 -64z"/>
<path d="M2375 1240 c-10 -19 -15 -57 -15 -114 0 -85 11 -134 33 -148 7 -4 67
-8 135 -8 122 0 137 -3 191 -42 34 -26 44 -22 36 12 l-7 30 79 0 c98 0 118 6
132 36 18 40 14 210 -5 239 l-16 25 -274 0 -273 0 -16 -30z m269 -30 c0 -14
-4 -38 -7 -55 -4 -16 -4 -23 -1 -15 21 47 46 70 79 70 48 0 65 -22 65 -81 0
-42 -5 -55 -29 -80 -48 -48 -90 -33 -118 44 -11 31 -12 29 -12 -30 -1 -54 -4
-63 -19 -63 -23 0 -46 25 -66 70 -8 19 -15 28 -16 20 0 -27 -50 -91 -68 -88
-20 4 -50 111 -51 181 -1 45 1 48 22 45 19 -3 23 -12 32 -66 l10 -63 25 48
c27 49 56 67 65 39 16 -50 18 -51 29 -11 15 53 24 67 44 63 11 -2 17 -13 16
-28z m272 -21 c25 -28 23 -89 -5 -128 -28 -39 -61 -48 -95 -26 -23 15 -26 24
-26 70 0 67 27 105 74 105 21 0 40 -8 52 -21z"/>
<path d="M1074 1151 l-17 -99 -27 26 c-27 26 -27 27 -6 31 24 3 36 18 36 44 0
14 -9 17 -49 17 -42 0 -53 -4 -70 -26 -28 -35 -26 -59 4 -90 32 -32 31 -35 -5
-28 -25 6 -30 3 -36 -20 -8 -33 -6 -35 39 -43 22 -3 47 0 66 10 17 9 31 11 31
6 0 -6 14 -9 32 -7 29 3 32 7 44 56 6 30 19 61 29 70 16 16 17 15 11 -11 -3
-15 -9 -47 -13 -72 l-6 -45 36 0 c34 0 36 2 42 38 9 54 13 61 14 27 1 -16 5
-35 9 -41 10 -15 47 -34 67 -34 29 0 82 30 94 53 11 22 11 21 7 -3 -21 -110
-21 -110 12 -110 27 0 32 4 37 33 6 30 10 33 34 29 19 -3 37 4 59 23 31 26 32
26 32 6 0 -17 6 -21 34 -21 33 0 35 2 45 50 6 28 11 60 11 70 0 11 6 20 14 20
13 0 10 -35 -9 -117 -5 -21 -2 -23 34 -23 39 0 39 0 46 48 11 76 16 90 35 95
15 4 19 -3 25 -42 3 -25 8 -54 11 -63 3 -11 -5 -28 -20 -43 -20 -19 -25 -32
-20 -51 7 -28 7 -28 44 -9 39 20 72 65 114 159 45 98 45 106 2 106 -31 0 -36
-4 -47 -35 -14 -37 -29 -30 -29 13 0 19 -5 22 -40 22 -22 0 -40 5 -40 10 0 6
6 10 14 10 14 0 26 21 26 46 0 19 -59 19 -87 -1 -11 -8 -24 -26 -27 -40 -10
-39 -33 -32 -28 10 3 26 0 36 -13 41 -27 11 -50 -10 -50 -45 0 -17 -3 -31 -7
-31 -5 0 -8 -8 -8 -18 0 -29 -12 -34 -24 -9 -10 19 -20 22 -84 24 l-72 2 0
-32 c-1 -30 -1 -31 -15 -12 -29 41 -37 45 -78 45 -43 0 -76 -19 -95 -55 -11
-19 -11 -19 -12 5 0 34 -17 50 -55 50 -30 0 -30 1 -27 40 4 39 3 40 -26 40
l-30 0 -18 -99z"/>
<path d="M3015 1193 c-42 -41 -38 -116 8 -148 30 -21 87 -20 87 2 0 15 1 15
18 0 21 -19 73 -22 103 -7 13 8 19 7 19 0 0 -6 12 -10 28 -8 23 3 28 8 31 38
l3 35 13 -35 c17 -51 48 -52 62 -3 l10 38 2 -38 1 -38 53 3 c51 3 52 4 58 38
l5 35 8 -37 c9 -44 41 -53 55 -16 l8 23 7 -23 c7 -21 12 -22 117 -22 78 0 109
3 109 12 0 9 3 9 12 0 16 -16 72 -16 62 0 -5 8 -2 9 12 3 10 -5 58 -11 107
-13 l87 -3 0 25 c0 21 -5 26 -25 26 -14 0 -25 5 -25 10 0 6 11 10 25 10 18 0
25 5 25 20 0 15 -7 20 -25 20 -14 0 -25 5 -25 10 0 6 11 10 25 10 20 0 25 5
25 25 0 25 -1 25 -87 25 -65 0 -91 -4 -104 -16 -16 -15 -20 -15 -41 0 -17 12
-46 16 -115 16 l-93 0 -1 -67 -1 -68 -12 65 -11 65 -37 3 c-36 3 -38 1 -39
-25 l-1 -28 -10 28 c-8 22 -16 27 -43 27 -37 0 -44 -13 -46 -90 -1 -44 -2 -43
-13 20 -11 63 -12 65 -42 68 -27 3 -33 -1 -41 -25 l-10 -28 -6 28 c-6 23 -13
27 -42 27 -34 0 -35 -1 -35 -37 l0 -38 -18 35 c-15 31 -22 35 -61 38 -30 2
-49 -2 -62 -14 -17 -16 -19 -16 -19 -1 0 23 -72 23 -95 0z"/>
<path d="M4555 1193 c-39 -10 -60 -44 -60 -96 0 -63 34 -97 98 -97 50 1 87 24
69 42 -9 9 -15 9 -24 0 -23 -23 -75 -14 -98 16 l-22 27 86 3 c83 3 86 4 86 27
0 54 -72 95 -135 78z"/>
<path d="M4964 1190 c-12 -4 -31 -21 -44 -37 -17 -22 -21 -36 -17 -68 7 -53
46 -85 104 -85 34 0 46 5 67 31 46 55 32 129 -29 155 -39 16 -51 16 -81 4z
m69 -32 c32 -17 44 -37 39 -67 -11 -58 -77 -81 -120 -41 -29 27 -28 65 3 95
27 28 46 31 78 13z"/>
<path d="M5274 1191 c-64 -28 -73 -134 -15 -178 35 -27 131 -8 131 26 0 14
-27 15 -35 1 -3 -5 -21 -10 -40 -10 -26 0 -38 7 -55 30 l-21 30 90 0 c84 0 91
2 91 20 0 11 -12 33 -27 50 -30 33 -82 46 -119 31z"/>
<path d="M990 265 l0 -155 30 0 30 0 0 155 0 155 -30 0 -30 0 0 -155z"/>
<path d="M1972 408 c-7 -7 -12 -43 -12 -93 0 -77 2 -82 25 -95 22 -12 27 -11
45 5 17 15 20 31 20 95 0 80 -9 100 -45 100 -12 0 -26 -5 -33 -12z"/>
<path d="M2470 240 l0 -170 40 0 40 0 0 170 0 170 -40 0 -40 0 0 -170z"/>
<path d="M3090 240 l0 -170 40 0 c40 0 40 0 40 38 l0 37 34 -38 c31 -36 36
-38 85 -35 l52 3 -32 35 c-17 19 -40 45 -52 57 l-20 22 47 55 c25 30 46 57 46
60 0 3 -22 6 -49 6 -44 0 -51 -3 -72 -35 -13 -19 -27 -35 -31 -35 -5 0 -8 38
-8 85 l0 85 -40 0 -40 0 0 -170z"/>
<path d="M5320 220 l0 -150 30 0 c17 0 30 5 30 10 0 7 6 7 19 0 34 -18 88 -12
116 13 23 19 27 31 28 84 2 71 -14 107 -54 124 -28 11 -43 10 -81 -6 -15 -6
-18 -1 -18 34 0 40 -1 41 -35 41 l-35 0 0 -150z"/>
<path d="M4430 209 l0 -142 86 6 c91 5 113 16 140 69 18 35 18 99 0 143 -20
48 -60 65 -151 65 l-75 0 0 -141z"/>
<path d="M2282 287 c-25 -26 -30 -88 -9 -104 11 -9 40 -20 92 -38 16 -5 17 -8
5 -15 -16 -10 -58 -3 -78 13 -16 13 -31 -1 -34 -33 -3 -20 3 -27 37 -38 48
-16 109 -10 136 14 25 22 26 85 2 106 -10 8 -37 21 -61 28 -26 8 -39 17 -33
23 6 6 23 5 46 -3 32 -11 38 -10 50 7 8 10 15 22 15 27 0 20 -38 35 -91 36
-45 0 -59 -4 -77 -23z"/>
<path d="M2614 292 c-32 -27 -44 -56 -44 -107 0 -53 27 -101 66 -115 13 -5 60
-7 104 -3 l80 6 0 118 0 118 -92 0 c-74 0 -97 -4 -114 -17z"/>
<path d="M2875 275 c-30 -30 -35 -42 -35 -81 0 -60 21 -97 66 -119 49 -23 107
-15 145 21 32 30 31 37 -10 57 -25 12 -30 12 -50 -5 -27 -21 -30 -22 -55 -3
-24 18 -24 64 0 82 19 14 54 8 66 -10 5 -8 18 -6 43 6 34 16 35 18 20 40 -20
32 -56 47 -110 47 -37 0 -50 -6 -80 -35z"/>
<path d="M4892 295 c-57 -25 -78 -108 -44 -175 31 -63 141 -71 190 -15 17 20
22 39 22 78 0 59 -16 89 -60 112 -36 19 -65 18 -108 0z"/>
<path d="M5162 294 c-12 -8 -22 -10 -22 -5 0 6 -13 11 -30 11 l-30 0 0 -150 0
-150 30 0 c29 0 30 2 30 45 0 42 2 45 19 35 22 -11 71 -13 96 -4 26 10 45 60
45 119 0 51 -3 60 -31 86 -35 33 -73 37 -107 13z"/>
<path d="M5619 296 c-41 -23 -59 -60 -59 -116 0 -44 5 -56 29 -81 25 -24 38
-29 78 -29 26 0 59 6 73 13 58 29 64 158 9 199 -34 26 -97 32 -130 14z"/>
<path d="M4690 184 l0 -114 30 0 30 0 0 61 c0 76 12 99 50 99 27 0 30 3 30 34
l0 34 -70 0 -70 0 0 -114z"/>
<path d="M5780 289 c0 -6 14 -28 30 -49 17 -21 30 -41 30 -45 0 -4 -16 -30
-35 -56 -19 -27 -35 -54 -35 -59 0 -12 60 -13 76 -2 6 4 16 17 23 30 15 29 23
28 44 -8 15 -24 25 -30 53 -30 19 0 34 5 34 10 0 6 -16 34 -35 62 l-34 51 34
48 c19 25 35 49 35 53 0 3 -17 6 -38 6 -31 0 -41 -5 -52 -25 -7 -14 -16 -25
-20 -25 -4 0 -13 11 -20 25 -11 20 -21 25 -52 25 -21 0 -38 -5 -38 -11z"/>
<path d="M1868 199 c-15 -8 -18 -24 -18 -87 0 -85 8 -102 50 -102 41 0 50 17
50 96 0 64 -3 75 -22 88 -26 18 -36 19 -60 5z"/>
</g>
</svg>
