<?xml version="1.0" encoding="utf-8"?>
<!-- Generator: Adobe Illustrator 16.0.4, SVG Export Plug-In . SVG Version: 6.00 Build 0)  -->
<!DOCTYPE svg PUBLIC "-//W3C//DTD SVG 1.1//EN" "http://www.w3.org/Graphics/SVG/1.1/DTD/svg11.dtd">
<svg version="1.1" id="Layer_1" xmlns="http://www.w3.org/2000/svg" xmlns:xlink="http://www.w3.org/1999/xlink" x="0px" y="0px"
	 width="1219.048px" height="1188.449px" viewBox="0 0 1219.048 1188.449" enable-background="new 0 0 1219.048 1188.449"
	 xml:space="preserve">
<radialGradient id="SVGID_1_" cx="607.8564" cy="582.0454" r="549.9998" gradientUnits="userSpaceOnUse">
	<stop  offset="0" style="stop-color:#7574FF"/>
	<stop  offset="1" style="stop-color:#7574FF;stop-opacity:0"/>
</radialGradient>
<circle fill="url(#SVGID_1_)" cx="607.856" cy="582.046" r="550"/>
<g>
	<path fill="#FFFFFF" d="M289.731,594.17c-2.478,3.57-5.176,6.482-7.926,8.688c2.748,2.207,5.447,5.116,7.926,8.688
		c2.479,3.571,4.5,7.456,6.031,11.412c1.533-3.957,3.555-7.841,6.033-11.413c2.479-3.572,5.176-6.482,7.924-8.688
		c-2.748-2.206-5.445-5.117-7.924-8.688c-2.48-3.571-4.5-7.456-6.033-11.414C294.231,586.714,292.211,590.599,289.731,594.17z">
      <animate attributeType="CSS" attributeName="opacity" from="1" to="1" values="1; 0; 1; 1" begin="0.5s" keyTimes="0; 0.05; 0.1; 1" dur="5s" repeatCount="indefinite" />
  </path>
	<path fill="#FFFFFF" d="M865.2,407.717c-1.23,1.771-2.569,3.215-3.933,4.31c1.363,1.095,2.702,2.54,3.933,4.311
		c1.229,1.772,2.231,3.7,2.991,5.663c0.761-1.964,1.764-3.891,2.994-5.663c1.229-1.772,2.568-3.216,3.931-4.311
		c-1.362-1.094-2.702-2.539-3.931-4.31c-1.23-1.772-2.232-3.699-2.994-5.664C867.432,404.018,866.43,405.945,865.2,407.717z">
        <animate attributeType="CSS" attributeName="opacity" from="1" to="1" values="1; 0; 1; 1" keyTimes="0; 0.05; 0.1; 1" dur="4s" repeatCount="indefinite" />  
    </path>
	<path fill="#FFFFFF" d="M762.703,320.462c-0.655,0.942-1.367,1.711-2.092,2.293c0.725,0.582,1.437,1.351,2.092,2.293
		c0.653,0.942,1.188,1.968,1.592,3.013c0.404-1.045,0.938-2.071,1.594-3.013c0.655-0.943,1.366-1.712,2.092-2.293
		c-0.726-0.583-1.437-1.351-2.092-2.293c-0.655-0.943-1.188-1.969-1.594-3.014C763.891,318.493,763.357,319.519,762.703,320.462z">
      <animate attributeType="CSS" attributeName="opacity" from="1" to="1" values="1; 0; 1; 1" begin="1.5s" keyTimes="0; 0.05; 0.1; 1" dur="2s" repeatCount="indefinite" />
  </path>
	<path fill="#FFFFFF" d="M877.21,536.598c-0.657,0.942-1.369,1.711-2.094,2.294c0.725,0.582,1.437,1.351,2.094,2.293
		c0.651,0.942,1.186,1.969,1.59,3.014c0.404-1.046,0.938-2.071,1.594-3.014c0.653-0.943,1.366-1.712,2.092-2.293
		c-0.726-0.583-1.438-1.352-2.092-2.294c-0.655-0.943-1.188-1.968-1.594-3.014C878.396,534.63,877.862,535.655,877.21,536.598z">
      <animate attributeType="CSS" attributeName="opacity" from="1" to="1" values="1; 0; 1; 1" begin="1.5s" keyTimes="0; 0.05; 0.1; 1" dur="6s" repeatCount="indefinite" />
  </path>
	<path fill="#FFFFFF" d="M999,508.174c-0.655,0.942-1.367,1.71-2.092,2.293c0.725,0.582,1.437,1.352,2.092,2.294
		c0.653,0.943,1.188,1.969,1.592,3.014c0.404-1.045,0.938-2.071,1.595-3.014c0.652-0.943,1.365-1.712,2.091-2.294
		c-0.726-0.583-1.438-1.351-2.091-2.293c-0.656-0.943-1.189-1.968-1.595-3.014C1000.188,506.206,999.654,507.23,999,508.174z">
      <animate attributeType="CSS" attributeName="opacity" from="1" to="1" values="1; 0; 1; 1" begin="1.5s" keyTimes="0; 0.05; 0.1; 1" dur="5s" repeatCount="indefinite" />
  </path>
	<path fill="#FFFFFF" d="M948.247,435.664c-1.23,1.771-2.568,3.216-3.932,4.311c1.363,1.095,2.701,2.539,3.932,4.311
		c1.229,1.772,2.232,3.701,2.993,5.662c0.76-1.963,1.763-3.89,2.994-5.662c1.228-1.771,2.567-3.215,3.929-4.311
		c-1.361-1.094-2.701-2.539-3.929-4.311c-1.231-1.771-2.232-3.699-2.994-5.664C950.479,431.965,949.478,433.893,948.247,435.664z">
      <animate attributeType="CSS" attributeName="opacity" from="1" to="1" values="1; 0; 1; 1" begin="2s" keyTimes="0; 0.05; 0.1; 1" dur="6s" repeatCount="indefinite" /> 
  </path>
	<path fill="#FFFFFF" d="M201.264,506.156c-1.23,1.771-2.568,3.216-3.93,4.311c1.361,1.094,2.699,2.539,3.93,4.31
		c1.229,1.772,2.232,3.7,2.992,5.664c0.76-1.964,1.765-3.892,2.994-5.664s2.568-3.215,3.93-4.31c-1.361-1.095-2.7-2.54-3.93-4.311
		c-1.229-1.772-2.231-3.699-2.994-5.663C203.496,502.457,202.494,504.384,201.264,506.156z">
      <animate attributeType="CSS" attributeName="opacity" from="1" to="1" values="1; 0; 1; 1" begin="1s" keyTimes="0; 0.05; 0.1; 1" dur="5s" repeatCount="indefinite" />
  </path>
	<path fill="#FFFFFF" d="M453.78,318.444c-1.23,1.77-2.568,3.217-3.932,4.31c1.363,1.096,2.701,2.54,3.932,4.311
		c1.229,1.773,2.232,3.7,2.992,5.664c0.76-1.964,1.764-3.891,2.994-5.664c1.229-1.771,2.569-3.215,3.93-4.311
		c-1.36-1.093-2.7-2.54-3.93-4.31c-1.23-1.772-2.231-3.699-2.994-5.664C456.013,314.746,455.011,316.672,453.78,318.444z">
      <animate attributeType="CSS" attributeName="opacity" from="1" to="1" values="1; 0; 1; 1" begin="1.5s" keyTimes="0; 0.05; 0.1; 1" dur="3s" repeatCount="indefinite" />
  </path>
	<path fill="#FFFFFF" d="M319.298,469.792c-1.88,2.713-3.931,4.925-6.019,6.601c2.087,1.675,4.138,3.885,6.019,6.598
		c1.883,2.713,3.418,5.664,4.582,8.669c1.164-3.007,2.699-5.957,4.582-8.669s3.933-4.922,6.019-6.598
		c-2.086-1.676-4.136-3.888-6.019-6.601c-1.883-2.711-3.418-5.663-4.582-8.668C322.717,464.129,321.182,467.08,319.298,469.792z">
      <animate attributeType="CSS" attributeName="opacity" from="1" to="1" values="1; 0; 1; 1" begin="1.5s" keyTimes="0; 0.05; 0.1; 1" dur="4s" repeatCount="indefinite" />
  </path>
</g>
<path fill="#FFF16B" d="M752.809,642.862c160.112,44.439,154.913,91.113,55.489,146.937
	c-99.422,55.824-208.926,73.549-369.035,29.109c-160.104-44.438-154.906-91.111-55.483-146.935
	C483.2,616.149,592.696,598.423,752.809,642.862"/>
<path opacity="0.2" fill="#4E50A1" d="M405.552,724.623l-92.15,14.154c-3.484,26.861,29.99,51.881,111.936,76.172l99.511-19.162
	L405.552,724.623z"/>
<linearGradient id="SVGID_2_" gradientUnits="userSpaceOnUse" x1="442.2227" y1="884.7012" x2="1221.3254" y2="105.5984">
	<stop  offset="0.2528" style="stop-color:#FFF16B"/>
	<stop  offset="0.6981" style="stop-color:#FFF16B;stop-opacity:0"/>
</linearGradient>
<path opacity="0.3" fill="url(#SVGID_2_)" d="M1186.177,70.45L367.8,681.377c-83.498,51.703-79.568,95.613,71.463,137.531
	c160.109,44.439,269.613,26.715,369.035-29.109c37.087-20.824,61.059-40.373,68.234-59.01L1186.177,70.45z"/>
<g>
	<path fill="#213C4E" d="M504.282,792.914c-5.567,0-10.874-1.107-15.789-3.293c-0.561-0.166-1.099-0.418-1.596-0.752l-0.041-0.028
		c-2.836-1.429-5.476-3.211-7.854-5.302l-65.091-43.948c-1.083-0.563-2.15-1.188-3.179-1.86h-0.001
		c-0.215-0.124-0.419-0.258-0.612-0.404c-11.284-7.688-17.751-20.91-17.751-36.336l-0.001-261.244
		c0.002-27.329,20.591-53.877,45.892-59.183c0.065-0.013,236.52-41.442,236.52-41.442c2.971-0.616,5.952-0.928,8.869-0.928
		c5.752,0,11.229,1.183,16.277,3.517c0.229,0.092,0.452,0.198,0.67,0.32c1.542,0.748,3.021,1.595,4.412,2.522l67.835,25.995
		c19.485,3.114,33.034,20.434,33.035,42.38l-0.001,268.122c0.001,27.326-20.587,53.875-45.892,59.182l-246.732,51.735
		C510.25,792.596,507.232,792.914,504.282,792.914L504.282,792.914z"/>
	<path fill="#213C4E" d="M683.648,344.193c5.062,0,9.802,1.087,14.031,3.09l0.004-0.008l0.106,0.062
		c1.544,0.737,3.02,1.59,4.415,2.566l69.099,26.479c16.526,2.336,28.573,16.72,28.574,36.545l-0.001,268.121
		c0.001,24.578-18.507,48.566-41.123,53.31l-246.732,51.735c-2.644,0.555-5.229,0.82-7.739,0.82c-5.055,0-9.789-1.084-14.015-3.08
		l-0.021,0.057l-0.367-0.247c-2.613-1.28-5.026-2.907-7.191-4.854l-65.716-44.371c-1.067-0.541-2.096-1.141-3.092-1.799
		l-0.154-0.088l0.003-0.008c-9.348-6.25-15.36-17.533-15.36-31.533l-0.001-261.244c0.002-24.579,18.508-48.568,41.123-53.31
		l236.419-41.422C678.554,344.459,681.141,344.193,683.648,344.193 M683.648,332.193L683.648,332.193
		c-3.295,0-6.656,0.348-9.996,1.035l-236.232,41.39c-0.131,0.022-0.261,0.047-0.391,0.075c-13.734,2.878-26.548,11.271-36.082,23.63
		c-9.4,12.187-14.578,26.897-14.579,41.422l0.001,261.245c0,17.398,7.381,32.392,20.269,41.223c0.3,0.219,0.612,0.426,0.935,0.619
		c1.057,0.686,2.147,1.328,3.255,1.916l64.512,43.558c2.597,2.24,5.455,4.165,8.51,5.737c0.815,0.514,1.681,0.922,2.578,1.224
		c5.581,2.421,11.581,3.647,17.855,3.647c3.363,0,6.795-0.361,10.202-1.076l246.732-51.734
		c13.733-2.881,26.547-11.273,36.081-23.633c9.4-12.187,14.58-26.898,14.579-41.422l0.001-268.121
		c-0.001-24.743-15.326-44.347-37.451-48.201l-66.671-25.547c-1.405-0.905-2.88-1.737-4.409-2.485
		c-0.337-0.18-0.679-0.343-1.029-0.49C696.508,333.542,690.23,332.193,683.648,332.193L683.648,332.193z"/>
</g>
<linearGradient id="SVGID_3_" gradientUnits="userSpaceOnUse" x1="475.7598" y1="778.6172" x2="640.3944" y2="326.2871">
	<stop  offset="0.5887" style="stop-color:#48489E"/>
	<stop  offset="0.7131" style="stop-color:#5D5DCC"/>
</linearGradient>
<path fill="url(#SVGID_3_)" d="M784.518,381.446l-82.312-31.542c-1.396-0.976-2.871-1.83-4.415-2.566l-0.106-0.062l-0.004,0.008
	c-6.324-2.994-13.788-3.943-21.77-2.269l-236.419,41.422c-22.615,4.742-41.121,28.731-41.123,53.31l0.001,261.244
	c0,14,6.013,25.283,15.36,31.533l-0.003,0.008l0.154,0.088c0.996,0.658,2.024,1.258,3.092,1.799l73.274,49.473l19.536-54.701
	l176.441-36.996c22.616-4.742,41.123-28.732,41.122-53.309l0.001-216.371l35.196,20.459L784.518,381.446z"/>
<g>
	<radialGradient id="SVGID_4_" cx="779.3379" cy="391.5166" r="483.0695" gradientUnits="userSpaceOnUse">
		<stop  offset="0" style="stop-color:#7574FF"/>
		<stop  offset="1" style="stop-color:#5E5DCC"/>
	</radialGradient>
	<path fill="url(#SVGID_4_)" d="M799.877,681.049c0.001,24.578-18.507,48.566-41.123,53.31l-246.732,51.735
		c-22.619,4.742-41.123-11.484-41.124-36.062l-0.001-268.121c0.002-24.577,18.506-48.566,41.123-53.31l246.736-51.736
		c22.615-4.742,41.121,11.486,41.122,36.063L799.877,681.049z"/>
</g>
<g opacity="0.5">
	<path fill="#48489E" d="M564.589,680.471V519.506c0-10.591,6.126-18.833,15.313-20.759l104.41-21.895
		c8.909-1.867,13.366,2.039,13.366,10.207v1.816c0,8.472-4.455,13.944-13.365,15.813l-91.046,19.092v54.763l70.444-14.769
		c9.187-1.927,13.362,1.432,13.362,9.601v0.908c0,8.473-4.454,13.945-13.362,15.813l-70.444,14.772v59.302l92.717-19.442
		c8.91-1.867,13.087,1.491,13.087,9.662v1.513c0.001,8.774-4.177,14.491-13.087,16.359l-106.081,22.244
		C570.715,696.432,564.589,691.059,564.589,680.471z"/>
</g>
<g>
	<radialGradient id="SVGID_5_" cx="697.3369" cy="474.8506" r="245.8411" gradientUnits="userSpaceOnUse">
		<stop  offset="0" style="stop-color:#FFFFFF"/>
		<stop  offset="1" style="stop-color:#D6D6FF"/>
	</radialGradient>
	<path fill="url(#SVGID_5_)" d="M567.589,676.471V515.506c0-10.591,6.126-18.833,15.313-20.759l104.41-21.895
		c8.909-1.867,13.366,2.039,13.366,10.207v1.816c0,8.472-4.455,13.945-13.365,15.813l-91.046,19.092v54.763l70.444-14.769
		c9.187-1.927,13.362,1.432,13.362,9.601v0.908c0,8.473-4.454,13.945-13.362,15.813l-70.444,14.771v59.303l92.717-19.442
		c8.91-1.867,13.087,1.491,13.087,9.662v1.513c0.001,8.774-4.177,14.491-13.087,16.359l-106.081,22.244
		C573.715,692.432,567.589,687.059,567.589,676.471z"/>
</g>
</svg>
