<?xml version="1.0" encoding="utf-8"?>
<!-- Generator: Adobe Illustrator 16.0.4, SVG Export Plug-In . SVG Version: 6.00 Build 0)  -->
<!DOCTYPE svg PUBLIC "-//W3C//DTD SVG 1.1//EN" "http://www.w3.org/Graphics/SVG/1.1/DTD/svg11.dtd">
<svg version="1.1" id="Layer_1" xmlns="http://www.w3.org/2000/svg" xmlns:xlink="http://www.w3.org/1999/xlink" x="0px" y="0px"
	 width="672.914px" height="796.116px" viewBox="0 0 672.914 796.116" enable-background="new 0 0 672.914 796.116"
	 xml:space="preserve">
<path fill="#FFF16B" d="M628.503,440.985c38.211,179.556-56.559,260.854-242.431,300.407
	c-185.87,39.553-305.53,3.881-343.738-175.673C4.126,386.168,98.895,304.869,284.765,265.316
	C470.636,225.763,590.295,261.428,628.503,440.985"/>
<path fill="#6A6AE8" d="M213.716,55.847l107.072,185.455h2.438L214.702,53.333C214.315,54.153,213.976,54.989,213.716,55.847z"/>
<path fill="#5D5DCC" d="M214.702,53.333l108.524,187.969h2.438L215.89,51.169C215.438,51.866,215.052,52.593,214.702,53.333z"/>
<path fill="#6A6AE8" d="M215.89,51.169l109.774,190.133h2.439L217.263,49.318C216.763,49.913,216.304,50.53,215.89,51.169z"/>
<path fill="#5D5DCC" d="M218.367,48.096c-0.394,0.394-0.755,0.805-1.104,1.223l110.841,191.983h2.435L218.776,47.726
	C218.642,47.853,218.499,47.964,218.367,48.096z"/>
<path fill="#6A6AE8" d="M218.776,47.726l111.762,193.576h2.439L220.421,46.347C219.853,46.771,219.304,47.229,218.776,47.726z"/>
<path fill="#5D5DCC" d="M220.421,46.347l112.557,194.955h2.438L222.184,45.179C221.579,45.532,220.991,45.921,220.421,46.347z"/>
<path fill="#6A6AE8" d="M222.184,45.179l113.231,196.123h2.438L224.065,44.217C223.424,44.499,222.797,44.821,222.184,45.179z"/>
<path fill="#5D5DCC" d="M224.065,44.217l113.787,197.085h2.438L226.068,43.462C225.389,43.671,224.723,43.929,224.065,44.217z"/>
<path fill="#6A6AE8" d="M226.068,43.462l114.223,197.84h2.438L228.206,42.941C227.485,43.072,226.772,43.245,226.068,43.462z"/>
<path fill="#5D5DCC" d="M228.206,42.941l114.522,198.36h2.438L230.493,42.681C229.728,42.724,228.963,42.804,228.206,42.941z"/>
<polygon fill="#5D5DCC" points="73.937,-224.263 73.937,-224.263 74.395,-224.526 "/>
<path fill="#6A6AE8" d="M230.493,42.681l114.674,198.621h2.438L232.938,42.694C232.124,42.635,231.309,42.634,230.493,42.681z"/>
<path fill="#5D5DCC" d="M236.312,43.259c-1.108-0.291-2.236-0.48-3.373-0.564l114.666,198.607h3.048L236.312,43.259z"/>
<path fill="#B3B3B3" d="M362.771,216.899h-49.999c-2.75,0-5.084,2.247-5.187,4.994l-3.333,89.512
	c-0.103,2.747,2.064,4.994,4.814,4.994h40c2.749,0,5.309-2.247,5.688-4.994l12.328-89.512
	C367.463,219.146,365.521,216.899,362.771,216.899z M346.546,245.438h-22.543c-3.319,0-5.799-2.718-5.509-6.038
	c0.291-3.32,3.246-6.038,6.566-6.038h22.542c3.321,0,5.799,2.718,5.51,6.038C352.821,242.72,349.867,245.438,346.546,245.438z"/>
<path fill="#B3B3B3" d="M362.771,216.899h-49.999c-2.75,0-5.084,2.247-5.187,4.994l-3.333,89.512
	c-0.103,2.747,2.064,4.994,4.814,4.994h40c2.749,0,5.309-2.247,5.688-4.994l12.328-89.512
	C367.463,219.146,365.521,216.899,362.771,216.899z M346.546,245.438h-22.543c-3.319,0-5.799-2.718-5.509-6.038
	c0.291-3.32,3.246-6.038,6.566-6.038h22.542c3.321,0,5.799,2.718,5.51,6.038C352.821,242.72,349.867,245.438,346.546,245.438z"/>
<path fill="#CCCCCC" d="M503.688,730.145H167.15c-15.802,0-28.731-13.396-28.731-29.77v5c0,16.374,12.93,29.77,28.731,29.77h336.538
	c15.802,0,28.73-13.396,28.73-29.77v-5C532.419,716.749,519.49,730.145,503.688,730.145z"/>
<g>
	<path fill="#213C4E" d="M503.688,271.562c15.802,0,28.73,13.396,28.73,29.77v33.583v18.231v8v8v336.229
		c0,16.374-12.929,29.77-28.73,29.77H167.15c-15.802,0-28.731-13.396-28.731-29.77V369.146v-8v-8v-18.231v-33.583
		c0-16.373,12.93-29.77,28.731-29.77H503.688 M307.419,330.399h56c8.251,0,15-6.75,15-15c0-1.386-0.204-2.724-0.562-4
		c-0.105-0.377-0.227-0.748-0.359-1.113c-0.013-0.033-0.025-0.066-0.037-0.099c-0.135-0.36-0.281-0.715-0.442-1.062
		c-0.007-0.015-0.016-0.028-0.021-0.043c-0.652-1.395-1.518-2.671-2.546-3.795c-0.062-0.068-0.123-0.138-0.187-0.205
		c-0.207-0.218-0.422-0.426-0.642-0.631c-0.105-0.099-0.212-0.195-0.32-0.291c-0.206-0.183-0.417-0.36-0.633-0.532
		c-0.136-0.106-0.276-0.209-0.417-0.312c-0.206-0.152-0.412-0.305-0.627-0.447c-0.19-0.125-0.387-0.238-0.582-0.355
		c-0.28-0.166-0.563-0.324-0.852-0.473c-0.271-0.139-0.545-0.276-0.825-0.398c-0.167-0.073-0.339-0.135-0.509-0.201
		c-0.255-0.101-0.512-0.199-0.773-0.285c-0.176-0.059-0.354-0.109-0.531-0.161c-0.27-0.078-0.543-0.149-0.818-0.212
		c-0.174-0.04-0.349-0.079-0.523-0.112c-0.305-0.058-0.614-0.104-0.927-0.143c-0.15-0.019-0.301-0.044-0.452-0.058
		c-0.467-0.045-0.938-0.072-1.415-0.072h-56c-0.477,0-0.947,0.027-1.414,0.072c-0.152,0.014-0.303,0.039-0.454,0.058
		c-0.312,0.04-0.62,0.085-0.925,0.143c-0.176,0.033-0.35,0.072-0.523,0.112c-0.275,0.062-0.548,0.134-0.817,0.211
		c-0.179,0.053-0.357,0.104-0.533,0.162c-0.261,0.086-0.516,0.184-0.77,0.283c-0.171,0.067-0.345,0.13-0.513,0.203
		c-0.277,0.121-0.545,0.256-0.812,0.393c-0.297,0.152-0.588,0.315-0.875,0.486c-0.191,0.114-0.386,0.225-0.571,0.348
		c-0.214,0.143-0.423,0.297-0.63,0.45c-0.14,0.101-0.277,0.202-0.411,0.308c-0.218,0.172-0.431,0.352-0.638,0.535
		c-0.108,0.094-0.211,0.189-0.314,0.287c-0.221,0.205-0.438,0.415-0.646,0.635c-0.062,0.064-0.122,0.134-0.183,0.2
		c-1.03,1.125-1.896,2.403-2.55,3.8c-0.006,0.014-0.013,0.026-0.019,0.039c-0.162,0.348-0.31,0.703-0.443,1.063
		c-0.012,0.033-0.025,0.065-0.037,0.099c-0.133,0.365-0.254,0.736-0.359,1.113c-0.357,1.276-0.562,2.614-0.562,4
		C292.419,323.649,299.169,330.399,307.419,330.399 M503.688,262.562H167.15c-20.806,0-37.731,17.392-37.731,38.77v33.583v18.231v8
		v8v336.229c0,21.378,16.926,38.77,37.731,38.77h336.538c20.805,0,37.73-17.392,37.73-38.77V369.146v-8v-8v-18.231v-33.583
		C541.419,279.953,524.493,262.562,503.688,262.562L503.688,262.562z M306.939,309.424c0.183-0.017,0.344-0.024,0.479-0.024h56
		c0.136,0,0.295,0.008,0.477,0.023c0.115,0.017,0.203,0.028,0.291,0.039c0.108,0.014,0.232,0.03,0.354,0.054
		c0.051,0.01,0.112,0.024,0.173,0.038c0.133,0.03,0.233,0.057,0.334,0.086l0.053,0.016l0.168,0.049
		c0.102,0.035,0.193,0.073,0.286,0.109l0.25,0.097l0.012,0.005c0.103,0.048,0.192,0.096,0.283,0.143
		c0.101,0.052,0.227,0.122,0.351,0.196l0.13,0.077l0.11,0.066c0.069,0.049,0.141,0.104,0.214,0.157
		c0.015,0.011,0.029,0.022,0.045,0.033l0.161,0.118c0.076,0.062,0.15,0.125,0.224,0.19c0.057,0.05,0.102,0.091,0.146,0.132
		c0.078,0.072,0.152,0.143,0.224,0.215l0.104,0.115c0.431,0.471,0.776,0.982,1.031,1.523c0.015,0.032,0.03,0.064,0.045,0.096
		c0.043,0.096,0.095,0.223,0.147,0.361l0,0l0.018,0.047c0.057,0.157,0.104,0.305,0.142,0.439c0.154,0.549,0.229,1.063,0.229,1.574
		c0,3.252-2.748,6-6,6h-56c-3.252,0-6-2.748-6-6c0-0.508,0.075-1.022,0.229-1.573c0.036-0.13,0.081-0.271,0.135-0.421
		c0.012-0.031,0.024-0.064,0.036-0.096c0.047-0.126,0.096-0.244,0.146-0.354c0.009-0.019,0.018-0.038,0.026-0.057l0,0
		c0.257-0.549,0.604-1.065,1.035-1.535l0.102-0.113c0.069-0.071,0.142-0.139,0.215-0.206c0.017-0.016,0.034-0.032,0.051-0.048
		l0.059-0.055c0.017-0.015,0.033-0.029,0.05-0.044c0.078-0.069,0.158-0.139,0.241-0.203l0.099-0.072
		c0.03-0.022,0.062-0.045,0.092-0.067c0.072-0.054,0.144-0.108,0.217-0.16l0.067-0.039l0.176-0.104
		c0.116-0.069,0.242-0.142,0.372-0.208c0.076-0.039,0.162-0.085,0.253-0.128l0.021-0.008l0.241-0.093
		c0.088-0.034,0.188-0.076,0.29-0.11c0.048-0.015,0.117-0.034,0.186-0.055l0.032-0.01c0.101-0.028,0.202-0.055,0.306-0.078
		c0.09-0.021,0.148-0.035,0.209-0.047c0.121-0.023,0.25-0.04,0.38-0.057C306.769,309.447,306.854,309.436,306.939,309.424
		L306.939,309.424z"/>
</g>
<path fill="#E6E6E6" d="M532.419,334.914v365.461c0,16.374-12.929,29.77-28.73,29.77H167.15c-15.802,0-28.731-13.396-28.731-29.77
	V334.914H532.419z"/>
<path fill="#FFFFFF" d="M512.419,352.146v330.999c0,14.851-12.15,27-27,27h-300c-14.85,0-27-12.149-27-27V352.146H512.419z"/>
<path fill="#FAFAFA" d="M512.419,352.146v330.999c0,14.851-12.15,27-27,27h-300c-14.85,0-27-12.149-27-27L512.419,352.146z"/>
<path fill="#7575FF" d="M503.688,271.562H167.15c-15.802,0-28.731,13.396-28.731,29.77v59.814h394v-59.814
	C532.419,284.958,519.49,271.562,503.688,271.562z M363.419,330.399h-56c-8.25,0-15-6.75-15-15s6.75-15,15-15h56
	c8.251,0,15,6.75,15,15S371.67,330.399,363.419,330.399z"/>
<g>
	<rect x="138.419" y="353.146" fill="#6A6AE8" width="394" height="8"/>
	<path fill="#6A6AE8" d="M363.419,292.399h-56c-8.25,0-15,6.75-15,15c0,1.386,0.206,2.724,0.562,4c1.764-6.321,7.574-11,14.438-11
		h56c6.864,0,12.675,4.679,14.438,11c0.356-1.276,0.562-2.614,0.562-4C378.419,299.149,371.67,292.399,363.419,292.399z"/>
</g>
<rect x="138.419" y="361.146" opacity="0.1" width="394" height="8"/>
<path fill="#E6E6E6" d="M362.419,216.899h-50c-2.75,0-4.887,2.247-4.748,4.994l4.498,89.512c0.138,2.747,2.5,4.994,5.25,4.994h40
	c2.751,0,5.113-2.247,5.251-4.994l4.498-89.512C367.307,219.146,365.17,216.899,362.419,216.899z M348.69,245.438h-22.542
	c-3.321,0-6.038-2.718-6.038-6.038s2.717-6.038,6.038-6.038h22.542c3.321,0,6.038,2.718,6.038,6.038S352.012,245.438,348.69,245.438
	z"/>
<g>
	<path fill="#D9D9D9" d="M326.148,233.361h22.542c2.8,0,5.162,1.935,5.839,4.531c0.124-0.479,0.199-0.977,0.199-1.493
		c0-3.32-2.717-6.038-6.038-6.038h-22.542c-3.321,0-6.038,2.718-6.038,6.038c0,0.517,0.074,1.015,0.198,1.493
		C320.984,235.296,323.349,233.361,326.148,233.361z"/>
	<path fill="#D9D9D9" d="M357.67,306.405c-0.138,2.747-2.5,4.994-5.251,4.994h-30c-2.75,0-5.112-2.247-5.25-4.994l-9.322-85.992
		c-0.125,0.471-0.202,0.962-0.176,1.48l4.498,89.512c0.138,2.747,2.5,4.994,5.25,4.994h40c2.751,0,5.113-2.247,5.251-4.994
		l4.498-89.512c0.025-0.519-0.051-1.01-0.176-1.48L357.67,306.405z"/>
</g>
<polygon opacity="0.2" points="347.578,237.14 330.519,237.14 342.204,216.899 335.896,216.899 324.213,237.14 320.561,237.14 
	320.468,237.495 322.665,241.302 349.983,241.302 "/>
<polygon opacity="0.1" points="354.615,237.14 327.299,237.14 324.896,241.302 352.213,241.302 "/>
<path fill="#A5D49D" d="M503.688,730.145H167.15c-15.802,0-28.731-13.396-28.731-29.77v5c0,16.374,12.93,29.77,28.731,29.77h336.538
	c15.802,0,28.73-13.396,28.73-29.77v-5C532.419,716.749,519.49,730.145,503.688,730.145z"/>
<path fill="#CFE7CD" d="M532.419,334.914v365.461c0,16.374-12.929,29.77-28.73,29.77H167.15c-15.802,0-28.731-13.396-28.731-29.77
	V334.914H532.419z"/>
<path fill="#FFFFFF" d="M522.307,344.646v349.49c0,15.681-12.83,28.509-28.508,28.509H177.038
	c-15.679,0-28.508-12.828-28.508-28.509v-349.49H522.307z"/>
<path fill="#FAFAFA" d="M522.307,344.646v349.49c0,15.681-12.83,28.509-28.508,28.509H177.038
	c-15.679,0-28.508-12.411-28.508-28.509L522.307,344.646z"/>
<path fill="#AEDCD1" d="M503.688,271.562H167.15c-15.802,0-28.731,13.396-28.731,29.77v59.814h394v-59.814
	C532.419,284.958,519.49,271.562,503.688,271.562z M363.419,330.399h-56c-8.25,0-15-6.75-15-15s6.75-15,15-15h56
	c8.251,0,15,6.75,15,15S371.67,330.399,363.419,330.399z"/>
<g>
	<rect x="138.419" y="353.146" fill="#8BCFBC" width="394" height="8"/>
	<path fill="#499480" d="M363.419,297.354h-56c-7.403,0-13.582,5.44-14.775,12.519c0.09,0.517,0.198,1.028,0.338,1.527
		c1.764-6.321,7.574-11,14.438-11h56c6.864,0,12.675,4.679,14.438,11c0.14-0.499,0.247-1.01,0.336-1.526
		C377.002,302.796,370.823,297.354,363.419,297.354z"/>
</g>
<rect x="138.419" y="361.146" opacity="0.05" width="394" height="8"/>
<path fill="#E6E6E6" d="M362.419,216.899h-50c-2.75,0-4.887,2.247-4.748,4.994l4.498,89.512c0.138,2.747,2.5,4.994,5.25,4.994h40
	c2.751,0,5.113-2.247,5.251-4.994l4.498-89.512C367.307,219.146,365.17,216.899,362.419,216.899z M348.69,245.438h-22.542
	c-3.321,0-6.038-2.718-6.038-6.038s2.717-6.038,6.038-6.038h22.542c3.321,0,6.038,2.718,6.038,6.038S352.012,245.438,348.69,245.438
	z"/>
<g>
	<path fill="#D9D9D9" d="M326.148,233.361h22.542c2.8,0,5.162,1.935,5.839,4.531c0.124-0.479,0.199-0.977,0.199-1.493
		c0-3.32-2.717-6.038-6.038-6.038h-22.542c-3.321,0-6.038,2.718-6.038,6.038c0,0.517,0.074,1.015,0.198,1.493
		C320.984,235.296,323.349,233.361,326.148,233.361z"/>
	<path fill="#D9D9D9" d="M357.67,306.405c-0.138,2.747-2.5,4.994-5.251,4.994h-30c-2.75,0-5.112-2.247-5.25-4.994l-9.322-85.992
		c-0.125,0.471-0.202,0.962-0.176,1.48l4.498,89.512c0.138,2.747,2.5,4.994,5.25,4.994h40c2.751,0,5.113-2.247,5.251-4.994
		l4.498-89.512c0.025-0.519-0.051-1.01-0.176-1.48L357.67,306.405z"/>
</g>
<polygon opacity="0.2" points="348.023,236.751 329.374,236.751 340.866,216.899 333.971,216.899 322.479,236.751 320.829,236.751 
	320.309,237.893 320.11,240.128 320.788,241.302 350.653,241.302 "/>
<path fill="#7575FF" d="M350.652,241.302h2.438L460.017,56.101c-0.252-0.87-0.583-1.72-0.964-2.554L350.652,241.302z"/>
<path fill="#6A6AE8" d="M457.878,51.359L348.215,241.302h2.438l108.4-187.755C458.711,52.798,458.324,52.066,457.878,51.359z"/>
<path fill="#7575FF" d="M456.529,49.469L345.774,241.302h2.44L457.878,51.359C457.469,50.71,457.026,50.075,456.529,49.469z"/>
<path fill="#6A6AE8" d="M455.288,48.096c-0.085-0.085-0.179-0.156-0.266-0.239L343.337,241.302h2.438L456.529,49.469
	C456.142,48.997,455.729,48.537,455.288,48.096z"/>
<polygon fill="#6A6AE8" points="610.912,-217.929 610.454,-218.192 610.912,-217.929 "/>
<path fill="#7575FF" d="M453.39,46.461L340.898,241.302h2.438L455.022,47.856C454.5,47.353,453.954,46.892,453.39,46.461z"/>
<path fill="#6A6AE8" d="M451.638,45.277L338.463,241.302h2.436L453.39,46.461C452.823,46.028,452.239,45.636,451.638,45.277z"/>
<path fill="#7575FF" d="M449.765,44.298l-113.74,197.004h2.438L451.638,45.277C451.028,44.913,450.403,44.586,449.765,44.298z"/>
<path fill="#6A6AE8" d="M447.772,43.526L333.586,241.302h2.438l113.74-197.004C449.111,44.003,448.448,43.742,447.772,43.526z"/>
<path fill="#7575FF" d="M445.653,42.971L331.146,241.302h2.439L447.772,43.526C447.074,43.304,446.369,43.108,445.653,42.971z"/>
<path fill="#6A6AE8" d="M443.379,42.69L328.711,241.302h2.436L445.653,42.971C444.901,42.825,444.141,42.743,443.379,42.69z"/>
<path fill="#7575FF" d="M440.945,42.684L326.273,241.302h2.438L443.379,42.69C442.568,42.635,441.756,42.634,440.945,42.684z"/>
<path fill="#6A6AE8" d="M437.604,43.195L323.227,241.302h3.047L440.945,42.684C439.82,42.752,438.703,42.924,437.604,43.195z"/>
<polygon opacity="0.1" points="355.717,236.751 325.853,236.751 323.227,241.302 353.091,241.302 "/>
<g>
	<path fill="#E6E6FF" d="M477.147,663.843c0,9.198-7.525,16.724-16.724,16.724H210.413c-9.197,0-16.723-7.525-16.723-16.724V413.831
		c0-9.198,7.525-16.724,16.723-16.724h250.011c9.198,0,16.724,7.525,16.724,16.724V663.843z"/>
	<g>
		<path fill="#7575FF" d="M416.913,640.997c-9.8-3.493-23.85-4.71-32.812-6.686c-5.164-1.14-12.683-4.023-15.186-6.987
			c-2.51-3.037-0.988-31.062-0.988-31.062s4.63-7.291,7.139-13.671c2.507-6.381,5.24-23.85,5.24-23.85s5.165,0,6.987-9.036
			c1.975-9.874,5.014-13.976,4.634-21.343c-0.381-6.837-3.951-7.215-4.329-7.215l0,0c0,0,3.719-10.331,4.252-32.203
			c0.607-25.898-19.214-51.418-56.431-51.418s-56.962,25.443-56.43,51.342c0.454,21.799,4.254,32.203,4.254,32.203l0,0
			c-0.382,0-3.952,0.38-4.331,7.214c-0.38,7.368,2.735,11.318,4.633,21.191c1.823,9.038,6.987,9.114,6.987,9.114
			s2.734,17.545,5.242,23.924c2.505,6.456,7.138,13.672,7.138,13.672s1.52,28.024-0.988,31.062
			c-2.505,3.04-10.023,5.849-15.188,6.988c-9.038,1.974-23.017,3.268-32.81,6.761c-9.801,3.493-40.027,15.266-40.027,39.569h121.52
			h121.521C456.939,656.263,426.711,644.49,416.913,640.997z"/>
	</g>
</g>
</svg>
