<?xml version="1.0" encoding="UTF-8" standalone="no"?>
<!-- Generator: Adobe Illustrator 16.0.4, SVG Export Plug-In . SVG Version: 6.00 Build 0)  -->

<svg
   xmlns:dc="http://purl.org/dc/elements/1.1/"
   xmlns:cc="http://creativecommons.org/ns#"
   xmlns:rdf="http://www.w3.org/1999/02/22-rdf-syntax-ns#"
   xmlns:svg="http://www.w3.org/2000/svg"
   xmlns="http://www.w3.org/2000/svg"
   xmlns:sodipodi="http://sodipodi.sourceforge.net/DTD/sodipodi-0.dtd"
   xmlns:inkscape="http://www.inkscape.org/namespaces/inkscape"
   version="1.1"
   id="Layer_1"
   x="0px"
   y="0px"
   width="512px"
   height="512px"
   viewBox="0 0 512 512"
   enable-background="new 0 0 512 512"
   xml:space="preserve"
   inkscape:version="0.91 r13725"
   sodipodi:docname="erpnext-v5.svg"><metadata
     id="metadata45"><rdf:RDF><cc:Work
         rdf:about=""><dc:format>image/svg+xml</dc:format><dc:type
           rdf:resource="http://purl.org/dc/dcmitype/StillImage" /><dc:title /></cc:Work></rdf:RDF></metadata><defs
     id="defs43" /><sodipodi:namedview
     pagecolor="#ffffff"
     bordercolor="#666666"
     borderopacity="1"
     objecttolerance="10"
     gridtolerance="10"
     guidetolerance="10"
     inkscape:pageopacity="0"
     inkscape:pageshadow="2"
     inkscape:window-width="936"
     inkscape:window-height="687"
     id="namedview41"
     showgrid="false"
     inkscape:zoom="0.32593203"
     inkscape:cx="392.43801"
     inkscape:cy="256"
     inkscape:window-x="0"
     inkscape:window-y="0"
     inkscape:window-maximized="0"
     inkscape:current-layer="Layer_1"
     showguides="true"
     inkscape:guide-bbox="true" /><g
     id="g3"><path
       fill="#7574FF"
       d="M512,448c0,35.2-28.8,64-64,64H64c-35.2,0-64-28.8-64-64V64C0,28.8,28.8,0,64,0h384c35.2,0,64,28.8,64,64   V448z"
       id="path5" /></g><g
     id="g11" /><g
     id="g13" /><g
     id="g15" /><g
     id="g17" /><g
     id="g19" /><g
     id="g21" /><g
     id="g23" /><g
     id="g25" /><g
     id="g27" /><g
     id="g29" /><g
     id="g31" /><g
     id="g33" /><g
     id="g35" /><g
     id="g37" /><g
     id="g39" /><g
     transform="translate(141.01695,-49.898305)"
     style="font-style:normal;font-weight:normal;font-size:455px;line-height:125%;font-family:Sans;letter-spacing:0px;word-spacing:0px;fill:#000000;fill-opacity:1;stroke:none;stroke-width:1px;stroke-linecap:butt;stroke-linejoin:miter;stroke-opacity:1"
     id="flowRoot3367"><path
       d="m 11.774902,396.06142 q 0,-7.10937 5.332032,-13.10791 5.332031,-6.2207 10.664062,-8.66455 5.554199,-2.66601 6.442871,-1.33301 12.663574,20.66163 33.769531,32.21436 21.105957,11.55273 48.876952,11.55273 32.43652,0 51.54297,-15.77392 19.10645,-15.99609 19.10645,-42.65625 0,-26.66016 -17.55127,-41.76758 -17.55127,-15.10742 -48.87696,-15.10742 -41.101071,0 -68.649899,20.21728 -28.881836,-1.99951 -28.881836,-29.104 l 0,-111.97266 q 0,-11.99707 6.442871,-19.10644 6.442871,-7.33154 17.773437,-7.33154 l 147.963867,0 q 21.77246,0 21.77246,19.10644 l 0,2.22168 q 0,18.66211 -21.77246,18.66211 l -130.634765,0 0,84.20166 q 29.104004,-13.10791 60.429685,-13.10791 47.98828,0 76.64795,25.10498 28.88184,25.10498 28.88184,67.53906 0,44.21143 -30.88135,70.42725 -30.65918,26.21582 -83.31299,26.21582 -45.100096,0 -75.092772,-18.88428 -29.992676,-18.88428 -29.992676,-39.5459 z"
       style="font-style:normal;font-variant:normal;font-weight:500;font-stretch:normal;font-size:455px;font-family:Omnes;-inkscape-font-specification:'Omnes Medium';fill:#ffffff;fill-opacity:1"
       id="path4154" /></g></svg>